M48
; DRILL file {KiCad 9.0.7} date 2026-02-10T10:50:10-0500
; FORMAT={-:-/ absolute / metric / decimal}
; #@! TF.CreationDate,2026-02-10T10:50:10-05:00
; #@! TF.GenerationSoftware,Kicad,Pcbnew,9.0.7
; #@! TF.FileFunction,Plated,1,2,PTH
FMAT,2
METRIC
; #@! TA.AperFunction,Plated,PTH,ViaDrill
T1C0.400
; #@! TA.AperFunction,Plated,PTH,ComponentDrill
T2C0.700
; #@! TA.AperFunction,Plated,PTH,ComponentDrill
T3C0.780
; #@! TA.AperFunction,Plated,PTH,ComponentDrill
T4C0.800
; #@! TA.AperFunction,Plated,PTH,ComponentDrill
T5C0.900
; #@! TA.AperFunction,Plated,PTH,ComponentDrill
T6C0.950
; #@! TA.AperFunction,Plated,PTH,ComponentDrill
T7C1.000
; #@! TA.AperFunction,Plated,PTH,ComponentDrill
T8C1.194
; #@! TA.AperFunction,Plated,PTH,ComponentDrill
T9C2.210
%
G90
G05
T1
X77.678Y-148.653
X78.825Y-116.797
X81.335Y-124.006
X81.822Y-150.988
X83.525Y-154.085
X83.56Y-145.13
X84.769Y-112.943
X84.769Y-119.085
X99.175Y-151.717
X99.626Y-147.963
X101.437Y-122.085
X101.482Y-119.213
X101.746Y-116.085
X102.609Y-145.122
X102.871Y-151.07
X103.238Y-116.085
X103.238Y-119.085
T2
X82.29Y-140.895
X83.782Y-107.88
X101.25Y-140.895
X103.75Y-107.355
T3
X69.28Y-147.085
X69.28Y-149.625
X69.28Y-152.165
X69.28Y-154.705
X71.042Y-115.275
X71.042Y-117.815
X71.042Y-120.355
X71.042Y-122.895
X77.22Y-147.085
X77.22Y-149.625
X77.22Y-152.165
X77.22Y-154.705
X78.982Y-115.275
X78.982Y-117.815
X78.982Y-120.355
X78.982Y-122.895
X88.35Y-147.315
X88.35Y-149.855
X88.35Y-152.395
X88.35Y-154.935
X89.82Y-115.275
X89.82Y-117.815
X89.82Y-120.355
X89.82Y-122.895
X96.29Y-147.315
X96.29Y-149.855
X96.29Y-152.395
X96.29Y-154.935
X97.76Y-115.275
X97.76Y-117.815
X97.76Y-120.355
X97.76Y-122.895
T4
X70.21Y-140.395
X72.21Y-108.895
X72.75Y-140.395
X74.75Y-108.895
X75.29Y-140.395
X77.29Y-108.895
X89.71Y-140.895
X91.21Y-108.895
X92.25Y-140.895
X93.75Y-108.895
X94.79Y-140.895
X96.29Y-108.895
T5
X86.25Y-89.63
X86.25Y-92.17
T6
X63.25Y-54.395
X63.25Y-56.895
X63.25Y-59.395
X63.25Y-61.895
X63.25Y-64.395
T7
X62.323Y-92.595
X62.323Y-95.135
X62.323Y-97.675
X62.323Y-100.215
X62.323Y-102.755
X62.323Y-105.295
X62.323Y-107.835
X62.323Y-110.375
X62.323Y-115.595
X62.323Y-118.135
X62.323Y-120.675
X62.323Y-123.215
X62.323Y-125.755
X62.323Y-128.295
X62.323Y-130.835
X62.323Y-133.375
X62.323Y-137.505
X62.323Y-140.045
X62.323Y-142.585
X62.323Y-145.125
X62.323Y-147.665
X62.323Y-150.205
X62.323Y-152.745
X62.323Y-155.285
X62.323Y-157.825
X62.323Y-160.365
X68.65Y-165.895
X71.15Y-165.895
X79.25Y-165.895
X81.75Y-165.895
X89.75Y-165.895
X92.25Y-165.895
X100.25Y-165.895
X102.75Y-165.895
X109.623Y-110.475
X109.623Y-113.015
X109.623Y-115.555
X109.623Y-118.095
X109.623Y-120.635
X109.623Y-123.175
X109.623Y-125.715
X109.623Y-128.255
X109.623Y-133.475
X109.623Y-136.015
X109.623Y-138.555
X109.623Y-141.095
X109.623Y-143.635
X109.623Y-146.175
X109.623Y-148.715
X109.623Y-151.255
X109.653Y-87.575
X109.653Y-90.115
X109.653Y-92.655
X109.653Y-95.195
X109.653Y-97.735
X109.653Y-100.275
X109.653Y-102.815
X109.653Y-105.355
T8
X69.67Y-72.035
X69.67Y-82.195
X79.83Y-72.035
X79.83Y-82.195
X84.386Y-72.035
X84.386Y-82.195
X94.546Y-72.035
X94.546Y-82.195
X99.102Y-72.035
X99.102Y-82.195
X109.262Y-72.035
X109.262Y-82.195
T9
X74.75Y-78.395
X89.466Y-78.395
X104.182Y-78.395
M30
