%TF.GenerationSoftware,KiCad,Pcbnew,9.0.7*%
%TF.CreationDate,2026-02-27T15:54:46-05:00*%
%TF.ProjectId,pcb,7063622e-6b69-4636-9164-5f7063625858,rev?*%
%TF.SameCoordinates,Original*%
%TF.FileFunction,AssemblyDrawing,Bot*%
%FSLAX46Y46*%
G04 Gerber Fmt 4.6, Leading zero omitted, Abs format (unit mm)*
G04 Created by KiCad (PCBNEW 9.0.7) date 2026-02-27 15:54:46*
%MOMM*%
%LPD*%
G01*
G04 APERTURE LIST*
%ADD10C,0.150000*%
%ADD11C,0.100000*%
G04 APERTURE END LIST*
D10*
X131701552Y-57231887D02*
X132701552Y-57231887D01*
X131749171Y-57231887D02*
X131701552Y-57327125D01*
X131701552Y-57327125D02*
X131701552Y-57517601D01*
X131701552Y-57517601D02*
X131749171Y-57612839D01*
X131749171Y-57612839D02*
X131796790Y-57660458D01*
X131796790Y-57660458D02*
X131892028Y-57708077D01*
X131892028Y-57708077D02*
X132177742Y-57708077D01*
X132177742Y-57708077D02*
X132272980Y-57660458D01*
X132272980Y-57660458D02*
X132320600Y-57612839D01*
X132320600Y-57612839D02*
X132368219Y-57517601D01*
X132368219Y-57517601D02*
X132368219Y-57327125D01*
X132368219Y-57327125D02*
X132320600Y-57231887D01*
X131701552Y-58041411D02*
X132368219Y-58231887D01*
X132368219Y-58231887D02*
X131892028Y-58422363D01*
X131892028Y-58422363D02*
X132368219Y-58612839D01*
X132368219Y-58612839D02*
X131701552Y-58803315D01*
X132368219Y-59184268D02*
X131701552Y-59184268D01*
X131796790Y-59184268D02*
X131749171Y-59231887D01*
X131749171Y-59231887D02*
X131701552Y-59327125D01*
X131701552Y-59327125D02*
X131701552Y-59469982D01*
X131701552Y-59469982D02*
X131749171Y-59565220D01*
X131749171Y-59565220D02*
X131844409Y-59612839D01*
X131844409Y-59612839D02*
X132368219Y-59612839D01*
X131844409Y-59612839D02*
X131749171Y-59660458D01*
X131749171Y-59660458D02*
X131701552Y-59755696D01*
X131701552Y-59755696D02*
X131701552Y-59898553D01*
X131701552Y-59898553D02*
X131749171Y-59993792D01*
X131749171Y-59993792D02*
X131844409Y-60041411D01*
X131844409Y-60041411D02*
X132368219Y-60041411D01*
X132368219Y-61041410D02*
X132368219Y-60469982D01*
X132368219Y-60755696D02*
X131368219Y-60755696D01*
X131368219Y-60755696D02*
X131511076Y-60660458D01*
X131511076Y-60660458D02*
X131606314Y-60565220D01*
X131606314Y-60565220D02*
X131653933Y-60469982D01*
X79909524Y-66159580D02*
X79957143Y-66207200D01*
X79957143Y-66207200D02*
X80100000Y-66254819D01*
X80100000Y-66254819D02*
X80195238Y-66254819D01*
X80195238Y-66254819D02*
X80338095Y-66207200D01*
X80338095Y-66207200D02*
X80433333Y-66111961D01*
X80433333Y-66111961D02*
X80480952Y-66016723D01*
X80480952Y-66016723D02*
X80528571Y-65826247D01*
X80528571Y-65826247D02*
X80528571Y-65683390D01*
X80528571Y-65683390D02*
X80480952Y-65492914D01*
X80480952Y-65492914D02*
X80433333Y-65397676D01*
X80433333Y-65397676D02*
X80338095Y-65302438D01*
X80338095Y-65302438D02*
X80195238Y-65254819D01*
X80195238Y-65254819D02*
X80100000Y-65254819D01*
X80100000Y-65254819D02*
X79957143Y-65302438D01*
X79957143Y-65302438D02*
X79909524Y-65350057D01*
X79338095Y-66254819D02*
X79433333Y-66207200D01*
X79433333Y-66207200D02*
X79480952Y-66159580D01*
X79480952Y-66159580D02*
X79528571Y-66064342D01*
X79528571Y-66064342D02*
X79528571Y-65778628D01*
X79528571Y-65778628D02*
X79480952Y-65683390D01*
X79480952Y-65683390D02*
X79433333Y-65635771D01*
X79433333Y-65635771D02*
X79338095Y-65588152D01*
X79338095Y-65588152D02*
X79195238Y-65588152D01*
X79195238Y-65588152D02*
X79100000Y-65635771D01*
X79100000Y-65635771D02*
X79052381Y-65683390D01*
X79052381Y-65683390D02*
X79004762Y-65778628D01*
X79004762Y-65778628D02*
X79004762Y-66064342D01*
X79004762Y-66064342D02*
X79052381Y-66159580D01*
X79052381Y-66159580D02*
X79100000Y-66207200D01*
X79100000Y-66207200D02*
X79195238Y-66254819D01*
X79195238Y-66254819D02*
X79338095Y-66254819D01*
X78576190Y-65588152D02*
X78576190Y-66254819D01*
X78576190Y-65683390D02*
X78528571Y-65635771D01*
X78528571Y-65635771D02*
X78433333Y-65588152D01*
X78433333Y-65588152D02*
X78290476Y-65588152D01*
X78290476Y-65588152D02*
X78195238Y-65635771D01*
X78195238Y-65635771D02*
X78147619Y-65731009D01*
X78147619Y-65731009D02*
X78147619Y-66254819D01*
X77671428Y-65588152D02*
X77671428Y-66254819D01*
X77671428Y-65683390D02*
X77623809Y-65635771D01*
X77623809Y-65635771D02*
X77528571Y-65588152D01*
X77528571Y-65588152D02*
X77385714Y-65588152D01*
X77385714Y-65588152D02*
X77290476Y-65635771D01*
X77290476Y-65635771D02*
X77242857Y-65731009D01*
X77242857Y-65731009D02*
X77242857Y-66254819D01*
X77004762Y-66350057D02*
X76242857Y-66350057D01*
X75814285Y-65254819D02*
X75719047Y-65254819D01*
X75719047Y-65254819D02*
X75623809Y-65302438D01*
X75623809Y-65302438D02*
X75576190Y-65350057D01*
X75576190Y-65350057D02*
X75528571Y-65445295D01*
X75528571Y-65445295D02*
X75480952Y-65635771D01*
X75480952Y-65635771D02*
X75480952Y-65873866D01*
X75480952Y-65873866D02*
X75528571Y-66064342D01*
X75528571Y-66064342D02*
X75576190Y-66159580D01*
X75576190Y-66159580D02*
X75623809Y-66207200D01*
X75623809Y-66207200D02*
X75719047Y-66254819D01*
X75719047Y-66254819D02*
X75814285Y-66254819D01*
X75814285Y-66254819D02*
X75909523Y-66207200D01*
X75909523Y-66207200D02*
X75957142Y-66159580D01*
X75957142Y-66159580D02*
X76004761Y-66064342D01*
X76004761Y-66064342D02*
X76052380Y-65873866D01*
X76052380Y-65873866D02*
X76052380Y-65635771D01*
X76052380Y-65635771D02*
X76004761Y-65445295D01*
X76004761Y-65445295D02*
X75957142Y-65350057D01*
X75957142Y-65350057D02*
X75909523Y-65302438D01*
X75909523Y-65302438D02*
X75814285Y-65254819D01*
X74528571Y-66254819D02*
X75099999Y-66254819D01*
X74814285Y-66254819D02*
X74814285Y-65254819D01*
X74814285Y-65254819D02*
X74909523Y-65397676D01*
X74909523Y-65397676D02*
X75004761Y-65492914D01*
X75004761Y-65492914D02*
X75099999Y-65540533D01*
X74195237Y-66254819D02*
X73671428Y-65588152D01*
X74195237Y-65588152D02*
X73671428Y-66254819D01*
X73099999Y-65254819D02*
X73004761Y-65254819D01*
X73004761Y-65254819D02*
X72909523Y-65302438D01*
X72909523Y-65302438D02*
X72861904Y-65350057D01*
X72861904Y-65350057D02*
X72814285Y-65445295D01*
X72814285Y-65445295D02*
X72766666Y-65635771D01*
X72766666Y-65635771D02*
X72766666Y-65873866D01*
X72766666Y-65873866D02*
X72814285Y-66064342D01*
X72814285Y-66064342D02*
X72861904Y-66159580D01*
X72861904Y-66159580D02*
X72909523Y-66207200D01*
X72909523Y-66207200D02*
X73004761Y-66254819D01*
X73004761Y-66254819D02*
X73099999Y-66254819D01*
X73099999Y-66254819D02*
X73195237Y-66207200D01*
X73195237Y-66207200D02*
X73242856Y-66159580D01*
X73242856Y-66159580D02*
X73290475Y-66064342D01*
X73290475Y-66064342D02*
X73338094Y-65873866D01*
X73338094Y-65873866D02*
X73338094Y-65635771D01*
X73338094Y-65635771D02*
X73290475Y-65445295D01*
X73290475Y-65445295D02*
X73242856Y-65350057D01*
X73242856Y-65350057D02*
X73195237Y-65302438D01*
X73195237Y-65302438D02*
X73099999Y-65254819D01*
X72195237Y-65683390D02*
X72290475Y-65635771D01*
X72290475Y-65635771D02*
X72338094Y-65588152D01*
X72338094Y-65588152D02*
X72385713Y-65492914D01*
X72385713Y-65492914D02*
X72385713Y-65445295D01*
X72385713Y-65445295D02*
X72338094Y-65350057D01*
X72338094Y-65350057D02*
X72290475Y-65302438D01*
X72290475Y-65302438D02*
X72195237Y-65254819D01*
X72195237Y-65254819D02*
X72004761Y-65254819D01*
X72004761Y-65254819D02*
X71909523Y-65302438D01*
X71909523Y-65302438D02*
X71861904Y-65350057D01*
X71861904Y-65350057D02*
X71814285Y-65445295D01*
X71814285Y-65445295D02*
X71814285Y-65492914D01*
X71814285Y-65492914D02*
X71861904Y-65588152D01*
X71861904Y-65588152D02*
X71909523Y-65635771D01*
X71909523Y-65635771D02*
X72004761Y-65683390D01*
X72004761Y-65683390D02*
X72195237Y-65683390D01*
X72195237Y-65683390D02*
X72290475Y-65731009D01*
X72290475Y-65731009D02*
X72338094Y-65778628D01*
X72338094Y-65778628D02*
X72385713Y-65873866D01*
X72385713Y-65873866D02*
X72385713Y-66064342D01*
X72385713Y-66064342D02*
X72338094Y-66159580D01*
X72338094Y-66159580D02*
X72290475Y-66207200D01*
X72290475Y-66207200D02*
X72195237Y-66254819D01*
X72195237Y-66254819D02*
X72004761Y-66254819D01*
X72004761Y-66254819D02*
X71909523Y-66207200D01*
X71909523Y-66207200D02*
X71861904Y-66159580D01*
X71861904Y-66159580D02*
X71814285Y-66064342D01*
X71814285Y-66064342D02*
X71814285Y-65873866D01*
X71814285Y-65873866D02*
X71861904Y-65778628D01*
X71861904Y-65778628D02*
X71909523Y-65731009D01*
X71909523Y-65731009D02*
X72004761Y-65683390D01*
X71623809Y-66350057D02*
X70861904Y-66350057D01*
X70623808Y-66254819D02*
X70623808Y-65254819D01*
X70623808Y-65254819D02*
X70242856Y-65254819D01*
X70242856Y-65254819D02*
X70147618Y-65302438D01*
X70147618Y-65302438D02*
X70099999Y-65350057D01*
X70099999Y-65350057D02*
X70052380Y-65445295D01*
X70052380Y-65445295D02*
X70052380Y-65588152D01*
X70052380Y-65588152D02*
X70099999Y-65683390D01*
X70099999Y-65683390D02*
X70147618Y-65731009D01*
X70147618Y-65731009D02*
X70242856Y-65778628D01*
X70242856Y-65778628D02*
X70623808Y-65778628D01*
X69623808Y-66254819D02*
X69623808Y-65588152D01*
X69623808Y-65254819D02*
X69671427Y-65302438D01*
X69671427Y-65302438D02*
X69623808Y-65350057D01*
X69623808Y-65350057D02*
X69576189Y-65302438D01*
X69576189Y-65302438D02*
X69623808Y-65254819D01*
X69623808Y-65254819D02*
X69623808Y-65350057D01*
X69147618Y-65588152D02*
X69147618Y-66254819D01*
X69147618Y-65683390D02*
X69099999Y-65635771D01*
X69099999Y-65635771D02*
X69004761Y-65588152D01*
X69004761Y-65588152D02*
X68861904Y-65588152D01*
X68861904Y-65588152D02*
X68766666Y-65635771D01*
X68766666Y-65635771D02*
X68719047Y-65731009D01*
X68719047Y-65731009D02*
X68719047Y-66254819D01*
X84401552Y-63278077D02*
X85401552Y-63278077D01*
X84449171Y-63278077D02*
X84401552Y-63373315D01*
X84401552Y-63373315D02*
X84401552Y-63563791D01*
X84401552Y-63563791D02*
X84449171Y-63659029D01*
X84449171Y-63659029D02*
X84496790Y-63706648D01*
X84496790Y-63706648D02*
X84592028Y-63754267D01*
X84592028Y-63754267D02*
X84877742Y-63754267D01*
X84877742Y-63754267D02*
X84972980Y-63706648D01*
X84972980Y-63706648D02*
X85020600Y-63659029D01*
X85020600Y-63659029D02*
X85068219Y-63563791D01*
X85068219Y-63563791D02*
X85068219Y-63373315D01*
X85068219Y-63373315D02*
X85020600Y-63278077D01*
X85068219Y-64325696D02*
X85020600Y-64230458D01*
X85020600Y-64230458D02*
X84972980Y-64182839D01*
X84972980Y-64182839D02*
X84877742Y-64135220D01*
X84877742Y-64135220D02*
X84592028Y-64135220D01*
X84592028Y-64135220D02*
X84496790Y-64182839D01*
X84496790Y-64182839D02*
X84449171Y-64230458D01*
X84449171Y-64230458D02*
X84401552Y-64325696D01*
X84401552Y-64325696D02*
X84401552Y-64468553D01*
X84401552Y-64468553D02*
X84449171Y-64563791D01*
X84449171Y-64563791D02*
X84496790Y-64611410D01*
X84496790Y-64611410D02*
X84592028Y-64659029D01*
X84592028Y-64659029D02*
X84877742Y-64659029D01*
X84877742Y-64659029D02*
X84972980Y-64611410D01*
X84972980Y-64611410D02*
X85020600Y-64563791D01*
X85020600Y-64563791D02*
X85068219Y-64468553D01*
X85068219Y-64468553D02*
X85068219Y-64325696D01*
X84401552Y-64992363D02*
X85068219Y-65182839D01*
X85068219Y-65182839D02*
X84592028Y-65373315D01*
X84592028Y-65373315D02*
X85068219Y-65563791D01*
X85068219Y-65563791D02*
X84401552Y-65754267D01*
X85020600Y-66516172D02*
X85068219Y-66420934D01*
X85068219Y-66420934D02*
X85068219Y-66230458D01*
X85068219Y-66230458D02*
X85020600Y-66135220D01*
X85020600Y-66135220D02*
X84925361Y-66087601D01*
X84925361Y-66087601D02*
X84544409Y-66087601D01*
X84544409Y-66087601D02*
X84449171Y-66135220D01*
X84449171Y-66135220D02*
X84401552Y-66230458D01*
X84401552Y-66230458D02*
X84401552Y-66420934D01*
X84401552Y-66420934D02*
X84449171Y-66516172D01*
X84449171Y-66516172D02*
X84544409Y-66563791D01*
X84544409Y-66563791D02*
X84639647Y-66563791D01*
X84639647Y-66563791D02*
X84734885Y-66087601D01*
X85068219Y-66992363D02*
X84401552Y-66992363D01*
X84592028Y-66992363D02*
X84496790Y-67039982D01*
X84496790Y-67039982D02*
X84449171Y-67087601D01*
X84449171Y-67087601D02*
X84401552Y-67182839D01*
X84401552Y-67182839D02*
X84401552Y-67278077D01*
X84163457Y-67563792D02*
X84115838Y-67611411D01*
X84115838Y-67611411D02*
X84068219Y-67706649D01*
X84068219Y-67706649D02*
X84068219Y-67944744D01*
X84068219Y-67944744D02*
X84115838Y-68039982D01*
X84115838Y-68039982D02*
X84163457Y-68087601D01*
X84163457Y-68087601D02*
X84258695Y-68135220D01*
X84258695Y-68135220D02*
X84353933Y-68135220D01*
X84353933Y-68135220D02*
X84496790Y-68087601D01*
X84496790Y-68087601D02*
X85068219Y-67516173D01*
X85068219Y-67516173D02*
X85068219Y-68135220D01*
X78909524Y-91159580D02*
X78957143Y-91207200D01*
X78957143Y-91207200D02*
X79100000Y-91254819D01*
X79100000Y-91254819D02*
X79195238Y-91254819D01*
X79195238Y-91254819D02*
X79338095Y-91207200D01*
X79338095Y-91207200D02*
X79433333Y-91111961D01*
X79433333Y-91111961D02*
X79480952Y-91016723D01*
X79480952Y-91016723D02*
X79528571Y-90826247D01*
X79528571Y-90826247D02*
X79528571Y-90683390D01*
X79528571Y-90683390D02*
X79480952Y-90492914D01*
X79480952Y-90492914D02*
X79433333Y-90397676D01*
X79433333Y-90397676D02*
X79338095Y-90302438D01*
X79338095Y-90302438D02*
X79195238Y-90254819D01*
X79195238Y-90254819D02*
X79100000Y-90254819D01*
X79100000Y-90254819D02*
X78957143Y-90302438D01*
X78957143Y-90302438D02*
X78909524Y-90350057D01*
X78338095Y-91254819D02*
X78433333Y-91207200D01*
X78433333Y-91207200D02*
X78480952Y-91159580D01*
X78480952Y-91159580D02*
X78528571Y-91064342D01*
X78528571Y-91064342D02*
X78528571Y-90778628D01*
X78528571Y-90778628D02*
X78480952Y-90683390D01*
X78480952Y-90683390D02*
X78433333Y-90635771D01*
X78433333Y-90635771D02*
X78338095Y-90588152D01*
X78338095Y-90588152D02*
X78195238Y-90588152D01*
X78195238Y-90588152D02*
X78100000Y-90635771D01*
X78100000Y-90635771D02*
X78052381Y-90683390D01*
X78052381Y-90683390D02*
X78004762Y-90778628D01*
X78004762Y-90778628D02*
X78004762Y-91064342D01*
X78004762Y-91064342D02*
X78052381Y-91159580D01*
X78052381Y-91159580D02*
X78100000Y-91207200D01*
X78100000Y-91207200D02*
X78195238Y-91254819D01*
X78195238Y-91254819D02*
X78338095Y-91254819D01*
X77576190Y-90588152D02*
X77576190Y-91254819D01*
X77576190Y-90683390D02*
X77528571Y-90635771D01*
X77528571Y-90635771D02*
X77433333Y-90588152D01*
X77433333Y-90588152D02*
X77290476Y-90588152D01*
X77290476Y-90588152D02*
X77195238Y-90635771D01*
X77195238Y-90635771D02*
X77147619Y-90731009D01*
X77147619Y-90731009D02*
X77147619Y-91254819D01*
X76671428Y-90588152D02*
X76671428Y-91254819D01*
X76671428Y-90683390D02*
X76623809Y-90635771D01*
X76623809Y-90635771D02*
X76528571Y-90588152D01*
X76528571Y-90588152D02*
X76385714Y-90588152D01*
X76385714Y-90588152D02*
X76290476Y-90635771D01*
X76290476Y-90635771D02*
X76242857Y-90731009D01*
X76242857Y-90731009D02*
X76242857Y-91254819D01*
X76004762Y-91350057D02*
X75242857Y-91350057D01*
X74814285Y-90254819D02*
X74719047Y-90254819D01*
X74719047Y-90254819D02*
X74623809Y-90302438D01*
X74623809Y-90302438D02*
X74576190Y-90350057D01*
X74576190Y-90350057D02*
X74528571Y-90445295D01*
X74528571Y-90445295D02*
X74480952Y-90635771D01*
X74480952Y-90635771D02*
X74480952Y-90873866D01*
X74480952Y-90873866D02*
X74528571Y-91064342D01*
X74528571Y-91064342D02*
X74576190Y-91159580D01*
X74576190Y-91159580D02*
X74623809Y-91207200D01*
X74623809Y-91207200D02*
X74719047Y-91254819D01*
X74719047Y-91254819D02*
X74814285Y-91254819D01*
X74814285Y-91254819D02*
X74909523Y-91207200D01*
X74909523Y-91207200D02*
X74957142Y-91159580D01*
X74957142Y-91159580D02*
X75004761Y-91064342D01*
X75004761Y-91064342D02*
X75052380Y-90873866D01*
X75052380Y-90873866D02*
X75052380Y-90635771D01*
X75052380Y-90635771D02*
X75004761Y-90445295D01*
X75004761Y-90445295D02*
X74957142Y-90350057D01*
X74957142Y-90350057D02*
X74909523Y-90302438D01*
X74909523Y-90302438D02*
X74814285Y-90254819D01*
X73528571Y-91254819D02*
X74099999Y-91254819D01*
X73814285Y-91254819D02*
X73814285Y-90254819D01*
X73814285Y-90254819D02*
X73909523Y-90397676D01*
X73909523Y-90397676D02*
X74004761Y-90492914D01*
X74004761Y-90492914D02*
X74099999Y-90540533D01*
X73195237Y-91254819D02*
X72671428Y-90588152D01*
X73195237Y-90588152D02*
X72671428Y-91254819D01*
X72099999Y-90254819D02*
X72004761Y-90254819D01*
X72004761Y-90254819D02*
X71909523Y-90302438D01*
X71909523Y-90302438D02*
X71861904Y-90350057D01*
X71861904Y-90350057D02*
X71814285Y-90445295D01*
X71814285Y-90445295D02*
X71766666Y-90635771D01*
X71766666Y-90635771D02*
X71766666Y-90873866D01*
X71766666Y-90873866D02*
X71814285Y-91064342D01*
X71814285Y-91064342D02*
X71861904Y-91159580D01*
X71861904Y-91159580D02*
X71909523Y-91207200D01*
X71909523Y-91207200D02*
X72004761Y-91254819D01*
X72004761Y-91254819D02*
X72099999Y-91254819D01*
X72099999Y-91254819D02*
X72195237Y-91207200D01*
X72195237Y-91207200D02*
X72242856Y-91159580D01*
X72242856Y-91159580D02*
X72290475Y-91064342D01*
X72290475Y-91064342D02*
X72338094Y-90873866D01*
X72338094Y-90873866D02*
X72338094Y-90635771D01*
X72338094Y-90635771D02*
X72290475Y-90445295D01*
X72290475Y-90445295D02*
X72242856Y-90350057D01*
X72242856Y-90350057D02*
X72195237Y-90302438D01*
X72195237Y-90302438D02*
X72099999Y-90254819D01*
X71195237Y-90683390D02*
X71290475Y-90635771D01*
X71290475Y-90635771D02*
X71338094Y-90588152D01*
X71338094Y-90588152D02*
X71385713Y-90492914D01*
X71385713Y-90492914D02*
X71385713Y-90445295D01*
X71385713Y-90445295D02*
X71338094Y-90350057D01*
X71338094Y-90350057D02*
X71290475Y-90302438D01*
X71290475Y-90302438D02*
X71195237Y-90254819D01*
X71195237Y-90254819D02*
X71004761Y-90254819D01*
X71004761Y-90254819D02*
X70909523Y-90302438D01*
X70909523Y-90302438D02*
X70861904Y-90350057D01*
X70861904Y-90350057D02*
X70814285Y-90445295D01*
X70814285Y-90445295D02*
X70814285Y-90492914D01*
X70814285Y-90492914D02*
X70861904Y-90588152D01*
X70861904Y-90588152D02*
X70909523Y-90635771D01*
X70909523Y-90635771D02*
X71004761Y-90683390D01*
X71004761Y-90683390D02*
X71195237Y-90683390D01*
X71195237Y-90683390D02*
X71290475Y-90731009D01*
X71290475Y-90731009D02*
X71338094Y-90778628D01*
X71338094Y-90778628D02*
X71385713Y-90873866D01*
X71385713Y-90873866D02*
X71385713Y-91064342D01*
X71385713Y-91064342D02*
X71338094Y-91159580D01*
X71338094Y-91159580D02*
X71290475Y-91207200D01*
X71290475Y-91207200D02*
X71195237Y-91254819D01*
X71195237Y-91254819D02*
X71004761Y-91254819D01*
X71004761Y-91254819D02*
X70909523Y-91207200D01*
X70909523Y-91207200D02*
X70861904Y-91159580D01*
X70861904Y-91159580D02*
X70814285Y-91064342D01*
X70814285Y-91064342D02*
X70814285Y-90873866D01*
X70814285Y-90873866D02*
X70861904Y-90778628D01*
X70861904Y-90778628D02*
X70909523Y-90731009D01*
X70909523Y-90731009D02*
X71004761Y-90683390D01*
X70623809Y-91350057D02*
X69861904Y-91350057D01*
X69623808Y-91254819D02*
X69623808Y-90254819D01*
X69623808Y-90254819D02*
X69242856Y-90254819D01*
X69242856Y-90254819D02*
X69147618Y-90302438D01*
X69147618Y-90302438D02*
X69099999Y-90350057D01*
X69099999Y-90350057D02*
X69052380Y-90445295D01*
X69052380Y-90445295D02*
X69052380Y-90588152D01*
X69052380Y-90588152D02*
X69099999Y-90683390D01*
X69099999Y-90683390D02*
X69147618Y-90731009D01*
X69147618Y-90731009D02*
X69242856Y-90778628D01*
X69242856Y-90778628D02*
X69623808Y-90778628D01*
X68623808Y-91254819D02*
X68623808Y-90588152D01*
X68623808Y-90254819D02*
X68671427Y-90302438D01*
X68671427Y-90302438D02*
X68623808Y-90350057D01*
X68623808Y-90350057D02*
X68576189Y-90302438D01*
X68576189Y-90302438D02*
X68623808Y-90254819D01*
X68623808Y-90254819D02*
X68623808Y-90350057D01*
X68147618Y-90588152D02*
X68147618Y-91254819D01*
X68147618Y-90683390D02*
X68099999Y-90635771D01*
X68099999Y-90635771D02*
X68004761Y-90588152D01*
X68004761Y-90588152D02*
X67861904Y-90588152D01*
X67861904Y-90588152D02*
X67766666Y-90635771D01*
X67766666Y-90635771D02*
X67719047Y-90731009D01*
X67719047Y-90731009D02*
X67719047Y-91254819D01*
X85068219Y-84397124D02*
X84544409Y-84397124D01*
X84544409Y-84397124D02*
X84449171Y-84349505D01*
X84449171Y-84349505D02*
X84401552Y-84254267D01*
X84401552Y-84254267D02*
X84401552Y-84063791D01*
X84401552Y-84063791D02*
X84449171Y-83968553D01*
X85020600Y-84397124D02*
X85068219Y-84301886D01*
X85068219Y-84301886D02*
X85068219Y-84063791D01*
X85068219Y-84063791D02*
X85020600Y-83968553D01*
X85020600Y-83968553D02*
X84925361Y-83920934D01*
X84925361Y-83920934D02*
X84830123Y-83920934D01*
X84830123Y-83920934D02*
X84734885Y-83968553D01*
X84734885Y-83968553D02*
X84687266Y-84063791D01*
X84687266Y-84063791D02*
X84687266Y-84301886D01*
X84687266Y-84301886D02*
X84639647Y-84397124D01*
X84401552Y-84873315D02*
X85068219Y-84873315D01*
X84496790Y-84873315D02*
X84449171Y-84920934D01*
X84449171Y-84920934D02*
X84401552Y-85016172D01*
X84401552Y-85016172D02*
X84401552Y-85159029D01*
X84401552Y-85159029D02*
X84449171Y-85254267D01*
X84449171Y-85254267D02*
X84544409Y-85301886D01*
X84544409Y-85301886D02*
X85068219Y-85301886D01*
X85068219Y-86206648D02*
X84544409Y-86206648D01*
X84544409Y-86206648D02*
X84449171Y-86159029D01*
X84449171Y-86159029D02*
X84401552Y-86063791D01*
X84401552Y-86063791D02*
X84401552Y-85873315D01*
X84401552Y-85873315D02*
X84449171Y-85778077D01*
X85020600Y-86206648D02*
X85068219Y-86111410D01*
X85068219Y-86111410D02*
X85068219Y-85873315D01*
X85068219Y-85873315D02*
X85020600Y-85778077D01*
X85020600Y-85778077D02*
X84925361Y-85730458D01*
X84925361Y-85730458D02*
X84830123Y-85730458D01*
X84830123Y-85730458D02*
X84734885Y-85778077D01*
X84734885Y-85778077D02*
X84687266Y-85873315D01*
X84687266Y-85873315D02*
X84687266Y-86111410D01*
X84687266Y-86111410D02*
X84639647Y-86206648D01*
X85068219Y-86825696D02*
X85020600Y-86730458D01*
X85020600Y-86730458D02*
X84925361Y-86682839D01*
X84925361Y-86682839D02*
X84068219Y-86682839D01*
X85068219Y-87349506D02*
X85020600Y-87254268D01*
X85020600Y-87254268D02*
X84972980Y-87206649D01*
X84972980Y-87206649D02*
X84877742Y-87159030D01*
X84877742Y-87159030D02*
X84592028Y-87159030D01*
X84592028Y-87159030D02*
X84496790Y-87206649D01*
X84496790Y-87206649D02*
X84449171Y-87254268D01*
X84449171Y-87254268D02*
X84401552Y-87349506D01*
X84401552Y-87349506D02*
X84401552Y-87492363D01*
X84401552Y-87492363D02*
X84449171Y-87587601D01*
X84449171Y-87587601D02*
X84496790Y-87635220D01*
X84496790Y-87635220D02*
X84592028Y-87682839D01*
X84592028Y-87682839D02*
X84877742Y-87682839D01*
X84877742Y-87682839D02*
X84972980Y-87635220D01*
X84972980Y-87635220D02*
X85020600Y-87587601D01*
X85020600Y-87587601D02*
X85068219Y-87492363D01*
X85068219Y-87492363D02*
X85068219Y-87349506D01*
X84401552Y-88539982D02*
X85211076Y-88539982D01*
X85211076Y-88539982D02*
X85306314Y-88492363D01*
X85306314Y-88492363D02*
X85353933Y-88444744D01*
X85353933Y-88444744D02*
X85401552Y-88349506D01*
X85401552Y-88349506D02*
X85401552Y-88206649D01*
X85401552Y-88206649D02*
X85353933Y-88111411D01*
X85020600Y-88539982D02*
X85068219Y-88444744D01*
X85068219Y-88444744D02*
X85068219Y-88254268D01*
X85068219Y-88254268D02*
X85020600Y-88159030D01*
X85020600Y-88159030D02*
X84972980Y-88111411D01*
X84972980Y-88111411D02*
X84877742Y-88063792D01*
X84877742Y-88063792D02*
X84592028Y-88063792D01*
X84592028Y-88063792D02*
X84496790Y-88111411D01*
X84496790Y-88111411D02*
X84449171Y-88159030D01*
X84449171Y-88159030D02*
X84401552Y-88254268D01*
X84401552Y-88254268D02*
X84401552Y-88444744D01*
X84401552Y-88444744D02*
X84449171Y-88539982D01*
X84782504Y-88968554D02*
X84782504Y-89444744D01*
X85068219Y-88873316D02*
X84068219Y-89206649D01*
X84068219Y-89206649D02*
X85068219Y-89539982D01*
X84068219Y-90063792D02*
X84068219Y-90159030D01*
X84068219Y-90159030D02*
X84115838Y-90254268D01*
X84115838Y-90254268D02*
X84163457Y-90301887D01*
X84163457Y-90301887D02*
X84258695Y-90349506D01*
X84258695Y-90349506D02*
X84449171Y-90397125D01*
X84449171Y-90397125D02*
X84687266Y-90397125D01*
X84687266Y-90397125D02*
X84877742Y-90349506D01*
X84877742Y-90349506D02*
X84972980Y-90301887D01*
X84972980Y-90301887D02*
X85020600Y-90254268D01*
X85020600Y-90254268D02*
X85068219Y-90159030D01*
X85068219Y-90159030D02*
X85068219Y-90063792D01*
X85068219Y-90063792D02*
X85020600Y-89968554D01*
X85020600Y-89968554D02*
X84972980Y-89920935D01*
X84972980Y-89920935D02*
X84877742Y-89873316D01*
X84877742Y-89873316D02*
X84687266Y-89825697D01*
X84687266Y-89825697D02*
X84449171Y-89825697D01*
X84449171Y-89825697D02*
X84258695Y-89873316D01*
X84258695Y-89873316D02*
X84163457Y-89920935D01*
X84163457Y-89920935D02*
X84115838Y-89968554D01*
X84115838Y-89968554D02*
X84068219Y-90063792D01*
X84687266Y-90825697D02*
X84687266Y-91587602D01*
X84782504Y-92016173D02*
X84782504Y-92492363D01*
X85068219Y-91920935D02*
X84068219Y-92254268D01*
X84068219Y-92254268D02*
X85068219Y-92587601D01*
X84068219Y-92825697D02*
X84068219Y-93492363D01*
X84068219Y-93492363D02*
X85068219Y-93063792D01*
X132320600Y-104539029D02*
X132368219Y-104443791D01*
X132368219Y-104443791D02*
X132368219Y-104253315D01*
X132368219Y-104253315D02*
X132320600Y-104158077D01*
X132320600Y-104158077D02*
X132272980Y-104110458D01*
X132272980Y-104110458D02*
X132177742Y-104062839D01*
X132177742Y-104062839D02*
X131892028Y-104062839D01*
X131892028Y-104062839D02*
X131796790Y-104110458D01*
X131796790Y-104110458D02*
X131749171Y-104158077D01*
X131749171Y-104158077D02*
X131701552Y-104253315D01*
X131701552Y-104253315D02*
X131701552Y-104443791D01*
X131701552Y-104443791D02*
X131749171Y-104539029D01*
X132368219Y-105110458D02*
X132320600Y-105015220D01*
X132320600Y-105015220D02*
X132272980Y-104967601D01*
X132272980Y-104967601D02*
X132177742Y-104919982D01*
X132177742Y-104919982D02*
X131892028Y-104919982D01*
X131892028Y-104919982D02*
X131796790Y-104967601D01*
X131796790Y-104967601D02*
X131749171Y-105015220D01*
X131749171Y-105015220D02*
X131701552Y-105110458D01*
X131701552Y-105110458D02*
X131701552Y-105253315D01*
X131701552Y-105253315D02*
X131749171Y-105348553D01*
X131749171Y-105348553D02*
X131796790Y-105396172D01*
X131796790Y-105396172D02*
X131892028Y-105443791D01*
X131892028Y-105443791D02*
X132177742Y-105443791D01*
X132177742Y-105443791D02*
X132272980Y-105396172D01*
X132272980Y-105396172D02*
X132320600Y-105348553D01*
X132320600Y-105348553D02*
X132368219Y-105253315D01*
X132368219Y-105253315D02*
X132368219Y-105110458D01*
X132368219Y-105872363D02*
X131701552Y-105872363D01*
X131796790Y-105872363D02*
X131749171Y-105919982D01*
X131749171Y-105919982D02*
X131701552Y-106015220D01*
X131701552Y-106015220D02*
X131701552Y-106158077D01*
X131701552Y-106158077D02*
X131749171Y-106253315D01*
X131749171Y-106253315D02*
X131844409Y-106300934D01*
X131844409Y-106300934D02*
X132368219Y-106300934D01*
X131844409Y-106300934D02*
X131749171Y-106348553D01*
X131749171Y-106348553D02*
X131701552Y-106443791D01*
X131701552Y-106443791D02*
X131701552Y-106586648D01*
X131701552Y-106586648D02*
X131749171Y-106681887D01*
X131749171Y-106681887D02*
X131844409Y-106729506D01*
X131844409Y-106729506D02*
X132368219Y-106729506D01*
X132368219Y-107205696D02*
X131701552Y-107205696D01*
X131796790Y-107205696D02*
X131749171Y-107253315D01*
X131749171Y-107253315D02*
X131701552Y-107348553D01*
X131701552Y-107348553D02*
X131701552Y-107491410D01*
X131701552Y-107491410D02*
X131749171Y-107586648D01*
X131749171Y-107586648D02*
X131844409Y-107634267D01*
X131844409Y-107634267D02*
X132368219Y-107634267D01*
X131844409Y-107634267D02*
X131749171Y-107681886D01*
X131749171Y-107681886D02*
X131701552Y-107777124D01*
X131701552Y-107777124D02*
X131701552Y-107919981D01*
X131701552Y-107919981D02*
X131749171Y-108015220D01*
X131749171Y-108015220D02*
X131844409Y-108062839D01*
X131844409Y-108062839D02*
X132368219Y-108062839D01*
X132368219Y-109062838D02*
X132368219Y-108491410D01*
X132368219Y-108777124D02*
X131368219Y-108777124D01*
X131368219Y-108777124D02*
X131511076Y-108681886D01*
X131511076Y-108681886D02*
X131606314Y-108586648D01*
X131606314Y-108586648D02*
X131653933Y-108491410D01*
X93027924Y-120167419D02*
X93075543Y-120215039D01*
X93075543Y-120215039D02*
X93218400Y-120262658D01*
X93218400Y-120262658D02*
X93313638Y-120262658D01*
X93313638Y-120262658D02*
X93456495Y-120215039D01*
X93456495Y-120215039D02*
X93551733Y-120119800D01*
X93551733Y-120119800D02*
X93599352Y-120024562D01*
X93599352Y-120024562D02*
X93646971Y-119834086D01*
X93646971Y-119834086D02*
X93646971Y-119691229D01*
X93646971Y-119691229D02*
X93599352Y-119500753D01*
X93599352Y-119500753D02*
X93551733Y-119405515D01*
X93551733Y-119405515D02*
X93456495Y-119310277D01*
X93456495Y-119310277D02*
X93313638Y-119262658D01*
X93313638Y-119262658D02*
X93218400Y-119262658D01*
X93218400Y-119262658D02*
X93075543Y-119310277D01*
X93075543Y-119310277D02*
X93027924Y-119357896D01*
X92456495Y-120262658D02*
X92551733Y-120215039D01*
X92551733Y-120215039D02*
X92599352Y-120167419D01*
X92599352Y-120167419D02*
X92646971Y-120072181D01*
X92646971Y-120072181D02*
X92646971Y-119786467D01*
X92646971Y-119786467D02*
X92599352Y-119691229D01*
X92599352Y-119691229D02*
X92551733Y-119643610D01*
X92551733Y-119643610D02*
X92456495Y-119595991D01*
X92456495Y-119595991D02*
X92313638Y-119595991D01*
X92313638Y-119595991D02*
X92218400Y-119643610D01*
X92218400Y-119643610D02*
X92170781Y-119691229D01*
X92170781Y-119691229D02*
X92123162Y-119786467D01*
X92123162Y-119786467D02*
X92123162Y-120072181D01*
X92123162Y-120072181D02*
X92170781Y-120167419D01*
X92170781Y-120167419D02*
X92218400Y-120215039D01*
X92218400Y-120215039D02*
X92313638Y-120262658D01*
X92313638Y-120262658D02*
X92456495Y-120262658D01*
X91694590Y-119595991D02*
X91694590Y-120262658D01*
X91694590Y-119691229D02*
X91646971Y-119643610D01*
X91646971Y-119643610D02*
X91551733Y-119595991D01*
X91551733Y-119595991D02*
X91408876Y-119595991D01*
X91408876Y-119595991D02*
X91313638Y-119643610D01*
X91313638Y-119643610D02*
X91266019Y-119738848D01*
X91266019Y-119738848D02*
X91266019Y-120262658D01*
X90789828Y-119595991D02*
X90789828Y-120262658D01*
X90789828Y-119691229D02*
X90742209Y-119643610D01*
X90742209Y-119643610D02*
X90646971Y-119595991D01*
X90646971Y-119595991D02*
X90504114Y-119595991D01*
X90504114Y-119595991D02*
X90408876Y-119643610D01*
X90408876Y-119643610D02*
X90361257Y-119738848D01*
X90361257Y-119738848D02*
X90361257Y-120262658D01*
X90123162Y-120357896D02*
X89361257Y-120357896D01*
X88932685Y-119262658D02*
X88837447Y-119262658D01*
X88837447Y-119262658D02*
X88742209Y-119310277D01*
X88742209Y-119310277D02*
X88694590Y-119357896D01*
X88694590Y-119357896D02*
X88646971Y-119453134D01*
X88646971Y-119453134D02*
X88599352Y-119643610D01*
X88599352Y-119643610D02*
X88599352Y-119881705D01*
X88599352Y-119881705D02*
X88646971Y-120072181D01*
X88646971Y-120072181D02*
X88694590Y-120167419D01*
X88694590Y-120167419D02*
X88742209Y-120215039D01*
X88742209Y-120215039D02*
X88837447Y-120262658D01*
X88837447Y-120262658D02*
X88932685Y-120262658D01*
X88932685Y-120262658D02*
X89027923Y-120215039D01*
X89027923Y-120215039D02*
X89075542Y-120167419D01*
X89075542Y-120167419D02*
X89123161Y-120072181D01*
X89123161Y-120072181D02*
X89170780Y-119881705D01*
X89170780Y-119881705D02*
X89170780Y-119643610D01*
X89170780Y-119643610D02*
X89123161Y-119453134D01*
X89123161Y-119453134D02*
X89075542Y-119357896D01*
X89075542Y-119357896D02*
X89027923Y-119310277D01*
X89027923Y-119310277D02*
X88932685Y-119262658D01*
X87646971Y-120262658D02*
X88218399Y-120262658D01*
X87932685Y-120262658D02*
X87932685Y-119262658D01*
X87932685Y-119262658D02*
X88027923Y-119405515D01*
X88027923Y-119405515D02*
X88123161Y-119500753D01*
X88123161Y-119500753D02*
X88218399Y-119548372D01*
X87313637Y-120262658D02*
X86789828Y-119595991D01*
X87313637Y-119595991D02*
X86789828Y-120262658D01*
X86218399Y-119262658D02*
X86123161Y-119262658D01*
X86123161Y-119262658D02*
X86027923Y-119310277D01*
X86027923Y-119310277D02*
X85980304Y-119357896D01*
X85980304Y-119357896D02*
X85932685Y-119453134D01*
X85932685Y-119453134D02*
X85885066Y-119643610D01*
X85885066Y-119643610D02*
X85885066Y-119881705D01*
X85885066Y-119881705D02*
X85932685Y-120072181D01*
X85932685Y-120072181D02*
X85980304Y-120167419D01*
X85980304Y-120167419D02*
X86027923Y-120215039D01*
X86027923Y-120215039D02*
X86123161Y-120262658D01*
X86123161Y-120262658D02*
X86218399Y-120262658D01*
X86218399Y-120262658D02*
X86313637Y-120215039D01*
X86313637Y-120215039D02*
X86361256Y-120167419D01*
X86361256Y-120167419D02*
X86408875Y-120072181D01*
X86408875Y-120072181D02*
X86456494Y-119881705D01*
X86456494Y-119881705D02*
X86456494Y-119643610D01*
X86456494Y-119643610D02*
X86408875Y-119453134D01*
X86408875Y-119453134D02*
X86361256Y-119357896D01*
X86361256Y-119357896D02*
X86313637Y-119310277D01*
X86313637Y-119310277D02*
X86218399Y-119262658D01*
X85313637Y-119691229D02*
X85408875Y-119643610D01*
X85408875Y-119643610D02*
X85456494Y-119595991D01*
X85456494Y-119595991D02*
X85504113Y-119500753D01*
X85504113Y-119500753D02*
X85504113Y-119453134D01*
X85504113Y-119453134D02*
X85456494Y-119357896D01*
X85456494Y-119357896D02*
X85408875Y-119310277D01*
X85408875Y-119310277D02*
X85313637Y-119262658D01*
X85313637Y-119262658D02*
X85123161Y-119262658D01*
X85123161Y-119262658D02*
X85027923Y-119310277D01*
X85027923Y-119310277D02*
X84980304Y-119357896D01*
X84980304Y-119357896D02*
X84932685Y-119453134D01*
X84932685Y-119453134D02*
X84932685Y-119500753D01*
X84932685Y-119500753D02*
X84980304Y-119595991D01*
X84980304Y-119595991D02*
X85027923Y-119643610D01*
X85027923Y-119643610D02*
X85123161Y-119691229D01*
X85123161Y-119691229D02*
X85313637Y-119691229D01*
X85313637Y-119691229D02*
X85408875Y-119738848D01*
X85408875Y-119738848D02*
X85456494Y-119786467D01*
X85456494Y-119786467D02*
X85504113Y-119881705D01*
X85504113Y-119881705D02*
X85504113Y-120072181D01*
X85504113Y-120072181D02*
X85456494Y-120167419D01*
X85456494Y-120167419D02*
X85408875Y-120215039D01*
X85408875Y-120215039D02*
X85313637Y-120262658D01*
X85313637Y-120262658D02*
X85123161Y-120262658D01*
X85123161Y-120262658D02*
X85027923Y-120215039D01*
X85027923Y-120215039D02*
X84980304Y-120167419D01*
X84980304Y-120167419D02*
X84932685Y-120072181D01*
X84932685Y-120072181D02*
X84932685Y-119881705D01*
X84932685Y-119881705D02*
X84980304Y-119786467D01*
X84980304Y-119786467D02*
X85027923Y-119738848D01*
X85027923Y-119738848D02*
X85123161Y-119691229D01*
X84742209Y-120357896D02*
X83980304Y-120357896D01*
X83742208Y-120262658D02*
X83742208Y-119262658D01*
X83742208Y-119262658D02*
X83361256Y-119262658D01*
X83361256Y-119262658D02*
X83266018Y-119310277D01*
X83266018Y-119310277D02*
X83218399Y-119357896D01*
X83218399Y-119357896D02*
X83170780Y-119453134D01*
X83170780Y-119453134D02*
X83170780Y-119595991D01*
X83170780Y-119595991D02*
X83218399Y-119691229D01*
X83218399Y-119691229D02*
X83266018Y-119738848D01*
X83266018Y-119738848D02*
X83361256Y-119786467D01*
X83361256Y-119786467D02*
X83742208Y-119786467D01*
X82742208Y-120262658D02*
X82742208Y-119595991D01*
X82742208Y-119262658D02*
X82789827Y-119310277D01*
X82789827Y-119310277D02*
X82742208Y-119357896D01*
X82742208Y-119357896D02*
X82694589Y-119310277D01*
X82694589Y-119310277D02*
X82742208Y-119262658D01*
X82742208Y-119262658D02*
X82742208Y-119357896D01*
X82266018Y-119595991D02*
X82266018Y-120262658D01*
X82266018Y-119691229D02*
X82218399Y-119643610D01*
X82218399Y-119643610D02*
X82123161Y-119595991D01*
X82123161Y-119595991D02*
X81980304Y-119595991D01*
X81980304Y-119595991D02*
X81885066Y-119643610D01*
X81885066Y-119643610D02*
X81837447Y-119738848D01*
X81837447Y-119738848D02*
X81837447Y-120262658D01*
X85038219Y-106820933D02*
X84514409Y-106820933D01*
X84514409Y-106820933D02*
X84419171Y-106773314D01*
X84419171Y-106773314D02*
X84371552Y-106678076D01*
X84371552Y-106678076D02*
X84371552Y-106487600D01*
X84371552Y-106487600D02*
X84419171Y-106392362D01*
X84990600Y-106820933D02*
X85038219Y-106725695D01*
X85038219Y-106725695D02*
X85038219Y-106487600D01*
X85038219Y-106487600D02*
X84990600Y-106392362D01*
X84990600Y-106392362D02*
X84895361Y-106344743D01*
X84895361Y-106344743D02*
X84800123Y-106344743D01*
X84800123Y-106344743D02*
X84704885Y-106392362D01*
X84704885Y-106392362D02*
X84657266Y-106487600D01*
X84657266Y-106487600D02*
X84657266Y-106725695D01*
X84657266Y-106725695D02*
X84609647Y-106820933D01*
X84371552Y-107297124D02*
X85038219Y-107297124D01*
X84466790Y-107297124D02*
X84419171Y-107344743D01*
X84419171Y-107344743D02*
X84371552Y-107439981D01*
X84371552Y-107439981D02*
X84371552Y-107582838D01*
X84371552Y-107582838D02*
X84419171Y-107678076D01*
X84419171Y-107678076D02*
X84514409Y-107725695D01*
X84514409Y-107725695D02*
X85038219Y-107725695D01*
X85038219Y-108630457D02*
X84514409Y-108630457D01*
X84514409Y-108630457D02*
X84419171Y-108582838D01*
X84419171Y-108582838D02*
X84371552Y-108487600D01*
X84371552Y-108487600D02*
X84371552Y-108297124D01*
X84371552Y-108297124D02*
X84419171Y-108201886D01*
X84990600Y-108630457D02*
X85038219Y-108535219D01*
X85038219Y-108535219D02*
X85038219Y-108297124D01*
X85038219Y-108297124D02*
X84990600Y-108201886D01*
X84990600Y-108201886D02*
X84895361Y-108154267D01*
X84895361Y-108154267D02*
X84800123Y-108154267D01*
X84800123Y-108154267D02*
X84704885Y-108201886D01*
X84704885Y-108201886D02*
X84657266Y-108297124D01*
X84657266Y-108297124D02*
X84657266Y-108535219D01*
X84657266Y-108535219D02*
X84609647Y-108630457D01*
X85038219Y-109249505D02*
X84990600Y-109154267D01*
X84990600Y-109154267D02*
X84895361Y-109106648D01*
X84895361Y-109106648D02*
X84038219Y-109106648D01*
X85038219Y-109773315D02*
X84990600Y-109678077D01*
X84990600Y-109678077D02*
X84942980Y-109630458D01*
X84942980Y-109630458D02*
X84847742Y-109582839D01*
X84847742Y-109582839D02*
X84562028Y-109582839D01*
X84562028Y-109582839D02*
X84466790Y-109630458D01*
X84466790Y-109630458D02*
X84419171Y-109678077D01*
X84419171Y-109678077D02*
X84371552Y-109773315D01*
X84371552Y-109773315D02*
X84371552Y-109916172D01*
X84371552Y-109916172D02*
X84419171Y-110011410D01*
X84419171Y-110011410D02*
X84466790Y-110059029D01*
X84466790Y-110059029D02*
X84562028Y-110106648D01*
X84562028Y-110106648D02*
X84847742Y-110106648D01*
X84847742Y-110106648D02*
X84942980Y-110059029D01*
X84942980Y-110059029D02*
X84990600Y-110011410D01*
X84990600Y-110011410D02*
X85038219Y-109916172D01*
X85038219Y-109916172D02*
X85038219Y-109773315D01*
X84371552Y-110963791D02*
X85181076Y-110963791D01*
X85181076Y-110963791D02*
X85276314Y-110916172D01*
X85276314Y-110916172D02*
X85323933Y-110868553D01*
X85323933Y-110868553D02*
X85371552Y-110773315D01*
X85371552Y-110773315D02*
X85371552Y-110630458D01*
X85371552Y-110630458D02*
X85323933Y-110535220D01*
X84990600Y-110963791D02*
X85038219Y-110868553D01*
X85038219Y-110868553D02*
X85038219Y-110678077D01*
X85038219Y-110678077D02*
X84990600Y-110582839D01*
X84990600Y-110582839D02*
X84942980Y-110535220D01*
X84942980Y-110535220D02*
X84847742Y-110487601D01*
X84847742Y-110487601D02*
X84562028Y-110487601D01*
X84562028Y-110487601D02*
X84466790Y-110535220D01*
X84466790Y-110535220D02*
X84419171Y-110582839D01*
X84419171Y-110582839D02*
X84371552Y-110678077D01*
X84371552Y-110678077D02*
X84371552Y-110868553D01*
X84371552Y-110868553D02*
X84419171Y-110963791D01*
X84752504Y-111392363D02*
X84752504Y-111868553D01*
X85038219Y-111297125D02*
X84038219Y-111630458D01*
X84038219Y-111630458D02*
X85038219Y-111963791D01*
X84466790Y-112439982D02*
X84419171Y-112344744D01*
X84419171Y-112344744D02*
X84371552Y-112297125D01*
X84371552Y-112297125D02*
X84276314Y-112249506D01*
X84276314Y-112249506D02*
X84228695Y-112249506D01*
X84228695Y-112249506D02*
X84133457Y-112297125D01*
X84133457Y-112297125D02*
X84085838Y-112344744D01*
X84085838Y-112344744D02*
X84038219Y-112439982D01*
X84038219Y-112439982D02*
X84038219Y-112630458D01*
X84038219Y-112630458D02*
X84085838Y-112725696D01*
X84085838Y-112725696D02*
X84133457Y-112773315D01*
X84133457Y-112773315D02*
X84228695Y-112820934D01*
X84228695Y-112820934D02*
X84276314Y-112820934D01*
X84276314Y-112820934D02*
X84371552Y-112773315D01*
X84371552Y-112773315D02*
X84419171Y-112725696D01*
X84419171Y-112725696D02*
X84466790Y-112630458D01*
X84466790Y-112630458D02*
X84466790Y-112439982D01*
X84466790Y-112439982D02*
X84514409Y-112344744D01*
X84514409Y-112344744D02*
X84562028Y-112297125D01*
X84562028Y-112297125D02*
X84657266Y-112249506D01*
X84657266Y-112249506D02*
X84847742Y-112249506D01*
X84847742Y-112249506D02*
X84942980Y-112297125D01*
X84942980Y-112297125D02*
X84990600Y-112344744D01*
X84990600Y-112344744D02*
X85038219Y-112439982D01*
X85038219Y-112439982D02*
X85038219Y-112630458D01*
X85038219Y-112630458D02*
X84990600Y-112725696D01*
X84990600Y-112725696D02*
X84942980Y-112773315D01*
X84942980Y-112773315D02*
X84847742Y-112820934D01*
X84847742Y-112820934D02*
X84657266Y-112820934D01*
X84657266Y-112820934D02*
X84562028Y-112773315D01*
X84562028Y-112773315D02*
X84514409Y-112725696D01*
X84514409Y-112725696D02*
X84466790Y-112630458D01*
X84657266Y-113249506D02*
X84657266Y-114011411D01*
X84752504Y-114439982D02*
X84752504Y-114916172D01*
X85038219Y-114344744D02*
X84038219Y-114678077D01*
X84038219Y-114678077D02*
X85038219Y-115011410D01*
X85038219Y-115868553D02*
X85038219Y-115297125D01*
X85038219Y-115582839D02*
X84038219Y-115582839D01*
X84038219Y-115582839D02*
X84181076Y-115487601D01*
X84181076Y-115487601D02*
X84276314Y-115392363D01*
X84276314Y-115392363D02*
X84323933Y-115297125D01*
X84038219Y-116773315D02*
X84038219Y-116297125D01*
X84038219Y-116297125D02*
X84514409Y-116249506D01*
X84514409Y-116249506D02*
X84466790Y-116297125D01*
X84466790Y-116297125D02*
X84419171Y-116392363D01*
X84419171Y-116392363D02*
X84419171Y-116630458D01*
X84419171Y-116630458D02*
X84466790Y-116725696D01*
X84466790Y-116725696D02*
X84514409Y-116773315D01*
X84514409Y-116773315D02*
X84609647Y-116820934D01*
X84609647Y-116820934D02*
X84847742Y-116820934D01*
X84847742Y-116820934D02*
X84942980Y-116773315D01*
X84942980Y-116773315D02*
X84990600Y-116725696D01*
X84990600Y-116725696D02*
X85038219Y-116630458D01*
X85038219Y-116630458D02*
X85038219Y-116392363D01*
X85038219Y-116392363D02*
X84990600Y-116297125D01*
X84990600Y-116297125D02*
X84942980Y-116249506D01*
X137222924Y-95192419D02*
X137270543Y-95240039D01*
X137270543Y-95240039D02*
X137413400Y-95287658D01*
X137413400Y-95287658D02*
X137508638Y-95287658D01*
X137508638Y-95287658D02*
X137651495Y-95240039D01*
X137651495Y-95240039D02*
X137746733Y-95144800D01*
X137746733Y-95144800D02*
X137794352Y-95049562D01*
X137794352Y-95049562D02*
X137841971Y-94859086D01*
X137841971Y-94859086D02*
X137841971Y-94716229D01*
X137841971Y-94716229D02*
X137794352Y-94525753D01*
X137794352Y-94525753D02*
X137746733Y-94430515D01*
X137746733Y-94430515D02*
X137651495Y-94335277D01*
X137651495Y-94335277D02*
X137508638Y-94287658D01*
X137508638Y-94287658D02*
X137413400Y-94287658D01*
X137413400Y-94287658D02*
X137270543Y-94335277D01*
X137270543Y-94335277D02*
X137222924Y-94382896D01*
X136651495Y-95287658D02*
X136746733Y-95240039D01*
X136746733Y-95240039D02*
X136794352Y-95192419D01*
X136794352Y-95192419D02*
X136841971Y-95097181D01*
X136841971Y-95097181D02*
X136841971Y-94811467D01*
X136841971Y-94811467D02*
X136794352Y-94716229D01*
X136794352Y-94716229D02*
X136746733Y-94668610D01*
X136746733Y-94668610D02*
X136651495Y-94620991D01*
X136651495Y-94620991D02*
X136508638Y-94620991D01*
X136508638Y-94620991D02*
X136413400Y-94668610D01*
X136413400Y-94668610D02*
X136365781Y-94716229D01*
X136365781Y-94716229D02*
X136318162Y-94811467D01*
X136318162Y-94811467D02*
X136318162Y-95097181D01*
X136318162Y-95097181D02*
X136365781Y-95192419D01*
X136365781Y-95192419D02*
X136413400Y-95240039D01*
X136413400Y-95240039D02*
X136508638Y-95287658D01*
X136508638Y-95287658D02*
X136651495Y-95287658D01*
X135889590Y-94620991D02*
X135889590Y-95287658D01*
X135889590Y-94716229D02*
X135841971Y-94668610D01*
X135841971Y-94668610D02*
X135746733Y-94620991D01*
X135746733Y-94620991D02*
X135603876Y-94620991D01*
X135603876Y-94620991D02*
X135508638Y-94668610D01*
X135508638Y-94668610D02*
X135461019Y-94763848D01*
X135461019Y-94763848D02*
X135461019Y-95287658D01*
X134984828Y-94620991D02*
X134984828Y-95287658D01*
X134984828Y-94716229D02*
X134937209Y-94668610D01*
X134937209Y-94668610D02*
X134841971Y-94620991D01*
X134841971Y-94620991D02*
X134699114Y-94620991D01*
X134699114Y-94620991D02*
X134603876Y-94668610D01*
X134603876Y-94668610D02*
X134556257Y-94763848D01*
X134556257Y-94763848D02*
X134556257Y-95287658D01*
X134318162Y-95382896D02*
X133556257Y-95382896D01*
X133127685Y-94287658D02*
X133032447Y-94287658D01*
X133032447Y-94287658D02*
X132937209Y-94335277D01*
X132937209Y-94335277D02*
X132889590Y-94382896D01*
X132889590Y-94382896D02*
X132841971Y-94478134D01*
X132841971Y-94478134D02*
X132794352Y-94668610D01*
X132794352Y-94668610D02*
X132794352Y-94906705D01*
X132794352Y-94906705D02*
X132841971Y-95097181D01*
X132841971Y-95097181D02*
X132889590Y-95192419D01*
X132889590Y-95192419D02*
X132937209Y-95240039D01*
X132937209Y-95240039D02*
X133032447Y-95287658D01*
X133032447Y-95287658D02*
X133127685Y-95287658D01*
X133127685Y-95287658D02*
X133222923Y-95240039D01*
X133222923Y-95240039D02*
X133270542Y-95192419D01*
X133270542Y-95192419D02*
X133318161Y-95097181D01*
X133318161Y-95097181D02*
X133365780Y-94906705D01*
X133365780Y-94906705D02*
X133365780Y-94668610D01*
X133365780Y-94668610D02*
X133318161Y-94478134D01*
X133318161Y-94478134D02*
X133270542Y-94382896D01*
X133270542Y-94382896D02*
X133222923Y-94335277D01*
X133222923Y-94335277D02*
X133127685Y-94287658D01*
X131841971Y-95287658D02*
X132413399Y-95287658D01*
X132127685Y-95287658D02*
X132127685Y-94287658D01*
X132127685Y-94287658D02*
X132222923Y-94430515D01*
X132222923Y-94430515D02*
X132318161Y-94525753D01*
X132318161Y-94525753D02*
X132413399Y-94573372D01*
X131508637Y-95287658D02*
X130984828Y-94620991D01*
X131508637Y-94620991D02*
X130984828Y-95287658D01*
X130413399Y-94287658D02*
X130318161Y-94287658D01*
X130318161Y-94287658D02*
X130222923Y-94335277D01*
X130222923Y-94335277D02*
X130175304Y-94382896D01*
X130175304Y-94382896D02*
X130127685Y-94478134D01*
X130127685Y-94478134D02*
X130080066Y-94668610D01*
X130080066Y-94668610D02*
X130080066Y-94906705D01*
X130080066Y-94906705D02*
X130127685Y-95097181D01*
X130127685Y-95097181D02*
X130175304Y-95192419D01*
X130175304Y-95192419D02*
X130222923Y-95240039D01*
X130222923Y-95240039D02*
X130318161Y-95287658D01*
X130318161Y-95287658D02*
X130413399Y-95287658D01*
X130413399Y-95287658D02*
X130508637Y-95240039D01*
X130508637Y-95240039D02*
X130556256Y-95192419D01*
X130556256Y-95192419D02*
X130603875Y-95097181D01*
X130603875Y-95097181D02*
X130651494Y-94906705D01*
X130651494Y-94906705D02*
X130651494Y-94668610D01*
X130651494Y-94668610D02*
X130603875Y-94478134D01*
X130603875Y-94478134D02*
X130556256Y-94382896D01*
X130556256Y-94382896D02*
X130508637Y-94335277D01*
X130508637Y-94335277D02*
X130413399Y-94287658D01*
X129508637Y-94716229D02*
X129603875Y-94668610D01*
X129603875Y-94668610D02*
X129651494Y-94620991D01*
X129651494Y-94620991D02*
X129699113Y-94525753D01*
X129699113Y-94525753D02*
X129699113Y-94478134D01*
X129699113Y-94478134D02*
X129651494Y-94382896D01*
X129651494Y-94382896D02*
X129603875Y-94335277D01*
X129603875Y-94335277D02*
X129508637Y-94287658D01*
X129508637Y-94287658D02*
X129318161Y-94287658D01*
X129318161Y-94287658D02*
X129222923Y-94335277D01*
X129222923Y-94335277D02*
X129175304Y-94382896D01*
X129175304Y-94382896D02*
X129127685Y-94478134D01*
X129127685Y-94478134D02*
X129127685Y-94525753D01*
X129127685Y-94525753D02*
X129175304Y-94620991D01*
X129175304Y-94620991D02*
X129222923Y-94668610D01*
X129222923Y-94668610D02*
X129318161Y-94716229D01*
X129318161Y-94716229D02*
X129508637Y-94716229D01*
X129508637Y-94716229D02*
X129603875Y-94763848D01*
X129603875Y-94763848D02*
X129651494Y-94811467D01*
X129651494Y-94811467D02*
X129699113Y-94906705D01*
X129699113Y-94906705D02*
X129699113Y-95097181D01*
X129699113Y-95097181D02*
X129651494Y-95192419D01*
X129651494Y-95192419D02*
X129603875Y-95240039D01*
X129603875Y-95240039D02*
X129508637Y-95287658D01*
X129508637Y-95287658D02*
X129318161Y-95287658D01*
X129318161Y-95287658D02*
X129222923Y-95240039D01*
X129222923Y-95240039D02*
X129175304Y-95192419D01*
X129175304Y-95192419D02*
X129127685Y-95097181D01*
X129127685Y-95097181D02*
X129127685Y-94906705D01*
X129127685Y-94906705D02*
X129175304Y-94811467D01*
X129175304Y-94811467D02*
X129222923Y-94763848D01*
X129222923Y-94763848D02*
X129318161Y-94716229D01*
X128937209Y-95382896D02*
X128175304Y-95382896D01*
X127937208Y-95287658D02*
X127937208Y-94287658D01*
X127937208Y-94287658D02*
X127556256Y-94287658D01*
X127556256Y-94287658D02*
X127461018Y-94335277D01*
X127461018Y-94335277D02*
X127413399Y-94382896D01*
X127413399Y-94382896D02*
X127365780Y-94478134D01*
X127365780Y-94478134D02*
X127365780Y-94620991D01*
X127365780Y-94620991D02*
X127413399Y-94716229D01*
X127413399Y-94716229D02*
X127461018Y-94763848D01*
X127461018Y-94763848D02*
X127556256Y-94811467D01*
X127556256Y-94811467D02*
X127937208Y-94811467D01*
X126937208Y-95287658D02*
X126937208Y-94620991D01*
X126937208Y-94287658D02*
X126984827Y-94335277D01*
X126984827Y-94335277D02*
X126937208Y-94382896D01*
X126937208Y-94382896D02*
X126889589Y-94335277D01*
X126889589Y-94335277D02*
X126937208Y-94287658D01*
X126937208Y-94287658D02*
X126937208Y-94382896D01*
X126461018Y-94620991D02*
X126461018Y-95287658D01*
X126461018Y-94716229D02*
X126413399Y-94668610D01*
X126413399Y-94668610D02*
X126318161Y-94620991D01*
X126318161Y-94620991D02*
X126175304Y-94620991D01*
X126175304Y-94620991D02*
X126080066Y-94668610D01*
X126080066Y-94668610D02*
X126032447Y-94763848D01*
X126032447Y-94763848D02*
X126032447Y-95287658D01*
X131701552Y-81681887D02*
X132701552Y-81681887D01*
X131749171Y-81681887D02*
X131701552Y-81777125D01*
X131701552Y-81777125D02*
X131701552Y-81967601D01*
X131701552Y-81967601D02*
X131749171Y-82062839D01*
X131749171Y-82062839D02*
X131796790Y-82110458D01*
X131796790Y-82110458D02*
X131892028Y-82158077D01*
X131892028Y-82158077D02*
X132177742Y-82158077D01*
X132177742Y-82158077D02*
X132272980Y-82110458D01*
X132272980Y-82110458D02*
X132320600Y-82062839D01*
X132320600Y-82062839D02*
X132368219Y-81967601D01*
X132368219Y-81967601D02*
X132368219Y-81777125D01*
X132368219Y-81777125D02*
X132320600Y-81681887D01*
X131701552Y-82491411D02*
X132368219Y-82681887D01*
X132368219Y-82681887D02*
X131892028Y-82872363D01*
X131892028Y-82872363D02*
X132368219Y-83062839D01*
X132368219Y-83062839D02*
X131701552Y-83253315D01*
X132368219Y-83634268D02*
X131701552Y-83634268D01*
X131796790Y-83634268D02*
X131749171Y-83681887D01*
X131749171Y-83681887D02*
X131701552Y-83777125D01*
X131701552Y-83777125D02*
X131701552Y-83919982D01*
X131701552Y-83919982D02*
X131749171Y-84015220D01*
X131749171Y-84015220D02*
X131844409Y-84062839D01*
X131844409Y-84062839D02*
X132368219Y-84062839D01*
X131844409Y-84062839D02*
X131749171Y-84110458D01*
X131749171Y-84110458D02*
X131701552Y-84205696D01*
X131701552Y-84205696D02*
X131701552Y-84348553D01*
X131701552Y-84348553D02*
X131749171Y-84443792D01*
X131749171Y-84443792D02*
X131844409Y-84491411D01*
X131844409Y-84491411D02*
X132368219Y-84491411D01*
X131463457Y-84919982D02*
X131415838Y-84967601D01*
X131415838Y-84967601D02*
X131368219Y-85062839D01*
X131368219Y-85062839D02*
X131368219Y-85300934D01*
X131368219Y-85300934D02*
X131415838Y-85396172D01*
X131415838Y-85396172D02*
X131463457Y-85443791D01*
X131463457Y-85443791D02*
X131558695Y-85491410D01*
X131558695Y-85491410D02*
X131653933Y-85491410D01*
X131653933Y-85491410D02*
X131796790Y-85443791D01*
X131796790Y-85443791D02*
X132368219Y-84872363D01*
X132368219Y-84872363D02*
X132368219Y-85491410D01*
D11*
%TO.C,pwm1*%
X133183400Y-71812839D02*
X133183400Y-47047839D01*
X133183400Y-47047839D02*
X132548400Y-46412839D01*
X132548400Y-46412839D02*
X130643400Y-46412839D01*
X130643400Y-71812839D02*
X133183400Y-71812839D01*
X130643400Y-46412839D02*
X130643400Y-71812839D01*
%TO.C,power2*%
X85883400Y-75842839D02*
X85883400Y-56157839D01*
X85883400Y-56157839D02*
X85248400Y-55522839D01*
X85248400Y-55522839D02*
X83343400Y-55522839D01*
X83343400Y-75842839D02*
X85883400Y-75842839D01*
X83343400Y-55522839D02*
X83343400Y-75842839D01*
%TO.C,analogA0-A7*%
X85883400Y-98842839D02*
X85883400Y-79157839D01*
X85883400Y-79157839D02*
X85248400Y-78522839D01*
X85248400Y-78522839D02*
X83343400Y-78522839D01*
X83343400Y-98842839D02*
X85883400Y-98842839D01*
X83343400Y-78522839D02*
X83343400Y-98842839D01*
%TO.C,comm1*%
X133183400Y-116722839D02*
X133183400Y-97037839D01*
X133183400Y-97037839D02*
X132548400Y-96402839D01*
X132548400Y-96402839D02*
X130643400Y-96402839D01*
X130643400Y-116722839D02*
X133183400Y-116722839D01*
X130643400Y-96402839D02*
X130643400Y-116722839D01*
%TO.C,analogA8-A15*%
X85853400Y-121742839D02*
X85853400Y-102057839D01*
X85853400Y-102057839D02*
X85218400Y-101422839D01*
X85218400Y-101422839D02*
X83313400Y-101422839D01*
X83313400Y-121742839D02*
X85853400Y-121742839D01*
X83313400Y-101422839D02*
X83313400Y-121742839D01*
%TO.C,pwm2*%
X133183400Y-93722839D02*
X133183400Y-74037839D01*
X133183400Y-74037839D02*
X132548400Y-73402839D01*
X132548400Y-73402839D02*
X130643400Y-73402839D01*
X130643400Y-93722839D02*
X133183400Y-93722839D01*
X130643400Y-73402839D02*
X130643400Y-93722839D01*
%TD*%
M02*
