M48
; DRILL file {KiCad 9.0.7} date 2026-02-11T11:52:07-0500
; FORMAT={-:-/ absolute / metric / decimal}
; #@! TF.CreationDate,2026-02-11T11:52:07-05:00
; #@! TF.GenerationSoftware,Kicad,Pcbnew,9.0.7
; #@! TF.FileFunction,Plated,1,2,PTH
FMAT,2
METRIC
; #@! TA.AperFunction,Plated,PTH,ViaDrill
T1C0.700
; #@! TA.AperFunction,Plated,PTH,ComponentDrill
T2C0.700
; #@! TA.AperFunction,Plated,PTH,ComponentDrill
T3C0.800
; #@! TA.AperFunction,Plated,PTH,ComponentDrill
T4C0.900
; #@! TA.AperFunction,Plated,PTH,ComponentDrill
T5C0.950
; #@! TA.AperFunction,Plated,PTH,ComponentDrill
T6C1.000
%
G90
G05
T1
X77.364Y-50.252
X77.864Y-55.752
X85.989Y-64.627
X85.989Y-110.627
X86.239Y-80.877
X86.739Y-95.877
X96.864Y-64.752
X96.864Y-78.752
X108.364Y-85.752
X108.864Y-99.252
X117.363Y-79.752
X117.863Y-83.252
X118.863Y-91.752
T2
X102.608Y-58.657
X102.608Y-73.252
X102.608Y-87.157
X102.608Y-102.252
T3
X92.864Y-60.672
X92.864Y-63.212
X92.864Y-65.752
X92.864Y-74.172
X92.864Y-76.712
X92.864Y-79.252
X92.864Y-89.172
X92.864Y-91.712
X92.864Y-94.252
X92.864Y-104.172
X92.864Y-106.712
X92.864Y-109.252
T4
X113.665Y-51.405
X113.665Y-53.945
T5
X82.35Y-49.2
X84.85Y-49.2
X87.35Y-49.2
X89.85Y-49.2
X97.6Y-49.2
X100.1Y-49.2
X102.6Y-49.2
T6
X73.687Y-53.347
X73.687Y-55.887
X73.687Y-58.427
X73.687Y-60.967
X73.687Y-63.507
X73.687Y-66.047
X73.687Y-68.587
X73.687Y-71.127
X73.687Y-76.347
X73.687Y-78.887
X73.687Y-81.427
X73.687Y-83.967
X73.687Y-86.507
X73.687Y-89.047
X73.687Y-91.587
X73.687Y-94.127
X73.687Y-98.257
X73.687Y-100.797
X73.687Y-103.337
X73.687Y-105.877
X73.687Y-108.417
X73.687Y-110.957
X73.687Y-113.497
X73.687Y-116.037
X73.687Y-118.577
X73.687Y-121.117
X83.263Y-119.752
X85.763Y-119.752
X93.864Y-119.752
X96.364Y-119.752
X104.364Y-119.752
X106.864Y-119.752
X114.863Y-119.752
X117.363Y-119.752
X120.987Y-71.227
X120.987Y-73.767
X120.987Y-76.307
X120.987Y-78.847
X120.987Y-81.387
X120.987Y-83.927
X120.987Y-86.467
X120.987Y-89.007
X120.987Y-94.227
X120.987Y-96.767
X120.987Y-99.307
X120.987Y-101.847
X120.987Y-104.387
X120.987Y-106.927
X120.987Y-109.467
X120.987Y-112.007
X121.017Y-48.327
X121.017Y-50.867
X121.017Y-53.407
X121.017Y-55.947
X121.017Y-58.487
X121.017Y-61.027
X121.017Y-63.567
X121.017Y-66.107
M30
