ISO-10303-21;
HEADER;
FILE_DESCRIPTION((''),'2;1');
FILE_NAME('C-640445-4','2012-10-18T',('workeradm'),('Tyco Electronics Ltd.'),
'PRO/ENGINEER BY PARAMETRIC TECHNOLOGY CORPORATION, 2010430',
'PRO/ENGINEER BY PARAMETRIC TECHNOLOGY CORPORATION, 2010430','');
FILE_SCHEMA(('AUTOMOTIVE_DESIGN { 1 0 10303 214 1 1 1 1 }'));
ENDSEC;
DATA;
#1=DRAUGHTING_PRE_DEFINED_COLOUR('black');
#2=COLOUR_RGB('',0.E0,0.E0,3.6E-1);
#3=COLOUR_RGB('',0.E0,0.E0,4.8E-1);
#4=DRAUGHTING_PRE_DEFINED_COLOUR('blue');
#5=COLOUR_RGB('',0.E0,3.6E-1,9.E-2);
#6=COLOUR_RGB('',0.E0,3.6E-1,2.7E-1);
#7=COLOUR_RGB('',0.E0,5.6E-1,6.4E-1);
#8=COLOUR_RGB('',0.E0,5.8E-1,8.E-1);
#9=COLOUR_RGB('',0.E0,7.1E-1,6.6E-1);
#10=COLOUR_RGB('',0.E0,7.13E-1,0.E0);
#11=COLOUR_RGB('',0.E0,9.5E-1,8.4E-1);
#12=DRAUGHTING_PRE_DEFINED_COLOUR('green');
#13=DRAUGHTING_PRE_DEFINED_COLOUR('cyan');
#14=COLOUR_RGB('',4.E-2,0.E0,1.6E-1);
#15=COLOUR_RGB('',9.E-2,0.E0,1.2E-1);
#16=COLOUR_RGB('',1.E-1,0.E0,2.5E-1);
#17=COLOUR_RGB('',1.6E-1,3.2E-2,0.E0);
#18=COLOUR_RGB('',1.6E-1,4.6E-1,6.5E-1);
#19=COLOUR_RGB('',1.6E-1,1.E0,1.6E-1);
#20=COLOUR_RGB('',2.E-1,3.2E-2,0.E0);
#21=COLOUR_RGB('',3.1E-1,3.1E-1,5.6E-1);
#22=COLOUR_RGB('',3.2E-1,1.5E-1,0.E0);
#23=COLOUR_RGB('',4.E-1,4.E-1,4.E-1);
#24=COLOUR_RGB('',4.2E-1,4.2E-1,1.E0);
#25=COLOUR_RGB('',4.4E-1,8.5E-1,1.E0);
#26=COLOUR_RGB('',4.9E-1,4.9E-1,0.E0);
#27=COLOUR_RGB('',4.9E-1,1.E0,0.E0);
#28=COLOUR_RGB('',5.E-1,0.E0,0.E0);
#29=COLOUR_RGB('',5.E-1,0.E0,2.3E-1);
#30=COLOUR_RGB('',5.E-1,5.E-1,5.E-1);
#31=COLOUR_RGB('',5.3E-1,0.E0,0.E0);
#32=COLOUR_RGB('',5.4E-1,0.E0,4.4E-1);
#33=COLOUR_RGB('',5.5E-1,3.E-1,0.E0);
#34=COLOUR_RGB('',5.6E-1,1.E-1,5.E-2);
#35=COLOUR_RGB('',5.8E-1,2.2E-1,1.E-2);
#36=COLOUR_RGB('',6.E-1,6.E-1,6.E-1);
#37=COLOUR_RGB('',6.2E-1,0.E0,5.5E-1);
#38=COLOUR_RGB('',6.4E-1,0.E0,2.5E-1);
#39=COLOUR_RGB('',6.4E-1,1.E-2,0.E0);
#40=COLOUR_RGB('',6.8E-1,7.5E-1,1.E0);
#41=COLOUR_RGB('',7.1E-1,3.1E-1,0.E0);
#42=COLOUR_RGB('',7.2E-1,7.2E-1,7.2E-1);
#43=COLOUR_RGB('',7.4E-1,1.E0,2.6E-1);
#44=COLOUR_RGB('',7.5E-1,3.E-2,0.E0);
#45=COLOUR_RGB('',7.6E-1,0.E0,4.7E-1);
#46=COLOUR_RGB('',8.1E-1,4.E-2,0.E0);
#47=COLOUR_RGB('',8.1E-1,6.1E-1,0.E0);
#48=COLOUR_RGB('',8.2E-1,4.E-2,6.6E-1);
#49=COLOUR_RGB('',8.5E-1,8.5E-1,8.5E-1);
#50=COLOUR_RGB('',8.784E-1,9.49E-1,1.E0);
#51=COLOUR_RGB('',9.E-1,1.E0,0.E0);
#52=COLOUR_RGB('',9.37E-1,7.85E-1,0.E0);
#53=COLOUR_RGB('',9.5E-1,2.2E-1,8.1E-1);
#54=COLOUR_RGB('',9.6E-1,3.7E-1,3.E-1);
#55=COLOUR_RGB('',9.6E-1,7.1E-1,3.75E-1);
#56=DRAUGHTING_PRE_DEFINED_COLOUR('red');
#57=COLOUR_RGB('',1.E0,0.E0,6.1E-1);
#58=COLOUR_RGB('',1.E0,4.E-2,0.E0);
#59=COLOUR_RGB('',1.E0,2.3E-1,0.E0);
#60=COLOUR_RGB('',1.E0,3.5E-1,5.2E-1);
#61=COLOUR_RGB('',1.E0,3.6E-1,0.E0);
#62=COLOUR_RGB('',1.E0,4.9E-1,3.7E-1);
#63=COLOUR_RGB('',1.E0,5.E-1,0.E0);
#64=COLOUR_RGB('',1.E0,5.6E-1,7.8E-1);
#65=COLOUR_RGB('',1.E0,6.4E-1,4.9E-1);
#66=COLOUR_RGB('',1.E0,6.7E-1,0.E0);
#67=COLOUR_RGB('',1.E0,7.6E-1,6.5E-1);
#68=COLOUR_RGB('',1.E0,8.6E-1,4.E-2);
#69=COLOUR_RGB('',1.E0,9.8E-1,7.2E-1);
#70=DRAUGHTING_PRE_DEFINED_COLOUR('yellow');
#71=DRAUGHTING_PRE_DEFINED_COLOUR('white');
#72=DIRECTION('',(0.E0,-1.E0,0.E0));
#73=VECTOR('',#72,9.525E-1);
#74=CARTESIAN_POINT('',(-7.9248E0,4.5847E0,0.E0));
#75=LINE('',#74,#73);
#76=DIRECTION('',(0.E0,0.E0,-1.E0));
#77=VECTOR('',#76,5.08E-1);
#78=CARTESIAN_POINT('',(-7.9248E0,3.6322E0,0.E0));
#79=LINE('',#78,#77);
#80=CARTESIAN_POINT('',(-7.9248E0,2.8702E0,-5.08E-1));
#81=DIRECTION('',(-1.E0,0.E0,0.E0));
#82=DIRECTION('',(0.E0,1.E0,0.E0));
#83=AXIS2_PLACEMENT_3D('',#80,#81,#82);
#85=DIRECTION('',(0.E0,0.E0,1.E0));
#86=VECTOR('',#85,5.08E-1);
#87=CARTESIAN_POINT('',(-7.9248E0,2.1082E0,-5.08E-1));
#88=LINE('',#87,#86);
#89=DIRECTION('',(0.E0,-1.E0,0.E0));
#90=VECTOR('',#89,5.1435E0);
#91=CARTESIAN_POINT('',(-7.9248E0,2.1082E0,0.E0));
#92=LINE('',#91,#90);
#93=DIRECTION('',(0.E0,0.E0,-1.E0));
#94=VECTOR('',#93,3.175E0);
#95=CARTESIAN_POINT('',(-7.9248E0,-3.0353E0,0.E0));
#96=LINE('',#95,#94);
#97=DIRECTION('',(0.E0,1.E0,0.E0));
#98=VECTOR('',#97,7.763825790646E-1);
#99=CARTESIAN_POINT('',(-7.9248E0,-3.0353E0,-3.175E0));
#100=LINE('',#99,#98);
#101=DIRECTION('',(0.E0,5.E-1,8.660254037844E-1));
#102=VECTOR('',#101,7.332348418708E-1);
#103=CARTESIAN_POINT('',(-7.9248E0,-2.258917420935E0,-3.175E0));
#104=LINE('',#103,#102);
#105=DIRECTION('',(0.E0,1.E0,0.E0));
#106=VECTOR('',#105,4.318E0);
#107=CARTESIAN_POINT('',(-7.9248E0,-1.8923E0,-2.54E0));
#108=LINE('',#107,#106);
#109=DIRECTION('',(0.E0,5.E-1,-8.660254037844E-1));
#110=VECTOR('',#109,7.332348418708E-1);
#111=CARTESIAN_POINT('',(-7.9248E0,2.4257E0,-2.54E0));
#112=LINE('',#111,#110);
#113=DIRECTION('',(0.E0,1.E0,0.E0));
#114=VECTOR('',#113,1.792382579065E0);
#115=CARTESIAN_POINT('',(-7.9248E0,2.792317420935E0,-3.175E0));
#116=LINE('',#115,#114);
#117=DIRECTION('',(0.E0,0.E0,1.E0));
#118=VECTOR('',#117,3.175E0);
#119=CARTESIAN_POINT('',(-7.9248E0,4.5847E0,-3.175E0));
#120=LINE('',#119,#118);
#121=DIRECTION('',(0.E0,1.E0,0.E0));
#122=VECTOR('',#121,9.525E-1);
#123=CARTESIAN_POINT('',(-5.9436E0,3.6322E0,0.E0));
#124=LINE('',#123,#122);
#125=DIRECTION('',(0.E0,-1.E0,0.E0));
#126=VECTOR('',#125,9.525E-1);
#127=CARTESIAN_POINT('',(5.9436E0,4.5847E0,0.E0));
#128=LINE('',#127,#126);
#129=DIRECTION('',(1.E0,0.E0,0.E0));
#130=VECTOR('',#129,1.9812E0);
#131=CARTESIAN_POINT('',(-7.9248E0,4.5847E0,0.E0));
#132=LINE('',#131,#130);
#133=DIRECTION('',(1.E0,0.E0,0.E0));
#134=VECTOR('',#133,1.58496E1);
#135=CARTESIAN_POINT('',(-7.9248E0,4.5847E0,-3.175E0));
#136=LINE('',#135,#134);
#137=DIRECTION('',(1.E0,0.E0,0.E0));
#138=VECTOR('',#137,1.9812E0);
#139=CARTESIAN_POINT('',(5.9436E0,4.5847E0,0.E0));
#140=LINE('',#139,#138);
#141=DIRECTION('',(0.E0,0.E0,-1.E0));
#142=VECTOR('',#141,7.112E0);
#143=CARTESIAN_POINT('',(5.9436E0,4.5847E0,7.112E0));
#144=LINE('',#143,#142);
#145=DIRECTION('',(0.E0,0.E0,-1.E0));
#146=VECTOR('',#145,7.112E0);
#147=CARTESIAN_POINT('',(-5.9436E0,4.5847E0,7.112E0));
#148=LINE('',#147,#146);
#149=DIRECTION('',(1.E0,0.E0,0.E0));
#150=VECTOR('',#149,1.58496E1);
#151=CARTESIAN_POINT('',(-7.9248E0,2.792317420935E0,-3.175E0));
#152=LINE('',#151,#150);
#153=DIRECTION('',(1.E0,0.E0,0.E0));
#154=VECTOR('',#153,1.58496E1);
#155=CARTESIAN_POINT('',(-7.9248E0,2.4257E0,-2.54E0));
#156=LINE('',#155,#154);
#157=DIRECTION('',(1.E0,0.E0,0.E0));
#158=VECTOR('',#157,1.58496E1);
#159=CARTESIAN_POINT('',(-7.9248E0,-1.8923E0,-2.54E0));
#160=LINE('',#159,#158);
#161=DIRECTION('',(0.E0,-1.E0,0.E0));
#162=VECTOR('',#161,1.143E0);
#163=CARTESIAN_POINT('',(5.3721E0,5.715E-1,-2.54E0));
#164=LINE('',#163,#162);
#165=DIRECTION('',(1.E0,0.E0,0.E0));
#166=VECTOR('',#165,1.143E0);
#167=CARTESIAN_POINT('',(5.3721E0,5.715E-1,-2.54E0));
#168=LINE('',#167,#166);
#169=DIRECTION('',(0.E0,-1.E0,0.E0));
#170=VECTOR('',#169,1.143E0);
#171=CARTESIAN_POINT('',(6.5151E0,5.715E-1,-2.54E0));
#172=LINE('',#171,#170);
#173=DIRECTION('',(1.E0,0.E0,0.E0));
#174=VECTOR('',#173,1.143E0);
#175=CARTESIAN_POINT('',(5.3721E0,-5.715E-1,-2.54E0));
#176=LINE('',#175,#174);
#177=DIRECTION('',(0.E0,-1.E0,0.E0));
#178=VECTOR('',#177,1.143E0);
#179=CARTESIAN_POINT('',(1.4097E0,5.715E-1,-2.54E0));
#180=LINE('',#179,#178);
#181=DIRECTION('',(1.E0,0.E0,0.E0));
#182=VECTOR('',#181,1.143E0);
#183=CARTESIAN_POINT('',(1.4097E0,5.715E-1,-2.54E0));
#184=LINE('',#183,#182);
#185=DIRECTION('',(0.E0,-1.E0,0.E0));
#186=VECTOR('',#185,1.143E0);
#187=CARTESIAN_POINT('',(2.5527E0,5.715E-1,-2.54E0));
#188=LINE('',#187,#186);
#189=DIRECTION('',(1.E0,0.E0,0.E0));
#190=VECTOR('',#189,1.143E0);
#191=CARTESIAN_POINT('',(1.4097E0,-5.715E-1,-2.54E0));
#192=LINE('',#191,#190);
#193=DIRECTION('',(0.E0,1.E0,0.E0));
#194=VECTOR('',#193,1.143E0);
#195=CARTESIAN_POINT('',(-2.5527E0,-5.715E-1,-2.54E0));
#196=LINE('',#195,#194);
#197=DIRECTION('',(1.E0,0.E0,0.E0));
#198=VECTOR('',#197,1.143E0);
#199=CARTESIAN_POINT('',(-2.5527E0,5.715E-1,-2.54E0));
#200=LINE('',#199,#198);
#201=DIRECTION('',(0.E0,1.E0,0.E0));
#202=VECTOR('',#201,1.143E0);
#203=CARTESIAN_POINT('',(-1.4097E0,-5.715E-1,-2.54E0));
#204=LINE('',#203,#202);
#205=DIRECTION('',(1.E0,0.E0,0.E0));
#206=VECTOR('',#205,1.143E0);
#207=CARTESIAN_POINT('',(-2.5527E0,-5.715E-1,-2.54E0));
#208=LINE('',#207,#206);
#209=DIRECTION('',(0.E0,1.E0,0.E0));
#210=VECTOR('',#209,1.143E0);
#211=CARTESIAN_POINT('',(-6.5151E0,-5.715E-1,-2.54E0));
#212=LINE('',#211,#210);
#213=DIRECTION('',(1.E0,0.E0,0.E0));
#214=VECTOR('',#213,1.143E0);
#215=CARTESIAN_POINT('',(-6.5151E0,5.715E-1,-2.54E0));
#216=LINE('',#215,#214);
#217=DIRECTION('',(0.E0,1.E0,0.E0));
#218=VECTOR('',#217,1.143E0);
#219=CARTESIAN_POINT('',(-5.3721E0,-5.715E-1,-2.54E0));
#220=LINE('',#219,#218);
#221=DIRECTION('',(1.E0,0.E0,0.E0));
#222=VECTOR('',#221,1.143E0);
#223=CARTESIAN_POINT('',(-6.5151E0,-5.715E-1,-2.54E0));
#224=LINE('',#223,#222);
#225=DIRECTION('',(1.E0,0.E0,0.E0));
#226=VECTOR('',#225,1.58496E1);
#227=CARTESIAN_POINT('',(-7.9248E0,-2.258917420935E0,-3.175E0));
#228=LINE('',#227,#226);
#229=DIRECTION('',(1.E0,0.E0,0.E0));
#230=VECTOR('',#229,1.58496E1);
#231=CARTESIAN_POINT('',(-7.9248E0,-3.0353E0,-3.175E0));
#232=LINE('',#231,#230);
#233=DIRECTION('',(1.E0,0.E0,0.E0));
#234=VECTOR('',#233,1.58496E1);
#235=CARTESIAN_POINT('',(-7.9248E0,-3.0353E0,0.E0));
#236=LINE('',#235,#234);
#237=DIRECTION('',(1.E0,0.E0,0.E0));
#238=VECTOR('',#237,1.58496E1);
#239=CARTESIAN_POINT('',(-7.9248E0,2.1082E0,0.E0));
#240=LINE('',#239,#238);
#241=DIRECTION('',(0.E0,-1.E0,0.E0));
#242=VECTOR('',#241,1.143E0);
#243=CARTESIAN_POINT('',(5.3721E0,5.715E-1,0.E0));
#244=LINE('',#243,#242);
#245=DIRECTION('',(1.E0,0.E0,0.E0));
#246=VECTOR('',#245,1.143E0);
#247=CARTESIAN_POINT('',(5.3721E0,-5.715E-1,0.E0));
#248=LINE('',#247,#246);
#249=DIRECTION('',(0.E0,-1.E0,0.E0));
#250=VECTOR('',#249,1.143E0);
#251=CARTESIAN_POINT('',(6.5151E0,5.715E-1,0.E0));
#252=LINE('',#251,#250);
#253=DIRECTION('',(1.E0,0.E0,0.E0));
#254=VECTOR('',#253,1.143E0);
#255=CARTESIAN_POINT('',(5.3721E0,5.715E-1,0.E0));
#256=LINE('',#255,#254);
#257=DIRECTION('',(0.E0,-1.E0,0.E0));
#258=VECTOR('',#257,1.143E0);
#259=CARTESIAN_POINT('',(1.4097E0,5.715E-1,0.E0));
#260=LINE('',#259,#258);
#261=DIRECTION('',(1.E0,0.E0,0.E0));
#262=VECTOR('',#261,1.143E0);
#263=CARTESIAN_POINT('',(1.4097E0,-5.715E-1,0.E0));
#264=LINE('',#263,#262);
#265=DIRECTION('',(0.E0,-1.E0,0.E0));
#266=VECTOR('',#265,1.143E0);
#267=CARTESIAN_POINT('',(2.5527E0,5.715E-1,0.E0));
#268=LINE('',#267,#266);
#269=DIRECTION('',(1.E0,0.E0,0.E0));
#270=VECTOR('',#269,1.143E0);
#271=CARTESIAN_POINT('',(1.4097E0,5.715E-1,0.E0));
#272=LINE('',#271,#270);
#273=DIRECTION('',(0.E0,1.E0,0.E0));
#274=VECTOR('',#273,1.143E0);
#275=CARTESIAN_POINT('',(-2.5527E0,-5.715E-1,0.E0));
#276=LINE('',#275,#274);
#277=DIRECTION('',(1.E0,0.E0,0.E0));
#278=VECTOR('',#277,1.143E0);
#279=CARTESIAN_POINT('',(-2.5527E0,-5.715E-1,0.E0));
#280=LINE('',#279,#278);
#281=DIRECTION('',(0.E0,1.E0,0.E0));
#282=VECTOR('',#281,1.143E0);
#283=CARTESIAN_POINT('',(-1.4097E0,-5.715E-1,0.E0));
#284=LINE('',#283,#282);
#285=DIRECTION('',(1.E0,0.E0,0.E0));
#286=VECTOR('',#285,1.143E0);
#287=CARTESIAN_POINT('',(-2.5527E0,5.715E-1,0.E0));
#288=LINE('',#287,#286);
#289=DIRECTION('',(0.E0,1.E0,0.E0));
#290=VECTOR('',#289,1.143E0);
#291=CARTESIAN_POINT('',(-6.5151E0,-5.715E-1,0.E0));
#292=LINE('',#291,#290);
#293=DIRECTION('',(1.E0,0.E0,0.E0));
#294=VECTOR('',#293,1.143E0);
#295=CARTESIAN_POINT('',(-6.5151E0,-5.715E-1,0.E0));
#296=LINE('',#295,#294);
#297=DIRECTION('',(0.E0,1.E0,0.E0));
#298=VECTOR('',#297,1.143E0);
#299=CARTESIAN_POINT('',(-5.3721E0,-5.715E-1,0.E0));
#300=LINE('',#299,#298);
#301=DIRECTION('',(1.E0,0.E0,0.E0));
#302=VECTOR('',#301,1.143E0);
#303=CARTESIAN_POINT('',(-6.5151E0,5.715E-1,0.E0));
#304=LINE('',#303,#302);
#305=DIRECTION('',(1.E0,0.E0,0.E0));
#306=VECTOR('',#305,1.58496E1);
#307=CARTESIAN_POINT('',(-7.9248E0,2.1082E0,-5.08E-1));
#308=LINE('',#307,#306);
#309=DIRECTION('',(1.E0,0.E0,0.E0));
#310=VECTOR('',#309,1.58496E1);
#311=CARTESIAN_POINT('',(-7.9248E0,3.6322E0,-5.08E-1));
#312=LINE('',#311,#310);
#313=DIRECTION('',(1.E0,0.E0,0.E0));
#314=VECTOR('',#313,1.9812E0);
#315=CARTESIAN_POINT('',(-7.9248E0,3.6322E0,0.E0));
#316=LINE('',#315,#314);
#317=DIRECTION('',(0.E0,0.E0,-1.E0));
#318=VECTOR('',#317,2.0066E0);
#319=CARTESIAN_POINT('',(-5.9436E0,3.6322E0,2.0066E0));
#320=LINE('',#319,#318);
#321=DIRECTION('',(1.E0,0.E0,0.E0));
#322=VECTOR('',#321,1.18872E1);
#323=CARTESIAN_POINT('',(-5.9436E0,3.6322E0,2.0066E0));
#324=LINE('',#323,#322);
#325=DIRECTION('',(0.E0,0.E0,-1.E0));
#326=VECTOR('',#325,2.0066E0);
#327=CARTESIAN_POINT('',(5.9436E0,3.6322E0,2.0066E0));
#328=LINE('',#327,#326);
#329=DIRECTION('',(1.E0,0.E0,0.E0));
#330=VECTOR('',#329,1.9812E0);
#331=CARTESIAN_POINT('',(5.9436E0,3.6322E0,0.E0));
#332=LINE('',#331,#330);
#333=DIRECTION('',(0.E0,-1.E0,0.E0));
#334=VECTOR('',#333,1.651E0);
#335=CARTESIAN_POINT('',(5.9436E0,4.0767E0,7.62E0));
#336=LINE('',#335,#334);
#337=DIRECTION('',(0.E0,-1.E0,0.E0));
#338=VECTOR('',#337,1.651E0);
#339=CARTESIAN_POINT('',(-5.9436E0,4.0767E0,7.62E0));
#340=LINE('',#339,#338);
#341=DIRECTION('',(1.E0,0.E0,0.E0));
#342=VECTOR('',#341,1.18872E1);
#343=CARTESIAN_POINT('',(-5.9436E0,4.0767E0,7.62E0));
#344=LINE('',#343,#342);
#345=CARTESIAN_POINT('',(5.9436E0,4.0767E0,7.112E0));
#346=DIRECTION('',(1.E0,0.E0,0.E0));
#347=DIRECTION('',(0.E0,1.E0,0.E0));
#348=AXIS2_PLACEMENT_3D('',#345,#346,#347);
#350=CARTESIAN_POINT('',(-5.9436E0,4.0767E0,7.112E0));
#351=DIRECTION('',(1.E0,0.E0,0.E0));
#352=DIRECTION('',(0.E0,1.E0,0.E0));
#353=AXIS2_PLACEMENT_3D('',#350,#351,#352);
#355=DIRECTION('',(1.E0,0.E0,0.E0));
#356=VECTOR('',#355,1.18872E1);
#357=CARTESIAN_POINT('',(-5.9436E0,4.5847E0,7.112E0));
#358=LINE('',#357,#356);
#359=DIRECTION('',(0.E0,5.E-1,-8.660254037844E-1));
#360=VECTOR('',#359,2.413E0);
#361=CARTESIAN_POINT('',(5.9436E0,2.4257E0,4.096319299332E0));
#362=LINE('',#361,#360);
#363=DIRECTION('',(0.E0,5.E-1,-8.660254037844E-1));
#364=VECTOR('',#363,2.413E0);
#365=CARTESIAN_POINT('',(-5.9436E0,2.4257E0,4.096319299332E0));
#366=LINE('',#365,#364);
#367=DIRECTION('',(1.E0,0.E0,0.E0));
#368=VECTOR('',#367,1.18872E1);
#369=CARTESIAN_POINT('',(-5.9436E0,2.4257E0,4.096319299332E0));
#370=LINE('',#369,#368);
#371=DIRECTION('',(0.E0,0.E0,-1.E0));
#372=VECTOR('',#371,3.523680700668E0);
#373=CARTESIAN_POINT('',(5.9436E0,2.4257E0,7.62E0));
#374=LINE('',#373,#372);
#375=DIRECTION('',(0.E0,0.E0,-1.E0));
#376=VECTOR('',#375,3.523680700668E0);
#377=CARTESIAN_POINT('',(-5.9436E0,2.4257E0,7.62E0));
#378=LINE('',#377,#376);
#379=DIRECTION('',(1.E0,0.E0,0.E0));
#380=VECTOR('',#379,1.18872E1);
#381=CARTESIAN_POINT('',(-5.9436E0,2.4257E0,7.62E0));
#382=LINE('',#381,#380);
#383=DIRECTION('',(0.E0,-1.E0,0.E0));
#384=VECTOR('',#383,9.525E-1);
#385=CARTESIAN_POINT('',(7.9248E0,4.5847E0,0.E0));
#386=LINE('',#385,#384);
#387=DIRECTION('',(0.E0,0.E0,1.E0));
#388=VECTOR('',#387,3.175E0);
#389=CARTESIAN_POINT('',(7.9248E0,4.5847E0,-3.175E0));
#390=LINE('',#389,#388);
#391=DIRECTION('',(0.E0,1.E0,0.E0));
#392=VECTOR('',#391,1.792382579065E0);
#393=CARTESIAN_POINT('',(7.9248E0,2.792317420935E0,-3.175E0));
#394=LINE('',#393,#392);
#395=DIRECTION('',(0.E0,5.E-1,-8.660254037844E-1));
#396=VECTOR('',#395,7.332348418708E-1);
#397=CARTESIAN_POINT('',(7.9248E0,2.4257E0,-2.54E0));
#398=LINE('',#397,#396);
#399=DIRECTION('',(0.E0,1.E0,0.E0));
#400=VECTOR('',#399,4.318E0);
#401=CARTESIAN_POINT('',(7.9248E0,-1.8923E0,-2.54E0));
#402=LINE('',#401,#400);
#403=DIRECTION('',(0.E0,5.E-1,8.660254037844E-1));
#404=VECTOR('',#403,7.332348418708E-1);
#405=CARTESIAN_POINT('',(7.9248E0,-2.258917420935E0,-3.175E0));
#406=LINE('',#405,#404);
#407=DIRECTION('',(0.E0,1.E0,0.E0));
#408=VECTOR('',#407,7.763825790646E-1);
#409=CARTESIAN_POINT('',(7.9248E0,-3.0353E0,-3.175E0));
#410=LINE('',#409,#408);
#411=DIRECTION('',(0.E0,0.E0,-1.E0));
#412=VECTOR('',#411,3.175E0);
#413=CARTESIAN_POINT('',(7.9248E0,-3.0353E0,0.E0));
#414=LINE('',#413,#412);
#415=DIRECTION('',(0.E0,-1.E0,0.E0));
#416=VECTOR('',#415,5.1435E0);
#417=CARTESIAN_POINT('',(7.9248E0,2.1082E0,0.E0));
#418=LINE('',#417,#416);
#419=DIRECTION('',(0.E0,0.E0,1.E0));
#420=VECTOR('',#419,5.08E-1);
#421=CARTESIAN_POINT('',(7.9248E0,2.1082E0,-5.08E-1));
#422=LINE('',#421,#420);
#423=CARTESIAN_POINT('',(7.9248E0,2.8702E0,-5.08E-1));
#424=DIRECTION('',(-1.E0,0.E0,0.E0));
#425=DIRECTION('',(0.E0,1.E0,0.E0));
#426=AXIS2_PLACEMENT_3D('',#423,#424,#425);
#428=DIRECTION('',(0.E0,0.E0,-1.E0));
#429=VECTOR('',#428,5.08E-1);
#430=CARTESIAN_POINT('',(7.9248E0,3.6322E0,0.E0));
#431=LINE('',#430,#429);
#432=DIRECTION('',(0.E0,0.E0,1.E0));
#433=VECTOR('',#432,1.016E1);
#434=CARTESIAN_POINT('',(5.3721E0,5.715E-1,0.E0));
#435=LINE('',#434,#433);
#436=DIRECTION('',(0.E0,-1.E0,0.E0));
#437=VECTOR('',#436,1.143E0);
#438=CARTESIAN_POINT('',(5.3721E0,5.715E-1,1.016E1));
#439=LINE('',#438,#437);
#440=DIRECTION('',(0.E0,0.E0,-1.E0));
#441=VECTOR('',#440,1.016E1);
#442=CARTESIAN_POINT('',(5.3721E0,-5.715E-1,1.016E1));
#443=LINE('',#442,#441);
#444=DIRECTION('',(0.E0,0.E0,-1.E0));
#445=VECTOR('',#444,3.81E0);
#446=CARTESIAN_POINT('',(5.3721E0,-5.715E-1,-2.54E0));
#447=LINE('',#446,#445);
#448=DIRECTION('',(0.E0,1.E0,0.E0));
#449=VECTOR('',#448,1.143E0);
#450=CARTESIAN_POINT('',(5.3721E0,-5.715E-1,-6.35E0));
#451=LINE('',#450,#449);
#452=DIRECTION('',(0.E0,0.E0,1.E0));
#453=VECTOR('',#452,3.81E0);
#454=CARTESIAN_POINT('',(5.3721E0,5.715E-1,-6.35E0));
#455=LINE('',#454,#453);
#456=DIRECTION('',(0.E0,0.E0,-1.E0));
#457=VECTOR('',#456,1.016E1);
#458=CARTESIAN_POINT('',(6.5151E0,-5.715E-1,1.016E1));
#459=LINE('',#458,#457);
#460=DIRECTION('',(0.E0,-1.E0,0.E0));
#461=VECTOR('',#460,1.143E0);
#462=CARTESIAN_POINT('',(6.5151E0,5.715E-1,1.016E1));
#463=LINE('',#462,#461);
#464=DIRECTION('',(0.E0,0.E0,1.E0));
#465=VECTOR('',#464,1.016E1);
#466=CARTESIAN_POINT('',(6.5151E0,5.715E-1,0.E0));
#467=LINE('',#466,#465);
#468=DIRECTION('',(0.E0,0.E0,1.E0));
#469=VECTOR('',#468,3.81E0);
#470=CARTESIAN_POINT('',(6.5151E0,5.715E-1,-6.35E0));
#471=LINE('',#470,#469);
#472=DIRECTION('',(0.E0,1.E0,0.E0));
#473=VECTOR('',#472,1.143E0);
#474=CARTESIAN_POINT('',(6.5151E0,-5.715E-1,-6.35E0));
#475=LINE('',#474,#473);
#476=DIRECTION('',(0.E0,0.E0,-1.E0));
#477=VECTOR('',#476,3.81E0);
#478=CARTESIAN_POINT('',(6.5151E0,-5.715E-1,-2.54E0));
#479=LINE('',#478,#477);
#480=DIRECTION('',(1.E0,0.E0,0.E0));
#481=VECTOR('',#480,1.143E0);
#482=CARTESIAN_POINT('',(5.3721E0,-5.715E-1,1.016E1));
#483=LINE('',#482,#481);
#484=DIRECTION('',(1.E0,0.E0,0.E0));
#485=VECTOR('',#484,1.143E0);
#486=CARTESIAN_POINT('',(5.3721E0,5.715E-1,1.016E1));
#487=LINE('',#486,#485);
#488=DIRECTION('',(1.E0,0.E0,0.E0));
#489=VECTOR('',#488,1.143E0);
#490=CARTESIAN_POINT('',(5.3721E0,5.715E-1,-6.35E0));
#491=LINE('',#490,#489);
#492=DIRECTION('',(1.E0,0.E0,0.E0));
#493=VECTOR('',#492,1.143E0);
#494=CARTESIAN_POINT('',(5.3721E0,-5.715E-1,-6.35E0));
#495=LINE('',#494,#493);
#496=DIRECTION('',(0.E0,0.E0,1.E0));
#497=VECTOR('',#496,1.016E1);
#498=CARTESIAN_POINT('',(1.4097E0,5.715E-1,0.E0));
#499=LINE('',#498,#497);
#500=DIRECTION('',(0.E0,-1.E0,0.E0));
#501=VECTOR('',#500,1.143E0);
#502=CARTESIAN_POINT('',(1.4097E0,5.715E-1,1.016E1));
#503=LINE('',#502,#501);
#504=DIRECTION('',(0.E0,0.E0,-1.E0));
#505=VECTOR('',#504,1.016E1);
#506=CARTESIAN_POINT('',(1.4097E0,-5.715E-1,1.016E1));
#507=LINE('',#506,#505);
#508=DIRECTION('',(0.E0,0.E0,-1.E0));
#509=VECTOR('',#508,3.81E0);
#510=CARTESIAN_POINT('',(1.4097E0,-5.715E-1,-2.54E0));
#511=LINE('',#510,#509);
#512=DIRECTION('',(0.E0,1.E0,0.E0));
#513=VECTOR('',#512,1.143E0);
#514=CARTESIAN_POINT('',(1.4097E0,-5.715E-1,-6.35E0));
#515=LINE('',#514,#513);
#516=DIRECTION('',(0.E0,0.E0,1.E0));
#517=VECTOR('',#516,3.81E0);
#518=CARTESIAN_POINT('',(1.4097E0,5.715E-1,-6.35E0));
#519=LINE('',#518,#517);
#520=DIRECTION('',(0.E0,0.E0,-1.E0));
#521=VECTOR('',#520,1.016E1);
#522=CARTESIAN_POINT('',(2.5527E0,-5.715E-1,1.016E1));
#523=LINE('',#522,#521);
#524=DIRECTION('',(0.E0,-1.E0,0.E0));
#525=VECTOR('',#524,1.143E0);
#526=CARTESIAN_POINT('',(2.5527E0,5.715E-1,1.016E1));
#527=LINE('',#526,#525);
#528=DIRECTION('',(0.E0,0.E0,1.E0));
#529=VECTOR('',#528,1.016E1);
#530=CARTESIAN_POINT('',(2.5527E0,5.715E-1,0.E0));
#531=LINE('',#530,#529);
#532=DIRECTION('',(0.E0,0.E0,1.E0));
#533=VECTOR('',#532,3.81E0);
#534=CARTESIAN_POINT('',(2.5527E0,5.715E-1,-6.35E0));
#535=LINE('',#534,#533);
#536=DIRECTION('',(0.E0,1.E0,0.E0));
#537=VECTOR('',#536,1.143E0);
#538=CARTESIAN_POINT('',(2.5527E0,-5.715E-1,-6.35E0));
#539=LINE('',#538,#537);
#540=DIRECTION('',(0.E0,0.E0,-1.E0));
#541=VECTOR('',#540,3.81E0);
#542=CARTESIAN_POINT('',(2.5527E0,-5.715E-1,-2.54E0));
#543=LINE('',#542,#541);
#544=DIRECTION('',(1.E0,0.E0,0.E0));
#545=VECTOR('',#544,1.143E0);
#546=CARTESIAN_POINT('',(1.4097E0,-5.715E-1,1.016E1));
#547=LINE('',#546,#545);
#548=DIRECTION('',(1.E0,0.E0,0.E0));
#549=VECTOR('',#548,1.143E0);
#550=CARTESIAN_POINT('',(1.4097E0,5.715E-1,1.016E1));
#551=LINE('',#550,#549);
#552=DIRECTION('',(1.E0,0.E0,0.E0));
#553=VECTOR('',#552,1.143E0);
#554=CARTESIAN_POINT('',(1.4097E0,5.715E-1,-6.35E0));
#555=LINE('',#554,#553);
#556=DIRECTION('',(1.E0,0.E0,0.E0));
#557=VECTOR('',#556,1.143E0);
#558=CARTESIAN_POINT('',(1.4097E0,-5.715E-1,-6.35E0));
#559=LINE('',#558,#557);
#560=DIRECTION('',(0.E0,0.E0,1.E0));
#561=VECTOR('',#560,1.016E1);
#562=CARTESIAN_POINT('',(-2.5527E0,5.715E-1,0.E0));
#563=LINE('',#562,#561);
#564=DIRECTION('',(0.E0,-1.E0,0.E0));
#565=VECTOR('',#564,1.143E0);
#566=CARTESIAN_POINT('',(-2.5527E0,5.715E-1,1.016E1));
#567=LINE('',#566,#565);
#568=DIRECTION('',(0.E0,0.E0,-1.E0));
#569=VECTOR('',#568,1.016E1);
#570=CARTESIAN_POINT('',(-2.5527E0,-5.715E-1,1.016E1));
#571=LINE('',#570,#569);
#572=DIRECTION('',(0.E0,0.E0,-1.E0));
#573=VECTOR('',#572,3.81E0);
#574=CARTESIAN_POINT('',(-2.5527E0,-5.715E-1,-2.54E0));
#575=LINE('',#574,#573);
#576=DIRECTION('',(0.E0,1.E0,0.E0));
#577=VECTOR('',#576,1.143E0);
#578=CARTESIAN_POINT('',(-2.5527E0,-5.715E-1,-6.35E0));
#579=LINE('',#578,#577);
#580=DIRECTION('',(0.E0,0.E0,1.E0));
#581=VECTOR('',#580,3.81E0);
#582=CARTESIAN_POINT('',(-2.5527E0,5.715E-1,-6.35E0));
#583=LINE('',#582,#581);
#584=DIRECTION('',(0.E0,0.E0,-1.E0));
#585=VECTOR('',#584,1.016E1);
#586=CARTESIAN_POINT('',(-1.4097E0,-5.715E-1,1.016E1));
#587=LINE('',#586,#585);
#588=DIRECTION('',(0.E0,-1.E0,0.E0));
#589=VECTOR('',#588,1.143E0);
#590=CARTESIAN_POINT('',(-1.4097E0,5.715E-1,1.016E1));
#591=LINE('',#590,#589);
#592=DIRECTION('',(0.E0,0.E0,1.E0));
#593=VECTOR('',#592,1.016E1);
#594=CARTESIAN_POINT('',(-1.4097E0,5.715E-1,0.E0));
#595=LINE('',#594,#593);
#596=DIRECTION('',(0.E0,0.E0,1.E0));
#597=VECTOR('',#596,3.81E0);
#598=CARTESIAN_POINT('',(-1.4097E0,5.715E-1,-6.35E0));
#599=LINE('',#598,#597);
#600=DIRECTION('',(0.E0,1.E0,0.E0));
#601=VECTOR('',#600,1.143E0);
#602=CARTESIAN_POINT('',(-1.4097E0,-5.715E-1,-6.35E0));
#603=LINE('',#602,#601);
#604=DIRECTION('',(0.E0,0.E0,-1.E0));
#605=VECTOR('',#604,3.81E0);
#606=CARTESIAN_POINT('',(-1.4097E0,-5.715E-1,-2.54E0));
#607=LINE('',#606,#605);
#608=DIRECTION('',(1.E0,0.E0,0.E0));
#609=VECTOR('',#608,1.143E0);
#610=CARTESIAN_POINT('',(-2.5527E0,-5.715E-1,1.016E1));
#611=LINE('',#610,#609);
#612=DIRECTION('',(1.E0,0.E0,0.E0));
#613=VECTOR('',#612,1.143E0);
#614=CARTESIAN_POINT('',(-2.5527E0,5.715E-1,1.016E1));
#615=LINE('',#614,#613);
#616=DIRECTION('',(1.E0,0.E0,0.E0));
#617=VECTOR('',#616,1.143E0);
#618=CARTESIAN_POINT('',(-2.5527E0,5.715E-1,-6.35E0));
#619=LINE('',#618,#617);
#620=DIRECTION('',(1.E0,0.E0,0.E0));
#621=VECTOR('',#620,1.143E0);
#622=CARTESIAN_POINT('',(-2.5527E0,-5.715E-1,-6.35E0));
#623=LINE('',#622,#621);
#624=DIRECTION('',(0.E0,0.E0,1.E0));
#625=VECTOR('',#624,1.016E1);
#626=CARTESIAN_POINT('',(-6.5151E0,5.715E-1,0.E0));
#627=LINE('',#626,#625);
#628=DIRECTION('',(0.E0,-1.E0,0.E0));
#629=VECTOR('',#628,1.143E0);
#630=CARTESIAN_POINT('',(-6.5151E0,5.715E-1,1.016E1));
#631=LINE('',#630,#629);
#632=DIRECTION('',(0.E0,0.E0,-1.E0));
#633=VECTOR('',#632,1.016E1);
#634=CARTESIAN_POINT('',(-6.5151E0,-5.715E-1,1.016E1));
#635=LINE('',#634,#633);
#636=DIRECTION('',(0.E0,0.E0,-1.E0));
#637=VECTOR('',#636,3.81E0);
#638=CARTESIAN_POINT('',(-6.5151E0,-5.715E-1,-2.54E0));
#639=LINE('',#638,#637);
#640=DIRECTION('',(0.E0,1.E0,0.E0));
#641=VECTOR('',#640,1.143E0);
#642=CARTESIAN_POINT('',(-6.5151E0,-5.715E-1,-6.35E0));
#643=LINE('',#642,#641);
#644=DIRECTION('',(0.E0,0.E0,1.E0));
#645=VECTOR('',#644,3.81E0);
#646=CARTESIAN_POINT('',(-6.5151E0,5.715E-1,-6.35E0));
#647=LINE('',#646,#645);
#648=DIRECTION('',(0.E0,0.E0,-1.E0));
#649=VECTOR('',#648,1.016E1);
#650=CARTESIAN_POINT('',(-5.3721E0,-5.715E-1,1.016E1));
#651=LINE('',#650,#649);
#652=DIRECTION('',(0.E0,-1.E0,0.E0));
#653=VECTOR('',#652,1.143E0);
#654=CARTESIAN_POINT('',(-5.3721E0,5.715E-1,1.016E1));
#655=LINE('',#654,#653);
#656=DIRECTION('',(0.E0,0.E0,1.E0));
#657=VECTOR('',#656,1.016E1);
#658=CARTESIAN_POINT('',(-5.3721E0,5.715E-1,0.E0));
#659=LINE('',#658,#657);
#660=DIRECTION('',(0.E0,0.E0,1.E0));
#661=VECTOR('',#660,3.81E0);
#662=CARTESIAN_POINT('',(-5.3721E0,5.715E-1,-6.35E0));
#663=LINE('',#662,#661);
#664=DIRECTION('',(0.E0,1.E0,0.E0));
#665=VECTOR('',#664,1.143E0);
#666=CARTESIAN_POINT('',(-5.3721E0,-5.715E-1,-6.35E0));
#667=LINE('',#666,#665);
#668=DIRECTION('',(0.E0,0.E0,-1.E0));
#669=VECTOR('',#668,3.81E0);
#670=CARTESIAN_POINT('',(-5.3721E0,-5.715E-1,-2.54E0));
#671=LINE('',#670,#669);
#672=DIRECTION('',(1.E0,0.E0,0.E0));
#673=VECTOR('',#672,1.143E0);
#674=CARTESIAN_POINT('',(-6.5151E0,-5.715E-1,1.016E1));
#675=LINE('',#674,#673);
#676=DIRECTION('',(1.E0,0.E0,0.E0));
#677=VECTOR('',#676,1.143E0);
#678=CARTESIAN_POINT('',(-6.5151E0,5.715E-1,1.016E1));
#679=LINE('',#678,#677);
#680=DIRECTION('',(1.E0,0.E0,0.E0));
#681=VECTOR('',#680,1.143E0);
#682=CARTESIAN_POINT('',(-6.5151E0,5.715E-1,-6.35E0));
#683=LINE('',#682,#681);
#684=DIRECTION('',(1.E0,0.E0,0.E0));
#685=VECTOR('',#684,1.143E0);
#686=CARTESIAN_POINT('',(-6.5151E0,-5.715E-1,-6.35E0));
#687=LINE('',#686,#685);
#688=CARTESIAN_POINT('',(-7.9248E0,3.6322E0,-5.08E-1));
#689=CARTESIAN_POINT('',(-7.9248E0,2.1082E0,-5.08E-1));
#690=VERTEX_POINT('',#688);
#691=VERTEX_POINT('',#689);
#692=CARTESIAN_POINT('',(-7.9248E0,2.1082E0,0.E0));
#693=VERTEX_POINT('',#692);
#694=CARTESIAN_POINT('',(-7.9248E0,-3.0353E0,0.E0));
#695=VERTEX_POINT('',#694);
#696=CARTESIAN_POINT('',(-7.9248E0,-3.0353E0,-3.175E0));
#697=VERTEX_POINT('',#696);
#698=CARTESIAN_POINT('',(-7.9248E0,-2.258917420935E0,-3.175E0));
#699=VERTEX_POINT('',#698);
#700=CARTESIAN_POINT('',(-7.9248E0,-1.8923E0,-2.54E0));
#701=VERTEX_POINT('',#700);
#702=CARTESIAN_POINT('',(-7.9248E0,2.4257E0,-2.54E0));
#703=VERTEX_POINT('',#702);
#704=CARTESIAN_POINT('',(-7.9248E0,2.792317420935E0,-3.175E0));
#705=VERTEX_POINT('',#704);
#706=CARTESIAN_POINT('',(-7.9248E0,4.5847E0,-3.175E0));
#707=VERTEX_POINT('',#706);
#708=CARTESIAN_POINT('',(7.9248E0,3.6322E0,-5.08E-1));
#709=CARTESIAN_POINT('',(7.9248E0,2.1082E0,-5.08E-1));
#710=VERTEX_POINT('',#708);
#711=VERTEX_POINT('',#709);
#712=CARTESIAN_POINT('',(7.9248E0,2.1082E0,0.E0));
#713=VERTEX_POINT('',#712);
#714=CARTESIAN_POINT('',(7.9248E0,-3.0353E0,0.E0));
#715=VERTEX_POINT('',#714);
#716=CARTESIAN_POINT('',(7.9248E0,-3.0353E0,-3.175E0));
#717=VERTEX_POINT('',#716);
#718=CARTESIAN_POINT('',(7.9248E0,-2.258917420935E0,-3.175E0));
#719=VERTEX_POINT('',#718);
#720=CARTESIAN_POINT('',(7.9248E0,-1.8923E0,-2.54E0));
#721=VERTEX_POINT('',#720);
#722=CARTESIAN_POINT('',(7.9248E0,2.4257E0,-2.54E0));
#723=VERTEX_POINT('',#722);
#724=CARTESIAN_POINT('',(7.9248E0,2.792317420935E0,-3.175E0));
#725=VERTEX_POINT('',#724);
#726=CARTESIAN_POINT('',(7.9248E0,4.5847E0,-3.175E0));
#727=VERTEX_POINT('',#726);
#728=CARTESIAN_POINT('',(-7.9248E0,4.5847E0,0.E0));
#729=CARTESIAN_POINT('',(-7.9248E0,3.6322E0,0.E0));
#730=VERTEX_POINT('',#728);
#731=VERTEX_POINT('',#729);
#732=CARTESIAN_POINT('',(7.9248E0,4.5847E0,0.E0));
#733=CARTESIAN_POINT('',(7.9248E0,3.6322E0,0.E0));
#734=VERTEX_POINT('',#732);
#735=VERTEX_POINT('',#733);
#736=CARTESIAN_POINT('',(5.9436E0,4.0767E0,7.62E0));
#737=CARTESIAN_POINT('',(5.9436E0,2.4257E0,7.62E0));
#738=VERTEX_POINT('',#736);
#739=VERTEX_POINT('',#737);
#740=CARTESIAN_POINT('',(-5.9436E0,4.0767E0,7.62E0));
#741=CARTESIAN_POINT('',(-5.9436E0,2.4257E0,7.62E0));
#742=VERTEX_POINT('',#740);
#743=VERTEX_POINT('',#741);
#744=CARTESIAN_POINT('',(5.9436E0,2.4257E0,4.096319299332E0));
#745=VERTEX_POINT('',#744);
#746=CARTESIAN_POINT('',(-5.9436E0,2.4257E0,4.096319299332E0));
#747=VERTEX_POINT('',#746);
#748=CARTESIAN_POINT('',(5.9436E0,3.6322E0,2.0066E0));
#749=VERTEX_POINT('',#748);
#750=CARTESIAN_POINT('',(-5.9436E0,3.6322E0,2.0066E0));
#751=VERTEX_POINT('',#750);
#752=CARTESIAN_POINT('',(-5.9436E0,3.6322E0,0.E0));
#753=VERTEX_POINT('',#752);
#754=CARTESIAN_POINT('',(5.9436E0,3.6322E0,0.E0));
#755=VERTEX_POINT('',#754);
#756=CARTESIAN_POINT('',(-5.9436E0,4.5847E0,0.E0));
#757=VERTEX_POINT('',#756);
#758=CARTESIAN_POINT('',(5.9436E0,4.5847E0,0.E0));
#759=VERTEX_POINT('',#758);
#760=CARTESIAN_POINT('',(5.9436E0,4.5847E0,7.112E0));
#761=VERTEX_POINT('',#760);
#762=CARTESIAN_POINT('',(-5.9436E0,4.5847E0,7.112E0));
#763=VERTEX_POINT('',#762);
#764=CARTESIAN_POINT('',(5.3721E0,-5.715E-1,-6.35E0));
#765=CARTESIAN_POINT('',(5.3721E0,5.715E-1,-6.35E0));
#766=VERTEX_POINT('',#764);
#767=VERTEX_POINT('',#765);
#768=CARTESIAN_POINT('',(5.3721E0,5.715E-1,1.016E1));
#769=CARTESIAN_POINT('',(5.3721E0,-5.715E-1,1.016E1));
#770=VERTEX_POINT('',#768);
#771=VERTEX_POINT('',#769);
#772=CARTESIAN_POINT('',(6.5151E0,-5.715E-1,-6.35E0));
#773=CARTESIAN_POINT('',(6.5151E0,5.715E-1,-6.35E0));
#774=VERTEX_POINT('',#772);
#775=VERTEX_POINT('',#773);
#776=CARTESIAN_POINT('',(6.5151E0,5.715E-1,1.016E1));
#777=CARTESIAN_POINT('',(6.5151E0,-5.715E-1,1.016E1));
#778=VERTEX_POINT('',#776);
#779=VERTEX_POINT('',#777);
#780=CARTESIAN_POINT('',(5.3721E0,5.715E-1,0.E0));
#781=CARTESIAN_POINT('',(5.3721E0,-5.715E-1,0.E0));
#782=VERTEX_POINT('',#780);
#783=VERTEX_POINT('',#781);
#784=CARTESIAN_POINT('',(6.5151E0,5.715E-1,0.E0));
#785=CARTESIAN_POINT('',(6.5151E0,-5.715E-1,0.E0));
#786=VERTEX_POINT('',#784);
#787=VERTEX_POINT('',#785);
#788=CARTESIAN_POINT('',(5.3721E0,5.715E-1,-2.54E0));
#789=CARTESIAN_POINT('',(5.3721E0,-5.715E-1,-2.54E0));
#790=VERTEX_POINT('',#788);
#791=VERTEX_POINT('',#789);
#792=CARTESIAN_POINT('',(6.5151E0,5.715E-1,-2.54E0));
#793=CARTESIAN_POINT('',(6.5151E0,-5.715E-1,-2.54E0));
#794=VERTEX_POINT('',#792);
#795=VERTEX_POINT('',#793);
#796=CARTESIAN_POINT('',(1.4097E0,-5.715E-1,-6.35E0));
#797=CARTESIAN_POINT('',(1.4097E0,5.715E-1,-6.35E0));
#798=VERTEX_POINT('',#796);
#799=VERTEX_POINT('',#797);
#800=CARTESIAN_POINT('',(1.4097E0,5.715E-1,1.016E1));
#801=CARTESIAN_POINT('',(1.4097E0,-5.715E-1,1.016E1));
#802=VERTEX_POINT('',#800);
#803=VERTEX_POINT('',#801);
#804=CARTESIAN_POINT('',(2.5527E0,-5.715E-1,-6.35E0));
#805=CARTESIAN_POINT('',(2.5527E0,5.715E-1,-6.35E0));
#806=VERTEX_POINT('',#804);
#807=VERTEX_POINT('',#805);
#808=CARTESIAN_POINT('',(2.5527E0,5.715E-1,1.016E1));
#809=CARTESIAN_POINT('',(2.5527E0,-5.715E-1,1.016E1));
#810=VERTEX_POINT('',#808);
#811=VERTEX_POINT('',#809);
#812=CARTESIAN_POINT('',(1.4097E0,5.715E-1,0.E0));
#813=CARTESIAN_POINT('',(1.4097E0,-5.715E-1,0.E0));
#814=VERTEX_POINT('',#812);
#815=VERTEX_POINT('',#813);
#816=CARTESIAN_POINT('',(2.5527E0,5.715E-1,0.E0));
#817=CARTESIAN_POINT('',(2.5527E0,-5.715E-1,0.E0));
#818=VERTEX_POINT('',#816);
#819=VERTEX_POINT('',#817);
#820=CARTESIAN_POINT('',(1.4097E0,5.715E-1,-2.54E0));
#821=CARTESIAN_POINT('',(1.4097E0,-5.715E-1,-2.54E0));
#822=VERTEX_POINT('',#820);
#823=VERTEX_POINT('',#821);
#824=CARTESIAN_POINT('',(2.5527E0,5.715E-1,-2.54E0));
#825=CARTESIAN_POINT('',(2.5527E0,-5.715E-1,-2.54E0));
#826=VERTEX_POINT('',#824);
#827=VERTEX_POINT('',#825);
#828=CARTESIAN_POINT('',(-2.5527E0,5.715E-1,1.016E1));
#829=CARTESIAN_POINT('',(-2.5527E0,-5.715E-1,1.016E1));
#830=VERTEX_POINT('',#828);
#831=VERTEX_POINT('',#829);
#832=CARTESIAN_POINT('',(-2.5527E0,-5.715E-1,-6.35E0));
#833=CARTESIAN_POINT('',(-2.5527E0,5.715E-1,-6.35E0));
#834=VERTEX_POINT('',#832);
#835=VERTEX_POINT('',#833);
#836=CARTESIAN_POINT('',(-1.4097E0,5.715E-1,1.016E1));
#837=CARTESIAN_POINT('',(-1.4097E0,-5.715E-1,1.016E1));
#838=VERTEX_POINT('',#836);
#839=VERTEX_POINT('',#837);
#840=CARTESIAN_POINT('',(-1.4097E0,-5.715E-1,-6.35E0));
#841=CARTESIAN_POINT('',(-1.4097E0,5.715E-1,-6.35E0));
#842=VERTEX_POINT('',#840);
#843=VERTEX_POINT('',#841);
#844=CARTESIAN_POINT('',(-2.5527E0,-5.715E-1,0.E0));
#845=CARTESIAN_POINT('',(-2.5527E0,5.715E-1,0.E0));
#846=VERTEX_POINT('',#844);
#847=VERTEX_POINT('',#845);
#848=CARTESIAN_POINT('',(-1.4097E0,-5.715E-1,0.E0));
#849=CARTESIAN_POINT('',(-1.4097E0,5.715E-1,0.E0));
#850=VERTEX_POINT('',#848);
#851=VERTEX_POINT('',#849);
#852=CARTESIAN_POINT('',(-2.5527E0,-5.715E-1,-2.54E0));
#853=CARTESIAN_POINT('',(-2.5527E0,5.715E-1,-2.54E0));
#854=VERTEX_POINT('',#852);
#855=VERTEX_POINT('',#853);
#856=CARTESIAN_POINT('',(-1.4097E0,-5.715E-1,-2.54E0));
#857=CARTESIAN_POINT('',(-1.4097E0,5.715E-1,-2.54E0));
#858=VERTEX_POINT('',#856);
#859=VERTEX_POINT('',#857);
#860=CARTESIAN_POINT('',(-6.5151E0,5.715E-1,1.016E1));
#861=CARTESIAN_POINT('',(-6.5151E0,-5.715E-1,1.016E1));
#862=VERTEX_POINT('',#860);
#863=VERTEX_POINT('',#861);
#864=CARTESIAN_POINT('',(-6.5151E0,-5.715E-1,-6.35E0));
#865=CARTESIAN_POINT('',(-6.5151E0,5.715E-1,-6.35E0));
#866=VERTEX_POINT('',#864);
#867=VERTEX_POINT('',#865);
#868=CARTESIAN_POINT('',(-5.3721E0,5.715E-1,1.016E1));
#869=CARTESIAN_POINT('',(-5.3721E0,-5.715E-1,1.016E1));
#870=VERTEX_POINT('',#868);
#871=VERTEX_POINT('',#869);
#872=CARTESIAN_POINT('',(-5.3721E0,-5.715E-1,-6.35E0));
#873=CARTESIAN_POINT('',(-5.3721E0,5.715E-1,-6.35E0));
#874=VERTEX_POINT('',#872);
#875=VERTEX_POINT('',#873);
#876=CARTESIAN_POINT('',(-6.5151E0,-5.715E-1,0.E0));
#877=CARTESIAN_POINT('',(-6.5151E0,5.715E-1,0.E0));
#878=VERTEX_POINT('',#876);
#879=VERTEX_POINT('',#877);
#880=CARTESIAN_POINT('',(-5.3721E0,-5.715E-1,0.E0));
#881=CARTESIAN_POINT('',(-5.3721E0,5.715E-1,0.E0));
#882=VERTEX_POINT('',#880);
#883=VERTEX_POINT('',#881);
#884=CARTESIAN_POINT('',(-6.5151E0,-5.715E-1,-2.54E0));
#885=CARTESIAN_POINT('',(-6.5151E0,5.715E-1,-2.54E0));
#886=VERTEX_POINT('',#884);
#887=VERTEX_POINT('',#885);
#888=CARTESIAN_POINT('',(-5.3721E0,-5.715E-1,-2.54E0));
#889=CARTESIAN_POINT('',(-5.3721E0,5.715E-1,-2.54E0));
#890=VERTEX_POINT('',#888);
#891=VERTEX_POINT('',#889);
#892=CARTESIAN_POINT('',(-7.9248E0,0.E0,0.E0));
#893=DIRECTION('',(1.E0,0.E0,0.E0));
#894=DIRECTION('',(0.E0,1.E0,0.E0));
#895=AXIS2_PLACEMENT_3D('',#892,#893,#894);
#896=PLANE('',#895);
#898=ORIENTED_EDGE('',*,*,#897,.T.);
#900=ORIENTED_EDGE('',*,*,#899,.T.);
#902=ORIENTED_EDGE('',*,*,#901,.T.);
#904=ORIENTED_EDGE('',*,*,#903,.T.);
#906=ORIENTED_EDGE('',*,*,#905,.T.);
#908=ORIENTED_EDGE('',*,*,#907,.T.);
#910=ORIENTED_EDGE('',*,*,#909,.T.);
#912=ORIENTED_EDGE('',*,*,#911,.T.);
#914=ORIENTED_EDGE('',*,*,#913,.T.);
#916=ORIENTED_EDGE('',*,*,#915,.T.);
#918=ORIENTED_EDGE('',*,*,#917,.T.);
#920=ORIENTED_EDGE('',*,*,#919,.T.);
#921=EDGE_LOOP('',(#898,#900,#902,#904,#906,#908,#910,#912,#914,#916,#918,
#920));
#922=FACE_OUTER_BOUND('',#921,.F.);
#923=ADVANCED_FACE('',(#922),#896,.F.);
#924=CARTESIAN_POINT('',(-7.9248E0,2.1082E0,0.E0));
#925=DIRECTION('',(0.E0,0.E0,1.E0));
#926=DIRECTION('',(0.E0,-1.E0,0.E0));
#927=AXIS2_PLACEMENT_3D('',#924,#925,#926);
#928=PLANE('',#927);
#929=ORIENTED_EDGE('',*,*,#897,.F.);
#931=ORIENTED_EDGE('',*,*,#930,.T.);
#933=ORIENTED_EDGE('',*,*,#932,.F.);
#935=ORIENTED_EDGE('',*,*,#934,.F.);
#936=EDGE_LOOP('',(#929,#931,#933,#935));
#937=FACE_OUTER_BOUND('',#936,.F.);
#938=ADVANCED_FACE('',(#937),#928,.T.);
#939=CARTESIAN_POINT('',(-7.9248E0,2.1082E0,0.E0));
#940=DIRECTION('',(0.E0,0.E0,1.E0));
#941=DIRECTION('',(0.E0,-1.E0,0.E0));
#942=AXIS2_PLACEMENT_3D('',#939,#940,#941);
#943=PLANE('',#942);
#945=ORIENTED_EDGE('',*,*,#944,.T.);
#947=ORIENTED_EDGE('',*,*,#946,.F.);
#949=ORIENTED_EDGE('',*,*,#948,.F.);
#951=ORIENTED_EDGE('',*,*,#950,.T.);
#952=EDGE_LOOP('',(#945,#947,#949,#951));
#953=FACE_OUTER_BOUND('',#952,.F.);
#954=ADVANCED_FACE('',(#953),#943,.T.);
#955=CARTESIAN_POINT('',(-7.9248E0,4.5847E0,-3.175E0));
#956=DIRECTION('',(0.E0,1.E0,0.E0));
#957=DIRECTION('',(0.E0,0.E0,1.E0));
#958=AXIS2_PLACEMENT_3D('',#955,#956,#957);
#959=PLANE('',#958);
#960=ORIENTED_EDGE('',*,*,#930,.F.);
#961=ORIENTED_EDGE('',*,*,#919,.F.);
#963=ORIENTED_EDGE('',*,*,#962,.T.);
#965=ORIENTED_EDGE('',*,*,#964,.T.);
#966=ORIENTED_EDGE('',*,*,#950,.F.);
#968=ORIENTED_EDGE('',*,*,#967,.F.);
#970=ORIENTED_EDGE('',*,*,#969,.F.);
#972=ORIENTED_EDGE('',*,*,#971,.T.);
#973=EDGE_LOOP('',(#960,#961,#963,#965,#966,#968,#970,#972));
#974=FACE_OUTER_BOUND('',#973,.F.);
#975=ADVANCED_FACE('',(#974),#959,.T.);
#976=CARTESIAN_POINT('',(-7.9248E0,2.792317420935E0,-3.175E0));
#977=DIRECTION('',(0.E0,0.E0,-1.E0));
#978=DIRECTION('',(0.E0,1.E0,0.E0));
#979=AXIS2_PLACEMENT_3D('',#976,#977,#978);
#980=PLANE('',#979);
#981=ORIENTED_EDGE('',*,*,#917,.F.);
#983=ORIENTED_EDGE('',*,*,#982,.T.);
#985=ORIENTED_EDGE('',*,*,#984,.T.);
#986=ORIENTED_EDGE('',*,*,#962,.F.);
#987=EDGE_LOOP('',(#981,#983,#985,#986));
#988=FACE_OUTER_BOUND('',#987,.F.);
#989=ADVANCED_FACE('',(#988),#980,.T.);
#990=CARTESIAN_POINT('',(-7.9248E0,2.4257E0,-2.54E0));
#991=DIRECTION('',(0.E0,-8.660254037844E-1,-5.E-1));
#992=DIRECTION('',(0.E0,5.E-1,-8.660254037844E-1));
#993=AXIS2_PLACEMENT_3D('',#990,#991,#992);
#994=PLANE('',#993);
#995=ORIENTED_EDGE('',*,*,#915,.F.);
#997=ORIENTED_EDGE('',*,*,#996,.T.);
#999=ORIENTED_EDGE('',*,*,#998,.T.);
#1000=ORIENTED_EDGE('',*,*,#982,.F.);
#1001=EDGE_LOOP('',(#995,#997,#999,#1000));
#1002=FACE_OUTER_BOUND('',#1001,.F.);
#1003=ADVANCED_FACE('',(#1002),#994,.T.);
#1004=CARTESIAN_POINT('',(-7.9248E0,-1.8923E0,-2.54E0));
#1005=DIRECTION('',(0.E0,0.E0,-1.E0));
#1006=DIRECTION('',(0.E0,1.E0,0.E0));
#1007=AXIS2_PLACEMENT_3D('',#1004,#1005,#1006);
#1008=PLANE('',#1007);
#1009=ORIENTED_EDGE('',*,*,#913,.F.);
#1011=ORIENTED_EDGE('',*,*,#1010,.T.);
#1013=ORIENTED_EDGE('',*,*,#1012,.T.);
#1014=ORIENTED_EDGE('',*,*,#996,.F.);
#1015=EDGE_LOOP('',(#1009,#1011,#1013,#1014));
#1016=FACE_OUTER_BOUND('',#1015,.F.);
#1018=ORIENTED_EDGE('',*,*,#1017,.F.);
#1020=ORIENTED_EDGE('',*,*,#1019,.T.);
#1022=ORIENTED_EDGE('',*,*,#1021,.T.);
#1024=ORIENTED_EDGE('',*,*,#1023,.F.);
#1025=EDGE_LOOP('',(#1018,#1020,#1022,#1024));
#1026=FACE_BOUND('',#1025,.F.);
#1028=ORIENTED_EDGE('',*,*,#1027,.F.);
#1030=ORIENTED_EDGE('',*,*,#1029,.T.);
#1032=ORIENTED_EDGE('',*,*,#1031,.T.);
#1034=ORIENTED_EDGE('',*,*,#1033,.F.);
#1035=EDGE_LOOP('',(#1028,#1030,#1032,#1034));
#1036=FACE_BOUND('',#1035,.F.);
#1038=ORIENTED_EDGE('',*,*,#1037,.T.);
#1040=ORIENTED_EDGE('',*,*,#1039,.T.);
#1042=ORIENTED_EDGE('',*,*,#1041,.F.);
#1044=ORIENTED_EDGE('',*,*,#1043,.F.);
#1045=EDGE_LOOP('',(#1038,#1040,#1042,#1044));
#1046=FACE_BOUND('',#1045,.F.);
#1048=ORIENTED_EDGE('',*,*,#1047,.T.);
#1050=ORIENTED_EDGE('',*,*,#1049,.T.);
#1052=ORIENTED_EDGE('',*,*,#1051,.F.);
#1054=ORIENTED_EDGE('',*,*,#1053,.F.);
#1055=EDGE_LOOP('',(#1048,#1050,#1052,#1054));
#1056=FACE_BOUND('',#1055,.F.);
#1057=ADVANCED_FACE('',(#1016,#1026,#1036,#1046,#1056),#1008,.T.);
#1058=CARTESIAN_POINT('',(-7.9248E0,-2.258917420935E0,-3.175E0));
#1059=DIRECTION('',(0.E0,8.660254037844E-1,-5.E-1));
#1060=DIRECTION('',(0.E0,5.E-1,8.660254037844E-1));
#1061=AXIS2_PLACEMENT_3D('',#1058,#1059,#1060);
#1062=PLANE('',#1061);
#1063=ORIENTED_EDGE('',*,*,#911,.F.);
#1065=ORIENTED_EDGE('',*,*,#1064,.T.);
#1067=ORIENTED_EDGE('',*,*,#1066,.T.);
#1068=ORIENTED_EDGE('',*,*,#1010,.F.);
#1069=EDGE_LOOP('',(#1063,#1065,#1067,#1068));
#1070=FACE_OUTER_BOUND('',#1069,.F.);
#1071=ADVANCED_FACE('',(#1070),#1062,.T.);
#1072=CARTESIAN_POINT('',(-7.9248E0,-3.0353E0,-3.175E0));
#1073=DIRECTION('',(0.E0,0.E0,-1.E0));
#1074=DIRECTION('',(0.E0,1.E0,0.E0));
#1075=AXIS2_PLACEMENT_3D('',#1072,#1073,#1074);
#1076=PLANE('',#1075);
#1077=ORIENTED_EDGE('',*,*,#909,.F.);
#1079=ORIENTED_EDGE('',*,*,#1078,.T.);
#1081=ORIENTED_EDGE('',*,*,#1080,.T.);
#1082=ORIENTED_EDGE('',*,*,#1064,.F.);
#1083=EDGE_LOOP('',(#1077,#1079,#1081,#1082));
#1084=FACE_OUTER_BOUND('',#1083,.F.);
#1085=ADVANCED_FACE('',(#1084),#1076,.T.);
#1086=CARTESIAN_POINT('',(-7.9248E0,-3.0353E0,0.E0));
#1087=DIRECTION('',(0.E0,-1.E0,0.E0));
#1088=DIRECTION('',(0.E0,0.E0,-1.E0));
#1089=AXIS2_PLACEMENT_3D('',#1086,#1087,#1088);
#1090=PLANE('',#1089);
#1091=ORIENTED_EDGE('',*,*,#907,.F.);
#1093=ORIENTED_EDGE('',*,*,#1092,.T.);
#1095=ORIENTED_EDGE('',*,*,#1094,.T.);
#1096=ORIENTED_EDGE('',*,*,#1078,.F.);
#1097=EDGE_LOOP('',(#1091,#1093,#1095,#1096));
#1098=FACE_OUTER_BOUND('',#1097,.F.);
#1099=ADVANCED_FACE('',(#1098),#1090,.T.);
#1100=CARTESIAN_POINT('',(-7.9248E0,2.1082E0,0.E0));
#1101=DIRECTION('',(0.E0,0.E0,1.E0));
#1102=DIRECTION('',(0.E0,-1.E0,0.E0));
#1103=AXIS2_PLACEMENT_3D('',#1100,#1101,#1102);
#1104=PLANE('',#1103);
#1105=ORIENTED_EDGE('',*,*,#905,.F.);
#1107=ORIENTED_EDGE('',*,*,#1106,.T.);
#1109=ORIENTED_EDGE('',*,*,#1108,.T.);
#1110=ORIENTED_EDGE('',*,*,#1092,.F.);
#1111=EDGE_LOOP('',(#1105,#1107,#1109,#1110));
#1112=FACE_OUTER_BOUND('',#1111,.F.);
#1114=ORIENTED_EDGE('',*,*,#1113,.T.);
#1116=ORIENTED_EDGE('',*,*,#1115,.T.);
#1118=ORIENTED_EDGE('',*,*,#1117,.F.);
#1120=ORIENTED_EDGE('',*,*,#1119,.F.);
#1121=EDGE_LOOP('',(#1114,#1116,#1118,#1120));
#1122=FACE_BOUND('',#1121,.F.);
#1124=ORIENTED_EDGE('',*,*,#1123,.T.);
#1126=ORIENTED_EDGE('',*,*,#1125,.T.);
#1128=ORIENTED_EDGE('',*,*,#1127,.F.);
#1130=ORIENTED_EDGE('',*,*,#1129,.F.);
#1131=EDGE_LOOP('',(#1124,#1126,#1128,#1130));
#1132=FACE_BOUND('',#1131,.F.);
#1134=ORIENTED_EDGE('',*,*,#1133,.F.);
#1136=ORIENTED_EDGE('',*,*,#1135,.T.);
#1138=ORIENTED_EDGE('',*,*,#1137,.T.);
#1140=ORIENTED_EDGE('',*,*,#1139,.F.);
#1141=EDGE_LOOP('',(#1134,#1136,#1138,#1140));
#1142=FACE_BOUND('',#1141,.F.);
#1144=ORIENTED_EDGE('',*,*,#1143,.F.);
#1146=ORIENTED_EDGE('',*,*,#1145,.T.);
#1148=ORIENTED_EDGE('',*,*,#1147,.T.);
#1150=ORIENTED_EDGE('',*,*,#1149,.F.);
#1151=EDGE_LOOP('',(#1144,#1146,#1148,#1150));
#1152=FACE_BOUND('',#1151,.F.);
#1153=ADVANCED_FACE('',(#1112,#1122,#1132,#1142,#1152),#1104,.T.);
#1154=CARTESIAN_POINT('',(-7.9248E0,2.1082E0,-5.08E-1));
#1155=DIRECTION('',(0.E0,1.E0,0.E0));
#1156=DIRECTION('',(0.E0,0.E0,1.E0));
#1157=AXIS2_PLACEMENT_3D('',#1154,#1155,#1156);
#1158=PLANE('',#1157);
#1159=ORIENTED_EDGE('',*,*,#903,.F.);
#1161=ORIENTED_EDGE('',*,*,#1160,.T.);
#1163=ORIENTED_EDGE('',*,*,#1162,.T.);
#1164=ORIENTED_EDGE('',*,*,#1106,.F.);
#1165=EDGE_LOOP('',(#1159,#1161,#1163,#1164));
#1166=FACE_OUTER_BOUND('',#1165,.F.);
#1167=ADVANCED_FACE('',(#1166),#1158,.T.);
#1168=CARTESIAN_POINT('',(-7.9248E0,2.8702E0,-5.08E-1));
#1169=DIRECTION('',(1.E0,0.E0,0.E0));
#1170=DIRECTION('',(0.E0,1.E0,0.E0));
#1171=AXIS2_PLACEMENT_3D('',#1168,#1169,#1170);
#1172=CYLINDRICAL_SURFACE('',#1171,7.62E-1);
#1173=ORIENTED_EDGE('',*,*,#901,.F.);
#1175=ORIENTED_EDGE('',*,*,#1174,.T.);
#1177=ORIENTED_EDGE('',*,*,#1176,.T.);
#1178=ORIENTED_EDGE('',*,*,#1160,.F.);
#1179=EDGE_LOOP('',(#1173,#1175,#1177,#1178));
#1180=FACE_OUTER_BOUND('',#1179,.F.);
#1181=ADVANCED_FACE('',(#1180),#1172,.F.);
#1182=CARTESIAN_POINT('',(-7.9248E0,3.6322E0,2.0066E0));
#1183=DIRECTION('',(0.E0,-1.E0,0.E0));
#1184=DIRECTION('',(0.E0,0.E0,-1.E0));
#1185=AXIS2_PLACEMENT_3D('',#1182,#1183,#1184);
#1186=PLANE('',#1185);
#1187=ORIENTED_EDGE('',*,*,#934,.T.);
#1189=ORIENTED_EDGE('',*,*,#1188,.F.);
#1191=ORIENTED_EDGE('',*,*,#1190,.T.);
#1193=ORIENTED_EDGE('',*,*,#1192,.T.);
#1194=ORIENTED_EDGE('',*,*,#946,.T.);
#1196=ORIENTED_EDGE('',*,*,#1195,.T.);
#1197=ORIENTED_EDGE('',*,*,#1174,.F.);
#1198=ORIENTED_EDGE('',*,*,#899,.F.);
#1199=EDGE_LOOP('',(#1187,#1189,#1191,#1193,#1194,#1196,#1197,#1198));
#1200=FACE_OUTER_BOUND('',#1199,.F.);
#1201=ADVANCED_FACE('',(#1200),#1186,.T.);
#1202=CARTESIAN_POINT('',(-5.9436E0,2.4257E0,7.62E0));
#1203=DIRECTION('',(1.E0,0.E0,0.E0));
#1204=DIRECTION('',(0.E0,1.E0,0.E0));
#1205=AXIS2_PLACEMENT_3D('',#1202,#1203,#1204);
#1206=PLANE('',#1205);
#1208=ORIENTED_EDGE('',*,*,#1207,.T.);
#1210=ORIENTED_EDGE('',*,*,#1209,.T.);
#1212=ORIENTED_EDGE('',*,*,#1211,.T.);
#1213=ORIENTED_EDGE('',*,*,#1188,.T.);
#1214=ORIENTED_EDGE('',*,*,#932,.T.);
#1215=ORIENTED_EDGE('',*,*,#971,.F.);
#1217=ORIENTED_EDGE('',*,*,#1216,.T.);
#1218=EDGE_LOOP('',(#1208,#1210,#1212,#1213,#1214,#1215,#1217));
#1219=FACE_OUTER_BOUND('',#1218,.F.);
#1220=ADVANCED_FACE('',(#1219),#1206,.F.);
#1221=CARTESIAN_POINT('',(-7.9248E0,4.0767E0,7.62E0));
#1222=DIRECTION('',(0.E0,0.E0,1.E0));
#1223=DIRECTION('',(0.E0,-1.E0,0.E0));
#1224=AXIS2_PLACEMENT_3D('',#1221,#1222,#1223);
#1225=PLANE('',#1224);
#1227=ORIENTED_EDGE('',*,*,#1226,.T.);
#1229=ORIENTED_EDGE('',*,*,#1228,.F.);
#1230=ORIENTED_EDGE('',*,*,#1207,.F.);
#1232=ORIENTED_EDGE('',*,*,#1231,.T.);
#1233=EDGE_LOOP('',(#1227,#1229,#1230,#1232));
#1234=FACE_OUTER_BOUND('',#1233,.F.);
#1235=ADVANCED_FACE('',(#1234),#1225,.T.);
#1236=CARTESIAN_POINT('',(5.9436E0,4.5847E0,7.62E0));
#1237=DIRECTION('',(-1.E0,0.E0,0.E0));
#1238=DIRECTION('',(0.E0,-1.E0,0.E0));
#1239=AXIS2_PLACEMENT_3D('',#1236,#1237,#1238);
#1240=PLANE('',#1239);
#1241=ORIENTED_EDGE('',*,*,#1226,.F.);
#1243=ORIENTED_EDGE('',*,*,#1242,.F.);
#1244=ORIENTED_EDGE('',*,*,#967,.T.);
#1245=ORIENTED_EDGE('',*,*,#948,.T.);
#1246=ORIENTED_EDGE('',*,*,#1192,.F.);
#1248=ORIENTED_EDGE('',*,*,#1247,.F.);
#1250=ORIENTED_EDGE('',*,*,#1249,.F.);
#1251=EDGE_LOOP('',(#1241,#1243,#1244,#1245,#1246,#1248,#1250));
#1252=FACE_OUTER_BOUND('',#1251,.F.);
#1253=ADVANCED_FACE('',(#1252),#1240,.F.);
#1254=CARTESIAN_POINT('',(-7.9248E0,4.0767E0,7.112E0));
#1255=DIRECTION('',(1.E0,0.E0,0.E0));
#1256=DIRECTION('',(0.E0,1.E0,0.E0));
#1257=AXIS2_PLACEMENT_3D('',#1254,#1255,#1256);
#1258=CYLINDRICAL_SURFACE('',#1257,5.08E-1);
#1259=ORIENTED_EDGE('',*,*,#1242,.T.);
#1260=ORIENTED_EDGE('',*,*,#1231,.F.);
#1261=ORIENTED_EDGE('',*,*,#1216,.F.);
#1262=ORIENTED_EDGE('',*,*,#969,.T.);
#1263=EDGE_LOOP('',(#1259,#1260,#1261,#1262));
#1264=FACE_OUTER_BOUND('',#1263,.F.);
#1265=ADVANCED_FACE('',(#1264),#1258,.T.);
#1266=CARTESIAN_POINT('',(-7.9248E0,2.4257E0,4.096319299332E0));
#1267=DIRECTION('',(0.E0,-8.660254037844E-1,-5.E-1));
#1268=DIRECTION('',(0.E0,5.E-1,-8.660254037844E-1));
#1269=AXIS2_PLACEMENT_3D('',#1266,#1267,#1268);
#1270=PLANE('',#1269);
#1271=ORIENTED_EDGE('',*,*,#1247,.T.);
#1272=ORIENTED_EDGE('',*,*,#1190,.F.);
#1273=ORIENTED_EDGE('',*,*,#1211,.F.);
#1275=ORIENTED_EDGE('',*,*,#1274,.T.);
#1276=EDGE_LOOP('',(#1271,#1272,#1273,#1275));
#1277=FACE_OUTER_BOUND('',#1276,.F.);
#1278=ADVANCED_FACE('',(#1277),#1270,.T.);
#1279=CARTESIAN_POINT('',(-7.9248E0,2.4257E0,7.62E0));
#1280=DIRECTION('',(0.E0,-1.E0,0.E0));
#1281=DIRECTION('',(0.E0,0.E0,-1.E0));
#1282=AXIS2_PLACEMENT_3D('',#1279,#1280,#1281);
#1283=PLANE('',#1282);
#1284=ORIENTED_EDGE('',*,*,#1249,.T.);
#1285=ORIENTED_EDGE('',*,*,#1274,.F.);
#1286=ORIENTED_EDGE('',*,*,#1209,.F.);
#1287=ORIENTED_EDGE('',*,*,#1228,.T.);
#1288=EDGE_LOOP('',(#1284,#1285,#1286,#1287));
#1289=FACE_OUTER_BOUND('',#1288,.F.);
#1290=ADVANCED_FACE('',(#1289),#1283,.T.);
#1291=CARTESIAN_POINT('',(7.9248E0,0.E0,0.E0));
#1292=DIRECTION('',(1.E0,0.E0,0.E0));
#1293=DIRECTION('',(0.E0,1.E0,0.E0));
#1294=AXIS2_PLACEMENT_3D('',#1291,#1292,#1293);
#1295=PLANE('',#1294);
#1296=ORIENTED_EDGE('',*,*,#944,.F.);
#1297=ORIENTED_EDGE('',*,*,#964,.F.);
#1298=ORIENTED_EDGE('',*,*,#984,.F.);
#1299=ORIENTED_EDGE('',*,*,#998,.F.);
#1300=ORIENTED_EDGE('',*,*,#1012,.F.);
#1301=ORIENTED_EDGE('',*,*,#1066,.F.);
#1302=ORIENTED_EDGE('',*,*,#1080,.F.);
#1303=ORIENTED_EDGE('',*,*,#1094,.F.);
#1304=ORIENTED_EDGE('',*,*,#1108,.F.);
#1305=ORIENTED_EDGE('',*,*,#1162,.F.);
#1306=ORIENTED_EDGE('',*,*,#1176,.F.);
#1307=ORIENTED_EDGE('',*,*,#1195,.F.);
#1308=EDGE_LOOP('',(#1296,#1297,#1298,#1299,#1300,#1301,#1302,#1303,#1304,#1305,
#1306,#1307));
#1309=FACE_OUTER_BOUND('',#1308,.F.);
#1310=ADVANCED_FACE('',(#1309),#1295,.T.);
#1311=CARTESIAN_POINT('',(5.3721E0,0.E0,7.62E0));
#1312=DIRECTION('',(1.E0,0.E0,0.E0));
#1313=DIRECTION('',(0.E0,1.E0,0.E0));
#1314=AXIS2_PLACEMENT_3D('',#1311,#1312,#1313);
#1315=PLANE('',#1314);
#1316=ORIENTED_EDGE('',*,*,#1113,.F.);
#1318=ORIENTED_EDGE('',*,*,#1317,.T.);
#1320=ORIENTED_EDGE('',*,*,#1319,.T.);
#1322=ORIENTED_EDGE('',*,*,#1321,.T.);
#1323=EDGE_LOOP('',(#1316,#1318,#1320,#1322));
#1324=FACE_OUTER_BOUND('',#1323,.F.);
#1325=ADVANCED_FACE('',(#1324),#1315,.F.);
#1326=CARTESIAN_POINT('',(5.3721E0,0.E0,7.62E0));
#1327=DIRECTION('',(1.E0,0.E0,0.E0));
#1328=DIRECTION('',(0.E0,1.E0,0.E0));
#1329=AXIS2_PLACEMENT_3D('',#1326,#1327,#1328);
#1330=PLANE('',#1329);
#1331=ORIENTED_EDGE('',*,*,#1017,.T.);
#1333=ORIENTED_EDGE('',*,*,#1332,.T.);
#1335=ORIENTED_EDGE('',*,*,#1334,.T.);
#1337=ORIENTED_EDGE('',*,*,#1336,.T.);
#1338=EDGE_LOOP('',(#1331,#1333,#1335,#1337));
#1339=FACE_OUTER_BOUND('',#1338,.F.);
#1340=ADVANCED_FACE('',(#1339),#1330,.F.);
#1341=CARTESIAN_POINT('',(5.3721E0,5.715E-1,0.E0));
#1342=DIRECTION('',(0.E0,1.E0,0.E0));
#1343=DIRECTION('',(0.E0,0.E0,1.E0));
#1344=AXIS2_PLACEMENT_3D('',#1341,#1342,#1343);
#1345=PLANE('',#1344);
#1346=ORIENTED_EDGE('',*,*,#1317,.F.);
#1347=ORIENTED_EDGE('',*,*,#1119,.T.);
#1349=ORIENTED_EDGE('',*,*,#1348,.T.);
#1351=ORIENTED_EDGE('',*,*,#1350,.F.);
#1352=EDGE_LOOP('',(#1346,#1347,#1349,#1351));
#1353=FACE_OUTER_BOUND('',#1352,.F.);
#1354=ADVANCED_FACE('',(#1353),#1345,.T.);
#1355=CARTESIAN_POINT('',(6.5151E0,0.E0,7.62E0));
#1356=DIRECTION('',(1.E0,0.E0,0.E0));
#1357=DIRECTION('',(0.E0,1.E0,0.E0));
#1358=AXIS2_PLACEMENT_3D('',#1355,#1356,#1357);
#1359=PLANE('',#1358);
#1360=ORIENTED_EDGE('',*,*,#1117,.T.);
#1362=ORIENTED_EDGE('',*,*,#1361,.F.);
#1364=ORIENTED_EDGE('',*,*,#1363,.F.);
#1365=ORIENTED_EDGE('',*,*,#1348,.F.);
#1366=EDGE_LOOP('',(#1360,#1362,#1364,#1365));
#1367=FACE_OUTER_BOUND('',#1366,.F.);
#1368=ADVANCED_FACE('',(#1367),#1359,.T.);
#1369=CARTESIAN_POINT('',(6.5151E0,0.E0,7.62E0));
#1370=DIRECTION('',(1.E0,0.E0,0.E0));
#1371=DIRECTION('',(0.E0,1.E0,0.E0));
#1372=AXIS2_PLACEMENT_3D('',#1369,#1370,#1371);
#1373=PLANE('',#1372);
#1374=ORIENTED_EDGE('',*,*,#1021,.F.);
#1376=ORIENTED_EDGE('',*,*,#1375,.F.);
#1378=ORIENTED_EDGE('',*,*,#1377,.F.);
#1380=ORIENTED_EDGE('',*,*,#1379,.F.);
#1381=EDGE_LOOP('',(#1374,#1376,#1378,#1380));
#1382=FACE_OUTER_BOUND('',#1381,.F.);
#1383=ADVANCED_FACE('',(#1382),#1373,.T.);
#1384=CARTESIAN_POINT('',(5.3721E0,-5.715E-1,1.016E1));
#1385=DIRECTION('',(0.E0,-1.E0,0.E0));
#1386=DIRECTION('',(0.E0,0.E0,-1.E0));
#1387=AXIS2_PLACEMENT_3D('',#1384,#1385,#1386);
#1388=PLANE('',#1387);
#1389=ORIENTED_EDGE('',*,*,#1321,.F.);
#1391=ORIENTED_EDGE('',*,*,#1390,.T.);
#1392=ORIENTED_EDGE('',*,*,#1361,.T.);
#1393=ORIENTED_EDGE('',*,*,#1115,.F.);
#1394=EDGE_LOOP('',(#1389,#1391,#1392,#1393));
#1395=FACE_OUTER_BOUND('',#1394,.F.);
#1396=ADVANCED_FACE('',(#1395),#1388,.T.);
#1397=CARTESIAN_POINT('',(5.3721E0,5.715E-1,1.016E1));
#1398=DIRECTION('',(0.E0,0.E0,1.E0));
#1399=DIRECTION('',(0.E0,-1.E0,0.E0));
#1400=AXIS2_PLACEMENT_3D('',#1397,#1398,#1399);
#1401=PLANE('',#1400);
#1402=ORIENTED_EDGE('',*,*,#1319,.F.);
#1403=ORIENTED_EDGE('',*,*,#1350,.T.);
#1404=ORIENTED_EDGE('',*,*,#1363,.T.);
#1405=ORIENTED_EDGE('',*,*,#1390,.F.);
#1406=EDGE_LOOP('',(#1402,#1403,#1404,#1405));
#1407=FACE_OUTER_BOUND('',#1406,.F.);
#1408=ADVANCED_FACE('',(#1407),#1401,.T.);
#1409=CARTESIAN_POINT('',(5.3721E0,5.715E-1,-6.35E0));
#1410=DIRECTION('',(0.E0,1.E0,0.E0));
#1411=DIRECTION('',(0.E0,0.E0,1.E0));
#1412=AXIS2_PLACEMENT_3D('',#1409,#1410,#1411);
#1413=PLANE('',#1412);
#1414=ORIENTED_EDGE('',*,*,#1336,.F.);
#1416=ORIENTED_EDGE('',*,*,#1415,.T.);
#1417=ORIENTED_EDGE('',*,*,#1375,.T.);
#1418=ORIENTED_EDGE('',*,*,#1019,.F.);
#1419=EDGE_LOOP('',(#1414,#1416,#1417,#1418));
#1420=FACE_OUTER_BOUND('',#1419,.F.);
#1421=ADVANCED_FACE('',(#1420),#1413,.T.);
#1422=CARTESIAN_POINT('',(5.3721E0,-5.715E-1,-6.35E0));
#1423=DIRECTION('',(0.E0,0.E0,-1.E0));
#1424=DIRECTION('',(0.E0,1.E0,0.E0));
#1425=AXIS2_PLACEMENT_3D('',#1422,#1423,#1424);
#1426=PLANE('',#1425);
#1427=ORIENTED_EDGE('',*,*,#1334,.F.);
#1429=ORIENTED_EDGE('',*,*,#1428,.T.);
#1430=ORIENTED_EDGE('',*,*,#1377,.T.);
#1431=ORIENTED_EDGE('',*,*,#1415,.F.);
#1432=EDGE_LOOP('',(#1427,#1429,#1430,#1431));
#1433=FACE_OUTER_BOUND('',#1432,.F.);
#1434=ADVANCED_FACE('',(#1433),#1426,.T.);
#1435=CARTESIAN_POINT('',(5.3721E0,-5.715E-1,-2.54E0));
#1436=DIRECTION('',(0.E0,-1.E0,0.E0));
#1437=DIRECTION('',(0.E0,0.E0,-1.E0));
#1438=AXIS2_PLACEMENT_3D('',#1435,#1436,#1437);
#1439=PLANE('',#1438);
#1440=ORIENTED_EDGE('',*,*,#1332,.F.);
#1441=ORIENTED_EDGE('',*,*,#1023,.T.);
#1442=ORIENTED_EDGE('',*,*,#1379,.T.);
#1443=ORIENTED_EDGE('',*,*,#1428,.F.);
#1444=EDGE_LOOP('',(#1440,#1441,#1442,#1443));
#1445=FACE_OUTER_BOUND('',#1444,.F.);
#1446=ADVANCED_FACE('',(#1445),#1439,.T.);
#1447=CARTESIAN_POINT('',(1.4097E0,0.E0,7.62E0));
#1448=DIRECTION('',(1.E0,0.E0,0.E0));
#1449=DIRECTION('',(0.E0,1.E0,0.E0));
#1450=AXIS2_PLACEMENT_3D('',#1447,#1448,#1449);
#1451=PLANE('',#1450);
#1452=ORIENTED_EDGE('',*,*,#1123,.F.);
#1454=ORIENTED_EDGE('',*,*,#1453,.T.);
#1456=ORIENTED_EDGE('',*,*,#1455,.T.);
#1458=ORIENTED_EDGE('',*,*,#1457,.T.);
#1459=EDGE_LOOP('',(#1452,#1454,#1456,#1458));
#1460=FACE_OUTER_BOUND('',#1459,.F.);
#1461=ADVANCED_FACE('',(#1460),#1451,.F.);
#1462=CARTESIAN_POINT('',(1.4097E0,0.E0,7.62E0));
#1463=DIRECTION('',(1.E0,0.E0,0.E0));
#1464=DIRECTION('',(0.E0,1.E0,0.E0));
#1465=AXIS2_PLACEMENT_3D('',#1462,#1463,#1464);
#1466=PLANE('',#1465);
#1467=ORIENTED_EDGE('',*,*,#1027,.T.);
#1469=ORIENTED_EDGE('',*,*,#1468,.T.);
#1471=ORIENTED_EDGE('',*,*,#1470,.T.);
#1473=ORIENTED_EDGE('',*,*,#1472,.T.);
#1474=EDGE_LOOP('',(#1467,#1469,#1471,#1473));
#1475=FACE_OUTER_BOUND('',#1474,.F.);
#1476=ADVANCED_FACE('',(#1475),#1466,.F.);
#1477=CARTESIAN_POINT('',(1.4097E0,5.715E-1,0.E0));
#1478=DIRECTION('',(0.E0,1.E0,0.E0));
#1479=DIRECTION('',(0.E0,0.E0,1.E0));
#1480=AXIS2_PLACEMENT_3D('',#1477,#1478,#1479);
#1481=PLANE('',#1480);
#1482=ORIENTED_EDGE('',*,*,#1453,.F.);
#1483=ORIENTED_EDGE('',*,*,#1129,.T.);
#1485=ORIENTED_EDGE('',*,*,#1484,.T.);
#1487=ORIENTED_EDGE('',*,*,#1486,.F.);
#1488=EDGE_LOOP('',(#1482,#1483,#1485,#1487));
#1489=FACE_OUTER_BOUND('',#1488,.F.);
#1490=ADVANCED_FACE('',(#1489),#1481,.T.);
#1491=CARTESIAN_POINT('',(2.5527E0,0.E0,7.62E0));
#1492=DIRECTION('',(1.E0,0.E0,0.E0));
#1493=DIRECTION('',(0.E0,1.E0,0.E0));
#1494=AXIS2_PLACEMENT_3D('',#1491,#1492,#1493);
#1495=PLANE('',#1494);
#1496=ORIENTED_EDGE('',*,*,#1127,.T.);
#1498=ORIENTED_EDGE('',*,*,#1497,.F.);
#1500=ORIENTED_EDGE('',*,*,#1499,.F.);
#1501=ORIENTED_EDGE('',*,*,#1484,.F.);
#1502=EDGE_LOOP('',(#1496,#1498,#1500,#1501));
#1503=FACE_OUTER_BOUND('',#1502,.F.);
#1504=ADVANCED_FACE('',(#1503),#1495,.T.);
#1505=CARTESIAN_POINT('',(2.5527E0,0.E0,7.62E0));
#1506=DIRECTION('',(1.E0,0.E0,0.E0));
#1507=DIRECTION('',(0.E0,1.E0,0.E0));
#1508=AXIS2_PLACEMENT_3D('',#1505,#1506,#1507);
#1509=PLANE('',#1508);
#1510=ORIENTED_EDGE('',*,*,#1031,.F.);
#1512=ORIENTED_EDGE('',*,*,#1511,.F.);
#1514=ORIENTED_EDGE('',*,*,#1513,.F.);
#1516=ORIENTED_EDGE('',*,*,#1515,.F.);
#1517=EDGE_LOOP('',(#1510,#1512,#1514,#1516));
#1518=FACE_OUTER_BOUND('',#1517,.F.);
#1519=ADVANCED_FACE('',(#1518),#1509,.T.);
#1520=CARTESIAN_POINT('',(1.4097E0,-5.715E-1,1.016E1));
#1521=DIRECTION('',(0.E0,-1.E0,0.E0));
#1522=DIRECTION('',(0.E0,0.E0,-1.E0));
#1523=AXIS2_PLACEMENT_3D('',#1520,#1521,#1522);
#1524=PLANE('',#1523);
#1525=ORIENTED_EDGE('',*,*,#1457,.F.);
#1527=ORIENTED_EDGE('',*,*,#1526,.T.);
#1528=ORIENTED_EDGE('',*,*,#1497,.T.);
#1529=ORIENTED_EDGE('',*,*,#1125,.F.);
#1530=EDGE_LOOP('',(#1525,#1527,#1528,#1529));
#1531=FACE_OUTER_BOUND('',#1530,.F.);
#1532=ADVANCED_FACE('',(#1531),#1524,.T.);
#1533=CARTESIAN_POINT('',(1.4097E0,5.715E-1,1.016E1));
#1534=DIRECTION('',(0.E0,0.E0,1.E0));
#1535=DIRECTION('',(0.E0,-1.E0,0.E0));
#1536=AXIS2_PLACEMENT_3D('',#1533,#1534,#1535);
#1537=PLANE('',#1536);
#1538=ORIENTED_EDGE('',*,*,#1455,.F.);
#1539=ORIENTED_EDGE('',*,*,#1486,.T.);
#1540=ORIENTED_EDGE('',*,*,#1499,.T.);
#1541=ORIENTED_EDGE('',*,*,#1526,.F.);
#1542=EDGE_LOOP('',(#1538,#1539,#1540,#1541));
#1543=FACE_OUTER_BOUND('',#1542,.F.);
#1544=ADVANCED_FACE('',(#1543),#1537,.T.);
#1545=CARTESIAN_POINT('',(1.4097E0,5.715E-1,-6.35E0));
#1546=DIRECTION('',(0.E0,1.E0,0.E0));
#1547=DIRECTION('',(0.E0,0.E0,1.E0));
#1548=AXIS2_PLACEMENT_3D('',#1545,#1546,#1547);
#1549=PLANE('',#1548);
#1550=ORIENTED_EDGE('',*,*,#1472,.F.);
#1552=ORIENTED_EDGE('',*,*,#1551,.T.);
#1553=ORIENTED_EDGE('',*,*,#1511,.T.);
#1554=ORIENTED_EDGE('',*,*,#1029,.F.);
#1555=EDGE_LOOP('',(#1550,#1552,#1553,#1554));
#1556=FACE_OUTER_BOUND('',#1555,.F.);
#1557=ADVANCED_FACE('',(#1556),#1549,.T.);
#1558=CARTESIAN_POINT('',(1.4097E0,-5.715E-1,-6.35E0));
#1559=DIRECTION('',(0.E0,0.E0,-1.E0));
#1560=DIRECTION('',(0.E0,1.E0,0.E0));
#1561=AXIS2_PLACEMENT_3D('',#1558,#1559,#1560);
#1562=PLANE('',#1561);
#1563=ORIENTED_EDGE('',*,*,#1470,.F.);
#1565=ORIENTED_EDGE('',*,*,#1564,.T.);
#1566=ORIENTED_EDGE('',*,*,#1513,.T.);
#1567=ORIENTED_EDGE('',*,*,#1551,.F.);
#1568=EDGE_LOOP('',(#1563,#1565,#1566,#1567));
#1569=FACE_OUTER_BOUND('',#1568,.F.);
#1570=ADVANCED_FACE('',(#1569),#1562,.T.);
#1571=CARTESIAN_POINT('',(1.4097E0,-5.715E-1,-2.54E0));
#1572=DIRECTION('',(0.E0,-1.E0,0.E0));
#1573=DIRECTION('',(0.E0,0.E0,-1.E0));
#1574=AXIS2_PLACEMENT_3D('',#1571,#1572,#1573);
#1575=PLANE('',#1574);
#1576=ORIENTED_EDGE('',*,*,#1468,.F.);
#1577=ORIENTED_EDGE('',*,*,#1033,.T.);
#1578=ORIENTED_EDGE('',*,*,#1515,.T.);
#1579=ORIENTED_EDGE('',*,*,#1564,.F.);
#1580=EDGE_LOOP('',(#1576,#1577,#1578,#1579));
#1581=FACE_OUTER_BOUND('',#1580,.F.);
#1582=ADVANCED_FACE('',(#1581),#1575,.T.);
#1583=CARTESIAN_POINT('',(-2.5527E0,0.E0,7.62E0));
#1584=DIRECTION('',(1.E0,0.E0,0.E0));
#1585=DIRECTION('',(0.E0,1.E0,0.E0));
#1586=AXIS2_PLACEMENT_3D('',#1583,#1584,#1585);
#1587=PLANE('',#1586);
#1588=ORIENTED_EDGE('',*,*,#1133,.T.);
#1590=ORIENTED_EDGE('',*,*,#1589,.T.);
#1592=ORIENTED_EDGE('',*,*,#1591,.T.);
#1594=ORIENTED_EDGE('',*,*,#1593,.T.);
#1595=EDGE_LOOP('',(#1588,#1590,#1592,#1594));
#1596=FACE_OUTER_BOUND('',#1595,.F.);
#1597=ADVANCED_FACE('',(#1596),#1587,.F.);
#1598=CARTESIAN_POINT('',(-2.5527E0,0.E0,7.62E0));
#1599=DIRECTION('',(1.E0,0.E0,0.E0));
#1600=DIRECTION('',(0.E0,1.E0,0.E0));
#1601=AXIS2_PLACEMENT_3D('',#1598,#1599,#1600);
#1602=PLANE('',#1601);
#1603=ORIENTED_EDGE('',*,*,#1037,.F.);
#1605=ORIENTED_EDGE('',*,*,#1604,.T.);
#1607=ORIENTED_EDGE('',*,*,#1606,.T.);
#1609=ORIENTED_EDGE('',*,*,#1608,.T.);
#1610=EDGE_LOOP('',(#1603,#1605,#1607,#1609));
#1611=FACE_OUTER_BOUND('',#1610,.F.);
#1612=ADVANCED_FACE('',(#1611),#1602,.F.);
#1613=CARTESIAN_POINT('',(-2.5527E0,5.715E-1,0.E0));
#1614=DIRECTION('',(0.E0,1.E0,0.E0));
#1615=DIRECTION('',(0.E0,0.E0,1.E0));
#1616=AXIS2_PLACEMENT_3D('',#1613,#1614,#1615);
#1617=PLANE('',#1616);
#1618=ORIENTED_EDGE('',*,*,#1139,.T.);
#1620=ORIENTED_EDGE('',*,*,#1619,.T.);
#1622=ORIENTED_EDGE('',*,*,#1621,.F.);
#1623=ORIENTED_EDGE('',*,*,#1589,.F.);
#1624=EDGE_LOOP('',(#1618,#1620,#1622,#1623));
#1625=FACE_OUTER_BOUND('',#1624,.F.);
#1626=ADVANCED_FACE('',(#1625),#1617,.T.);
#1627=CARTESIAN_POINT('',(-1.4097E0,0.E0,7.62E0));
#1628=DIRECTION('',(1.E0,0.E0,0.E0));
#1629=DIRECTION('',(0.E0,1.E0,0.E0));
#1630=AXIS2_PLACEMENT_3D('',#1627,#1628,#1629);
#1631=PLANE('',#1630);
#1632=ORIENTED_EDGE('',*,*,#1137,.F.);
#1634=ORIENTED_EDGE('',*,*,#1633,.F.);
#1636=ORIENTED_EDGE('',*,*,#1635,.F.);
#1637=ORIENTED_EDGE('',*,*,#1619,.F.);
#1638=EDGE_LOOP('',(#1632,#1634,#1636,#1637));
#1639=FACE_OUTER_BOUND('',#1638,.F.);
#1640=ADVANCED_FACE('',(#1639),#1631,.T.);
#1641=CARTESIAN_POINT('',(-1.4097E0,0.E0,7.62E0));
#1642=DIRECTION('',(1.E0,0.E0,0.E0));
#1643=DIRECTION('',(0.E0,1.E0,0.E0));
#1644=AXIS2_PLACEMENT_3D('',#1641,#1642,#1643);
#1645=PLANE('',#1644);
#1646=ORIENTED_EDGE('',*,*,#1041,.T.);
#1648=ORIENTED_EDGE('',*,*,#1647,.F.);
#1650=ORIENTED_EDGE('',*,*,#1649,.F.);
#1652=ORIENTED_EDGE('',*,*,#1651,.F.);
#1653=EDGE_LOOP('',(#1646,#1648,#1650,#1652));
#1654=FACE_OUTER_BOUND('',#1653,.F.);
#1655=ADVANCED_FACE('',(#1654),#1645,.T.);
#1656=CARTESIAN_POINT('',(-2.5527E0,-5.715E-1,1.016E1));
#1657=DIRECTION('',(0.E0,-1.E0,0.E0));
#1658=DIRECTION('',(0.E0,0.E0,-1.E0));
#1659=AXIS2_PLACEMENT_3D('',#1656,#1657,#1658);
#1660=PLANE('',#1659);
#1661=ORIENTED_EDGE('',*,*,#1135,.F.);
#1662=ORIENTED_EDGE('',*,*,#1593,.F.);
#1664=ORIENTED_EDGE('',*,*,#1663,.T.);
#1665=ORIENTED_EDGE('',*,*,#1633,.T.);
#1666=EDGE_LOOP('',(#1661,#1662,#1664,#1665));
#1667=FACE_OUTER_BOUND('',#1666,.F.);
#1668=ADVANCED_FACE('',(#1667),#1660,.T.);
#1669=CARTESIAN_POINT('',(-2.5527E0,5.715E-1,1.016E1));
#1670=DIRECTION('',(0.E0,0.E0,1.E0));
#1671=DIRECTION('',(0.E0,-1.E0,0.E0));
#1672=AXIS2_PLACEMENT_3D('',#1669,#1670,#1671);
#1673=PLANE('',#1672);
#1674=ORIENTED_EDGE('',*,*,#1591,.F.);
#1675=ORIENTED_EDGE('',*,*,#1621,.T.);
#1676=ORIENTED_EDGE('',*,*,#1635,.T.);
#1677=ORIENTED_EDGE('',*,*,#1663,.F.);
#1678=EDGE_LOOP('',(#1674,#1675,#1676,#1677));
#1679=FACE_OUTER_BOUND('',#1678,.F.);
#1680=ADVANCED_FACE('',(#1679),#1673,.T.);
#1681=CARTESIAN_POINT('',(-2.5527E0,5.715E-1,-6.35E0));
#1682=DIRECTION('',(0.E0,1.E0,0.E0));
#1683=DIRECTION('',(0.E0,0.E0,1.E0));
#1684=AXIS2_PLACEMENT_3D('',#1681,#1682,#1683);
#1685=PLANE('',#1684);
#1686=ORIENTED_EDGE('',*,*,#1039,.F.);
#1687=ORIENTED_EDGE('',*,*,#1608,.F.);
#1689=ORIENTED_EDGE('',*,*,#1688,.T.);
#1690=ORIENTED_EDGE('',*,*,#1647,.T.);
#1691=EDGE_LOOP('',(#1686,#1687,#1689,#1690));
#1692=FACE_OUTER_BOUND('',#1691,.F.);
#1693=ADVANCED_FACE('',(#1692),#1685,.T.);
#1694=CARTESIAN_POINT('',(-2.5527E0,-5.715E-1,-6.35E0));
#1695=DIRECTION('',(0.E0,0.E0,-1.E0));
#1696=DIRECTION('',(0.E0,1.E0,0.E0));
#1697=AXIS2_PLACEMENT_3D('',#1694,#1695,#1696);
#1698=PLANE('',#1697);
#1699=ORIENTED_EDGE('',*,*,#1606,.F.);
#1701=ORIENTED_EDGE('',*,*,#1700,.T.);
#1702=ORIENTED_EDGE('',*,*,#1649,.T.);
#1703=ORIENTED_EDGE('',*,*,#1688,.F.);
#1704=EDGE_LOOP('',(#1699,#1701,#1702,#1703));
#1705=FACE_OUTER_BOUND('',#1704,.F.);
#1706=ADVANCED_FACE('',(#1705),#1698,.T.);
#1707=CARTESIAN_POINT('',(-2.5527E0,-5.715E-1,-2.54E0));
#1708=DIRECTION('',(0.E0,-1.E0,0.E0));
#1709=DIRECTION('',(0.E0,0.E0,-1.E0));
#1710=AXIS2_PLACEMENT_3D('',#1707,#1708,#1709);
#1711=PLANE('',#1710);
#1712=ORIENTED_EDGE('',*,*,#1043,.T.);
#1713=ORIENTED_EDGE('',*,*,#1651,.T.);
#1714=ORIENTED_EDGE('',*,*,#1700,.F.);
#1715=ORIENTED_EDGE('',*,*,#1604,.F.);
#1716=EDGE_LOOP('',(#1712,#1713,#1714,#1715));
#1717=FACE_OUTER_BOUND('',#1716,.F.);
#1718=ADVANCED_FACE('',(#1717),#1711,.T.);
#1719=CARTESIAN_POINT('',(-6.5151E0,0.E0,7.62E0));
#1720=DIRECTION('',(1.E0,0.E0,0.E0));
#1721=DIRECTION('',(0.E0,1.E0,0.E0));
#1722=AXIS2_PLACEMENT_3D('',#1719,#1720,#1721);
#1723=PLANE('',#1722);
#1724=ORIENTED_EDGE('',*,*,#1143,.T.);
#1726=ORIENTED_EDGE('',*,*,#1725,.T.);
#1728=ORIENTED_EDGE('',*,*,#1727,.T.);
#1730=ORIENTED_EDGE('',*,*,#1729,.T.);
#1731=EDGE_LOOP('',(#1724,#1726,#1728,#1730));
#1732=FACE_OUTER_BOUND('',#1731,.F.);
#1733=ADVANCED_FACE('',(#1732),#1723,.F.);
#1734=CARTESIAN_POINT('',(-6.5151E0,0.E0,7.62E0));
#1735=DIRECTION('',(1.E0,0.E0,0.E0));
#1736=DIRECTION('',(0.E0,1.E0,0.E0));
#1737=AXIS2_PLACEMENT_3D('',#1734,#1735,#1736);
#1738=PLANE('',#1737);
#1739=ORIENTED_EDGE('',*,*,#1047,.F.);
#1741=ORIENTED_EDGE('',*,*,#1740,.T.);
#1743=ORIENTED_EDGE('',*,*,#1742,.T.);
#1745=ORIENTED_EDGE('',*,*,#1744,.T.);
#1746=EDGE_LOOP('',(#1739,#1741,#1743,#1745));
#1747=FACE_OUTER_BOUND('',#1746,.F.);
#1748=ADVANCED_FACE('',(#1747),#1738,.F.);
#1749=CARTESIAN_POINT('',(-6.5151E0,5.715E-1,0.E0));
#1750=DIRECTION('',(0.E0,1.E0,0.E0));
#1751=DIRECTION('',(0.E0,0.E0,1.E0));
#1752=AXIS2_PLACEMENT_3D('',#1749,#1750,#1751);
#1753=PLANE('',#1752);
#1754=ORIENTED_EDGE('',*,*,#1149,.T.);
#1756=ORIENTED_EDGE('',*,*,#1755,.T.);
#1758=ORIENTED_EDGE('',*,*,#1757,.F.);
#1759=ORIENTED_EDGE('',*,*,#1725,.F.);
#1760=EDGE_LOOP('',(#1754,#1756,#1758,#1759));
#1761=FACE_OUTER_BOUND('',#1760,.F.);
#1762=ADVANCED_FACE('',(#1761),#1753,.T.);
#1763=CARTESIAN_POINT('',(-5.3721E0,0.E0,7.62E0));
#1764=DIRECTION('',(1.E0,0.E0,0.E0));
#1765=DIRECTION('',(0.E0,1.E0,0.E0));
#1766=AXIS2_PLACEMENT_3D('',#1763,#1764,#1765);
#1767=PLANE('',#1766);
#1768=ORIENTED_EDGE('',*,*,#1147,.F.);
#1770=ORIENTED_EDGE('',*,*,#1769,.F.);
#1772=ORIENTED_EDGE('',*,*,#1771,.F.);
#1773=ORIENTED_EDGE('',*,*,#1755,.F.);
#1774=EDGE_LOOP('',(#1768,#1770,#1772,#1773));
#1775=FACE_OUTER_BOUND('',#1774,.F.);
#1776=ADVANCED_FACE('',(#1775),#1767,.T.);
#1777=CARTESIAN_POINT('',(-5.3721E0,0.E0,7.62E0));
#1778=DIRECTION('',(1.E0,0.E0,0.E0));
#1779=DIRECTION('',(0.E0,1.E0,0.E0));
#1780=AXIS2_PLACEMENT_3D('',#1777,#1778,#1779);
#1781=PLANE('',#1780);
#1782=ORIENTED_EDGE('',*,*,#1051,.T.);
#1784=ORIENTED_EDGE('',*,*,#1783,.F.);
#1786=ORIENTED_EDGE('',*,*,#1785,.F.);
#1788=ORIENTED_EDGE('',*,*,#1787,.F.);
#1789=EDGE_LOOP('',(#1782,#1784,#1786,#1788));
#1790=FACE_OUTER_BOUND('',#1789,.F.);
#1791=ADVANCED_FACE('',(#1790),#1781,.T.);
#1792=CARTESIAN_POINT('',(-6.5151E0,-5.715E-1,1.016E1));
#1793=DIRECTION('',(0.E0,-1.E0,0.E0));
#1794=DIRECTION('',(0.E0,0.E0,-1.E0));
#1795=AXIS2_PLACEMENT_3D('',#1792,#1793,#1794);
#1796=PLANE('',#1795);
#1797=ORIENTED_EDGE('',*,*,#1145,.F.);
#1798=ORIENTED_EDGE('',*,*,#1729,.F.);
#1800=ORIENTED_EDGE('',*,*,#1799,.T.);
#1801=ORIENTED_EDGE('',*,*,#1769,.T.);
#1802=EDGE_LOOP('',(#1797,#1798,#1800,#1801));
#1803=FACE_OUTER_BOUND('',#1802,.F.);
#1804=ADVANCED_FACE('',(#1803),#1796,.T.);
#1805=CARTESIAN_POINT('',(-6.5151E0,5.715E-1,1.016E1));
#1806=DIRECTION('',(0.E0,0.E0,1.E0));
#1807=DIRECTION('',(0.E0,-1.E0,0.E0));
#1808=AXIS2_PLACEMENT_3D('',#1805,#1806,#1807);
#1809=PLANE('',#1808);
#1810=ORIENTED_EDGE('',*,*,#1727,.F.);
#1811=ORIENTED_EDGE('',*,*,#1757,.T.);
#1812=ORIENTED_EDGE('',*,*,#1771,.T.);
#1813=ORIENTED_EDGE('',*,*,#1799,.F.);
#1814=EDGE_LOOP('',(#1810,#1811,#1812,#1813));
#1815=FACE_OUTER_BOUND('',#1814,.F.);
#1816=ADVANCED_FACE('',(#1815),#1809,.T.);
#1817=CARTESIAN_POINT('',(-6.5151E0,5.715E-1,-6.35E0));
#1818=DIRECTION('',(0.E0,1.E0,0.E0));
#1819=DIRECTION('',(0.E0,0.E0,1.E0));
#1820=AXIS2_PLACEMENT_3D('',#1817,#1818,#1819);
#1821=PLANE('',#1820);
#1822=ORIENTED_EDGE('',*,*,#1049,.F.);
#1823=ORIENTED_EDGE('',*,*,#1744,.F.);
#1825=ORIENTED_EDGE('',*,*,#1824,.T.);
#1826=ORIENTED_EDGE('',*,*,#1783,.T.);
#1827=EDGE_LOOP('',(#1822,#1823,#1825,#1826));
#1828=FACE_OUTER_BOUND('',#1827,.F.);
#1829=ADVANCED_FACE('',(#1828),#1821,.T.);
#1830=CARTESIAN_POINT('',(-6.5151E0,-5.715E-1,-6.35E0));
#1831=DIRECTION('',(0.E0,0.E0,-1.E0));
#1832=DIRECTION('',(0.E0,1.E0,0.E0));
#1833=AXIS2_PLACEMENT_3D('',#1830,#1831,#1832);
#1834=PLANE('',#1833);
#1835=ORIENTED_EDGE('',*,*,#1742,.F.);
#1837=ORIENTED_EDGE('',*,*,#1836,.T.);
#1838=ORIENTED_EDGE('',*,*,#1785,.T.);
#1839=ORIENTED_EDGE('',*,*,#1824,.F.);
#1840=EDGE_LOOP('',(#1835,#1837,#1838,#1839));
#1841=FACE_OUTER_BOUND('',#1840,.F.);
#1842=ADVANCED_FACE('',(#1841),#1834,.T.);
#1843=CARTESIAN_POINT('',(-6.5151E0,-5.715E-1,-2.54E0));
#1844=DIRECTION('',(0.E0,-1.E0,0.E0));
#1845=DIRECTION('',(0.E0,0.E0,-1.E0));
#1846=AXIS2_PLACEMENT_3D('',#1843,#1844,#1845);
#1847=PLANE('',#1846);
#1848=ORIENTED_EDGE('',*,*,#1053,.T.);
#1849=ORIENTED_EDGE('',*,*,#1787,.T.);
#1850=ORIENTED_EDGE('',*,*,#1836,.F.);
#1851=ORIENTED_EDGE('',*,*,#1740,.F.);
#1852=EDGE_LOOP('',(#1848,#1849,#1850,#1851));
#1853=FACE_OUTER_BOUND('',#1852,.F.);
#1854=ADVANCED_FACE('',(#1853),#1847,.T.);
#1855=CLOSED_SHELL('',(#923,#938,#954,#975,#989,#1003,#1057,#1071,#1085,#1099,
#1153,#1167,#1181,#1201,#1220,#1235,#1253,#1265,#1278,#1290,#1310,#1325,#1340,
#1354,#1368,#1383,#1396,#1408,#1421,#1434,#1446,#1461,#1476,#1490,#1504,#1519,
#1532,#1544,#1557,#1570,#1582,#1597,#1612,#1626,#1640,#1655,#1668,#1680,#1693,
#1706,#1718,#1733,#1748,#1762,#1776,#1791,#1804,#1816,#1829,#1842,#1854));
#1856=MANIFOLD_SOLID_BREP('',#1855);
#1858=DIMENSIONAL_EXPONENTS(0.E0,0.E0,0.E0,0.E0,0.E0,0.E0,0.E0);
#1860=PLANE_ANGLE_MEASURE_WITH_UNIT(PLANE_ANGLE_MEASURE(1.745329251994E-2),
#1859);
#1861=(CONVERSION_BASED_UNIT('DEGREE',#1860)NAMED_UNIT(#1858)PLANE_ANGLE_UNIT(
));
#1863=UNCERTAINTY_MEASURE_WITH_UNIT(LENGTH_MEASURE(2.412069179657E-3),#1857,
'distance_accuracy_value',
'Maximum model space distance between geometric entities at asserted connectivities');
#1864=(GEOMETRIC_REPRESENTATION_CONTEXT(3)GLOBAL_UNCERTAINTY_ASSIGNED_CONTEXT((
#1863))GLOBAL_UNIT_ASSIGNED_CONTEXT((#1857,#1861,#1862))REPRESENTATION_CONTEXT(
'ID1','3'));
#1866=APPLICATION_CONTEXT('automotive_design');
#1867=APPLICATION_PROTOCOL_DEFINITION('international standard',
'automotive_design',2001,#1866);
#1868=PRODUCT_DEFINITION_CONTEXT('part definition',#1866,'design');
#1869=PRODUCT_CONTEXT('',#1866,'mechanical');
#1870=PRODUCT('C-640445-4','C-640445-4','NOT SPECIFIED',(#1869));
#1871=PRODUCT_DEFINITION_FORMATION('1','LAST_VERSION',#1870);
#1879=DERIVED_UNIT_ELEMENT(#1878,2.E0);
#1880=DERIVED_UNIT((#1879));
#1881=MEASURE_REPRESENTATION_ITEM('surface area measure',AREA_MEASURE(
9.004364989374E2),#1880);
#1886=DERIVED_UNIT_ELEMENT(#1885,3.E0);
#1887=DERIVED_UNIT((#1886));
#1888=MEASURE_REPRESENTATION_ITEM('volume measure',VOLUME_MEASURE(
5.337278676783E2),#1887);
#1892=CARTESIAN_POINT('centre point',(-6.054530509373E-13,1.425406060977E0,
7.372736230357E-1));
#1897=DERIVED_UNIT_ELEMENT(#1896,2.E0);
#1898=DERIVED_UNIT((#1897));
#1899=MEASURE_REPRESENTATION_ITEM('surface area measure',AREA_MEASURE(
9.004364989374E2),#1898);
#1904=DERIVED_UNIT_ELEMENT(#1903,3.E0);
#1905=DERIVED_UNIT((#1904));
#1906=MEASURE_REPRESENTATION_ITEM('volume measure',VOLUME_MEASURE(
5.337278676783E2),#1905);
#1910=CARTESIAN_POINT('centre point',(-6.054530509373E-13,1.425406060977E0,
7.372736230357E-1));
#1915=PRODUCT_RELATED_PRODUCT_CATEGORY('part','',(#1870));
#1917=GENERAL_PROPERTY('user defined attribute','','');
#1918=GENERAL_PROPERTY_ASSOCIATION('user defined attribute','',#1917,#1916);
#1919=DESCRIPTIVE_REPRESENTATION_ITEM('PART_NO','640445');
#1923=GENERAL_PROPERTY('user defined attribute','','');
#1924=GENERAL_PROPERTY_ASSOCIATION('user defined attribute','',#1923,#1922);
#1925=DESCRIPTIVE_REPRESENTATION_ITEM('DWG_TITLE',
'MTA-156 HEADER ASSEMBLY, FRICTION LOCK,');
#1929=GENERAL_PROPERTY('user defined attribute','','');
#1930=GENERAL_PROPERTY_ASSOCIATION('user defined attribute','',#1929,#1928);
#1931=DESCRIPTIVE_REPRESENTATION_ITEM('DWG_TITLE_2',
'STRAIGHT .045 SQUARE POST, TIN PLATED');
#1935=GENERAL_PROPERTY('user defined attribute','','');
#1936=GENERAL_PROPERTY_ASSOCIATION('user defined attribute','',#1935,#1934);
#1937=DESCRIPTIVE_REPRESENTATION_ITEM('DESC',
'MTA-156 HEADER ASSEMBLY, FRICTION LOCK, STRAIGHT .045 SQUARE POST, TIN PLATED'
);
#1941=GENERAL_PROPERTY('user defined attribute','','');
#1942=GENERAL_PROPERTY_ASSOCIATION('user defined attribute','',#1941,#1940);
#1943=DESCRIPTIVE_REPRESENTATION_ITEM('TIR','A');
#1947=GENERAL_PROPERTY('user defined attribute','','');
#1948=GENERAL_PROPERTY_ASSOCIATION('user defined attribute','',#1947,#1946);
#1949=DESCRIPTIVE_REPRESENTATION_ITEM('DOC_STATUS','Active');
#1953=GENERAL_PROPERTY('user defined attribute','','');
#1954=GENERAL_PROPERTY_ASSOCIATION('user defined attribute','',#1953,#1952);
#1955=DESCRIPTIVE_REPRESENTATION_ITEM('MOD_NUM','MOD41994');
#1959=GENERAL_PROPERTY('user defined attribute','','');
#1960=GENERAL_PROPERTY_ASSOCIATION('user defined attribute','',#1959,#1958);
#1961=DESCRIPTIVE_REPRESENTATION_ITEM('PDMREV','0+');
#1965=GENERAL_PROPERTY('user defined attribute','','');
#1966=GENERAL_PROPERTY_ASSOCIATION('user defined attribute','',#1965,#1964);
#1967=DESCRIPTIVE_REPRESENTATION_ITEM('PDMDB','');
#1971=GENERAL_PROPERTY('user defined attribute','','');
#1972=GENERAL_PROPERTY_ASSOCIATION('user defined attribute','',#1971,#1970);
#1973=DESCRIPTIVE_REPRESENTATION_ITEM('PDMRL','');
#1977=GENERAL_PROPERTY('user defined attribute','','');
#1978=GENERAL_PROPERTY_ASSOCIATION('user defined attribute','',#1977,#1976);
#1979=DESCRIPTIVE_REPRESENTATION_ITEM('PROI_REVISION','');
#1983=GENERAL_PROPERTY('user defined attribute','','');
#1984=GENERAL_PROPERTY_ASSOCIATION('user defined attribute','',#1983,#1982);
#1985=DESCRIPTIVE_REPRESENTATION_ITEM('PROI_VERSION','0');
#1989=GENERAL_PROPERTY('user defined attribute','','');
#1990=GENERAL_PROPERTY_ASSOCIATION('user defined attribute','',#1989,#1988);
#1991=DESCRIPTIVE_REPRESENTATION_ITEM('PROI_BRANCH','');
#1995=GENERAL_PROPERTY('user defined attribute','','');
#1996=GENERAL_PROPERTY_ASSOCIATION('user defined attribute','',#1995,#1994);
#1997=DESCRIPTIVE_REPRESENTATION_ITEM('PROI_RELEASE','');
#2001=GENERAL_PROPERTY('user defined attribute','','');
#2002=GENERAL_PROPERTY_ASSOCIATION('user defined attribute','',#2001,#2000);
#2003=DESCRIPTIVE_REPRESENTATION_ITEM('PTC_MODIFIED','YES');
#2007=GENERAL_PROPERTY('user defined attribute','','');
#2008=GENERAL_PROPERTY_ASSOCIATION('user defined attribute','',#2007,#2006);
#2009=DESCRIPTIVE_REPRESENTATION_ITEM('PROI_CREATED_BY','');
#2013=GENERAL_PROPERTY('user defined attribute','','');
#2014=GENERAL_PROPERTY_ASSOCIATION('user defined attribute','',#2013,#2012);
#2015=DESCRIPTIVE_REPRESENTATION_ITEM('PROI_CREATED_ON',
'08/08/2006 02:50:22 PM');
#2019=GENERAL_PROPERTY('user defined attribute','','');
#2020=GENERAL_PROPERTY_ASSOCIATION('user defined attribute','',#2019,#2018);
#2021=DESCRIPTIVE_REPRESENTATION_ITEM('PROI_LOCATION','');
#2025=GENERAL_PROPERTY('user defined attribute','','');
#2026=GENERAL_PROPERTY_ASSOCIATION('user defined attribute','',#2025,#2024);
#2027=DESCRIPTIVE_REPRESENTATION_ITEM('PTC_COMMON_NAME','c-640445-4.prt');
#2031=GENERAL_PROPERTY('user defined attribute','','');
#2032=GENERAL_PROPERTY_ASSOCIATION('user defined attribute','',#2031,#2030);
#2033=DESCRIPTIVE_REPRESENTATION_ITEM('PTC_ORGANIZATION_ID','TE');
#2037=GENERAL_PROPERTY('user defined attribute','','');
#2038=GENERAL_PROPERTY_ASSOCIATION('user defined attribute','',#2037,#2036);
#2039=DESCRIPTIVE_REPRESENTATION_ITEM('PTC_WM_REVISION','GN1');
#2043=GENERAL_PROPERTY('user defined attribute','','');
#2044=GENERAL_PROPERTY_ASSOCIATION('user defined attribute','',#2043,#2042);
#2045=DESCRIPTIVE_REPRESENTATION_ITEM('PTC_WM_ITERATION','1');
#2049=GENERAL_PROPERTY('user defined attribute','','');
#2050=GENERAL_PROPERTY_ASSOCIATION('user defined attribute','',#2049,#2048);
#2051=DESCRIPTIVE_REPRESENTATION_ITEM('PTC_WM_VERSION','GN1.1');
#2055=GENERAL_PROPERTY('user defined attribute','','');
#2056=GENERAL_PROPERTY_ASSOCIATION('user defined attribute','',#2055,#2054);
#2057=DESCRIPTIVE_REPRESENTATION_ITEM('PTC_WM_LIFECYCLE_STATE','Released');
#2061=GENERAL_PROPERTY('user defined attribute','','');
#2062=GENERAL_PROPERTY_ASSOCIATION('user defined attribute','',#2061,#2060);
#2063=DESCRIPTIVE_REPRESENTATION_ITEM('PTC_WM_LIFECYCLE',
'TE Standard Lifecycle');
#2067=GENERAL_PROPERTY('user defined attribute','','');
#2068=GENERAL_PROPERTY_ASSOCIATION('user defined attribute','',#2067,#2066);
#2069=DESCRIPTIVE_REPRESENTATION_ITEM('PTC_WM_LOCATION',
'/Products/RDO_0317/Restricted Access/MODSVCS/GPL-103');
#2073=GENERAL_PROPERTY('user defined attribute','','');
#2074=GENERAL_PROPERTY_ASSOCIATION('user defined attribute','',#2073,#2072);
#2075=DESCRIPTIVE_REPRESENTATION_ITEM('PTC_WM_CREATED_BY','Subramanya, N L');
#2079=GENERAL_PROPERTY('user defined attribute','','');
#2080=GENERAL_PROPERTY_ASSOCIATION('user defined attribute','',#2079,#2078);
#2081=DESCRIPTIVE_REPRESENTATION_ITEM('PTC_WM_CREATED_ON',
'18-Oct-12 09:19:46 AM');
#2085=GENERAL_PROPERTY('user defined attribute','','');
#2086=GENERAL_PROPERTY_ASSOCIATION('user defined attribute','',#2085,#2084);
#2087=DESCRIPTIVE_REPRESENTATION_ITEM('PTC_WM_MODIFIED_BY','Subramanya, N L');
#2091=GENERAL_PROPERTY('user defined attribute','','');
#2092=GENERAL_PROPERTY_ASSOCIATION('user defined attribute','',#2091,#2090);
#2093=DESCRIPTIVE_REPRESENTATION_ITEM('PTC_WM_MODIFIED_ON',
'18-Oct-12 09:53:07 AM');
#2097=GENERAL_PROPERTY('user defined attribute','','');
#2098=GENERAL_PROPERTY_ASSOCIATION('user defined attribute','',#2097,#2096);
#2099=DESCRIPTIVE_REPRESENTATION_ITEM('PTC_WM_TEAM','');
#2103=GENERAL_PROPERTY('user defined attribute','','');
#2104=GENERAL_PROPERTY_ASSOCIATION('user defined attribute','',#2103,#2102);
#2105=DESCRIPTIVE_REPRESENTATION_ITEM('PART_REV','AL');
#2109=GENERAL_PROPERTY('user defined attribute','','');
#2110=GENERAL_PROPERTY_ASSOCIATION('user defined attribute','',#2109,#2108);
#2111=DESCRIPTIVE_REPRESENTATION_ITEM('COMMENTS','-');
#84=CIRCLE('',#83,7.62E-1);
#349=CIRCLE('',#348,5.08E-1);
#354=CIRCLE('',#353,5.08E-1);
#427=CIRCLE('',#426,7.62E-1);
#897=EDGE_CURVE('',#730,#731,#75,.T.);
#899=EDGE_CURVE('',#731,#690,#79,.T.);
#901=EDGE_CURVE('',#690,#691,#84,.T.);
#903=EDGE_CURVE('',#691,#693,#88,.T.);
#905=EDGE_CURVE('',#693,#695,#92,.T.);
#907=EDGE_CURVE('',#695,#697,#96,.T.);
#909=EDGE_CURVE('',#697,#699,#100,.T.);
#911=EDGE_CURVE('',#699,#701,#104,.T.);
#913=EDGE_CURVE('',#701,#703,#108,.T.);
#915=EDGE_CURVE('',#703,#705,#112,.T.);
#917=EDGE_CURVE('',#705,#707,#116,.T.);
#919=EDGE_CURVE('',#707,#730,#120,.T.);
#930=EDGE_CURVE('',#730,#757,#132,.T.);
#932=EDGE_CURVE('',#753,#757,#124,.T.);
#934=EDGE_CURVE('',#731,#753,#316,.T.);
#944=EDGE_CURVE('',#734,#735,#386,.T.);
#946=EDGE_CURVE('',#755,#735,#332,.T.);
#948=EDGE_CURVE('',#759,#755,#128,.T.);
#950=EDGE_CURVE('',#759,#734,#140,.T.);
#962=EDGE_CURVE('',#707,#727,#136,.T.);
#964=EDGE_CURVE('',#727,#734,#390,.T.);
#967=EDGE_CURVE('',#761,#759,#144,.T.);
#969=EDGE_CURVE('',#763,#761,#358,.T.);
#971=EDGE_CURVE('',#763,#757,#148,.T.);
#982=EDGE_CURVE('',#705,#725,#152,.T.);
#984=EDGE_CURVE('',#725,#727,#394,.T.);
#996=EDGE_CURVE('',#703,#723,#156,.T.);
#998=EDGE_CURVE('',#723,#725,#398,.T.);
#1010=EDGE_CURVE('',#701,#721,#160,.T.);
#1012=EDGE_CURVE('',#721,#723,#402,.T.);
#1017=EDGE_CURVE('',#790,#791,#164,.T.);
#1019=EDGE_CURVE('',#790,#794,#168,.T.);
#1021=EDGE_CURVE('',#794,#795,#172,.T.);
#1023=EDGE_CURVE('',#791,#795,#176,.T.);
#1027=EDGE_CURVE('',#822,#823,#180,.T.);
#1029=EDGE_CURVE('',#822,#826,#184,.T.);
#1031=EDGE_CURVE('',#826,#827,#188,.T.);
#1033=EDGE_CURVE('',#823,#827,#192,.T.);
#1037=EDGE_CURVE('',#854,#855,#196,.T.);
#1039=EDGE_CURVE('',#855,#859,#200,.T.);
#1041=EDGE_CURVE('',#858,#859,#204,.T.);
#1043=EDGE_CURVE('',#854,#858,#208,.T.);
#1047=EDGE_CURVE('',#886,#887,#212,.T.);
#1049=EDGE_CURVE('',#887,#891,#216,.T.);
#1051=EDGE_CURVE('',#890,#891,#220,.T.);
#1053=EDGE_CURVE('',#886,#890,#224,.T.);
#1064=EDGE_CURVE('',#699,#719,#228,.T.);
#1066=EDGE_CURVE('',#719,#721,#406,.T.);
#1078=EDGE_CURVE('',#697,#717,#232,.T.);
#1080=EDGE_CURVE('',#717,#719,#410,.T.);
#1092=EDGE_CURVE('',#695,#715,#236,.T.);
#1094=EDGE_CURVE('',#715,#717,#414,.T.);
#1106=EDGE_CURVE('',#693,#713,#240,.T.);
#1108=EDGE_CURVE('',#713,#715,#418,.T.);
#1113=EDGE_CURVE('',#782,#783,#244,.T.);
#1115=EDGE_CURVE('',#783,#787,#248,.T.);
#1117=EDGE_CURVE('',#786,#787,#252,.T.);
#1119=EDGE_CURVE('',#782,#786,#256,.T.);
#1123=EDGE_CURVE('',#814,#815,#260,.T.);
#1125=EDGE_CURVE('',#815,#819,#264,.T.);
#1127=EDGE_CURVE('',#818,#819,#268,.T.);
#1129=EDGE_CURVE('',#814,#818,#272,.T.);
#1133=EDGE_CURVE('',#846,#847,#276,.T.);
#1135=EDGE_CURVE('',#846,#850,#280,.T.);
#1137=EDGE_CURVE('',#850,#851,#284,.T.);
#1139=EDGE_CURVE('',#847,#851,#288,.T.);
#1143=EDGE_CURVE('',#878,#879,#292,.T.);
#1145=EDGE_CURVE('',#878,#882,#296,.T.);
#1147=EDGE_CURVE('',#882,#883,#300,.T.);
#1149=EDGE_CURVE('',#879,#883,#304,.T.);
#1160=EDGE_CURVE('',#691,#711,#308,.T.);
#1162=EDGE_CURVE('',#711,#713,#422,.T.);
#1174=EDGE_CURVE('',#690,#710,#312,.T.);
#1176=EDGE_CURVE('',#710,#711,#427,.T.);
#1188=EDGE_CURVE('',#751,#753,#320,.T.);
#1190=EDGE_CURVE('',#751,#749,#324,.T.);
#1192=EDGE_CURVE('',#749,#755,#328,.T.);
#1195=EDGE_CURVE('',#735,#710,#431,.T.);
#1207=EDGE_CURVE('',#742,#743,#340,.T.);
#1209=EDGE_CURVE('',#743,#747,#378,.T.);
#1211=EDGE_CURVE('',#747,#751,#366,.T.);
#1216=EDGE_CURVE('',#763,#742,#354,.T.);
#1226=EDGE_CURVE('',#738,#739,#336,.T.);
#1228=EDGE_CURVE('',#743,#739,#382,.T.);
#1231=EDGE_CURVE('',#742,#738,#344,.T.);
#1242=EDGE_CURVE('',#761,#738,#349,.T.);
#1247=EDGE_CURVE('',#745,#749,#362,.T.);
#1249=EDGE_CURVE('',#739,#745,#374,.T.);
#1274=EDGE_CURVE('',#747,#745,#370,.T.);
#1317=EDGE_CURVE('',#782,#770,#435,.T.);
#1319=EDGE_CURVE('',#770,#771,#439,.T.);
#1321=EDGE_CURVE('',#771,#783,#443,.T.);
#1332=EDGE_CURVE('',#791,#766,#447,.T.);
#1334=EDGE_CURVE('',#766,#767,#451,.T.);
#1336=EDGE_CURVE('',#767,#790,#455,.T.);
#1348=EDGE_CURVE('',#786,#778,#467,.T.);
#1350=EDGE_CURVE('',#770,#778,#487,.T.);
#1361=EDGE_CURVE('',#779,#787,#459,.T.);
#1363=EDGE_CURVE('',#778,#779,#463,.T.);
#1375=EDGE_CURVE('',#775,#794,#471,.T.);
#1377=EDGE_CURVE('',#774,#775,#475,.T.);
#1379=EDGE_CURVE('',#795,#774,#479,.T.);
#1390=EDGE_CURVE('',#771,#779,#483,.T.);
#1415=EDGE_CURVE('',#767,#775,#491,.T.);
#1428=EDGE_CURVE('',#766,#774,#495,.T.);
#1453=EDGE_CURVE('',#814,#802,#499,.T.);
#1455=EDGE_CURVE('',#802,#803,#503,.T.);
#1457=EDGE_CURVE('',#803,#815,#507,.T.);
#1468=EDGE_CURVE('',#823,#798,#511,.T.);
#1470=EDGE_CURVE('',#798,#799,#515,.T.);
#1472=EDGE_CURVE('',#799,#822,#519,.T.);
#1484=EDGE_CURVE('',#818,#810,#531,.T.);
#1486=EDGE_CURVE('',#802,#810,#551,.T.);
#1497=EDGE_CURVE('',#811,#819,#523,.T.);
#1499=EDGE_CURVE('',#810,#811,#527,.T.);
#1511=EDGE_CURVE('',#807,#826,#535,.T.);
#1513=EDGE_CURVE('',#806,#807,#539,.T.);
#1515=EDGE_CURVE('',#827,#806,#543,.T.);
#1526=EDGE_CURVE('',#803,#811,#547,.T.);
#1551=EDGE_CURVE('',#799,#807,#555,.T.);
#1564=EDGE_CURVE('',#798,#806,#559,.T.);
#1589=EDGE_CURVE('',#847,#830,#563,.T.);
#1591=EDGE_CURVE('',#830,#831,#567,.T.);
#1593=EDGE_CURVE('',#831,#846,#571,.T.);
#1604=EDGE_CURVE('',#854,#834,#575,.T.);
#1606=EDGE_CURVE('',#834,#835,#579,.T.);
#1608=EDGE_CURVE('',#835,#855,#583,.T.);
#1619=EDGE_CURVE('',#851,#838,#595,.T.);
#1621=EDGE_CURVE('',#830,#838,#615,.T.);
#1633=EDGE_CURVE('',#839,#850,#587,.T.);
#1635=EDGE_CURVE('',#838,#839,#591,.T.);
#1647=EDGE_CURVE('',#843,#859,#599,.T.);
#1649=EDGE_CURVE('',#842,#843,#603,.T.);
#1651=EDGE_CURVE('',#858,#842,#607,.T.);
#1663=EDGE_CURVE('',#831,#839,#611,.T.);
#1688=EDGE_CURVE('',#835,#843,#619,.T.);
#1700=EDGE_CURVE('',#834,#842,#623,.T.);
#1725=EDGE_CURVE('',#879,#862,#627,.T.);
#1727=EDGE_CURVE('',#862,#863,#631,.T.);
#1729=EDGE_CURVE('',#863,#878,#635,.T.);
#1740=EDGE_CURVE('',#886,#866,#639,.T.);
#1742=EDGE_CURVE('',#866,#867,#643,.T.);
#1744=EDGE_CURVE('',#867,#887,#647,.T.);
#1755=EDGE_CURVE('',#883,#870,#659,.T.);
#1757=EDGE_CURVE('',#862,#870,#679,.T.);
#1769=EDGE_CURVE('',#871,#882,#651,.T.);
#1771=EDGE_CURVE('',#870,#871,#655,.T.);
#1783=EDGE_CURVE('',#875,#891,#663,.T.);
#1785=EDGE_CURVE('',#874,#875,#667,.T.);
#1787=EDGE_CURVE('',#890,#874,#671,.T.);
#1799=EDGE_CURVE('',#863,#871,#675,.T.);
#1824=EDGE_CURVE('',#867,#875,#683,.T.);
#1836=EDGE_CURVE('',#866,#874,#687,.T.);
#1857=(LENGTH_UNIT()NAMED_UNIT(*)SI_UNIT(.MILLI.,.METRE.));
#1859=(NAMED_UNIT(*)PLANE_ANGLE_UNIT()SI_UNIT($,.RADIAN.));
#1862=(NAMED_UNIT(*)SI_UNIT($,.STERADIAN.)SOLID_ANGLE_UNIT());
#1865=ADVANCED_BREP_SHAPE_REPRESENTATION('',(#1856),#1864);
#1872=PRODUCT_DEFINITION('part definition','',#1871,#1868);
#1873=PRODUCT_DEFINITION_SHAPE('','SHAPE FOR C-640445-4.',#1872);
#1874=SHAPE_ASPECT('','solid data associated with C-640445-4',#1873,.F.);
#1875=PROPERTY_DEFINITION('',
'shape for solid data with which properties are associated',#1874);
#1876=SHAPE_REPRESENTATION('',(#1856),#1864);
#1877=SHAPE_DEFINITION_REPRESENTATION(#1875,#1876);
#1878=(LENGTH_UNIT()NAMED_UNIT(*)SI_UNIT(.MILLI.,.METRE.));
#1882=PROPERTY_DEFINITION('geometric validation property','area of C-640445-4',
#1874);
#1883=REPRESENTATION('surface area',(#1881),#1864);
#1884=PROPERTY_DEFINITION_REPRESENTATION(#1882,#1883);
#1885=(LENGTH_UNIT()NAMED_UNIT(*)SI_UNIT(.MILLI.,.METRE.));
#1889=PROPERTY_DEFINITION('geometric validation property',
'volume of C-640445-4',#1874);
#1890=REPRESENTATION('volume',(#1888),#1864);
#1891=PROPERTY_DEFINITION_REPRESENTATION(#1889,#1890);
#1893=PROPERTY_DEFINITION('geometric validation property',
'centroid of C-640445-4',#1874);
#1894=REPRESENTATION('centroid',(#1892),#1864);
#1895=PROPERTY_DEFINITION_REPRESENTATION(#1893,#1894);
#1896=(LENGTH_UNIT()NAMED_UNIT(*)SI_UNIT(.MILLI.,.METRE.));
#1900=PROPERTY_DEFINITION('geometric validation property','area of C-640445-4',
#1873);
#1901=REPRESENTATION('surface area',(#1899),#1864);
#1902=PROPERTY_DEFINITION_REPRESENTATION(#1900,#1901);
#1903=(LENGTH_UNIT()NAMED_UNIT(*)SI_UNIT(.MILLI.,.METRE.));
#1907=PROPERTY_DEFINITION('geometric validation property',
'volume of C-640445-4',#1873);
#1908=REPRESENTATION('volume',(#1906),#1864);
#1909=PROPERTY_DEFINITION_REPRESENTATION(#1907,#1908);
#1911=PROPERTY_DEFINITION('geometric validation property',
'centroid of C-640445-4',#1873);
#1912=REPRESENTATION('centroid',(#1910),#1864);
#1913=PROPERTY_DEFINITION_REPRESENTATION(#1911,#1912);
#1914=SHAPE_DEFINITION_REPRESENTATION(#1873,#1865);
#1916=PROPERTY_DEFINITION('user defined attribute','',#1872);
#1920=REPRESENTATION('',(#1919),#1864);
#1921=PROPERTY_DEFINITION_REPRESENTATION(#1916,#1920);
#1922=PROPERTY_DEFINITION('user defined attribute','',#1872);
#1926=REPRESENTATION('',(#1925),#1864);
#1927=PROPERTY_DEFINITION_REPRESENTATION(#1922,#1926);
#1928=PROPERTY_DEFINITION('user defined attribute','',#1872);
#1932=REPRESENTATION('',(#1931),#1864);
#1933=PROPERTY_DEFINITION_REPRESENTATION(#1928,#1932);
#1934=PROPERTY_DEFINITION('user defined attribute','',#1872);
#1938=REPRESENTATION('',(#1937),#1864);
#1939=PROPERTY_DEFINITION_REPRESENTATION(#1934,#1938);
#1940=PROPERTY_DEFINITION('user defined attribute','',#1872);
#1944=REPRESENTATION('',(#1943),#1864);
#1945=PROPERTY_DEFINITION_REPRESENTATION(#1940,#1944);
#1946=PROPERTY_DEFINITION('user defined attribute','',#1872);
#1950=REPRESENTATION('',(#1949),#1864);
#1951=PROPERTY_DEFINITION_REPRESENTATION(#1946,#1950);
#1952=PROPERTY_DEFINITION('user defined attribute','',#1872);
#1956=REPRESENTATION('',(#1955),#1864);
#1957=PROPERTY_DEFINITION_REPRESENTATION(#1952,#1956);
#1958=PROPERTY_DEFINITION('user defined attribute','',#1872);
#1962=REPRESENTATION('',(#1961),#1864);
#1963=PROPERTY_DEFINITION_REPRESENTATION(#1958,#1962);
#1964=PROPERTY_DEFINITION('user defined attribute','',#1872);
#1968=REPRESENTATION('',(#1967),#1864);
#1969=PROPERTY_DEFINITION_REPRESENTATION(#1964,#1968);
#1970=PROPERTY_DEFINITION('user defined attribute','',#1872);
#1974=REPRESENTATION('',(#1973),#1864);
#1975=PROPERTY_DEFINITION_REPRESENTATION(#1970,#1974);
#1976=PROPERTY_DEFINITION('user defined attribute','',#1872);
#1980=REPRESENTATION('',(#1979),#1864);
#1981=PROPERTY_DEFINITION_REPRESENTATION(#1976,#1980);
#1982=PROPERTY_DEFINITION('user defined attribute','',#1872);
#1986=REPRESENTATION('',(#1985),#1864);
#1987=PROPERTY_DEFINITION_REPRESENTATION(#1982,#1986);
#1988=PROPERTY_DEFINITION('user defined attribute','',#1872);
#1992=REPRESENTATION('',(#1991),#1864);
#1993=PROPERTY_DEFINITION_REPRESENTATION(#1988,#1992);
#1994=PROPERTY_DEFINITION('user defined attribute','',#1872);
#1998=REPRESENTATION('',(#1997),#1864);
#1999=PROPERTY_DEFINITION_REPRESENTATION(#1994,#1998);
#2000=PROPERTY_DEFINITION('user defined attribute','',#1872);
#2004=REPRESENTATION('',(#2003),#1864);
#2005=PROPERTY_DEFINITION_REPRESENTATION(#2000,#2004);
#2006=PROPERTY_DEFINITION('user defined attribute','',#1872);
#2010=REPRESENTATION('',(#2009),#1864);
#2011=PROPERTY_DEFINITION_REPRESENTATION(#2006,#2010);
#2012=PROPERTY_DEFINITION('user defined attribute','',#1872);
#2016=REPRESENTATION('',(#2015),#1864);
#2017=PROPERTY_DEFINITION_REPRESENTATION(#2012,#2016);
#2018=PROPERTY_DEFINITION('user defined attribute','',#1872);
#2022=REPRESENTATION('',(#2021),#1864);
#2023=PROPERTY_DEFINITION_REPRESENTATION(#2018,#2022);
#2024=PROPERTY_DEFINITION('user defined attribute','',#1872);
#2028=REPRESENTATION('',(#2027),#1864);
#2029=PROPERTY_DEFINITION_REPRESENTATION(#2024,#2028);
#2030=PROPERTY_DEFINITION('user defined attribute','',#1872);
#2034=REPRESENTATION('',(#2033),#1864);
#2035=PROPERTY_DEFINITION_REPRESENTATION(#2030,#2034);
#2036=PROPERTY_DEFINITION('user defined attribute','',#1872);
#2040=REPRESENTATION('',(#2039),#1864);
#2041=PROPERTY_DEFINITION_REPRESENTATION(#2036,#2040);
#2042=PROPERTY_DEFINITION('user defined attribute','',#1872);
#2046=REPRESENTATION('',(#2045),#1864);
#2047=PROPERTY_DEFINITION_REPRESENTATION(#2042,#2046);
#2048=PROPERTY_DEFINITION('user defined attribute','',#1872);
#2052=REPRESENTATION('',(#2051),#1864);
#2053=PROPERTY_DEFINITION_REPRESENTATION(#2048,#2052);
#2054=PROPERTY_DEFINITION('user defined attribute','',#1872);
#2058=REPRESENTATION('',(#2057),#1864);
#2059=PROPERTY_DEFINITION_REPRESENTATION(#2054,#2058);
#2060=PROPERTY_DEFINITION('user defined attribute','',#1872);
#2064=REPRESENTATION('',(#2063),#1864);
#2065=PROPERTY_DEFINITION_REPRESENTATION(#2060,#2064);
#2066=PROPERTY_DEFINITION('user defined attribute','',#1872);
#2070=REPRESENTATION('',(#2069),#1864);
#2071=PROPERTY_DEFINITION_REPRESENTATION(#2066,#2070);
#2072=PROPERTY_DEFINITION('user defined attribute','',#1872);
#2076=REPRESENTATION('',(#2075),#1864);
#2077=PROPERTY_DEFINITION_REPRESENTATION(#2072,#2076);
#2078=PROPERTY_DEFINITION('user defined attribute','',#1872);
#2082=REPRESENTATION('',(#2081),#1864);
#2083=PROPERTY_DEFINITION_REPRESENTATION(#2078,#2082);
#2084=PROPERTY_DEFINITION('user defined attribute','',#1872);
#2088=REPRESENTATION('',(#2087),#1864);
#2089=PROPERTY_DEFINITION_REPRESENTATION(#2084,#2088);
#2090=PROPERTY_DEFINITION('user defined attribute','',#1872);
#2094=REPRESENTATION('',(#2093),#1864);
#2095=PROPERTY_DEFINITION_REPRESENTATION(#2090,#2094);
#2096=PROPERTY_DEFINITION('user defined attribute','',#1872);
#2100=REPRESENTATION('',(#2099),#1864);
#2101=PROPERTY_DEFINITION_REPRESENTATION(#2096,#2100);
#2102=PROPERTY_DEFINITION('user defined attribute','',#1872);
#2106=REPRESENTATION('',(#2105),#1864);
#2107=PROPERTY_DEFINITION_REPRESENTATION(#2102,#2106);
#2108=PROPERTY_DEFINITION('user defined attribute','',#1872);
#2112=REPRESENTATION('',(#2111),#1864);
#2113=PROPERTY_DEFINITION_REPRESENTATION(#2108,#2112);
ENDSEC;
END-ISO-10303-21;
