%TF.GenerationSoftware,KiCad,Pcbnew,9.0.7*%
%TF.CreationDate,2026-02-27T15:54:46-05:00*%
%TF.ProjectId,pcb,7063622e-6b69-4636-9164-5f7063625858,rev?*%
%TF.SameCoordinates,Original*%
%TF.FileFunction,Other,User*%
%FSLAX46Y46*%
G04 Gerber Fmt 4.6, Leading zero omitted, Abs format (unit mm)*
G04 Created by KiCad (PCBNEW 9.0.7) date 2026-02-27 15:54:46*
%MOMM*%
%LPD*%
G01*
G04 APERTURE LIST*
%ADD10C,0.050000*%
%ADD11C,0.152400*%
G04 APERTURE END LIST*
D10*
%TO.C,TP2*%
X104241500Y-95547839D02*
G75*
G02*
X101741500Y-95547839I-1250000J0D01*
G01*
X101741500Y-95547839D02*
G75*
G02*
X104241500Y-95547839I1250000J0D01*
G01*
%TO.C,U1*%
X106705000Y-101897500D02*
X106705000Y-107302500D01*
X99295000Y-107302500D02*
X106705000Y-107302500D01*
X99295000Y-101897500D02*
X106705000Y-101897500D01*
X99295000Y-101897500D02*
X99295000Y-107302500D01*
%TO.C,U4*%
X99225000Y-58192500D02*
X99225000Y-63597500D01*
X99225000Y-58192500D02*
X106635000Y-58192500D01*
X99225000Y-63597500D02*
X106635000Y-63597500D01*
X106635000Y-58192500D02*
X106635000Y-63597500D01*
%TO.C,U3*%
X99495000Y-72897500D02*
X99495000Y-78302500D01*
X99495000Y-72897500D02*
X106905000Y-72897500D01*
X99495000Y-78302500D02*
X106905000Y-78302500D01*
X106905000Y-72897500D02*
X106905000Y-78302500D01*
D11*
%TO.C,TH4*%
X127549800Y-54026000D02*
X127549800Y-45898000D01*
X127549800Y-45898000D02*
X119117000Y-45898000D01*
X119117000Y-54026000D02*
X127549800Y-54026000D01*
X119117000Y-45898000D02*
X119117000Y-54026000D01*
%TO.C,TH3*%
X116635200Y-54026000D02*
X116635200Y-45898000D01*
X116635200Y-45898000D02*
X108202400Y-45898000D01*
X108202400Y-54026000D02*
X116635200Y-54026000D01*
X108202400Y-45898000D02*
X108202400Y-54026000D01*
%TO.C,TH2*%
X105549800Y-54026000D02*
X105549800Y-45898000D01*
X105549800Y-45898000D02*
X97117000Y-45898000D01*
X97117000Y-54026000D02*
X105549800Y-54026000D01*
X97117000Y-45898000D02*
X97117000Y-54026000D01*
%TO.C,TH1*%
X94635200Y-54026000D02*
X94635200Y-45898000D01*
X94635200Y-45898000D02*
X86202400Y-45898000D01*
X86202400Y-54026000D02*
X94635200Y-54026000D01*
X86202400Y-45898000D02*
X86202400Y-54026000D01*
%TO.C,J2*%
X109840000Y-113974000D02*
X109840000Y-122102000D01*
X109840000Y-122102000D02*
X126197600Y-122102000D01*
X126197600Y-113974000D02*
X109840000Y-113974000D01*
X126197600Y-122102000D02*
X126197600Y-113974000D01*
%TO.C,J1*%
X99190000Y-113974000D02*
X99190000Y-122102000D01*
X99190000Y-122102000D02*
X107622800Y-122102000D01*
X107622800Y-113974000D02*
X99190000Y-113974000D01*
X107622800Y-122102000D02*
X107622800Y-113974000D01*
D10*
%TO.C,U2*%
X99295000Y-87497500D02*
X99295000Y-92902500D01*
X99295000Y-87497500D02*
X106705000Y-87497500D01*
X99295000Y-92902500D02*
X106705000Y-92902500D01*
X106705000Y-87497500D02*
X106705000Y-92902500D01*
%TO.C,R6*%
X94465000Y-90940000D02*
X94465000Y-89060000D01*
X91135000Y-90940000D02*
X94465000Y-90940000D01*
X91135000Y-90940000D02*
X91135000Y-89060000D01*
X91135000Y-89060000D02*
X94465000Y-89060000D01*
%TO.C,R3*%
X94401500Y-102940000D02*
X94401500Y-101060000D01*
X91071500Y-102940000D02*
X94401500Y-102940000D01*
X91071500Y-102940000D02*
X91071500Y-101060000D01*
X91071500Y-101060000D02*
X94401500Y-101060000D01*
%TO.C,R10*%
X91071500Y-56060000D02*
X91071500Y-57940000D01*
X94401500Y-56060000D02*
X91071500Y-56060000D01*
X94401500Y-56060000D02*
X94401500Y-57940000D01*
X94401500Y-57940000D02*
X91071500Y-57940000D01*
%TO.C,R4*%
X94465000Y-105540000D02*
X94465000Y-103660000D01*
X91135000Y-105540000D02*
X94465000Y-105540000D01*
X91135000Y-105540000D02*
X91135000Y-103660000D01*
X91135000Y-103660000D02*
X94465000Y-103660000D01*
%TO.C,C1*%
X125250000Y-105050000D02*
X124400000Y-105050000D01*
X125250000Y-102950000D02*
X125250000Y-105050000D01*
X124400000Y-105575000D02*
X123575000Y-106400000D01*
X124400000Y-105050000D02*
X124400000Y-105575000D01*
X124400000Y-102950000D02*
X125250000Y-102950000D01*
X124400000Y-102425000D02*
X124400000Y-102950000D01*
X123575000Y-106400000D02*
X119600000Y-106400000D01*
X123575000Y-101600000D02*
X124400000Y-102425000D01*
X119600000Y-106400000D02*
X119600000Y-105050000D01*
X119600000Y-105050000D02*
X118750000Y-105050000D01*
X119600000Y-102950000D02*
X119600000Y-101600000D01*
X119600000Y-101600000D02*
X123575000Y-101600000D01*
X118750000Y-105050000D02*
X118750000Y-102950000D01*
X118750000Y-102950000D02*
X119600000Y-102950000D01*
%TO.C,C4*%
X125486500Y-63597839D02*
X124636500Y-63597839D01*
X125486500Y-61497839D02*
X125486500Y-63597839D01*
X124636500Y-64122839D02*
X123811500Y-64947839D01*
X124636500Y-63597839D02*
X124636500Y-64122839D01*
X124636500Y-61497839D02*
X125486500Y-61497839D01*
X124636500Y-60972839D02*
X124636500Y-61497839D01*
X123811500Y-64947839D02*
X119836500Y-64947839D01*
X123811500Y-60147839D02*
X124636500Y-60972839D01*
X119836500Y-64947839D02*
X119836500Y-63597839D01*
X119836500Y-63597839D02*
X118986500Y-63597839D01*
X119836500Y-61497839D02*
X119836500Y-60147839D01*
X119836500Y-60147839D02*
X123811500Y-60147839D01*
X118986500Y-63597839D02*
X118986500Y-61497839D01*
X118986500Y-61497839D02*
X119836500Y-61497839D01*
%TO.C,C2*%
X125486500Y-93597839D02*
X124636500Y-93597839D01*
X125486500Y-91497839D02*
X125486500Y-93597839D01*
X124636500Y-94122839D02*
X123811500Y-94947839D01*
X124636500Y-93597839D02*
X124636500Y-94122839D01*
X124636500Y-91497839D02*
X125486500Y-91497839D01*
X124636500Y-90972839D02*
X124636500Y-91497839D01*
X123811500Y-94947839D02*
X119836500Y-94947839D01*
X123811500Y-90147839D02*
X124636500Y-90972839D01*
X119836500Y-94947839D02*
X119836500Y-93597839D01*
X119836500Y-93597839D02*
X118986500Y-93597839D01*
X119836500Y-91497839D02*
X119836500Y-90147839D01*
X119836500Y-90147839D02*
X123811500Y-90147839D01*
X118986500Y-93597839D02*
X118986500Y-91497839D01*
X118986500Y-91497839D02*
X119836500Y-91497839D01*
%TO.C,D1*%
X95145000Y-112915000D02*
X88725000Y-112915000D01*
X88725000Y-119345000D01*
X95145000Y-119345000D01*
X95145000Y-112915000D01*
%TO.C,R14*%
X91141500Y-79607839D02*
X91141500Y-81487839D01*
X94471500Y-79607839D02*
X91141500Y-79607839D01*
X94471500Y-79607839D02*
X94471500Y-81487839D01*
X94471500Y-81487839D02*
X91141500Y-81487839D01*
%TO.C,TP3*%
X104241500Y-81642839D02*
G75*
G02*
X101741500Y-81642839I-1250000J0D01*
G01*
X101741500Y-81642839D02*
G75*
G02*
X104241500Y-81642839I1250000J0D01*
G01*
%TO.C,R8*%
X94401500Y-93987839D02*
X91071500Y-93987839D01*
X94401500Y-92107839D02*
X94401500Y-93987839D01*
X94401500Y-92107839D02*
X91071500Y-92107839D01*
X91071500Y-92107839D02*
X91071500Y-93987839D01*
%TO.C,C3*%
X125486500Y-79097839D02*
X124636500Y-79097839D01*
X125486500Y-76997839D02*
X125486500Y-79097839D01*
X124636500Y-79622839D02*
X123811500Y-80447839D01*
X124636500Y-79097839D02*
X124636500Y-79622839D01*
X124636500Y-76997839D02*
X125486500Y-76997839D01*
X124636500Y-76472839D02*
X124636500Y-76997839D01*
X123811500Y-80447839D02*
X119836500Y-80447839D01*
X123811500Y-75647839D02*
X124636500Y-76472839D01*
X119836500Y-80447839D02*
X119836500Y-79097839D01*
X119836500Y-79097839D02*
X118986500Y-79097839D01*
X119836500Y-76997839D02*
X119836500Y-75647839D01*
X119836500Y-75647839D02*
X123811500Y-75647839D01*
X118986500Y-79097839D02*
X118986500Y-76997839D01*
X118986500Y-76997839D02*
X119836500Y-76997839D01*
%TO.C,R2*%
X94401500Y-108487839D02*
X94401500Y-106607839D01*
X91071500Y-108487839D02*
X94401500Y-108487839D01*
X91071500Y-108487839D02*
X91071500Y-106607839D01*
X91071500Y-106607839D02*
X94401500Y-106607839D01*
%TO.C,R9*%
X91071500Y-95107839D02*
X91071500Y-96987839D01*
X94401500Y-95107839D02*
X91071500Y-95107839D01*
X94401500Y-95107839D02*
X94401500Y-96987839D01*
X94401500Y-96987839D02*
X91071500Y-96987839D01*
%TO.C,R13*%
X94471500Y-78487839D02*
X94471500Y-76607839D01*
X91141500Y-78487839D02*
X94471500Y-78487839D01*
X91141500Y-78487839D02*
X91141500Y-76607839D01*
X91141500Y-76607839D02*
X94471500Y-76607839D01*
%TO.C,R5*%
X94401500Y-111487839D02*
X94401500Y-109607839D01*
X91071500Y-111487839D02*
X94401500Y-111487839D01*
X91071500Y-111487839D02*
X91071500Y-109607839D01*
X91071500Y-109607839D02*
X94401500Y-109607839D01*
%TO.C,R19*%
X91071500Y-65107839D02*
X91071500Y-66987839D01*
X94401500Y-65107839D02*
X91071500Y-65107839D01*
X94401500Y-65107839D02*
X94401500Y-66987839D01*
X94401500Y-66987839D02*
X91071500Y-66987839D01*
%TO.C,TP1*%
X104241500Y-110142839D02*
G75*
G02*
X101741500Y-110142839I-1250000J0D01*
G01*
X101741500Y-110142839D02*
G75*
G02*
X104241500Y-110142839I1250000J0D01*
G01*
%TO.C,TP4*%
X104241500Y-66547839D02*
G75*
G02*
X101741500Y-66547839I-1250000J0D01*
G01*
X101741500Y-66547839D02*
G75*
G02*
X104241500Y-66547839I1250000J0D01*
G01*
%TO.C,R18*%
X98075000Y-117795000D02*
X98075000Y-114465000D01*
X98075000Y-117795000D02*
X96195000Y-117795000D01*
X98075000Y-114465000D02*
X96195000Y-114465000D01*
X96195000Y-117795000D02*
X96195000Y-114465000D01*
%TO.C,R7*%
X94401500Y-87940000D02*
X94401500Y-86060000D01*
X91071500Y-87940000D02*
X94401500Y-87940000D01*
X91071500Y-87940000D02*
X91071500Y-86060000D01*
X91071500Y-86060000D02*
X94401500Y-86060000D01*
%TO.C,R11*%
X94265000Y-75540000D02*
X94265000Y-73660000D01*
X90935000Y-75540000D02*
X94265000Y-75540000D01*
X90935000Y-75540000D02*
X90935000Y-73660000D01*
X90935000Y-73660000D02*
X94265000Y-73660000D01*
%TO.C,R1*%
X91135000Y-59060000D02*
X91135000Y-60940000D01*
X94465000Y-59060000D02*
X91135000Y-59060000D01*
X94465000Y-59060000D02*
X94465000Y-60940000D01*
X94465000Y-60940000D02*
X91135000Y-60940000D01*
%TO.C,R15*%
X94401500Y-63987839D02*
X94401500Y-62107839D01*
X91071500Y-63987839D02*
X94401500Y-63987839D01*
X91071500Y-63987839D02*
X91071500Y-62107839D01*
X91071500Y-62107839D02*
X94401500Y-62107839D01*
%TO.C,R12*%
X94265000Y-71940000D02*
X94265000Y-70060000D01*
X90935000Y-71940000D02*
X94265000Y-71940000D01*
X90935000Y-71940000D02*
X90935000Y-70060000D01*
X90935000Y-70060000D02*
X94265000Y-70060000D01*
%TD*%
M02*
