%TF.GenerationSoftware,KiCad,Pcbnew,9.0.7*%
%TF.CreationDate,2026-02-27T15:56:08-05:00*%
%TF.ProjectId,pcb,7063622e-6b69-4636-9164-5f7063625858,rev?*%
%TF.SameCoordinates,Original*%
%TF.FileFunction,Copper,L2,Bot*%
%TF.FilePolarity,Positive*%
%FSLAX46Y46*%
G04 Gerber Fmt 4.6, Leading zero omitted, Abs format (unit mm)*
G04 Created by KiCad (PCBNEW 9.0.7) date 2026-02-27 15:56:08*
%MOMM*%
%LPD*%
G01*
G04 APERTURE LIST*
%TA.AperFunction,ComponentPad*%
%ADD10C,1.500000*%
%TD*%
%TA.AperFunction,ComponentPad*%
%ADD11C,2.286000*%
%TD*%
%TA.AperFunction,ComponentPad*%
%ADD12R,1.700000X1.700000*%
%TD*%
%TA.AperFunction,ComponentPad*%
%ADD13C,1.700000*%
%TD*%
%TA.AperFunction,ComponentPad*%
%ADD14R,2.000000X2.000000*%
%TD*%
%TA.AperFunction,ComponentPad*%
%ADD15C,2.000000*%
%TD*%
%TA.AperFunction,ComponentPad*%
%ADD16R,1.800000X1.800000*%
%TD*%
%TA.AperFunction,ComponentPad*%
%ADD17C,1.800000*%
%TD*%
%TA.AperFunction,ViaPad*%
%ADD18C,1.100000*%
%TD*%
%TA.AperFunction,Conductor*%
%ADD19C,0.300000*%
%TD*%
%TA.AperFunction,Conductor*%
%ADD20C,0.400000*%
%TD*%
G04 APERTURE END LIST*
D10*
%TO.P,TP2,1,1*%
%TO.N,T2 sortie*%
X102991500Y-95547839D03*
%TD*%
D11*
%TO.P,TH4,1*%
%TO.N,Net-(U4-POSB)*%
X121352200Y-49200000D03*
%TO.P,TH4,2*%
%TO.N,+5V*%
X125314600Y-49200000D03*
%TD*%
%TO.P,TH3,1*%
%TO.N,Net-(U3-POSB)*%
X110437600Y-49200000D03*
%TO.P,TH3,2*%
%TO.N,+5V*%
X114400000Y-49200000D03*
%TD*%
%TO.P,TH2,1*%
%TO.N,Net-(U2-POSB)*%
X99352200Y-49200000D03*
%TO.P,TH2,2*%
%TO.N,+5V*%
X103314600Y-49200000D03*
%TD*%
%TO.P,TH1,1*%
%TO.N,Net-(U1-POSB)*%
X88437600Y-49200000D03*
%TO.P,TH1,2*%
%TO.N,+5V*%
X92400000Y-49200000D03*
%TD*%
%TO.P,J2,1,1*%
%TO.N,pwmdroite*%
X123962400Y-118800000D03*
%TO.P,J2,2,2*%
%TO.N,pwmgauche*%
X120000000Y-118800000D03*
%TO.P,J2,3,3*%
%TO.N,GND*%
X116037600Y-118800000D03*
%TO.P,J2,4,4*%
%TO.N,+5V (Ali seulement)*%
X112075200Y-118800000D03*
%TD*%
%TO.P,J1,1,1*%
%TO.N,GND*%
X105387600Y-118800000D03*
%TO.P,J1,2,2*%
%TO.N,+5V (Ali seulement)*%
X101425200Y-118800000D03*
%TD*%
D12*
%TO.P,pwm1,1,Pin_1*%
%TO.N,/SCL*%
X131913400Y-47682839D03*
D13*
%TO.P,pwm1,2,Pin_2*%
%TO.N,/SDA*%
X131913400Y-50222839D03*
%TO.P,pwm1,3,Pin_3*%
%TO.N,+AREF*%
X131913400Y-52762839D03*
%TO.P,pwm1,4,Pin_4*%
%TO.N,GND*%
X131913400Y-55302839D03*
%TO.P,pwm1,5,Pin_5*%
%TO.N,/D13*%
X131913400Y-57842839D03*
%TO.P,pwm1,6,Pin_6*%
%TO.N,/D12*%
X131913400Y-60382839D03*
%TO.P,pwm1,7,Pin_7*%
%TO.N,pwmgauche*%
X131913400Y-62922839D03*
%TO.P,pwm1,8,Pin_8*%
%TO.N,/D10*%
X131913400Y-65462839D03*
%TO.P,pwm1,9,Pin_9*%
%TO.N,/D9*%
X131913400Y-68002839D03*
%TO.P,pwm1,10,Pin_10*%
%TO.N,/D8*%
X131913400Y-70542839D03*
%TD*%
D14*
%TO.P,RV3,1,1*%
%TO.N,Net-(U3-NEGB)*%
X112695000Y-79627839D03*
D15*
%TO.P,RV3,2,2*%
%TO.N,T3 sortie*%
X112695000Y-77087839D03*
%TO.P,RV3,3,3*%
%TO.N,GND*%
X112695000Y-74547839D03*
%TD*%
D14*
%TO.P,RV2,1,1*%
%TO.N,Net-(U2-NEGB)*%
X112695000Y-94627839D03*
D15*
%TO.P,RV2,2,2*%
%TO.N,T2 sortie*%
X112695000Y-92087839D03*
%TO.P,RV2,3,3*%
%TO.N,GND*%
X112695000Y-89547839D03*
%TD*%
D16*
%TO.P,D1,1,K*%
%TO.N,GND*%
X91935000Y-114855000D03*
D17*
%TO.P,D1,2,A*%
%TO.N,Net-(D1-A)*%
X91935000Y-117395000D03*
%TD*%
D14*
%TO.P,RV4,1,1*%
%TO.N,Net-(U4-NEGB)*%
X112800000Y-64627839D03*
D15*
%TO.P,RV4,2,2*%
%TO.N,T4 sortie*%
X112800000Y-62087839D03*
%TO.P,RV4,3,3*%
%TO.N,GND*%
X112800000Y-59547839D03*
%TD*%
D10*
%TO.P,TP3,1,1*%
%TO.N,T3 sortie*%
X102991500Y-81642839D03*
%TD*%
%TO.P,TP1,1,1*%
%TO.N,T1 sortie*%
X102991500Y-110142839D03*
%TD*%
%TO.P,TP4,1,1*%
%TO.N,T4 sortie*%
X102991500Y-66547839D03*
%TD*%
D14*
%TO.P,RV1,1,1*%
%TO.N,Net-(U1-NEGB)*%
X112695000Y-108127839D03*
D15*
%TO.P,RV1,2,2*%
%TO.N,T1 sortie*%
X112695000Y-105587839D03*
%TO.P,RV1,3,3*%
%TO.N,GND*%
X112695000Y-103047839D03*
%TD*%
D12*
%TO.P,power2,1,Pin_1*%
%TO.N,unconnected-(power2-Pin_1-Pad1)*%
X84613400Y-56792839D03*
D13*
%TO.P,power2,2,Pin_2*%
%TO.N,+IOREF*%
X84613400Y-59332839D03*
%TO.P,power2,3,Pin_3*%
%TO.N,/RESET*%
X84613400Y-61872839D03*
%TO.P,power2,4,Pin_4*%
%TO.N,+3.3V*%
X84613400Y-64412839D03*
%TO.P,power2,5,Pin_5*%
%TO.N,+5V*%
X84613400Y-66952839D03*
%TO.P,power2,6,Pin_6*%
%TO.N,GND*%
X84613400Y-69492839D03*
%TO.P,power2,7,Pin_7*%
X84613400Y-72032839D03*
%TO.P,power2,8,Pin_8*%
%TO.N,+VIN*%
X84613400Y-74572839D03*
%TD*%
D12*
%TO.P,analogA0-A7,1,Pin_1*%
%TO.N,T4 sortie*%
X84613400Y-79792839D03*
D13*
%TO.P,analogA0-A7,2,Pin_2*%
%TO.N,T3 sortie*%
X84613400Y-82332839D03*
%TO.P,analogA0-A7,3,Pin_3*%
%TO.N,T2 sortie*%
X84613400Y-84872839D03*
%TO.P,analogA0-A7,4,Pin_4*%
%TO.N,T1 sortie*%
X84613400Y-87412839D03*
%TO.P,analogA0-A7,5,Pin_5*%
%TO.N,/A4*%
X84613400Y-89952839D03*
%TO.P,analogA0-A7,6,Pin_6*%
%TO.N,/A5*%
X84613400Y-92492839D03*
%TO.P,analogA0-A7,7,Pin_7*%
%TO.N,/A6*%
X84613400Y-95032839D03*
%TO.P,analogA0-A7,8,Pin_8*%
%TO.N,/A7*%
X84613400Y-97572839D03*
%TD*%
D12*
%TO.P,comm1,1,Pin_1*%
%TO.N,/D14*%
X131913400Y-97672839D03*
D13*
%TO.P,comm1,2,Pin_2*%
%TO.N,/D15*%
X131913400Y-100212839D03*
%TO.P,comm1,3,Pin_3*%
%TO.N,/D16*%
X131913400Y-102752839D03*
%TO.P,comm1,4,Pin_4*%
%TO.N,/D17*%
X131913400Y-105292839D03*
%TO.P,comm1,5,Pin_5*%
%TO.N,/D18*%
X131913400Y-107832839D03*
%TO.P,comm1,6,Pin_6*%
%TO.N,/D19*%
X131913400Y-110372839D03*
%TO.P,comm1,7,Pin_7*%
%TO.N,/D20*%
X131913400Y-112912839D03*
%TO.P,comm1,8,Pin_8*%
%TO.N,/D21*%
X131913400Y-115452839D03*
%TD*%
D12*
%TO.P,analogA8-A15,1,Pin_1*%
%TO.N,/A8*%
X84583400Y-102692839D03*
D13*
%TO.P,analogA8-A15,2,Pin_2*%
%TO.N,/A9*%
X84583400Y-105232839D03*
%TO.P,analogA8-A15,3,Pin_3*%
%TO.N,/A10*%
X84583400Y-107772839D03*
%TO.P,analogA8-A15,4,Pin_4*%
%TO.N,/A11*%
X84583400Y-110312839D03*
%TO.P,analogA8-A15,5,Pin_5*%
%TO.N,/A12*%
X84583400Y-112852839D03*
%TO.P,analogA8-A15,6,Pin_6*%
%TO.N,/A13*%
X84583400Y-115392839D03*
%TO.P,analogA8-A15,7,Pin_7*%
%TO.N,/A14*%
X84583400Y-117932839D03*
%TO.P,analogA8-A15,8,Pin_8*%
%TO.N,/A15*%
X84583400Y-120472839D03*
%TD*%
D12*
%TO.P,pwm2,1,Pin_1*%
%TO.N,/D7*%
X131913400Y-74672839D03*
D13*
%TO.P,pwm2,2,Pin_2*%
%TO.N,/D6*%
X131913400Y-77212839D03*
%TO.P,pwm2,3,Pin_3*%
%TO.N,pwmdroite*%
X131913400Y-79752839D03*
%TO.P,pwm2,4,Pin_4*%
%TO.N,/D4*%
X131913400Y-82292839D03*
%TO.P,pwm2,5,Pin_5*%
%TO.N,/D3*%
X131913400Y-84832839D03*
%TO.P,pwm2,6,Pin_6*%
%TO.N,/D2*%
X131913400Y-87372839D03*
%TO.P,pwm2,7,Pin_7*%
%TO.N,/D1{slash}TX0*%
X131913400Y-89912839D03*
%TO.P,pwm2,8,Pin_8*%
%TO.N,/D0{slash}RX0*%
X131913400Y-92452839D03*
%TD*%
D18*
%TO.N,GND*%
X97200000Y-62400000D03*
X97200000Y-77000000D03*
X97000000Y-91600000D03*
X97200000Y-107000000D03*
%TO.N,Net-(U4-POSB)*%
X106000000Y-64800000D03*
%TO.N,Net-(U3-POSB)*%
X105700000Y-79200000D03*
%TO.N,Net-(U2-POSB)*%
X108200000Y-91835000D03*
%TO.N,Net-(U1-POSB)*%
X105200000Y-108200000D03*
%TD*%
D19*
%TO.N,Net-(U3-POSB)*%
X113237600Y-46400000D02*
X110437600Y-49200000D01*
X127600000Y-55400000D02*
X127600000Y-47800000D01*
X105700000Y-77300000D02*
X127600000Y-55400000D01*
X105700000Y-79200000D02*
X105700000Y-77300000D01*
X126200000Y-46400000D02*
X113237600Y-46400000D01*
X127600000Y-47800000D02*
X126200000Y-46400000D01*
D20*
%TO.N,Net-(U2-POSB)*%
X127000000Y-45400000D02*
X103152200Y-45400000D01*
X128400000Y-46800000D02*
X127000000Y-45400000D01*
X107200000Y-89570157D02*
X128400000Y-68370157D01*
X103152200Y-45400000D02*
X99352200Y-49200000D01*
X108200000Y-91835000D02*
X107200000Y-90835000D01*
X107200000Y-90835000D02*
X107200000Y-89570157D01*
X128400000Y-68370157D02*
X128400000Y-46800000D01*
D19*
%TO.N,Net-(U1-POSB)*%
X92938761Y-44698839D02*
X88437600Y-49200000D01*
X128098839Y-44698839D02*
X92938761Y-44698839D01*
X129200000Y-45800000D02*
X128098839Y-44698839D01*
X129200000Y-84200000D02*
X129200000Y-45800000D01*
X105200000Y-108200000D02*
X129200000Y-84200000D01*
%TO.N,Net-(U4-POSB)*%
X118400000Y-49200000D02*
X121352200Y-49200000D01*
X106000000Y-61600000D02*
X118400000Y-49200000D01*
X106000000Y-64800000D02*
X106000000Y-61600000D01*
D20*
%TO.N,T4 sortie*%
X106852161Y-66547839D02*
X102991500Y-66547839D01*
X112800000Y-62087839D02*
X111312161Y-62087839D01*
X111312161Y-62087839D02*
X106852161Y-66547839D01*
%TO.N,T3 sortie*%
X102991500Y-81642839D02*
X106957161Y-81642839D01*
X106957161Y-81642839D02*
X111512161Y-77087839D01*
X111512161Y-77087839D02*
X112736500Y-77087839D01*
%TO.N,T2 sortie*%
X112624339Y-92200000D02*
X112736500Y-92087839D01*
X111200000Y-92200000D02*
X112624339Y-92200000D01*
X107852161Y-95547839D02*
X111200000Y-92200000D01*
X102991500Y-95547839D02*
X107852161Y-95547839D01*
%TO.N,T1 sortie*%
X89400000Y-96551339D02*
X89400000Y-92199439D01*
X102991500Y-110142839D02*
X89400000Y-96551339D01*
X89400000Y-92199439D02*
X84613400Y-87412839D01*
%TO.N,T4 sortie*%
X89607161Y-79792839D02*
X84613400Y-79792839D01*
X102852161Y-66547839D02*
X89607161Y-79792839D01*
X102991500Y-66547839D02*
X102852161Y-66547839D01*
%TO.N,T3 sortie*%
X102267161Y-82332839D02*
X84613400Y-82332839D01*
X102957161Y-81642839D02*
X102267161Y-82332839D01*
X102991500Y-81642839D02*
X102957161Y-81642839D01*
%TO.N,T2 sortie*%
X95288400Y-95547839D02*
X84613400Y-84872839D01*
X102991500Y-95547839D02*
X95288400Y-95547839D01*
%TO.N,T1 sortie*%
X105657161Y-110142839D02*
X102991500Y-110142839D01*
X110212161Y-105587839D02*
X105657161Y-110142839D01*
X112736500Y-105587839D02*
X110212161Y-105587839D01*
%TD*%
%TA.AperFunction,Conductor*%
%TO.N,GND*%
G36*
X91936992Y-44568024D02*
G01*
X91982747Y-44620828D01*
X91992691Y-44689986D01*
X91963666Y-44753542D01*
X91957634Y-44760020D01*
X89101278Y-47616374D01*
X89039955Y-47649859D01*
X88975279Y-47646624D01*
X88822451Y-47596967D01*
X88566951Y-47556500D01*
X88566946Y-47556500D01*
X88308254Y-47556500D01*
X88308249Y-47556500D01*
X88052749Y-47596967D01*
X87806712Y-47676910D01*
X87576217Y-47794353D01*
X87366929Y-47946410D01*
X87184010Y-48129329D01*
X87031953Y-48338617D01*
X86914510Y-48569112D01*
X86834567Y-48815149D01*
X86794100Y-49070648D01*
X86794100Y-49329351D01*
X86823507Y-49515018D01*
X86834568Y-49584854D01*
X86914509Y-49830885D01*
X87031953Y-50061382D01*
X87184008Y-50270668D01*
X87366932Y-50453592D01*
X87576218Y-50605647D01*
X87806715Y-50723091D01*
X88052746Y-50803032D01*
X88148561Y-50818207D01*
X88308249Y-50843500D01*
X88308254Y-50843500D01*
X88566951Y-50843500D01*
X88708894Y-50821017D01*
X88822454Y-50803032D01*
X89068485Y-50723091D01*
X89298982Y-50605647D01*
X89508268Y-50453592D01*
X89691192Y-50270668D01*
X89843247Y-50061382D01*
X89960691Y-49830885D01*
X90040632Y-49584854D01*
X90058617Y-49471294D01*
X90081100Y-49329351D01*
X90081100Y-49070648D01*
X90756500Y-49070648D01*
X90756500Y-49329351D01*
X90785907Y-49515018D01*
X90796968Y-49584854D01*
X90876909Y-49830885D01*
X90994353Y-50061382D01*
X91146408Y-50270668D01*
X91329332Y-50453592D01*
X91538618Y-50605647D01*
X91769115Y-50723091D01*
X92015146Y-50803032D01*
X92110961Y-50818207D01*
X92270649Y-50843500D01*
X92270654Y-50843500D01*
X92529351Y-50843500D01*
X92671294Y-50821017D01*
X92784854Y-50803032D01*
X93030885Y-50723091D01*
X93261382Y-50605647D01*
X93470668Y-50453592D01*
X93653592Y-50270668D01*
X93805647Y-50061382D01*
X93923091Y-49830885D01*
X94003032Y-49584854D01*
X94021017Y-49471294D01*
X94043500Y-49329351D01*
X94043500Y-49070648D01*
X94014949Y-48890386D01*
X94003032Y-48815146D01*
X93923091Y-48569115D01*
X93805647Y-48338618D01*
X93653592Y-48129332D01*
X93470668Y-47946408D01*
X93261382Y-47794353D01*
X93030885Y-47676909D01*
X92784854Y-47596968D01*
X92784852Y-47596967D01*
X92784850Y-47596967D01*
X92529351Y-47556500D01*
X92529346Y-47556500D01*
X92270654Y-47556500D01*
X92270649Y-47556500D01*
X92015149Y-47596967D01*
X91769112Y-47676910D01*
X91538617Y-47794353D01*
X91329329Y-47946410D01*
X91146410Y-48129329D01*
X90994353Y-48338617D01*
X90876910Y-48569112D01*
X90796967Y-48815149D01*
X90756500Y-49070648D01*
X90081100Y-49070648D01*
X90059026Y-48931286D01*
X90040632Y-48815146D01*
X89990973Y-48662317D01*
X89988979Y-48592479D01*
X90021222Y-48536322D01*
X93171888Y-45385658D01*
X93233211Y-45352173D01*
X93259569Y-45349339D01*
X101912842Y-45349339D01*
X101979881Y-45369024D01*
X102025636Y-45421828D01*
X102035580Y-45490986D01*
X102006555Y-45554542D01*
X102000523Y-45561020D01*
X99962509Y-47599032D01*
X99901186Y-47632517D01*
X99836511Y-47629282D01*
X99737056Y-47596968D01*
X99737057Y-47596968D01*
X99481551Y-47556500D01*
X99481546Y-47556500D01*
X99222854Y-47556500D01*
X99222849Y-47556500D01*
X98967349Y-47596967D01*
X98721312Y-47676910D01*
X98490817Y-47794353D01*
X98281529Y-47946410D01*
X98098610Y-48129329D01*
X97946553Y-48338617D01*
X97829110Y-48569112D01*
X97749167Y-48815149D01*
X97708700Y-49070648D01*
X97708700Y-49329351D01*
X97738107Y-49515018D01*
X97749168Y-49584854D01*
X97829109Y-49830885D01*
X97946553Y-50061382D01*
X98098608Y-50270668D01*
X98281532Y-50453592D01*
X98490818Y-50605647D01*
X98721315Y-50723091D01*
X98967346Y-50803032D01*
X99063161Y-50818207D01*
X99222849Y-50843500D01*
X99222854Y-50843500D01*
X99481551Y-50843500D01*
X99623494Y-50821017D01*
X99737054Y-50803032D01*
X99983085Y-50723091D01*
X100213582Y-50605647D01*
X100422868Y-50453592D01*
X100605792Y-50270668D01*
X100757847Y-50061382D01*
X100875291Y-49830885D01*
X100955232Y-49584854D01*
X100973217Y-49471294D01*
X100995700Y-49329351D01*
X100995700Y-49070648D01*
X101671100Y-49070648D01*
X101671100Y-49329351D01*
X101700507Y-49515018D01*
X101711568Y-49584854D01*
X101791509Y-49830885D01*
X101908953Y-50061382D01*
X102061008Y-50270668D01*
X102243932Y-50453592D01*
X102453218Y-50605647D01*
X102683715Y-50723091D01*
X102929746Y-50803032D01*
X103025561Y-50818207D01*
X103185249Y-50843500D01*
X103185254Y-50843500D01*
X103443951Y-50843500D01*
X103585894Y-50821017D01*
X103699454Y-50803032D01*
X103945485Y-50723091D01*
X104175982Y-50605647D01*
X104385268Y-50453592D01*
X104568192Y-50270668D01*
X104720247Y-50061382D01*
X104837691Y-49830885D01*
X104917632Y-49584854D01*
X104935617Y-49471294D01*
X104958100Y-49329351D01*
X104958100Y-49070648D01*
X104929549Y-48890386D01*
X104917632Y-48815146D01*
X104837691Y-48569115D01*
X104720247Y-48338618D01*
X104568192Y-48129332D01*
X104385268Y-47946408D01*
X104175982Y-47794353D01*
X103945485Y-47676909D01*
X103699454Y-47596968D01*
X103699452Y-47596967D01*
X103699450Y-47596967D01*
X103443951Y-47556500D01*
X103443946Y-47556500D01*
X103185254Y-47556500D01*
X103185249Y-47556500D01*
X102929749Y-47596967D01*
X102683712Y-47676910D01*
X102453217Y-47794353D01*
X102243929Y-47946410D01*
X102061010Y-48129329D01*
X101908953Y-48338617D01*
X101791510Y-48569112D01*
X101711567Y-48815149D01*
X101671100Y-49070648D01*
X100995700Y-49070648D01*
X100955232Y-48815145D01*
X100922916Y-48715689D01*
X100920921Y-48645848D01*
X100953164Y-48589691D01*
X103406038Y-46136819D01*
X103467361Y-46103334D01*
X103493719Y-46100500D01*
X112317792Y-46100500D01*
X112384831Y-46120185D01*
X112430586Y-46172989D01*
X112440530Y-46242147D01*
X112411505Y-46305703D01*
X112405473Y-46312181D01*
X111101278Y-47616374D01*
X111039955Y-47649859D01*
X110975279Y-47646624D01*
X110822451Y-47596967D01*
X110566951Y-47556500D01*
X110566946Y-47556500D01*
X110308254Y-47556500D01*
X110308249Y-47556500D01*
X110052749Y-47596967D01*
X109806712Y-47676910D01*
X109576217Y-47794353D01*
X109366929Y-47946410D01*
X109184010Y-48129329D01*
X109031953Y-48338617D01*
X108914510Y-48569112D01*
X108834567Y-48815149D01*
X108794100Y-49070648D01*
X108794100Y-49329351D01*
X108823507Y-49515018D01*
X108834568Y-49584854D01*
X108914509Y-49830885D01*
X109031953Y-50061382D01*
X109184008Y-50270668D01*
X109366932Y-50453592D01*
X109576218Y-50605647D01*
X109806715Y-50723091D01*
X110052746Y-50803032D01*
X110148561Y-50818207D01*
X110308249Y-50843500D01*
X110308254Y-50843500D01*
X110566951Y-50843500D01*
X110708894Y-50821017D01*
X110822454Y-50803032D01*
X111068485Y-50723091D01*
X111298982Y-50605647D01*
X111508268Y-50453592D01*
X111691192Y-50270668D01*
X111843247Y-50061382D01*
X111960691Y-49830885D01*
X112040632Y-49584854D01*
X112058617Y-49471294D01*
X112081100Y-49329351D01*
X112081100Y-49070648D01*
X112756500Y-49070648D01*
X112756500Y-49329351D01*
X112785907Y-49515018D01*
X112796968Y-49584854D01*
X112876909Y-49830885D01*
X112994353Y-50061382D01*
X113146408Y-50270668D01*
X113329332Y-50453592D01*
X113538618Y-50605647D01*
X113769115Y-50723091D01*
X114015146Y-50803032D01*
X114110961Y-50818207D01*
X114270649Y-50843500D01*
X114270654Y-50843500D01*
X114529351Y-50843500D01*
X114671294Y-50821017D01*
X114784854Y-50803032D01*
X115030885Y-50723091D01*
X115261382Y-50605647D01*
X115470668Y-50453592D01*
X115653592Y-50270668D01*
X115805647Y-50061382D01*
X115923091Y-49830885D01*
X116003032Y-49584854D01*
X116021017Y-49471294D01*
X116043500Y-49329351D01*
X116043500Y-49070648D01*
X116014949Y-48890386D01*
X116003032Y-48815146D01*
X115923091Y-48569115D01*
X115805647Y-48338618D01*
X115653592Y-48129332D01*
X115470668Y-47946408D01*
X115261382Y-47794353D01*
X115030885Y-47676909D01*
X114784854Y-47596968D01*
X114784852Y-47596967D01*
X114784850Y-47596967D01*
X114529351Y-47556500D01*
X114529346Y-47556500D01*
X114270654Y-47556500D01*
X114270649Y-47556500D01*
X114015149Y-47596967D01*
X113769112Y-47676910D01*
X113538617Y-47794353D01*
X113329329Y-47946410D01*
X113146410Y-48129329D01*
X112994353Y-48338617D01*
X112876910Y-48569112D01*
X112796967Y-48815149D01*
X112756500Y-49070648D01*
X112081100Y-49070648D01*
X112059026Y-48931286D01*
X112040632Y-48815146D01*
X111990973Y-48662317D01*
X111988979Y-48592479D01*
X112021222Y-48536322D01*
X113470727Y-47086819D01*
X113532050Y-47053334D01*
X113558408Y-47050500D01*
X125879192Y-47050500D01*
X125946231Y-47070185D01*
X125966873Y-47086819D01*
X126913181Y-48033127D01*
X126946666Y-48094450D01*
X126949500Y-48120808D01*
X126949500Y-48273053D01*
X126929815Y-48340092D01*
X126877011Y-48385847D01*
X126807853Y-48395791D01*
X126744297Y-48366766D01*
X126723518Y-48342263D01*
X126723111Y-48342560D01*
X126672611Y-48273053D01*
X126568192Y-48129332D01*
X126385268Y-47946408D01*
X126175982Y-47794353D01*
X125945485Y-47676909D01*
X125699454Y-47596968D01*
X125699452Y-47596967D01*
X125699450Y-47596967D01*
X125443951Y-47556500D01*
X125443946Y-47556500D01*
X125185254Y-47556500D01*
X125185249Y-47556500D01*
X124929749Y-47596967D01*
X124683712Y-47676910D01*
X124453217Y-47794353D01*
X124243929Y-47946410D01*
X124061010Y-48129329D01*
X123908953Y-48338617D01*
X123791510Y-48569112D01*
X123711567Y-48815149D01*
X123671100Y-49070648D01*
X123671100Y-49329351D01*
X123700507Y-49515018D01*
X123711568Y-49584854D01*
X123791509Y-49830885D01*
X123908953Y-50061382D01*
X124061008Y-50270668D01*
X124243932Y-50453592D01*
X124453218Y-50605647D01*
X124683715Y-50723091D01*
X124929746Y-50803032D01*
X125025561Y-50818207D01*
X125185249Y-50843500D01*
X125185254Y-50843500D01*
X125443951Y-50843500D01*
X125585894Y-50821017D01*
X125699454Y-50803032D01*
X125945485Y-50723091D01*
X126175982Y-50605647D01*
X126385268Y-50453592D01*
X126568192Y-50270668D01*
X126720247Y-50061382D01*
X126720247Y-50061381D01*
X126723111Y-50057440D01*
X126724151Y-50058196D01*
X126771578Y-50015284D01*
X126840507Y-50003857D01*
X126904671Y-50031511D01*
X126943699Y-50089464D01*
X126949500Y-50126946D01*
X126949500Y-55079191D01*
X126929815Y-55146230D01*
X126913181Y-55166872D01*
X105194727Y-76885325D01*
X105194721Y-76885332D01*
X105138318Y-76969746D01*
X105138319Y-76969747D01*
X105123534Y-76991874D01*
X105074499Y-77110255D01*
X105074497Y-77110261D01*
X105049500Y-77235928D01*
X105049500Y-78313505D01*
X105029815Y-78380544D01*
X105013181Y-78401186D01*
X104884025Y-78530341D01*
X104884024Y-78530342D01*
X104769058Y-78702403D01*
X104689870Y-78893579D01*
X104689868Y-78893587D01*
X104649500Y-79096530D01*
X104649500Y-79303469D01*
X104689868Y-79506412D01*
X104689870Y-79506420D01*
X104769058Y-79697596D01*
X104884024Y-79869657D01*
X105030342Y-80015975D01*
X105030345Y-80015977D01*
X105202402Y-80130941D01*
X105393580Y-80210130D01*
X105596530Y-80250499D01*
X105596534Y-80250500D01*
X105596535Y-80250500D01*
X105803466Y-80250500D01*
X105803467Y-80250499D01*
X106006420Y-80210130D01*
X106197598Y-80130941D01*
X106369655Y-80015977D01*
X106515977Y-79869655D01*
X106630941Y-79697598D01*
X106710130Y-79506420D01*
X106750500Y-79303465D01*
X106750500Y-79096535D01*
X106710130Y-78893580D01*
X106630941Y-78702402D01*
X106515977Y-78530345D01*
X106515975Y-78530342D01*
X106386819Y-78401186D01*
X106353334Y-78339863D01*
X106350500Y-78313505D01*
X106350500Y-77620808D01*
X106370185Y-77553769D01*
X106386819Y-77533127D01*
X127487819Y-56432127D01*
X127549142Y-56398642D01*
X127618834Y-56403626D01*
X127674767Y-56445498D01*
X127699184Y-56510962D01*
X127699500Y-56519808D01*
X127699500Y-68028637D01*
X127679815Y-68095676D01*
X127663181Y-68116318D01*
X106655888Y-89123610D01*
X106655887Y-89123611D01*
X106579222Y-89238349D01*
X106526421Y-89365824D01*
X106526418Y-89365836D01*
X106512775Y-89434427D01*
X106503924Y-89478925D01*
X106499500Y-89501164D01*
X106499500Y-90766006D01*
X106499500Y-90903994D01*
X106499500Y-90903996D01*
X106499499Y-90903996D01*
X106526418Y-91039322D01*
X106526421Y-91039332D01*
X106579222Y-91166807D01*
X106655887Y-91281545D01*
X106655888Y-91281546D01*
X107113181Y-91738838D01*
X107146666Y-91800161D01*
X107149500Y-91826519D01*
X107149500Y-91938469D01*
X107189868Y-92141412D01*
X107189870Y-92141420D01*
X107269058Y-92332596D01*
X107384024Y-92504657D01*
X107530342Y-92650975D01*
X107530345Y-92650977D01*
X107702402Y-92765941D01*
X107893580Y-92845130D01*
X108040088Y-92874272D01*
X108096530Y-92885499D01*
X108096534Y-92885500D01*
X108096535Y-92885500D01*
X108303466Y-92885500D01*
X108303467Y-92885499D01*
X108506420Y-92845130D01*
X108697598Y-92765941D01*
X108869655Y-92650977D01*
X109015977Y-92504655D01*
X109130941Y-92332598D01*
X109210130Y-92141420D01*
X109250500Y-91938465D01*
X109250500Y-91731535D01*
X109210130Y-91528580D01*
X109130941Y-91337402D01*
X109015977Y-91165345D01*
X109015975Y-91165342D01*
X108869657Y-91019024D01*
X108783626Y-90961541D01*
X108697598Y-90904059D01*
X108688501Y-90900291D01*
X108506420Y-90824870D01*
X108506412Y-90824868D01*
X108303469Y-90784500D01*
X108303465Y-90784500D01*
X108191519Y-90784500D01*
X108162078Y-90775855D01*
X108132092Y-90769332D01*
X108127076Y-90765577D01*
X108124480Y-90764815D01*
X108103838Y-90748181D01*
X107936819Y-90581162D01*
X107903334Y-90519839D01*
X107900500Y-90493481D01*
X107900500Y-89911676D01*
X107920185Y-89844637D01*
X107936819Y-89823995D01*
X128337819Y-69422995D01*
X128399142Y-69389510D01*
X128468834Y-69394494D01*
X128524767Y-69436366D01*
X128549184Y-69501830D01*
X128549500Y-69510676D01*
X128549500Y-83879191D01*
X128529815Y-83946230D01*
X128513181Y-83966872D01*
X105366872Y-107113181D01*
X105305549Y-107146666D01*
X105279191Y-107149500D01*
X105096530Y-107149500D01*
X104893587Y-107189868D01*
X104893579Y-107189870D01*
X104702403Y-107269058D01*
X104530342Y-107384024D01*
X104384024Y-107530342D01*
X104269058Y-107702403D01*
X104189870Y-107893579D01*
X104189868Y-107893587D01*
X104149500Y-108096530D01*
X104149500Y-108303469D01*
X104189868Y-108506412D01*
X104189870Y-108506420D01*
X104269058Y-108697596D01*
X104384024Y-108869657D01*
X104530342Y-109015975D01*
X104702403Y-109130942D01*
X104878245Y-109203778D01*
X104932648Y-109247619D01*
X104954713Y-109313913D01*
X104937434Y-109381613D01*
X104886296Y-109429223D01*
X104830792Y-109442339D01*
X104091441Y-109442339D01*
X104024402Y-109422654D01*
X103991123Y-109391225D01*
X103945328Y-109328193D01*
X103806146Y-109189011D01*
X103646905Y-109073315D01*
X103597518Y-109048151D01*
X103471529Y-108983956D01*
X103284326Y-108923129D01*
X103089922Y-108892339D01*
X103089917Y-108892339D01*
X102893083Y-108892339D01*
X102893077Y-108892339D01*
X102816130Y-108904526D01*
X102746837Y-108895571D01*
X102709052Y-108869734D01*
X90136819Y-96297501D01*
X90103334Y-96236178D01*
X90100500Y-96209820D01*
X90100500Y-92130443D01*
X90073581Y-91995116D01*
X90073580Y-91995115D01*
X90073580Y-91995111D01*
X90073578Y-91995106D01*
X90020777Y-91867632D01*
X90020772Y-91867623D01*
X90012375Y-91855056D01*
X90012374Y-91855055D01*
X89944112Y-91752893D01*
X89944109Y-91752890D01*
X85973907Y-87782689D01*
X85971686Y-87778621D01*
X85967790Y-87776112D01*
X85955098Y-87748243D01*
X85940422Y-87721366D01*
X85940218Y-87715569D01*
X85938832Y-87712526D01*
X85939060Y-87682682D01*
X85938869Y-87677232D01*
X85938983Y-87676440D01*
X85963900Y-87519126D01*
X85963900Y-87504425D01*
X85965181Y-87495582D01*
X85976158Y-87471611D01*
X85983585Y-87446319D01*
X85990474Y-87440349D01*
X85994272Y-87432057D01*
X86016469Y-87417824D01*
X86036389Y-87400564D01*
X86045412Y-87399266D01*
X86053090Y-87394344D01*
X86079453Y-87394371D01*
X86105547Y-87390620D01*
X86113842Y-87394408D01*
X86122960Y-87394418D01*
X86145120Y-87408692D01*
X86169103Y-87419645D01*
X86175581Y-87425677D01*
X94841853Y-96091950D01*
X94841854Y-96091951D01*
X94956592Y-96168616D01*
X95056069Y-96209820D01*
X95084072Y-96221419D01*
X95084076Y-96221419D01*
X95084077Y-96221420D01*
X95219403Y-96248339D01*
X95219406Y-96248339D01*
X95219407Y-96248339D01*
X101891559Y-96248339D01*
X101958598Y-96268024D01*
X101991875Y-96299451D01*
X102037672Y-96362485D01*
X102176854Y-96501667D01*
X102336095Y-96617363D01*
X102418955Y-96659582D01*
X102511470Y-96706721D01*
X102511472Y-96706721D01*
X102511475Y-96706723D01*
X102611817Y-96739326D01*
X102698673Y-96767548D01*
X102893078Y-96798339D01*
X102893083Y-96798339D01*
X103089922Y-96798339D01*
X103284326Y-96767548D01*
X103320879Y-96755671D01*
X103471525Y-96706723D01*
X103646905Y-96617363D01*
X103806146Y-96501667D01*
X103945328Y-96362485D01*
X103991124Y-96299452D01*
X104046453Y-96256788D01*
X104091441Y-96248339D01*
X107921157Y-96248339D01*
X108012201Y-96230228D01*
X108056489Y-96221419D01*
X108126661Y-96192353D01*
X108183968Y-96168616D01*
X108183969Y-96168615D01*
X108183972Y-96168614D01*
X108298704Y-96091953D01*
X110994508Y-93396147D01*
X111055829Y-93362664D01*
X111125520Y-93367648D01*
X111181454Y-93409520D01*
X111205871Y-93474984D01*
X111200540Y-93512295D01*
X111202693Y-93512804D01*
X111200908Y-93520355D01*
X111194501Y-93579955D01*
X111194501Y-93579962D01*
X111194500Y-93579974D01*
X111194500Y-95675709D01*
X111194501Y-95675715D01*
X111200908Y-95735322D01*
X111251202Y-95870167D01*
X111251206Y-95870174D01*
X111337452Y-95985383D01*
X111337455Y-95985386D01*
X111452664Y-96071632D01*
X111452671Y-96071636D01*
X111587517Y-96121930D01*
X111587516Y-96121930D01*
X111594444Y-96122674D01*
X111647127Y-96128339D01*
X113742872Y-96128338D01*
X113802483Y-96121930D01*
X113937331Y-96071635D01*
X114052546Y-95985385D01*
X114138796Y-95870170D01*
X114189091Y-95735322D01*
X114195500Y-95675712D01*
X114195499Y-93579967D01*
X114189091Y-93520356D01*
X114186274Y-93512804D01*
X114138797Y-93385510D01*
X114138793Y-93385503D01*
X114052547Y-93270294D01*
X114052544Y-93270291D01*
X113937335Y-93184045D01*
X113929546Y-93179792D01*
X113931331Y-93176522D01*
X113889448Y-93145123D01*
X113865078Y-93079642D01*
X113879978Y-93011379D01*
X113888441Y-92998010D01*
X113978343Y-92874272D01*
X114085568Y-92663831D01*
X114158553Y-92439207D01*
X114175438Y-92332598D01*
X114195500Y-92205936D01*
X114195500Y-91969741D01*
X114158553Y-91736470D01*
X114118450Y-91613047D01*
X114085568Y-91511847D01*
X114085566Y-91511844D01*
X114085566Y-91511842D01*
X114029002Y-91400830D01*
X113978343Y-91301406D01*
X113839517Y-91110329D01*
X113672510Y-90943322D01*
X113613282Y-90900290D01*
X113570617Y-90844961D01*
X113562550Y-90790243D01*
X113564104Y-90770496D01*
X112741446Y-89947839D01*
X112747661Y-89947839D01*
X112849394Y-89920580D01*
X112940606Y-89867919D01*
X113015080Y-89793445D01*
X113067741Y-89702233D01*
X113095000Y-89600500D01*
X113095000Y-89594286D01*
X113917658Y-90416944D01*
X113917658Y-90416943D01*
X113977914Y-90334008D01*
X113977918Y-90334002D01*
X114085102Y-90123641D01*
X114158065Y-89899086D01*
X114195000Y-89665891D01*
X114195000Y-89429786D01*
X114158065Y-89196591D01*
X114085102Y-88972036D01*
X113977914Y-88761667D01*
X113917658Y-88678733D01*
X113917658Y-88678732D01*
X113095000Y-89501391D01*
X113095000Y-89495178D01*
X113067741Y-89393445D01*
X113015080Y-89302233D01*
X112940606Y-89227759D01*
X112849394Y-89175098D01*
X112747661Y-89147839D01*
X112741447Y-89147839D01*
X113564105Y-88325179D01*
X113564104Y-88325177D01*
X113481174Y-88264926D01*
X113270802Y-88157736D01*
X113046247Y-88084773D01*
X113046248Y-88084773D01*
X112813052Y-88047839D01*
X112576948Y-88047839D01*
X112343752Y-88084773D01*
X112119197Y-88157736D01*
X111908830Y-88264923D01*
X111825894Y-88325179D01*
X112648554Y-89147839D01*
X112642339Y-89147839D01*
X112540606Y-89175098D01*
X112449394Y-89227759D01*
X112374920Y-89302233D01*
X112322259Y-89393445D01*
X112295000Y-89495178D01*
X112295000Y-89501393D01*
X111472340Y-88678733D01*
X111412084Y-88761669D01*
X111304897Y-88972036D01*
X111231934Y-89196591D01*
X111195000Y-89429786D01*
X111195000Y-89665891D01*
X111231934Y-89899086D01*
X111304897Y-90123641D01*
X111412087Y-90334013D01*
X111472338Y-90416943D01*
X111472340Y-90416944D01*
X112295000Y-89594284D01*
X112295000Y-89600500D01*
X112322259Y-89702233D01*
X112374920Y-89793445D01*
X112449394Y-89867919D01*
X112540606Y-89920580D01*
X112642339Y-89947839D01*
X112648554Y-89947839D01*
X111825893Y-90770497D01*
X111827448Y-90790244D01*
X111813084Y-90858622D01*
X111776717Y-90900290D01*
X111717490Y-90943321D01*
X111550485Y-91110326D01*
X111550485Y-91110327D01*
X111550483Y-91110329D01*
X111509449Y-91166807D01*
X111411657Y-91301405D01*
X111345220Y-91431795D01*
X111339047Y-91438330D01*
X111336157Y-91446841D01*
X111315433Y-91463333D01*
X111297245Y-91482591D01*
X111287075Y-91485901D01*
X111281486Y-91490349D01*
X111261224Y-91494314D01*
X111247236Y-91498868D01*
X111240999Y-91499500D01*
X111131007Y-91499500D01*
X111022591Y-91521065D01*
X111016797Y-91522217D01*
X111016792Y-91522218D01*
X110995673Y-91526419D01*
X110958330Y-91541887D01*
X110868191Y-91579223D01*
X110817571Y-91613047D01*
X110754298Y-91655325D01*
X110754288Y-91655332D01*
X110753456Y-91655887D01*
X110753450Y-91655892D01*
X107598323Y-94811020D01*
X107537000Y-94844505D01*
X107510642Y-94847339D01*
X104091441Y-94847339D01*
X104024402Y-94827654D01*
X103991123Y-94796225D01*
X103945328Y-94733193D01*
X103806146Y-94594011D01*
X103646905Y-94478315D01*
X103471529Y-94388956D01*
X103284326Y-94328129D01*
X103089922Y-94297339D01*
X103089917Y-94297339D01*
X102893083Y-94297339D01*
X102893078Y-94297339D01*
X102698673Y-94328129D01*
X102511470Y-94388956D01*
X102336094Y-94478315D01*
X102286391Y-94514427D01*
X102176854Y-94594011D01*
X102176852Y-94594013D01*
X102176851Y-94594013D01*
X102037674Y-94733190D01*
X102037674Y-94733191D01*
X102037672Y-94733193D01*
X101991877Y-94796225D01*
X101936547Y-94838890D01*
X101891559Y-94847339D01*
X95629919Y-94847339D01*
X95562880Y-94827654D01*
X95542238Y-94811020D01*
X85973907Y-85242689D01*
X85940422Y-85181366D01*
X85939115Y-85135610D01*
X85963900Y-84979125D01*
X85963900Y-84766552D01*
X85930646Y-84556596D01*
X85864957Y-84354427D01*
X85768451Y-84165023D01*
X85768449Y-84165020D01*
X85768448Y-84165018D01*
X85643509Y-83993052D01*
X85493186Y-83842729D01*
X85321220Y-83717790D01*
X85320515Y-83717430D01*
X85312454Y-83713324D01*
X85261659Y-83665351D01*
X85244863Y-83597531D01*
X85267399Y-83531395D01*
X85312454Y-83492354D01*
X85321216Y-83487890D01*
X85376276Y-83447887D01*
X85493186Y-83362948D01*
X85493188Y-83362945D01*
X85493192Y-83362943D01*
X85643504Y-83212631D01*
X85736629Y-83084453D01*
X85791958Y-83041788D01*
X85836947Y-83033339D01*
X102336157Y-83033339D01*
X102427201Y-83015228D01*
X102471489Y-83006419D01*
X102598972Y-82953614D01*
X102687900Y-82894194D01*
X102754575Y-82873317D01*
X102776182Y-82874823D01*
X102893083Y-82893339D01*
X102893084Y-82893339D01*
X103089922Y-82893339D01*
X103284326Y-82862548D01*
X103319094Y-82851251D01*
X103471525Y-82801723D01*
X103646905Y-82712363D01*
X103806146Y-82596667D01*
X103945328Y-82457485D01*
X103991124Y-82394452D01*
X104046453Y-82351788D01*
X104091441Y-82343339D01*
X107026157Y-82343339D01*
X107117201Y-82325228D01*
X107161489Y-82316419D01*
X107225230Y-82290016D01*
X107288968Y-82263616D01*
X107288969Y-82263615D01*
X107288972Y-82263614D01*
X107403704Y-82186953D01*
X110982819Y-78607836D01*
X111044142Y-78574352D01*
X111113834Y-78579336D01*
X111169767Y-78621208D01*
X111194184Y-78686672D01*
X111194500Y-78695518D01*
X111194500Y-80675709D01*
X111194501Y-80675715D01*
X111200908Y-80735322D01*
X111251202Y-80870167D01*
X111251206Y-80870174D01*
X111337452Y-80985383D01*
X111337455Y-80985386D01*
X111452664Y-81071632D01*
X111452671Y-81071636D01*
X111587517Y-81121930D01*
X111587516Y-81121930D01*
X111594444Y-81122674D01*
X111647127Y-81128339D01*
X113742872Y-81128338D01*
X113802483Y-81121930D01*
X113937331Y-81071635D01*
X114052546Y-80985385D01*
X114138796Y-80870170D01*
X114189091Y-80735322D01*
X114195500Y-80675712D01*
X114195499Y-78579967D01*
X114189091Y-78520356D01*
X114177079Y-78488151D01*
X114138797Y-78385510D01*
X114138793Y-78385503D01*
X114052547Y-78270294D01*
X114052544Y-78270291D01*
X113937335Y-78184045D01*
X113929546Y-78179792D01*
X113931331Y-78176522D01*
X113889448Y-78145123D01*
X113865078Y-78079642D01*
X113879978Y-78011379D01*
X113888441Y-77998010D01*
X113978343Y-77874272D01*
X114085568Y-77663831D01*
X114158553Y-77439207D01*
X114190749Y-77235931D01*
X114195500Y-77205936D01*
X114195500Y-76969741D01*
X114158553Y-76736470D01*
X114085566Y-76511842D01*
X114029002Y-76400830D01*
X113978343Y-76301406D01*
X113839517Y-76110329D01*
X113672510Y-75943322D01*
X113613282Y-75900290D01*
X113570617Y-75844961D01*
X113562550Y-75790243D01*
X113564104Y-75770496D01*
X112741446Y-74947839D01*
X112747661Y-74947839D01*
X112849394Y-74920580D01*
X112940606Y-74867919D01*
X113015080Y-74793445D01*
X113067741Y-74702233D01*
X113095000Y-74600500D01*
X113095000Y-74594286D01*
X113917658Y-75416944D01*
X113917658Y-75416943D01*
X113977914Y-75334008D01*
X113977918Y-75334002D01*
X114085102Y-75123641D01*
X114158065Y-74899086D01*
X114195000Y-74665891D01*
X114195000Y-74429786D01*
X114158065Y-74196591D01*
X114085102Y-73972036D01*
X113977914Y-73761667D01*
X113917658Y-73678733D01*
X113917658Y-73678732D01*
X113095000Y-74501391D01*
X113095000Y-74495178D01*
X113067741Y-74393445D01*
X113015080Y-74302233D01*
X112940606Y-74227759D01*
X112849394Y-74175098D01*
X112747661Y-74147839D01*
X112741447Y-74147839D01*
X113564105Y-73325179D01*
X113564104Y-73325177D01*
X113481174Y-73264926D01*
X113270802Y-73157736D01*
X113046247Y-73084773D01*
X113046248Y-73084773D01*
X112813052Y-73047839D01*
X112576948Y-73047839D01*
X112343752Y-73084773D01*
X112119197Y-73157736D01*
X111908830Y-73264923D01*
X111825894Y-73325179D01*
X112648554Y-74147839D01*
X112642339Y-74147839D01*
X112540606Y-74175098D01*
X112449394Y-74227759D01*
X112374920Y-74302233D01*
X112322259Y-74393445D01*
X112295000Y-74495178D01*
X112295000Y-74501393D01*
X111472340Y-73678733D01*
X111412084Y-73761669D01*
X111304897Y-73972036D01*
X111231934Y-74196591D01*
X111195000Y-74429786D01*
X111195000Y-74665891D01*
X111231934Y-74899086D01*
X111304897Y-75123641D01*
X111412087Y-75334013D01*
X111472338Y-75416943D01*
X111472340Y-75416944D01*
X112295000Y-74594284D01*
X112295000Y-74600500D01*
X112322259Y-74702233D01*
X112374920Y-74793445D01*
X112449394Y-74867919D01*
X112540606Y-74920580D01*
X112642339Y-74947839D01*
X112648554Y-74947839D01*
X111825893Y-75770497D01*
X111827448Y-75790244D01*
X111813084Y-75858622D01*
X111776717Y-75900290D01*
X111717490Y-75943321D01*
X111550485Y-76110326D01*
X111550485Y-76110327D01*
X111550483Y-76110329D01*
X111541289Y-76122984D01*
X111411655Y-76301408D01*
X111386590Y-76350600D01*
X111338615Y-76401395D01*
X111312110Y-76412961D01*
X111307833Y-76414258D01*
X111180353Y-76467061D01*
X111065615Y-76543726D01*
X111065614Y-76543727D01*
X106703323Y-80906020D01*
X106642000Y-80939505D01*
X106615642Y-80942339D01*
X104091441Y-80942339D01*
X104024402Y-80922654D01*
X103991123Y-80891225D01*
X103986724Y-80885170D01*
X103945328Y-80828193D01*
X103806146Y-80689011D01*
X103646905Y-80573315D01*
X103471529Y-80483956D01*
X103284326Y-80423129D01*
X103089922Y-80392339D01*
X103089917Y-80392339D01*
X102893083Y-80392339D01*
X102893078Y-80392339D01*
X102698673Y-80423129D01*
X102511470Y-80483956D01*
X102336094Y-80573315D01*
X102275501Y-80617339D01*
X102176854Y-80689011D01*
X102176852Y-80689013D01*
X102176851Y-80689013D01*
X102037674Y-80828190D01*
X102037674Y-80828191D01*
X102037672Y-80828193D01*
X102007176Y-80870167D01*
X101921976Y-80987433D01*
X101832617Y-81162809D01*
X101771790Y-81350012D01*
X101743642Y-81527737D01*
X101713713Y-81590872D01*
X101654401Y-81627803D01*
X101621169Y-81632339D01*
X85836947Y-81632339D01*
X85769908Y-81612654D01*
X85736630Y-81581224D01*
X85695082Y-81524039D01*
X85643507Y-81453050D01*
X85529969Y-81339512D01*
X85496484Y-81278189D01*
X85501468Y-81208497D01*
X85543340Y-81152564D01*
X85574315Y-81135649D01*
X85705731Y-81086635D01*
X85820946Y-81000385D01*
X85907196Y-80885170D01*
X85957491Y-80750322D01*
X85963900Y-80690712D01*
X85963900Y-80617339D01*
X85983585Y-80550300D01*
X86036389Y-80504545D01*
X86087900Y-80493339D01*
X89676157Y-80493339D01*
X89767201Y-80475228D01*
X89811489Y-80466419D01*
X89875230Y-80440016D01*
X89938968Y-80413616D01*
X89938969Y-80413615D01*
X89938972Y-80413614D01*
X90053704Y-80336953D01*
X102588766Y-67801889D01*
X102650087Y-67768406D01*
X102695844Y-67767099D01*
X102698669Y-67767546D01*
X102698674Y-67767548D01*
X102804510Y-67784310D01*
X102893079Y-67798339D01*
X102893083Y-67798339D01*
X103089922Y-67798339D01*
X103284326Y-67767548D01*
X103341361Y-67749016D01*
X103471525Y-67706723D01*
X103646905Y-67617363D01*
X103806146Y-67501667D01*
X103945328Y-67362485D01*
X103991124Y-67299452D01*
X104046453Y-67256788D01*
X104091441Y-67248339D01*
X106921157Y-67248339D01*
X107012201Y-67230228D01*
X107056489Y-67221419D01*
X107120230Y-67195016D01*
X107183968Y-67168616D01*
X107183969Y-67168615D01*
X107183972Y-67168614D01*
X107298704Y-67091953D01*
X111175561Y-63215093D01*
X111236882Y-63181610D01*
X111306573Y-63186594D01*
X111362507Y-63228466D01*
X111386924Y-63293930D01*
X111372072Y-63362203D01*
X111362510Y-63377083D01*
X111356205Y-63385505D01*
X111356202Y-63385510D01*
X111305908Y-63520356D01*
X111299501Y-63579955D01*
X111299501Y-63579962D01*
X111299500Y-63579974D01*
X111299500Y-65675709D01*
X111299501Y-65675715D01*
X111305908Y-65735322D01*
X111356202Y-65870167D01*
X111356206Y-65870174D01*
X111442452Y-65985383D01*
X111442455Y-65985386D01*
X111557664Y-66071632D01*
X111557671Y-66071636D01*
X111692517Y-66121930D01*
X111692516Y-66121930D01*
X111699444Y-66122674D01*
X111752127Y-66128339D01*
X113847872Y-66128338D01*
X113907483Y-66121930D01*
X114042331Y-66071635D01*
X114157546Y-65985385D01*
X114243796Y-65870170D01*
X114294091Y-65735322D01*
X114300500Y-65675712D01*
X114300499Y-63579967D01*
X114294091Y-63520356D01*
X114243796Y-63385508D01*
X114243794Y-63385505D01*
X114243793Y-63385503D01*
X114157547Y-63270294D01*
X114157544Y-63270291D01*
X114042335Y-63184045D01*
X114034546Y-63179792D01*
X114036331Y-63176522D01*
X113994448Y-63145123D01*
X113970078Y-63079642D01*
X113984978Y-63011379D01*
X113993441Y-62998010D01*
X114083343Y-62874272D01*
X114190568Y-62663831D01*
X114263553Y-62439207D01*
X114271148Y-62391253D01*
X114300500Y-62205936D01*
X114300500Y-61969741D01*
X114263553Y-61736470D01*
X114216069Y-61590330D01*
X114190568Y-61511847D01*
X114190566Y-61511844D01*
X114190566Y-61511842D01*
X114118513Y-61370431D01*
X114083343Y-61301406D01*
X113944517Y-61110329D01*
X113777510Y-60943322D01*
X113718282Y-60900290D01*
X113675617Y-60844961D01*
X113667550Y-60790243D01*
X113669104Y-60770496D01*
X112846446Y-59947839D01*
X112852661Y-59947839D01*
X112954394Y-59920580D01*
X113045606Y-59867919D01*
X113120080Y-59793445D01*
X113172741Y-59702233D01*
X113200000Y-59600500D01*
X113200000Y-59594286D01*
X114022658Y-60416944D01*
X114022658Y-60416943D01*
X114082914Y-60334008D01*
X114082918Y-60334002D01*
X114190102Y-60123641D01*
X114263065Y-59899086D01*
X114300000Y-59665891D01*
X114300000Y-59429786D01*
X114263065Y-59196591D01*
X114190102Y-58972036D01*
X114082914Y-58761667D01*
X114022658Y-58678733D01*
X114022658Y-58678732D01*
X113200000Y-59501391D01*
X113200000Y-59495178D01*
X113172741Y-59393445D01*
X113120080Y-59302233D01*
X113045606Y-59227759D01*
X112954394Y-59175098D01*
X112852661Y-59147839D01*
X112846447Y-59147839D01*
X113669105Y-58325179D01*
X113669104Y-58325177D01*
X113586174Y-58264926D01*
X113375802Y-58157736D01*
X113151247Y-58084773D01*
X113151248Y-58084773D01*
X112918052Y-58047839D01*
X112681948Y-58047839D01*
X112448752Y-58084773D01*
X112224197Y-58157736D01*
X112013830Y-58264923D01*
X111930894Y-58325179D01*
X112753554Y-59147839D01*
X112747339Y-59147839D01*
X112645606Y-59175098D01*
X112554394Y-59227759D01*
X112479920Y-59302233D01*
X112427259Y-59393445D01*
X112400000Y-59495178D01*
X112400000Y-59501393D01*
X111577340Y-58678733D01*
X111517084Y-58761669D01*
X111409897Y-58972036D01*
X111336934Y-59196591D01*
X111300000Y-59429786D01*
X111300000Y-59665891D01*
X111336934Y-59899086D01*
X111409897Y-60123641D01*
X111517087Y-60334013D01*
X111577338Y-60416943D01*
X111577340Y-60416944D01*
X112400000Y-59594284D01*
X112400000Y-59600500D01*
X112427259Y-59702233D01*
X112479920Y-59793445D01*
X112554394Y-59867919D01*
X112645606Y-59920580D01*
X112747339Y-59947839D01*
X112753554Y-59947839D01*
X111930893Y-60770497D01*
X111932448Y-60790244D01*
X111918084Y-60858622D01*
X111881717Y-60900290D01*
X111822490Y-60943321D01*
X111655485Y-61110326D01*
X111655485Y-61110327D01*
X111655483Y-61110329D01*
X111600995Y-61185325D01*
X111516657Y-61301405D01*
X111507368Y-61319636D01*
X111459392Y-61370431D01*
X111396884Y-61387339D01*
X111243164Y-61387339D01*
X111145921Y-61406682D01*
X111145919Y-61406682D01*
X111134752Y-61408904D01*
X111107832Y-61414259D01*
X111055027Y-61436131D01*
X110980350Y-61467064D01*
X110980349Y-61467065D01*
X110959360Y-61481088D01*
X110959353Y-61481092D01*
X110865618Y-61543725D01*
X110865614Y-61543728D01*
X107226474Y-65182868D01*
X107165151Y-65216353D01*
X107095459Y-65211369D01*
X107039526Y-65169497D01*
X107015109Y-65104033D01*
X107017176Y-65070995D01*
X107050500Y-64903465D01*
X107050500Y-64696535D01*
X107010130Y-64493580D01*
X106930941Y-64302402D01*
X106815977Y-64130345D01*
X106815975Y-64130342D01*
X106686819Y-64001186D01*
X106653334Y-63939863D01*
X106650500Y-63913505D01*
X106650500Y-61920807D01*
X106670185Y-61853768D01*
X106686819Y-61833126D01*
X118633126Y-49886819D01*
X118694449Y-49853334D01*
X118720807Y-49850500D01*
X119763116Y-49850500D01*
X119830155Y-49870185D01*
X119873599Y-49918203D01*
X119946553Y-50061382D01*
X120098608Y-50270668D01*
X120281532Y-50453592D01*
X120490818Y-50605647D01*
X120721315Y-50723091D01*
X120967346Y-50803032D01*
X121063161Y-50818207D01*
X121222849Y-50843500D01*
X121222854Y-50843500D01*
X121481551Y-50843500D01*
X121623494Y-50821017D01*
X121737054Y-50803032D01*
X121983085Y-50723091D01*
X122213582Y-50605647D01*
X122422868Y-50453592D01*
X122605792Y-50270668D01*
X122757847Y-50061382D01*
X122875291Y-49830885D01*
X122955232Y-49584854D01*
X122973217Y-49471294D01*
X122995700Y-49329351D01*
X122995700Y-49070648D01*
X122967149Y-48890386D01*
X122955232Y-48815146D01*
X122875291Y-48569115D01*
X122757847Y-48338618D01*
X122605792Y-48129332D01*
X122422868Y-47946408D01*
X122213582Y-47794353D01*
X121983085Y-47676909D01*
X121737054Y-47596968D01*
X121737052Y-47596967D01*
X121737050Y-47596967D01*
X121481551Y-47556500D01*
X121481546Y-47556500D01*
X121222854Y-47556500D01*
X121222849Y-47556500D01*
X120967349Y-47596967D01*
X120721312Y-47676910D01*
X120490817Y-47794353D01*
X120281529Y-47946410D01*
X120098610Y-48129329D01*
X119946553Y-48338617D01*
X119873601Y-48481795D01*
X119825627Y-48532591D01*
X119763116Y-48549500D01*
X118335929Y-48549500D01*
X118210261Y-48574497D01*
X118210255Y-48574499D01*
X118091875Y-48623533D01*
X118091866Y-48623538D01*
X117985331Y-48694723D01*
X117985327Y-48694726D01*
X105494727Y-61185325D01*
X105494726Y-61185326D01*
X105424909Y-61289817D01*
X105424904Y-61289823D01*
X105423537Y-61291868D01*
X105423535Y-61291870D01*
X105374499Y-61410255D01*
X105374497Y-61410261D01*
X105349500Y-61535928D01*
X105349500Y-63913505D01*
X105329815Y-63980544D01*
X105313181Y-64001186D01*
X105184025Y-64130341D01*
X105184024Y-64130342D01*
X105069058Y-64302403D01*
X104989870Y-64493579D01*
X104989868Y-64493587D01*
X104949500Y-64696530D01*
X104949500Y-64903469D01*
X104989868Y-65106412D01*
X104989870Y-65106420D01*
X105069058Y-65297596D01*
X105184024Y-65469657D01*
X105330341Y-65615974D01*
X105330345Y-65615977D01*
X105336720Y-65620237D01*
X105381525Y-65673849D01*
X105390232Y-65743174D01*
X105360077Y-65806202D01*
X105300634Y-65842921D01*
X105267829Y-65847339D01*
X104091441Y-65847339D01*
X104024402Y-65827654D01*
X103991123Y-65796225D01*
X103978665Y-65779078D01*
X103945328Y-65733193D01*
X103806146Y-65594011D01*
X103646905Y-65478315D01*
X103629909Y-65469655D01*
X103471529Y-65388956D01*
X103284326Y-65328129D01*
X103089922Y-65297339D01*
X103089917Y-65297339D01*
X102893083Y-65297339D01*
X102893078Y-65297339D01*
X102698673Y-65328129D01*
X102511470Y-65388956D01*
X102336094Y-65478315D01*
X102245241Y-65544324D01*
X102176854Y-65594011D01*
X102176852Y-65594013D01*
X102176851Y-65594013D01*
X102037674Y-65733190D01*
X102037674Y-65733191D01*
X102037672Y-65733193D01*
X102004332Y-65779082D01*
X101921976Y-65892433D01*
X101832617Y-66067809D01*
X101771790Y-66255012D01*
X101741000Y-66449416D01*
X101741000Y-66616980D01*
X101721315Y-66684019D01*
X101704681Y-66704661D01*
X89353323Y-79056020D01*
X89292000Y-79089505D01*
X89265642Y-79092339D01*
X86087899Y-79092339D01*
X86020860Y-79072654D01*
X85975105Y-79019850D01*
X85963899Y-78968339D01*
X85963899Y-78894968D01*
X85963898Y-78894962D01*
X85963897Y-78894955D01*
X85957491Y-78835356D01*
X85907902Y-78702402D01*
X85907197Y-78700510D01*
X85907193Y-78700503D01*
X85820947Y-78585294D01*
X85820944Y-78585291D01*
X85705735Y-78499045D01*
X85705728Y-78499041D01*
X85570882Y-78448747D01*
X85570883Y-78448747D01*
X85511283Y-78442340D01*
X85511281Y-78442339D01*
X85511273Y-78442339D01*
X85511264Y-78442339D01*
X83715529Y-78442339D01*
X83715523Y-78442340D01*
X83655916Y-78448747D01*
X83521071Y-78499041D01*
X83521064Y-78499045D01*
X83405855Y-78585291D01*
X83405852Y-78585294D01*
X83319606Y-78700503D01*
X83319602Y-78700510D01*
X83269308Y-78835356D01*
X83265256Y-78873052D01*
X83262901Y-78894962D01*
X83262900Y-78894974D01*
X83262900Y-80690709D01*
X83262901Y-80690715D01*
X83269308Y-80750322D01*
X83319602Y-80885167D01*
X83319606Y-80885174D01*
X83405852Y-81000383D01*
X83405855Y-81000386D01*
X83521064Y-81086632D01*
X83521071Y-81086636D01*
X83652482Y-81135649D01*
X83708416Y-81177520D01*
X83732833Y-81242984D01*
X83717982Y-81311257D01*
X83696831Y-81339512D01*
X83583289Y-81453054D01*
X83458351Y-81625018D01*
X83361844Y-81814424D01*
X83296153Y-82016599D01*
X83262900Y-82226552D01*
X83262900Y-82439125D01*
X83289818Y-82609082D01*
X83296154Y-82649082D01*
X83345750Y-82801723D01*
X83361844Y-82851253D01*
X83458351Y-83040659D01*
X83583290Y-83212625D01*
X83733613Y-83362948D01*
X83905582Y-83487889D01*
X83914346Y-83492355D01*
X83965142Y-83540330D01*
X83981936Y-83608151D01*
X83959398Y-83674286D01*
X83914346Y-83713323D01*
X83905582Y-83717788D01*
X83733613Y-83842729D01*
X83583290Y-83993052D01*
X83458351Y-84165018D01*
X83361844Y-84354424D01*
X83296153Y-84556599D01*
X83262900Y-84766552D01*
X83262900Y-84979125D01*
X83296153Y-85189078D01*
X83361844Y-85391253D01*
X83458351Y-85580659D01*
X83583290Y-85752625D01*
X83733613Y-85902948D01*
X83905582Y-86027889D01*
X83914346Y-86032355D01*
X83965142Y-86080330D01*
X83981936Y-86148151D01*
X83959398Y-86214286D01*
X83914346Y-86253323D01*
X83905582Y-86257788D01*
X83733613Y-86382729D01*
X83583290Y-86533052D01*
X83458351Y-86705018D01*
X83361844Y-86894424D01*
X83296153Y-87096599D01*
X83262900Y-87306552D01*
X83262900Y-87519125D01*
X83294013Y-87715569D01*
X83296154Y-87729082D01*
X83312250Y-87778621D01*
X83361844Y-87931253D01*
X83458351Y-88120659D01*
X83583290Y-88292625D01*
X83733613Y-88442948D01*
X83905582Y-88567889D01*
X83914346Y-88572355D01*
X83965142Y-88620330D01*
X83981936Y-88688151D01*
X83959398Y-88754286D01*
X83914346Y-88793323D01*
X83905582Y-88797788D01*
X83733613Y-88922729D01*
X83583290Y-89073052D01*
X83458351Y-89245018D01*
X83361844Y-89434424D01*
X83296153Y-89636599D01*
X83262900Y-89846552D01*
X83262900Y-90059125D01*
X83289818Y-90229082D01*
X83296154Y-90269082D01*
X83344197Y-90416943D01*
X83361844Y-90471253D01*
X83458351Y-90660659D01*
X83583290Y-90832625D01*
X83733613Y-90982948D01*
X83905582Y-91107889D01*
X83914346Y-91112355D01*
X83965142Y-91160330D01*
X83981936Y-91228151D01*
X83959398Y-91294286D01*
X83914346Y-91333323D01*
X83905582Y-91337788D01*
X83733613Y-91462729D01*
X83583290Y-91613052D01*
X83458351Y-91785018D01*
X83361844Y-91974424D01*
X83296153Y-92176599D01*
X83262900Y-92386552D01*
X83262900Y-92599125D01*
X83289818Y-92769082D01*
X83296154Y-92809082D01*
X83357536Y-92997997D01*
X83361844Y-93011253D01*
X83458351Y-93200659D01*
X83583290Y-93372625D01*
X83733613Y-93522948D01*
X83905582Y-93647889D01*
X83914346Y-93652355D01*
X83965142Y-93700330D01*
X83981936Y-93768151D01*
X83959398Y-93834286D01*
X83914346Y-93873323D01*
X83905582Y-93877788D01*
X83733613Y-94002729D01*
X83583290Y-94153052D01*
X83458351Y-94325018D01*
X83361844Y-94514424D01*
X83296153Y-94716599D01*
X83262900Y-94926552D01*
X83262900Y-95139125D01*
X83296153Y-95349078D01*
X83361844Y-95551253D01*
X83458351Y-95740659D01*
X83583290Y-95912625D01*
X83733613Y-96062948D01*
X83905582Y-96187889D01*
X83914346Y-96192355D01*
X83965142Y-96240330D01*
X83981936Y-96308151D01*
X83959398Y-96374286D01*
X83914346Y-96413323D01*
X83905582Y-96417788D01*
X83733613Y-96542729D01*
X83583290Y-96693052D01*
X83458351Y-96865018D01*
X83361844Y-97054424D01*
X83296153Y-97256599D01*
X83262900Y-97466552D01*
X83262900Y-97679125D01*
X83296153Y-97889078D01*
X83361844Y-98091253D01*
X83458351Y-98280659D01*
X83583290Y-98452625D01*
X83733613Y-98602948D01*
X83905579Y-98727887D01*
X83905581Y-98727888D01*
X83905584Y-98727890D01*
X84094988Y-98824396D01*
X84297157Y-98890085D01*
X84507113Y-98923339D01*
X84507114Y-98923339D01*
X84719686Y-98923339D01*
X84719687Y-98923339D01*
X84929643Y-98890085D01*
X85131812Y-98824396D01*
X85321216Y-98727890D01*
X85455508Y-98630322D01*
X85493186Y-98602948D01*
X85493188Y-98602945D01*
X85493192Y-98602943D01*
X85643504Y-98452631D01*
X85643506Y-98452627D01*
X85643509Y-98452625D01*
X85768448Y-98280659D01*
X85768447Y-98280659D01*
X85768451Y-98280655D01*
X85864957Y-98091251D01*
X85930646Y-97889082D01*
X85963900Y-97679126D01*
X85963900Y-97466552D01*
X85930646Y-97256596D01*
X85864957Y-97054427D01*
X85768451Y-96865023D01*
X85768449Y-96865020D01*
X85768448Y-96865018D01*
X85643509Y-96693052D01*
X85493186Y-96542729D01*
X85321220Y-96417790D01*
X85320515Y-96417430D01*
X85312454Y-96413324D01*
X85261659Y-96365351D01*
X85244863Y-96297531D01*
X85267399Y-96231395D01*
X85312454Y-96192354D01*
X85321216Y-96187890D01*
X85347747Y-96168614D01*
X85493186Y-96062948D01*
X85493188Y-96062945D01*
X85493192Y-96062943D01*
X85643504Y-95912631D01*
X85643506Y-95912627D01*
X85643509Y-95912625D01*
X85768448Y-95740659D01*
X85768447Y-95740659D01*
X85768451Y-95740655D01*
X85864957Y-95551251D01*
X85930646Y-95349082D01*
X85963900Y-95139126D01*
X85963900Y-94926552D01*
X85930646Y-94716596D01*
X85864957Y-94514427D01*
X85768451Y-94325023D01*
X85768449Y-94325020D01*
X85768448Y-94325018D01*
X85643509Y-94153052D01*
X85493186Y-94002729D01*
X85321220Y-93877790D01*
X85320515Y-93877430D01*
X85312454Y-93873324D01*
X85261659Y-93825351D01*
X85244863Y-93757531D01*
X85267399Y-93691395D01*
X85312454Y-93652354D01*
X85321216Y-93647890D01*
X85414695Y-93579974D01*
X85493186Y-93522948D01*
X85493188Y-93522945D01*
X85493192Y-93522943D01*
X85643504Y-93372631D01*
X85643506Y-93372627D01*
X85643509Y-93372625D01*
X85768448Y-93200659D01*
X85768447Y-93200659D01*
X85768451Y-93200655D01*
X85864957Y-93011251D01*
X85930646Y-92809082D01*
X85963900Y-92599126D01*
X85963900Y-92386552D01*
X85930646Y-92176596D01*
X85864957Y-91974427D01*
X85768451Y-91785023D01*
X85768449Y-91785020D01*
X85768448Y-91785018D01*
X85643509Y-91613052D01*
X85493186Y-91462729D01*
X85321220Y-91337790D01*
X85320458Y-91337402D01*
X85312454Y-91333324D01*
X85261659Y-91285351D01*
X85244863Y-91217531D01*
X85267399Y-91151395D01*
X85312454Y-91112354D01*
X85321216Y-91107890D01*
X85415579Y-91039332D01*
X85493186Y-90982948D01*
X85493188Y-90982945D01*
X85493192Y-90982943D01*
X85643504Y-90832631D01*
X85643506Y-90832627D01*
X85643509Y-90832625D01*
X85768448Y-90660659D01*
X85768447Y-90660659D01*
X85768451Y-90660655D01*
X85864957Y-90471251D01*
X85930646Y-90269082D01*
X85963900Y-90059126D01*
X85963900Y-90053358D01*
X85983585Y-89986319D01*
X86036389Y-89940564D01*
X86105547Y-89930620D01*
X86169103Y-89959645D01*
X86175581Y-89965677D01*
X88663181Y-92453277D01*
X88696666Y-92514600D01*
X88699500Y-92540958D01*
X88699500Y-96482345D01*
X88699500Y-96620333D01*
X88699500Y-96620335D01*
X88699499Y-96620335D01*
X88726418Y-96755661D01*
X88726421Y-96755671D01*
X88779222Y-96883146D01*
X88855887Y-96997884D01*
X88855888Y-96997885D01*
X101718395Y-109860391D01*
X101751880Y-109921714D01*
X101753187Y-109967469D01*
X101741000Y-110044416D01*
X101741000Y-110241261D01*
X101771790Y-110435665D01*
X101832617Y-110622868D01*
X101904331Y-110763614D01*
X101921976Y-110798244D01*
X102037672Y-110957485D01*
X102176854Y-111096667D01*
X102336095Y-111212363D01*
X102415114Y-111252625D01*
X102511470Y-111301721D01*
X102511472Y-111301721D01*
X102511475Y-111301723D01*
X102611817Y-111334326D01*
X102698673Y-111362548D01*
X102893078Y-111393339D01*
X102893083Y-111393339D01*
X103089922Y-111393339D01*
X103284326Y-111362548D01*
X103344648Y-111342948D01*
X103471525Y-111301723D01*
X103646905Y-111212363D01*
X103806146Y-111096667D01*
X103945328Y-110957485D01*
X103991124Y-110894452D01*
X104046453Y-110851788D01*
X104091441Y-110843339D01*
X105726157Y-110843339D01*
X105817201Y-110825228D01*
X105861489Y-110816419D01*
X105925230Y-110790016D01*
X105988968Y-110763616D01*
X105988969Y-110763615D01*
X105988972Y-110763614D01*
X106103704Y-110686953D01*
X110465999Y-106324658D01*
X110527322Y-106291173D01*
X110553680Y-106288339D01*
X111291884Y-106288339D01*
X111298614Y-106290315D01*
X111305524Y-106289091D01*
X111331705Y-106300032D01*
X111358923Y-106308024D01*
X111365071Y-106313975D01*
X111369991Y-106316031D01*
X111380092Y-106328514D01*
X111393960Y-106341937D01*
X111398635Y-106348716D01*
X111411657Y-106374272D01*
X111502436Y-106499219D01*
X111503307Y-106500481D01*
X111513773Y-106532259D01*
X111525029Y-106563804D01*
X111524670Y-106565343D01*
X111525165Y-106566844D01*
X111516789Y-106599238D01*
X111509204Y-106631858D01*
X111508070Y-106632959D01*
X111507675Y-106634489D01*
X111483111Y-106657215D01*
X111460255Y-106679428D01*
X111460454Y-106679792D01*
X111459146Y-106680506D01*
X111459098Y-106680553D01*
X111458885Y-106680648D01*
X111452664Y-106684045D01*
X111337455Y-106770291D01*
X111337452Y-106770294D01*
X111251206Y-106885503D01*
X111251202Y-106885510D01*
X111200908Y-107020356D01*
X111194501Y-107079955D01*
X111194501Y-107079962D01*
X111194500Y-107079974D01*
X111194500Y-109175709D01*
X111194501Y-109175715D01*
X111200908Y-109235322D01*
X111251202Y-109370167D01*
X111251206Y-109370174D01*
X111337452Y-109485383D01*
X111337455Y-109485386D01*
X111452664Y-109571632D01*
X111452671Y-109571636D01*
X111587517Y-109621930D01*
X111587516Y-109621930D01*
X111594444Y-109622674D01*
X111647127Y-109628339D01*
X113742872Y-109628338D01*
X113802483Y-109621930D01*
X113937331Y-109571635D01*
X114052546Y-109485385D01*
X114138796Y-109370170D01*
X114189091Y-109235322D01*
X114195500Y-109175712D01*
X114195499Y-107079967D01*
X114189091Y-107020356D01*
X114163988Y-106953052D01*
X114138797Y-106885510D01*
X114138793Y-106885503D01*
X114052547Y-106770294D01*
X114052544Y-106770291D01*
X113937335Y-106684045D01*
X113929546Y-106679792D01*
X113931331Y-106676522D01*
X113889448Y-106645123D01*
X113865078Y-106579642D01*
X113879978Y-106511379D01*
X113888441Y-106498010D01*
X113978343Y-106374272D01*
X114085568Y-106163831D01*
X114158553Y-105939207D01*
X114178819Y-105811253D01*
X114195500Y-105705936D01*
X114195500Y-105469741D01*
X114158553Y-105236470D01*
X114085566Y-105011842D01*
X114013513Y-104870431D01*
X113978343Y-104801406D01*
X113839517Y-104610329D01*
X113672510Y-104443322D01*
X113613282Y-104400290D01*
X113570617Y-104344961D01*
X113562550Y-104290243D01*
X113564104Y-104270496D01*
X112741446Y-103447839D01*
X112747661Y-103447839D01*
X112849394Y-103420580D01*
X112940606Y-103367919D01*
X113015080Y-103293445D01*
X113067741Y-103202233D01*
X113095000Y-103100500D01*
X113095000Y-103094286D01*
X113917658Y-103916944D01*
X113917658Y-103916943D01*
X113977914Y-103834008D01*
X113977918Y-103834002D01*
X114085102Y-103623641D01*
X114158065Y-103399086D01*
X114195000Y-103165891D01*
X114195000Y-102929786D01*
X114158065Y-102696591D01*
X114085102Y-102472036D01*
X113977914Y-102261667D01*
X113917658Y-102178733D01*
X113917658Y-102178732D01*
X113095000Y-103001391D01*
X113095000Y-102995178D01*
X113067741Y-102893445D01*
X113015080Y-102802233D01*
X112940606Y-102727759D01*
X112849394Y-102675098D01*
X112747661Y-102647839D01*
X112741446Y-102647839D01*
X113564105Y-101825179D01*
X113564104Y-101825177D01*
X113481174Y-101764926D01*
X113270802Y-101657736D01*
X113046249Y-101584773D01*
X113018069Y-101580310D01*
X112954935Y-101550379D01*
X112918005Y-101491067D01*
X112919003Y-101421205D01*
X112949786Y-101370159D01*
X117544971Y-96774974D01*
X130562900Y-96774974D01*
X130562900Y-98570709D01*
X130562901Y-98570715D01*
X130569308Y-98630322D01*
X130619602Y-98765167D01*
X130619606Y-98765174D01*
X130705852Y-98880383D01*
X130705855Y-98880386D01*
X130821064Y-98966632D01*
X130821071Y-98966636D01*
X130952482Y-99015649D01*
X131008416Y-99057520D01*
X131032833Y-99122984D01*
X131017982Y-99191257D01*
X130996831Y-99219512D01*
X130883289Y-99333054D01*
X130758351Y-99505018D01*
X130661844Y-99694424D01*
X130596153Y-99896599D01*
X130562900Y-100106552D01*
X130562900Y-100319125D01*
X130596153Y-100529078D01*
X130661844Y-100731253D01*
X130758351Y-100920659D01*
X130883290Y-101092625D01*
X131033613Y-101242948D01*
X131205582Y-101367889D01*
X131214346Y-101372355D01*
X131265142Y-101420330D01*
X131281936Y-101488151D01*
X131259398Y-101554286D01*
X131214346Y-101593323D01*
X131205582Y-101597788D01*
X131033613Y-101722729D01*
X130883290Y-101873052D01*
X130758351Y-102045018D01*
X130661844Y-102234424D01*
X130596153Y-102436599D01*
X130562900Y-102646552D01*
X130562900Y-102859125D01*
X130592789Y-103047840D01*
X130596154Y-103069082D01*
X130627609Y-103165891D01*
X130661844Y-103271253D01*
X130758351Y-103460659D01*
X130883290Y-103632625D01*
X131033613Y-103782948D01*
X131205582Y-103907889D01*
X131214346Y-103912355D01*
X131265142Y-103960330D01*
X131281936Y-104028151D01*
X131259398Y-104094286D01*
X131214346Y-104133323D01*
X131205582Y-104137788D01*
X131033613Y-104262729D01*
X130883290Y-104413052D01*
X130758351Y-104585018D01*
X130661844Y-104774424D01*
X130596153Y-104976599D01*
X130585521Y-105043727D01*
X130562900Y-105186552D01*
X130562900Y-105399126D01*
X130596154Y-105609082D01*
X130642348Y-105751253D01*
X130661844Y-105811253D01*
X130758351Y-106000659D01*
X130883290Y-106172625D01*
X131033613Y-106322948D01*
X131205582Y-106447889D01*
X131214346Y-106452355D01*
X131265142Y-106500330D01*
X131281936Y-106568151D01*
X131259398Y-106634286D01*
X131214346Y-106673323D01*
X131205582Y-106677788D01*
X131033613Y-106802729D01*
X130883290Y-106953052D01*
X130758351Y-107125018D01*
X130661844Y-107314424D01*
X130596153Y-107516599D01*
X130562900Y-107726552D01*
X130562900Y-107939125D01*
X130591675Y-108120807D01*
X130596154Y-108149082D01*
X130646316Y-108303465D01*
X130661844Y-108351253D01*
X130758351Y-108540659D01*
X130883290Y-108712625D01*
X131033613Y-108862948D01*
X131205582Y-108987889D01*
X131214346Y-108992355D01*
X131265142Y-109040330D01*
X131281936Y-109108151D01*
X131259398Y-109174286D01*
X131214346Y-109213323D01*
X131205582Y-109217788D01*
X131033613Y-109342729D01*
X130883290Y-109493052D01*
X130758351Y-109665018D01*
X130661844Y-109854424D01*
X130596153Y-110056599D01*
X130562900Y-110266552D01*
X130562900Y-110479125D01*
X130595816Y-110686953D01*
X130596154Y-110689082D01*
X130646275Y-110843339D01*
X130661844Y-110891253D01*
X130758351Y-111080659D01*
X130883290Y-111252625D01*
X131033613Y-111402948D01*
X131205582Y-111527889D01*
X131214346Y-111532355D01*
X131265142Y-111580330D01*
X131281936Y-111648151D01*
X131259398Y-111714286D01*
X131214346Y-111753323D01*
X131205582Y-111757788D01*
X131033613Y-111882729D01*
X130883290Y-112033052D01*
X130758351Y-112205018D01*
X130661844Y-112394424D01*
X130596153Y-112596599D01*
X130572403Y-112746552D01*
X130562900Y-112806552D01*
X130562900Y-113019126D01*
X130596154Y-113229082D01*
X130642348Y-113371253D01*
X130661844Y-113431253D01*
X130758351Y-113620659D01*
X130883290Y-113792625D01*
X131033613Y-113942948D01*
X131205582Y-114067889D01*
X131214346Y-114072355D01*
X131265142Y-114120330D01*
X131281936Y-114188151D01*
X131259398Y-114254286D01*
X131214346Y-114293323D01*
X131205582Y-114297788D01*
X131033613Y-114422729D01*
X130883290Y-114573052D01*
X130758351Y-114745018D01*
X130661844Y-114934424D01*
X130596153Y-115136599D01*
X130574338Y-115274333D01*
X130562900Y-115346552D01*
X130562900Y-115559126D01*
X130596154Y-115769082D01*
X130642348Y-115911253D01*
X130661844Y-115971253D01*
X130758351Y-116160659D01*
X130883290Y-116332625D01*
X131033613Y-116482948D01*
X131205579Y-116607887D01*
X131205581Y-116607888D01*
X131205584Y-116607890D01*
X131394988Y-116704396D01*
X131597157Y-116770085D01*
X131807113Y-116803339D01*
X131807114Y-116803339D01*
X132019686Y-116803339D01*
X132019687Y-116803339D01*
X132229643Y-116770085D01*
X132431812Y-116704396D01*
X132621216Y-116607890D01*
X132697657Y-116552353D01*
X132793186Y-116482948D01*
X132793188Y-116482945D01*
X132793192Y-116482943D01*
X132943504Y-116332631D01*
X132943506Y-116332627D01*
X132943509Y-116332625D01*
X133068448Y-116160659D01*
X133068447Y-116160659D01*
X133068451Y-116160655D01*
X133164957Y-115971251D01*
X133230646Y-115769082D01*
X133263900Y-115559126D01*
X133263900Y-115346552D01*
X133230646Y-115136596D01*
X133164957Y-114934427D01*
X133068451Y-114745023D01*
X133068449Y-114745020D01*
X133068448Y-114745018D01*
X132943509Y-114573052D01*
X132793186Y-114422729D01*
X132621220Y-114297790D01*
X132620515Y-114297430D01*
X132612454Y-114293324D01*
X132561659Y-114245351D01*
X132544863Y-114177531D01*
X132567399Y-114111395D01*
X132612454Y-114072354D01*
X132621216Y-114067890D01*
X132697657Y-114012353D01*
X132793186Y-113942948D01*
X132793188Y-113942945D01*
X132793192Y-113942943D01*
X132943504Y-113792631D01*
X132943506Y-113792627D01*
X132943509Y-113792625D01*
X133068448Y-113620659D01*
X133068447Y-113620659D01*
X133068451Y-113620655D01*
X133164957Y-113431251D01*
X133230646Y-113229082D01*
X133263900Y-113019126D01*
X133263900Y-112806552D01*
X133230646Y-112596596D01*
X133164957Y-112394427D01*
X133068451Y-112205023D01*
X133068449Y-112205020D01*
X133068448Y-112205018D01*
X132943509Y-112033052D01*
X132793186Y-111882729D01*
X132621220Y-111757790D01*
X132620515Y-111757430D01*
X132612454Y-111753324D01*
X132561659Y-111705351D01*
X132544863Y-111637531D01*
X132567399Y-111571395D01*
X132612454Y-111532354D01*
X132621216Y-111527890D01*
X132697657Y-111472353D01*
X132793186Y-111402948D01*
X132793188Y-111402945D01*
X132793192Y-111402943D01*
X132943504Y-111252631D01*
X132943506Y-111252627D01*
X132943509Y-111252625D01*
X133068448Y-111080659D01*
X133068447Y-111080659D01*
X133068451Y-111080655D01*
X133164957Y-110891251D01*
X133230646Y-110689082D01*
X133263900Y-110479126D01*
X133263900Y-110266552D01*
X133230646Y-110056596D01*
X133164957Y-109854427D01*
X133068451Y-109665023D01*
X133068449Y-109665020D01*
X133068448Y-109665018D01*
X132943509Y-109493052D01*
X132793186Y-109342729D01*
X132621220Y-109217790D01*
X132620515Y-109217430D01*
X132612454Y-109213324D01*
X132561659Y-109165351D01*
X132544863Y-109097531D01*
X132567399Y-109031395D01*
X132612454Y-108992354D01*
X132621216Y-108987890D01*
X132697657Y-108932353D01*
X132793186Y-108862948D01*
X132793188Y-108862945D01*
X132793192Y-108862943D01*
X132943504Y-108712631D01*
X132943506Y-108712627D01*
X132943509Y-108712625D01*
X133068448Y-108540659D01*
X133068447Y-108540659D01*
X133068451Y-108540655D01*
X133164957Y-108351251D01*
X133230646Y-108149082D01*
X133263900Y-107939126D01*
X133263900Y-107726552D01*
X133230646Y-107516596D01*
X133164957Y-107314427D01*
X133068451Y-107125023D01*
X133068449Y-107125020D01*
X133068448Y-107125018D01*
X132943509Y-106953052D01*
X132793186Y-106802729D01*
X132621220Y-106677790D01*
X132618731Y-106676522D01*
X132612454Y-106673324D01*
X132561659Y-106625351D01*
X132544863Y-106557531D01*
X132567399Y-106491395D01*
X132612454Y-106452354D01*
X132621216Y-106447890D01*
X132697657Y-106392353D01*
X132793186Y-106322948D01*
X132793188Y-106322945D01*
X132793192Y-106322943D01*
X132943504Y-106172631D01*
X132943506Y-106172627D01*
X132943509Y-106172625D01*
X133068448Y-106000659D01*
X133068447Y-106000659D01*
X133068451Y-106000655D01*
X133164957Y-105811251D01*
X133230646Y-105609082D01*
X133263900Y-105399126D01*
X133263900Y-105186552D01*
X133230646Y-104976596D01*
X133164957Y-104774427D01*
X133068451Y-104585023D01*
X133068449Y-104585020D01*
X133068448Y-104585018D01*
X132943509Y-104413052D01*
X132793186Y-104262729D01*
X132621220Y-104137790D01*
X132620515Y-104137430D01*
X132612454Y-104133324D01*
X132561659Y-104085351D01*
X132544863Y-104017531D01*
X132567399Y-103951395D01*
X132612454Y-103912354D01*
X132621216Y-103907890D01*
X132722915Y-103834002D01*
X132793186Y-103782948D01*
X132793188Y-103782945D01*
X132793192Y-103782943D01*
X132943504Y-103632631D01*
X132943506Y-103632627D01*
X132943509Y-103632625D01*
X133068448Y-103460659D01*
X133068447Y-103460659D01*
X133068451Y-103460655D01*
X133164957Y-103271251D01*
X133230646Y-103069082D01*
X133263900Y-102859126D01*
X133263900Y-102646552D01*
X133230646Y-102436596D01*
X133164957Y-102234427D01*
X133068451Y-102045023D01*
X133068449Y-102045020D01*
X133068448Y-102045018D01*
X132943509Y-101873052D01*
X132793186Y-101722729D01*
X132621220Y-101597790D01*
X132620515Y-101597430D01*
X132612454Y-101593324D01*
X132561659Y-101545351D01*
X132544863Y-101477531D01*
X132567399Y-101411395D01*
X132612454Y-101372354D01*
X132621216Y-101367890D01*
X132656384Y-101342339D01*
X132793186Y-101242948D01*
X132793188Y-101242945D01*
X132793192Y-101242943D01*
X132943504Y-101092631D01*
X132943506Y-101092627D01*
X132943509Y-101092625D01*
X133068448Y-100920659D01*
X133068447Y-100920659D01*
X133068451Y-100920655D01*
X133164957Y-100731251D01*
X133230646Y-100529082D01*
X133263900Y-100319126D01*
X133263900Y-100106552D01*
X133230646Y-99896596D01*
X133164957Y-99694427D01*
X133068451Y-99505023D01*
X133068449Y-99505020D01*
X133068448Y-99505018D01*
X132943509Y-99333052D01*
X132829969Y-99219512D01*
X132796484Y-99158189D01*
X132801468Y-99088497D01*
X132843340Y-99032564D01*
X132874315Y-99015649D01*
X133005731Y-98966635D01*
X133120946Y-98880385D01*
X133207196Y-98765170D01*
X133257491Y-98630322D01*
X133263900Y-98570712D01*
X133263899Y-96774967D01*
X133257491Y-96715356D01*
X133254270Y-96706721D01*
X133207197Y-96580510D01*
X133207193Y-96580503D01*
X133120947Y-96465294D01*
X133120944Y-96465291D01*
X133005735Y-96379045D01*
X133005728Y-96379041D01*
X132870882Y-96328747D01*
X132870883Y-96328747D01*
X132811283Y-96322340D01*
X132811281Y-96322339D01*
X132811273Y-96322339D01*
X132811264Y-96322339D01*
X131015529Y-96322339D01*
X131015523Y-96322340D01*
X130955916Y-96328747D01*
X130821071Y-96379041D01*
X130821064Y-96379045D01*
X130705855Y-96465291D01*
X130705852Y-96465294D01*
X130619606Y-96580503D01*
X130619602Y-96580510D01*
X130569308Y-96715356D01*
X130562901Y-96774955D01*
X130562901Y-96774962D01*
X130562900Y-96774974D01*
X117544971Y-96774974D01*
X129705276Y-84614670D01*
X129744079Y-84556596D01*
X129776464Y-84508129D01*
X129776465Y-84508127D01*
X129825501Y-84389744D01*
X129832526Y-84354427D01*
X129850500Y-84264069D01*
X129850500Y-73774974D01*
X130562900Y-73774974D01*
X130562900Y-75570709D01*
X130562901Y-75570715D01*
X130569308Y-75630322D01*
X130619602Y-75765167D01*
X130619606Y-75765174D01*
X130705852Y-75880383D01*
X130705855Y-75880386D01*
X130821064Y-75966632D01*
X130821071Y-75966636D01*
X130952482Y-76015649D01*
X131008416Y-76057520D01*
X131032833Y-76122984D01*
X131017982Y-76191257D01*
X130996831Y-76219512D01*
X130883289Y-76333054D01*
X130758351Y-76505018D01*
X130661844Y-76694424D01*
X130596153Y-76896599D01*
X130584569Y-76969741D01*
X130562900Y-77106552D01*
X130562900Y-77319126D01*
X130596154Y-77529082D01*
X130604175Y-77553769D01*
X130661844Y-77731253D01*
X130758351Y-77920659D01*
X130883290Y-78092625D01*
X131033613Y-78242948D01*
X131205582Y-78367889D01*
X131214346Y-78372355D01*
X131265142Y-78420330D01*
X131281936Y-78488151D01*
X131259398Y-78554286D01*
X131214346Y-78593323D01*
X131205582Y-78597788D01*
X131033613Y-78722729D01*
X130883290Y-78873052D01*
X130758351Y-79045018D01*
X130661844Y-79234424D01*
X130596153Y-79436599D01*
X130562900Y-79646552D01*
X130562900Y-79859125D01*
X130587742Y-80015975D01*
X130596154Y-80069082D01*
X130655100Y-80250499D01*
X130661844Y-80271253D01*
X130758351Y-80460659D01*
X130883290Y-80632625D01*
X131033613Y-80782948D01*
X131205582Y-80907889D01*
X131214346Y-80912355D01*
X131265142Y-80960330D01*
X131281936Y-81028151D01*
X131259398Y-81094286D01*
X131214346Y-81133323D01*
X131205582Y-81137788D01*
X131033613Y-81262729D01*
X130883290Y-81413052D01*
X130758351Y-81585018D01*
X130661844Y-81774424D01*
X130596153Y-81976599D01*
X130562900Y-82186552D01*
X130562900Y-82399125D01*
X130594187Y-82596667D01*
X130596154Y-82609082D01*
X130629712Y-82712363D01*
X130661844Y-82811253D01*
X130758351Y-83000659D01*
X130883290Y-83172625D01*
X131033613Y-83322948D01*
X131205582Y-83447889D01*
X131214346Y-83452355D01*
X131265142Y-83500330D01*
X131281936Y-83568151D01*
X131259398Y-83634286D01*
X131214346Y-83673323D01*
X131205582Y-83677788D01*
X131033613Y-83802729D01*
X130883290Y-83953052D01*
X130758351Y-84125018D01*
X130661844Y-84314424D01*
X130596153Y-84516599D01*
X130562900Y-84726552D01*
X130562900Y-84939125D01*
X130596153Y-85149078D01*
X130661844Y-85351253D01*
X130758351Y-85540659D01*
X130883290Y-85712625D01*
X131033613Y-85862948D01*
X131205582Y-85987889D01*
X131214346Y-85992355D01*
X131265142Y-86040330D01*
X131281936Y-86108151D01*
X131259398Y-86174286D01*
X131214346Y-86213323D01*
X131205582Y-86217788D01*
X131033613Y-86342729D01*
X130883290Y-86493052D01*
X130758351Y-86665018D01*
X130661844Y-86854424D01*
X130596153Y-87056599D01*
X130589818Y-87096599D01*
X130562900Y-87266552D01*
X130562900Y-87479126D01*
X130596154Y-87689082D01*
X130603771Y-87712526D01*
X130661844Y-87891253D01*
X130758351Y-88080659D01*
X130883290Y-88252625D01*
X131033613Y-88402948D01*
X131205582Y-88527889D01*
X131214346Y-88532355D01*
X131265142Y-88580330D01*
X131281936Y-88648151D01*
X131259398Y-88714286D01*
X131214346Y-88753323D01*
X131205582Y-88757788D01*
X131033613Y-88882729D01*
X130883290Y-89033052D01*
X130758351Y-89205018D01*
X130661844Y-89394424D01*
X130596153Y-89596599D01*
X130573983Y-89736577D01*
X130562900Y-89806552D01*
X130562900Y-90019126D01*
X130596154Y-90229082D01*
X130657194Y-90416944D01*
X130661844Y-90431253D01*
X130758351Y-90620659D01*
X130883290Y-90792625D01*
X131033613Y-90942948D01*
X131205582Y-91067889D01*
X131214346Y-91072355D01*
X131265142Y-91120330D01*
X131281936Y-91188151D01*
X131259398Y-91254286D01*
X131214346Y-91293323D01*
X131205582Y-91297788D01*
X131033613Y-91422729D01*
X130883290Y-91573052D01*
X130758351Y-91745018D01*
X130661844Y-91934424D01*
X130596153Y-92136599D01*
X130562900Y-92346552D01*
X130562900Y-92559125D01*
X130595656Y-92765941D01*
X130596154Y-92769082D01*
X130650041Y-92934929D01*
X130661844Y-92971253D01*
X130758351Y-93160659D01*
X130883290Y-93332625D01*
X131033613Y-93482948D01*
X131205579Y-93607887D01*
X131205581Y-93607888D01*
X131205584Y-93607890D01*
X131394988Y-93704396D01*
X131597157Y-93770085D01*
X131807113Y-93803339D01*
X131807114Y-93803339D01*
X132019686Y-93803339D01*
X132019687Y-93803339D01*
X132229643Y-93770085D01*
X132431812Y-93704396D01*
X132621216Y-93607890D01*
X132659656Y-93579962D01*
X132793186Y-93482948D01*
X132793188Y-93482945D01*
X132793192Y-93482943D01*
X132943504Y-93332631D01*
X132943506Y-93332627D01*
X132943509Y-93332625D01*
X133068448Y-93160659D01*
X133068447Y-93160659D01*
X133068451Y-93160655D01*
X133164957Y-92971251D01*
X133230646Y-92769082D01*
X133263900Y-92559126D01*
X133263900Y-92346552D01*
X133230646Y-92136596D01*
X133164957Y-91934427D01*
X133068451Y-91745023D01*
X133068449Y-91745020D01*
X133068448Y-91745018D01*
X132943509Y-91573052D01*
X132793186Y-91422729D01*
X132621220Y-91297790D01*
X132620515Y-91297430D01*
X132612454Y-91293324D01*
X132561659Y-91245351D01*
X132544863Y-91177531D01*
X132567399Y-91111395D01*
X132612454Y-91072354D01*
X132621216Y-91067890D01*
X132660523Y-91039332D01*
X132793186Y-90942948D01*
X132793188Y-90942945D01*
X132793192Y-90942943D01*
X132943504Y-90792631D01*
X132943506Y-90792627D01*
X132943509Y-90792625D01*
X133068448Y-90620659D01*
X133068447Y-90620659D01*
X133068451Y-90620655D01*
X133164957Y-90431251D01*
X133230646Y-90229082D01*
X133263900Y-90019126D01*
X133263900Y-89806552D01*
X133230646Y-89596596D01*
X133164957Y-89394427D01*
X133068451Y-89205023D01*
X133068449Y-89205020D01*
X133068448Y-89205018D01*
X132943509Y-89033052D01*
X132793186Y-88882729D01*
X132621220Y-88757790D01*
X132620515Y-88757430D01*
X132612454Y-88753324D01*
X132561659Y-88705351D01*
X132544863Y-88637531D01*
X132567399Y-88571395D01*
X132612454Y-88532354D01*
X132621216Y-88527890D01*
X132643189Y-88511925D01*
X132793186Y-88402948D01*
X132793188Y-88402945D01*
X132793192Y-88402943D01*
X132943504Y-88252631D01*
X132943506Y-88252627D01*
X132943509Y-88252625D01*
X133068448Y-88080659D01*
X133068447Y-88080659D01*
X133068451Y-88080655D01*
X133164957Y-87891251D01*
X133230646Y-87689082D01*
X133263900Y-87479126D01*
X133263900Y-87266552D01*
X133230646Y-87056596D01*
X133164957Y-86854427D01*
X133068451Y-86665023D01*
X133068449Y-86665020D01*
X133068448Y-86665018D01*
X132943509Y-86493052D01*
X132793186Y-86342729D01*
X132621220Y-86217790D01*
X132620515Y-86217430D01*
X132612454Y-86213324D01*
X132561659Y-86165351D01*
X132544863Y-86097531D01*
X132567399Y-86031395D01*
X132612454Y-85992354D01*
X132621216Y-85987890D01*
X132643189Y-85971925D01*
X132793186Y-85862948D01*
X132793188Y-85862945D01*
X132793192Y-85862943D01*
X132943504Y-85712631D01*
X132943506Y-85712627D01*
X132943509Y-85712625D01*
X133068448Y-85540659D01*
X133068447Y-85540659D01*
X133068451Y-85540655D01*
X133164957Y-85351251D01*
X133230646Y-85149082D01*
X133263900Y-84939126D01*
X133263900Y-84726552D01*
X133230646Y-84516596D01*
X133164957Y-84314427D01*
X133068451Y-84125023D01*
X133068449Y-84125020D01*
X133068448Y-84125018D01*
X132943509Y-83953052D01*
X132793186Y-83802729D01*
X132621220Y-83677790D01*
X132620515Y-83677430D01*
X132612454Y-83673324D01*
X132561659Y-83625351D01*
X132544863Y-83557531D01*
X132567399Y-83491395D01*
X132612454Y-83452354D01*
X132621216Y-83447890D01*
X132643189Y-83431925D01*
X132793186Y-83322948D01*
X132793188Y-83322945D01*
X132793192Y-83322943D01*
X132943504Y-83172631D01*
X132943506Y-83172627D01*
X132943509Y-83172625D01*
X133052486Y-83022628D01*
X133068451Y-83000655D01*
X133164957Y-82811251D01*
X133230646Y-82609082D01*
X133263900Y-82399126D01*
X133263900Y-82186552D01*
X133230646Y-81976596D01*
X133164957Y-81774427D01*
X133068451Y-81585023D01*
X133068449Y-81585020D01*
X133068448Y-81585018D01*
X132943509Y-81413052D01*
X132793186Y-81262729D01*
X132621220Y-81137790D01*
X132617018Y-81135649D01*
X132612454Y-81133324D01*
X132561659Y-81085351D01*
X132544863Y-81017531D01*
X132567399Y-80951395D01*
X132612454Y-80912354D01*
X132621216Y-80907890D01*
X132673128Y-80870174D01*
X132793186Y-80782948D01*
X132793188Y-80782945D01*
X132793192Y-80782943D01*
X132943504Y-80632631D01*
X132943506Y-80632627D01*
X132943509Y-80632625D01*
X133052486Y-80482628D01*
X133068451Y-80460655D01*
X133164957Y-80271251D01*
X133230646Y-80069082D01*
X133263900Y-79859126D01*
X133263900Y-79646552D01*
X133230646Y-79436596D01*
X133164957Y-79234427D01*
X133068451Y-79045023D01*
X133068449Y-79045020D01*
X133068448Y-79045018D01*
X132943509Y-78873052D01*
X132793186Y-78722729D01*
X132621220Y-78597790D01*
X132620515Y-78597430D01*
X132612454Y-78593324D01*
X132561659Y-78545351D01*
X132544863Y-78477531D01*
X132567399Y-78411395D01*
X132612454Y-78372354D01*
X132621216Y-78367890D01*
X132696071Y-78313505D01*
X132793186Y-78242948D01*
X132793188Y-78242945D01*
X132793192Y-78242943D01*
X132943504Y-78092631D01*
X132943506Y-78092627D01*
X132943509Y-78092625D01*
X133068448Y-77920659D01*
X133068447Y-77920659D01*
X133068451Y-77920655D01*
X133164957Y-77731251D01*
X133230646Y-77529082D01*
X133263900Y-77319126D01*
X133263900Y-77106552D01*
X133230646Y-76896596D01*
X133164957Y-76694427D01*
X133068451Y-76505023D01*
X133068449Y-76505020D01*
X133068448Y-76505018D01*
X132943509Y-76333052D01*
X132829969Y-76219512D01*
X132796484Y-76158189D01*
X132801468Y-76088497D01*
X132843340Y-76032564D01*
X132874315Y-76015649D01*
X133005731Y-75966635D01*
X133120946Y-75880385D01*
X133207196Y-75765170D01*
X133257491Y-75630322D01*
X133263900Y-75570712D01*
X133263899Y-73774967D01*
X133257491Y-73715356D01*
X133249172Y-73693052D01*
X133207197Y-73580510D01*
X133207193Y-73580503D01*
X133120947Y-73465294D01*
X133120944Y-73465291D01*
X133005735Y-73379045D01*
X133005728Y-73379041D01*
X132870882Y-73328747D01*
X132870883Y-73328747D01*
X132811283Y-73322340D01*
X132811281Y-73322339D01*
X132811273Y-73322339D01*
X132811264Y-73322339D01*
X131015529Y-73322339D01*
X131015523Y-73322340D01*
X130955916Y-73328747D01*
X130821071Y-73379041D01*
X130821064Y-73379045D01*
X130705855Y-73465291D01*
X130705852Y-73465294D01*
X130619606Y-73580503D01*
X130619602Y-73580510D01*
X130569308Y-73715356D01*
X130562901Y-73774955D01*
X130562901Y-73774962D01*
X130562900Y-73774974D01*
X129850500Y-73774974D01*
X129850500Y-46784974D01*
X130562900Y-46784974D01*
X130562900Y-48580709D01*
X130562901Y-48580715D01*
X130569308Y-48640322D01*
X130619602Y-48775167D01*
X130619606Y-48775174D01*
X130705852Y-48890383D01*
X130705855Y-48890386D01*
X130821064Y-48976632D01*
X130821071Y-48976636D01*
X130952482Y-49025649D01*
X131008416Y-49067520D01*
X131032833Y-49132984D01*
X131017982Y-49201257D01*
X130996831Y-49229512D01*
X130883289Y-49343054D01*
X130758351Y-49515018D01*
X130661844Y-49704424D01*
X130596153Y-49906599D01*
X130562900Y-50116552D01*
X130562900Y-50329125D01*
X130582613Y-50453592D01*
X130596154Y-50539082D01*
X130655942Y-50723091D01*
X130661844Y-50741253D01*
X130758351Y-50930659D01*
X130883290Y-51102625D01*
X131033613Y-51252948D01*
X131205582Y-51377889D01*
X131214346Y-51382355D01*
X131265142Y-51430330D01*
X131281936Y-51498151D01*
X131259398Y-51564286D01*
X131214346Y-51603323D01*
X131205582Y-51607788D01*
X131033613Y-51732729D01*
X130883290Y-51883052D01*
X130758351Y-52055018D01*
X130661844Y-52244424D01*
X130596153Y-52446599D01*
X130562900Y-52656552D01*
X130562900Y-52869125D01*
X130596153Y-53079078D01*
X130661844Y-53281253D01*
X130758351Y-53470659D01*
X130883290Y-53642625D01*
X131033613Y-53792948D01*
X131205579Y-53917887D01*
X131205581Y-53917888D01*
X131205584Y-53917890D01*
X131214893Y-53922633D01*
X131265690Y-53970605D01*
X131282487Y-54038426D01*
X131259952Y-54104561D01*
X131214905Y-54143599D01*
X131205846Y-54148215D01*
X131205840Y-54148219D01*
X131151682Y-54187566D01*
X131151682Y-54187567D01*
X131783991Y-54819876D01*
X131720407Y-54836914D01*
X131606393Y-54902740D01*
X131513301Y-54995832D01*
X131447475Y-55109846D01*
X131430437Y-55173430D01*
X130798128Y-54541121D01*
X130798127Y-54541121D01*
X130758780Y-54595278D01*
X130662304Y-54784621D01*
X130596642Y-54986708D01*
X130596642Y-54986711D01*
X130563400Y-55196592D01*
X130563400Y-55409085D01*
X130596642Y-55618966D01*
X130596642Y-55618969D01*
X130662304Y-55821056D01*
X130758775Y-56010389D01*
X130798128Y-56064555D01*
X131430437Y-55432247D01*
X131447475Y-55495832D01*
X131513301Y-55609846D01*
X131606393Y-55702938D01*
X131720407Y-55768764D01*
X131783990Y-55785801D01*
X131151682Y-56418108D01*
X131151682Y-56418109D01*
X131205852Y-56457465D01*
X131205851Y-56457465D01*
X131214895Y-56462073D01*
X131265692Y-56510047D01*
X131282487Y-56577868D01*
X131259950Y-56644003D01*
X131214899Y-56683041D01*
X131205582Y-56687788D01*
X131033613Y-56812729D01*
X130883290Y-56963052D01*
X130758351Y-57135018D01*
X130661844Y-57324424D01*
X130596153Y-57526599D01*
X130562900Y-57736552D01*
X130562900Y-57949125D01*
X130595940Y-58157736D01*
X130596154Y-58159082D01*
X130650122Y-58325179D01*
X130661844Y-58361253D01*
X130758351Y-58550659D01*
X130883290Y-58722625D01*
X131033613Y-58872948D01*
X131205582Y-58997889D01*
X131214346Y-59002355D01*
X131265142Y-59050330D01*
X131281936Y-59118151D01*
X131259398Y-59184286D01*
X131214346Y-59223323D01*
X131205582Y-59227788D01*
X131033613Y-59352729D01*
X130883290Y-59503052D01*
X130758351Y-59675018D01*
X130661844Y-59864424D01*
X130596153Y-60066599D01*
X130587119Y-60123641D01*
X130562900Y-60276552D01*
X130562900Y-60489126D01*
X130569595Y-60531395D01*
X130592226Y-60674286D01*
X130596154Y-60699082D01*
X130643553Y-60844961D01*
X130661844Y-60901253D01*
X130758351Y-61090659D01*
X130883290Y-61262625D01*
X131033613Y-61412948D01*
X131205582Y-61537889D01*
X131214346Y-61542355D01*
X131265142Y-61590330D01*
X131281936Y-61658151D01*
X131259398Y-61724286D01*
X131214346Y-61763323D01*
X131205582Y-61767788D01*
X131033613Y-61892729D01*
X130883290Y-62043052D01*
X130758351Y-62215018D01*
X130661844Y-62404424D01*
X130596153Y-62606599D01*
X130587088Y-62663835D01*
X130562900Y-62816552D01*
X130562900Y-63029126D01*
X130568637Y-63065349D01*
X130594472Y-63228466D01*
X130596154Y-63239082D01*
X130643729Y-63385503D01*
X130661844Y-63441253D01*
X130758351Y-63630659D01*
X130883290Y-63802625D01*
X131033613Y-63952948D01*
X131205582Y-64077889D01*
X131214346Y-64082355D01*
X131265142Y-64130330D01*
X131281936Y-64198151D01*
X131259398Y-64264286D01*
X131214346Y-64303323D01*
X131205582Y-64307788D01*
X131033613Y-64432729D01*
X130883290Y-64583052D01*
X130758351Y-64755018D01*
X130661844Y-64944424D01*
X130596153Y-65146599D01*
X130590409Y-65182868D01*
X130562900Y-65356552D01*
X130562900Y-65569126D01*
X130566842Y-65594013D01*
X130592226Y-65754286D01*
X130596154Y-65779082D01*
X130632984Y-65892434D01*
X130661844Y-65981253D01*
X130758351Y-66170659D01*
X130883290Y-66342625D01*
X131033613Y-66492948D01*
X131205582Y-66617889D01*
X131214346Y-66622355D01*
X131265142Y-66670330D01*
X131281936Y-66738151D01*
X131259398Y-66804286D01*
X131214346Y-66843323D01*
X131205582Y-66847788D01*
X131033613Y-66972729D01*
X130883290Y-67123052D01*
X130758351Y-67295018D01*
X130661844Y-67484424D01*
X130596153Y-67686599D01*
X130562900Y-67896552D01*
X130562900Y-68109125D01*
X130593660Y-68303339D01*
X130596154Y-68319082D01*
X130602369Y-68338211D01*
X130661844Y-68521253D01*
X130758351Y-68710659D01*
X130883290Y-68882625D01*
X131033613Y-69032948D01*
X131205582Y-69157889D01*
X131214346Y-69162355D01*
X131265142Y-69210330D01*
X131281936Y-69278151D01*
X131259398Y-69344286D01*
X131214346Y-69383323D01*
X131205582Y-69387788D01*
X131033613Y-69512729D01*
X130883290Y-69663052D01*
X130758351Y-69835018D01*
X130661844Y-70024424D01*
X130596153Y-70226599D01*
X130562900Y-70436552D01*
X130562900Y-70649125D01*
X130592226Y-70834286D01*
X130596154Y-70859082D01*
X130602370Y-70878214D01*
X130661844Y-71061253D01*
X130758351Y-71250659D01*
X130883290Y-71422625D01*
X131033613Y-71572948D01*
X131205579Y-71697887D01*
X131205581Y-71697888D01*
X131205584Y-71697890D01*
X131394988Y-71794396D01*
X131597157Y-71860085D01*
X131807113Y-71893339D01*
X131807114Y-71893339D01*
X132019686Y-71893339D01*
X132019687Y-71893339D01*
X132229643Y-71860085D01*
X132431812Y-71794396D01*
X132621216Y-71697890D01*
X132710888Y-71632740D01*
X132793186Y-71572948D01*
X132793188Y-71572945D01*
X132793192Y-71572943D01*
X132943504Y-71422631D01*
X132943506Y-71422627D01*
X132943509Y-71422625D01*
X133068448Y-71250659D01*
X133068447Y-71250659D01*
X133068451Y-71250655D01*
X133164957Y-71061251D01*
X133230646Y-70859082D01*
X133263900Y-70649126D01*
X133263900Y-70436552D01*
X133230646Y-70226596D01*
X133164957Y-70024427D01*
X133068451Y-69835023D01*
X133068449Y-69835020D01*
X133068448Y-69835018D01*
X132943509Y-69663052D01*
X132793186Y-69512729D01*
X132621220Y-69387790D01*
X132618869Y-69386592D01*
X132612454Y-69383324D01*
X132561659Y-69335351D01*
X132544863Y-69267531D01*
X132567399Y-69201395D01*
X132612454Y-69162354D01*
X132621216Y-69157890D01*
X132710888Y-69092740D01*
X132793186Y-69032948D01*
X132793188Y-69032945D01*
X132793192Y-69032943D01*
X132943504Y-68882631D01*
X132943506Y-68882627D01*
X132943509Y-68882625D01*
X133068448Y-68710659D01*
X133068447Y-68710659D01*
X133068451Y-68710655D01*
X133164957Y-68521251D01*
X133230646Y-68319082D01*
X133263900Y-68109126D01*
X133263900Y-67896552D01*
X133230646Y-67686596D01*
X133164957Y-67484427D01*
X133068451Y-67295023D01*
X133068449Y-67295020D01*
X133068448Y-67295018D01*
X132943509Y-67123052D01*
X132793186Y-66972729D01*
X132621220Y-66847790D01*
X132618790Y-66846552D01*
X132612454Y-66843324D01*
X132561659Y-66795351D01*
X132544863Y-66727531D01*
X132567399Y-66661395D01*
X132612454Y-66622354D01*
X132621216Y-66617890D01*
X132643189Y-66601925D01*
X132793186Y-66492948D01*
X132793188Y-66492945D01*
X132793192Y-66492943D01*
X132943504Y-66342631D01*
X132943506Y-66342627D01*
X132943509Y-66342625D01*
X133068448Y-66170659D01*
X133068447Y-66170659D01*
X133068451Y-66170655D01*
X133164957Y-65981251D01*
X133230646Y-65779082D01*
X133263900Y-65569126D01*
X133263900Y-65356552D01*
X133230646Y-65146596D01*
X133164957Y-64944427D01*
X133068451Y-64755023D01*
X133068449Y-64755020D01*
X133068448Y-64755018D01*
X132943509Y-64583052D01*
X132793186Y-64432729D01*
X132621220Y-64307790D01*
X132618790Y-64306552D01*
X132612454Y-64303324D01*
X132561659Y-64255351D01*
X132544863Y-64187531D01*
X132567399Y-64121395D01*
X132612454Y-64082354D01*
X132621216Y-64077890D01*
X132750414Y-63984023D01*
X132793186Y-63952948D01*
X132793188Y-63952945D01*
X132793192Y-63952943D01*
X132943504Y-63802631D01*
X132943506Y-63802627D01*
X132943509Y-63802625D01*
X133068448Y-63630659D01*
X133068447Y-63630659D01*
X133068451Y-63630655D01*
X133164957Y-63441251D01*
X133230646Y-63239082D01*
X133263900Y-63029126D01*
X133263900Y-62816552D01*
X133230646Y-62606596D01*
X133164957Y-62404427D01*
X133068451Y-62215023D01*
X133068449Y-62215020D01*
X133068448Y-62215018D01*
X132943509Y-62043052D01*
X132793186Y-61892729D01*
X132621220Y-61767790D01*
X132618790Y-61766552D01*
X132612454Y-61763324D01*
X132561659Y-61715351D01*
X132544863Y-61647531D01*
X132567399Y-61581395D01*
X132612454Y-61542354D01*
X132621216Y-61537890D01*
X132657068Y-61511842D01*
X132793186Y-61412948D01*
X132793188Y-61412945D01*
X132793192Y-61412943D01*
X132943504Y-61262631D01*
X132943506Y-61262627D01*
X132943509Y-61262625D01*
X133068448Y-61090659D01*
X133068447Y-61090659D01*
X133068451Y-61090655D01*
X133164957Y-60901251D01*
X133230646Y-60699082D01*
X133263900Y-60489126D01*
X133263900Y-60276552D01*
X133230646Y-60066596D01*
X133164957Y-59864427D01*
X133068451Y-59675023D01*
X133068449Y-59675020D01*
X133068448Y-59675018D01*
X132943509Y-59503052D01*
X132793186Y-59352729D01*
X132621220Y-59227790D01*
X132618790Y-59226552D01*
X132612454Y-59223324D01*
X132561659Y-59175351D01*
X132544863Y-59107531D01*
X132567399Y-59041395D01*
X132612454Y-59002354D01*
X132621216Y-58997890D01*
X132656801Y-58972036D01*
X132793186Y-58872948D01*
X132793188Y-58872945D01*
X132793192Y-58872943D01*
X132943504Y-58722631D01*
X132943506Y-58722627D01*
X132943509Y-58722625D01*
X133068448Y-58550659D01*
X133068447Y-58550659D01*
X133068451Y-58550655D01*
X133164957Y-58361251D01*
X133230646Y-58159082D01*
X133263900Y-57949126D01*
X133263900Y-57736552D01*
X133230646Y-57526596D01*
X133164957Y-57324427D01*
X133068451Y-57135023D01*
X133068449Y-57135020D01*
X133068448Y-57135018D01*
X132943509Y-56963052D01*
X132793186Y-56812729D01*
X132621217Y-56687788D01*
X132611904Y-56683043D01*
X132561107Y-56635069D01*
X132544312Y-56567248D01*
X132566849Y-56501113D01*
X132611907Y-56462071D01*
X132620955Y-56457461D01*
X132675116Y-56418109D01*
X132675117Y-56418109D01*
X132042808Y-55785801D01*
X132106393Y-55768764D01*
X132220407Y-55702938D01*
X132313499Y-55609846D01*
X132379325Y-55495832D01*
X132396362Y-55432247D01*
X133028670Y-56064556D01*
X133028670Y-56064555D01*
X133068022Y-56010393D01*
X133164495Y-55821056D01*
X133230157Y-55618969D01*
X133230157Y-55618966D01*
X133263400Y-55409085D01*
X133263400Y-55196592D01*
X133230157Y-54986711D01*
X133230157Y-54986708D01*
X133164495Y-54784621D01*
X133068024Y-54595288D01*
X133028670Y-54541121D01*
X133028669Y-54541121D01*
X132396362Y-55173429D01*
X132379325Y-55109846D01*
X132313499Y-54995832D01*
X132220407Y-54902740D01*
X132106393Y-54836914D01*
X132042809Y-54819876D01*
X132675116Y-54187567D01*
X132620947Y-54148212D01*
X132620947Y-54148211D01*
X132611900Y-54143602D01*
X132561106Y-54095627D01*
X132544312Y-54027805D01*
X132566851Y-53961671D01*
X132611908Y-53922632D01*
X132621216Y-53917890D01*
X132700407Y-53860354D01*
X132793186Y-53792948D01*
X132793188Y-53792945D01*
X132793192Y-53792943D01*
X132943504Y-53642631D01*
X132943506Y-53642627D01*
X132943509Y-53642625D01*
X133068448Y-53470659D01*
X133068447Y-53470659D01*
X133068451Y-53470655D01*
X133164957Y-53281251D01*
X133230646Y-53079082D01*
X133263900Y-52869126D01*
X133263900Y-52656552D01*
X133230646Y-52446596D01*
X133164957Y-52244427D01*
X133068451Y-52055023D01*
X133068449Y-52055020D01*
X133068448Y-52055018D01*
X132943509Y-51883052D01*
X132793186Y-51732729D01*
X132621220Y-51607790D01*
X132620515Y-51607430D01*
X132612454Y-51603324D01*
X132561659Y-51555351D01*
X132544863Y-51487531D01*
X132567399Y-51421395D01*
X132612454Y-51382354D01*
X132621216Y-51377890D01*
X132643189Y-51361925D01*
X132793186Y-51252948D01*
X132793188Y-51252945D01*
X132793192Y-51252943D01*
X132943504Y-51102631D01*
X132943506Y-51102627D01*
X132943509Y-51102625D01*
X133068448Y-50930659D01*
X133068447Y-50930659D01*
X133068451Y-50930655D01*
X133164957Y-50741251D01*
X133230646Y-50539082D01*
X133263900Y-50329126D01*
X133263900Y-50116552D01*
X133230646Y-49906596D01*
X133164957Y-49704427D01*
X133068451Y-49515023D01*
X133068449Y-49515020D01*
X133068448Y-49515018D01*
X132943509Y-49343052D01*
X132829969Y-49229512D01*
X132796484Y-49168189D01*
X132801468Y-49098497D01*
X132843340Y-49042564D01*
X132874315Y-49025649D01*
X133005731Y-48976635D01*
X133120946Y-48890385D01*
X133207196Y-48775170D01*
X133257491Y-48640322D01*
X133263900Y-48580712D01*
X133263899Y-46784967D01*
X133257491Y-46725356D01*
X133207196Y-46590508D01*
X133207195Y-46590507D01*
X133207193Y-46590503D01*
X133120947Y-46475294D01*
X133120944Y-46475291D01*
X133005735Y-46389045D01*
X133005728Y-46389041D01*
X132870882Y-46338747D01*
X132870883Y-46338747D01*
X132811283Y-46332340D01*
X132811281Y-46332339D01*
X132811273Y-46332339D01*
X132811264Y-46332339D01*
X131015529Y-46332339D01*
X131015523Y-46332340D01*
X130955916Y-46338747D01*
X130821071Y-46389041D01*
X130821064Y-46389045D01*
X130705855Y-46475291D01*
X130705852Y-46475294D01*
X130619606Y-46590503D01*
X130619602Y-46590510D01*
X130569308Y-46725356D01*
X130562901Y-46784955D01*
X130562901Y-46784962D01*
X130562900Y-46784974D01*
X129850500Y-46784974D01*
X129850500Y-45735931D01*
X129850500Y-45735928D01*
X129825502Y-45610261D01*
X129825501Y-45610260D01*
X129825501Y-45610256D01*
X129776465Y-45491873D01*
X129761177Y-45468993D01*
X129705277Y-45385331D01*
X129705275Y-45385329D01*
X129705273Y-45385326D01*
X129705272Y-45385325D01*
X129079966Y-44760020D01*
X129046481Y-44698697D01*
X129051465Y-44629006D01*
X129093336Y-44573072D01*
X129158801Y-44548655D01*
X129167647Y-44548339D01*
X131720608Y-44548339D01*
X131782749Y-44548339D01*
X131790236Y-44548565D01*
X132056186Y-44564652D01*
X132071049Y-44566457D01*
X132079600Y-44568024D01*
X132329430Y-44613807D01*
X132343959Y-44617388D01*
X132594753Y-44695539D01*
X132608740Y-44700844D01*
X132848289Y-44808657D01*
X132861535Y-44815609D01*
X133053742Y-44931804D01*
X133086333Y-44951507D01*
X133098656Y-44960013D01*
X133305429Y-45122011D01*
X133316637Y-45131940D01*
X133502384Y-45317689D01*
X133512313Y-45328898D01*
X133674303Y-45535667D01*
X133682809Y-45547990D01*
X133818700Y-45772786D01*
X133825659Y-45786045D01*
X133933462Y-46025580D01*
X133938772Y-46039581D01*
X134016918Y-46290370D01*
X134020501Y-46304909D01*
X134067846Y-46563280D01*
X134069651Y-46578144D01*
X134085773Y-46844720D01*
X134085999Y-46851856D01*
X134085999Y-46913724D01*
X134086175Y-46914383D01*
X134086200Y-46923023D01*
X134086199Y-46923026D01*
X134086200Y-46923040D01*
X134285987Y-121243946D01*
X134285761Y-121251768D01*
X134269682Y-121517516D01*
X134267877Y-121532380D01*
X134220525Y-121790757D01*
X134216941Y-121805296D01*
X134138791Y-122056078D01*
X134133481Y-122070078D01*
X134025674Y-122309610D01*
X134018715Y-122322869D01*
X133882820Y-122547661D01*
X133874314Y-122559984D01*
X133712316Y-122766756D01*
X133702387Y-122777964D01*
X133516641Y-122963707D01*
X133505433Y-122973636D01*
X133298659Y-123135631D01*
X133286336Y-123144137D01*
X133061542Y-123280029D01*
X133048283Y-123286988D01*
X132808740Y-123394796D01*
X132794739Y-123400105D01*
X132543966Y-123478249D01*
X132529427Y-123481833D01*
X132271050Y-123529181D01*
X132256186Y-123530986D01*
X132030821Y-123544618D01*
X131989622Y-123547111D01*
X131982088Y-123547337D01*
X84540432Y-123527268D01*
X84540431Y-123527268D01*
X84532392Y-123527264D01*
X84532291Y-123527238D01*
X84470109Y-123527238D01*
X84470102Y-123527236D01*
X84462675Y-123527012D01*
X84196707Y-123510924D01*
X84181843Y-123509119D01*
X83923463Y-123461770D01*
X83908924Y-123458186D01*
X83658146Y-123380041D01*
X83644145Y-123374732D01*
X83404597Y-123266921D01*
X83391338Y-123259962D01*
X83166541Y-123124068D01*
X83154219Y-123115562D01*
X82947441Y-122953564D01*
X82936232Y-122943635D01*
X82750483Y-122757889D01*
X82740554Y-122746681D01*
X82578553Y-122539905D01*
X82570047Y-122527582D01*
X82434150Y-122302786D01*
X82427191Y-122289527D01*
X82319381Y-122049989D01*
X82314071Y-122035989D01*
X82235918Y-121785194D01*
X82232339Y-121770676D01*
X82184984Y-121512284D01*
X82183179Y-121497420D01*
X82167124Y-121232072D01*
X82166900Y-121225225D01*
X82166898Y-121224838D01*
X82166898Y-121161839D01*
X82166565Y-121160598D01*
X82067653Y-101794974D01*
X83232900Y-101794974D01*
X83232900Y-103590709D01*
X83232901Y-103590715D01*
X83239308Y-103650322D01*
X83289602Y-103785167D01*
X83289606Y-103785174D01*
X83375852Y-103900383D01*
X83375855Y-103900386D01*
X83491064Y-103986632D01*
X83491071Y-103986636D01*
X83622482Y-104035649D01*
X83678416Y-104077520D01*
X83702833Y-104142984D01*
X83687982Y-104211257D01*
X83666831Y-104239512D01*
X83553289Y-104353054D01*
X83428351Y-104525018D01*
X83331844Y-104714424D01*
X83266153Y-104916599D01*
X83232900Y-105126552D01*
X83232900Y-105339125D01*
X83253587Y-105469741D01*
X83266154Y-105549082D01*
X83317119Y-105705936D01*
X83331844Y-105751253D01*
X83428351Y-105940659D01*
X83553290Y-106112625D01*
X83703613Y-106262948D01*
X83875582Y-106387889D01*
X83884346Y-106392355D01*
X83935142Y-106440330D01*
X83951936Y-106508151D01*
X83929398Y-106574286D01*
X83884346Y-106613323D01*
X83875582Y-106617788D01*
X83703613Y-106742729D01*
X83553290Y-106893052D01*
X83428351Y-107065018D01*
X83331844Y-107254424D01*
X83266153Y-107456599D01*
X83254473Y-107530345D01*
X83232900Y-107666552D01*
X83232900Y-107879126D01*
X83242403Y-107939125D01*
X83263755Y-108073940D01*
X83266154Y-108089082D01*
X83324394Y-108268326D01*
X83331844Y-108291253D01*
X83428351Y-108480659D01*
X83553290Y-108652625D01*
X83703613Y-108802948D01*
X83875582Y-108927889D01*
X83884346Y-108932355D01*
X83935142Y-108980330D01*
X83951936Y-109048151D01*
X83929398Y-109114286D01*
X83884346Y-109153323D01*
X83875582Y-109157788D01*
X83703613Y-109282729D01*
X83553290Y-109433052D01*
X83428351Y-109605018D01*
X83331844Y-109794424D01*
X83266153Y-109996599D01*
X83232900Y-110206552D01*
X83232900Y-110419125D01*
X83265169Y-110622868D01*
X83266154Y-110629082D01*
X83321118Y-110798244D01*
X83331844Y-110831253D01*
X83428351Y-111020659D01*
X83553290Y-111192625D01*
X83703613Y-111342948D01*
X83875582Y-111467889D01*
X83884346Y-111472355D01*
X83935142Y-111520330D01*
X83951936Y-111588151D01*
X83929398Y-111654286D01*
X83884346Y-111693323D01*
X83875582Y-111697788D01*
X83703613Y-111822729D01*
X83553290Y-111973052D01*
X83428351Y-112145018D01*
X83331844Y-112334424D01*
X83266153Y-112536599D01*
X83256650Y-112596599D01*
X83232900Y-112746552D01*
X83232900Y-112959126D01*
X83266154Y-113169082D01*
X83285649Y-113229082D01*
X83331844Y-113371253D01*
X83428351Y-113560659D01*
X83553290Y-113732625D01*
X83703613Y-113882948D01*
X83875582Y-114007889D01*
X83884346Y-114012355D01*
X83935142Y-114060330D01*
X83951936Y-114128151D01*
X83929398Y-114194286D01*
X83884346Y-114233323D01*
X83875582Y-114237788D01*
X83703613Y-114362729D01*
X83553290Y-114513052D01*
X83428351Y-114685018D01*
X83331844Y-114874424D01*
X83266153Y-115076599D01*
X83234835Y-115274333D01*
X83232900Y-115286552D01*
X83232900Y-115499126D01*
X83266154Y-115709082D01*
X83315963Y-115862379D01*
X83331844Y-115911253D01*
X83428351Y-116100659D01*
X83553290Y-116272625D01*
X83703613Y-116422948D01*
X83875582Y-116547889D01*
X83884346Y-116552355D01*
X83935142Y-116600330D01*
X83951936Y-116668151D01*
X83929398Y-116734286D01*
X83884346Y-116773323D01*
X83875582Y-116777788D01*
X83703613Y-116902729D01*
X83553290Y-117053052D01*
X83428351Y-117225018D01*
X83331844Y-117414424D01*
X83266153Y-117616599D01*
X83232900Y-117826552D01*
X83232900Y-118039125D01*
X83263653Y-118233296D01*
X83266154Y-118249082D01*
X83320150Y-118415265D01*
X83331844Y-118451253D01*
X83428351Y-118640659D01*
X83553290Y-118812625D01*
X83703613Y-118962948D01*
X83875582Y-119087889D01*
X83884346Y-119092355D01*
X83935142Y-119140330D01*
X83951936Y-119208151D01*
X83929398Y-119274286D01*
X83884346Y-119313323D01*
X83875582Y-119317788D01*
X83703613Y-119442729D01*
X83553290Y-119593052D01*
X83428351Y-119765018D01*
X83331844Y-119954424D01*
X83266153Y-120156599D01*
X83232900Y-120366552D01*
X83232900Y-120579125D01*
X83266153Y-120789078D01*
X83331844Y-120991253D01*
X83428351Y-121180659D01*
X83553290Y-121352625D01*
X83703613Y-121502948D01*
X83875579Y-121627887D01*
X83875581Y-121627888D01*
X83875584Y-121627890D01*
X84064988Y-121724396D01*
X84267157Y-121790085D01*
X84477113Y-121823339D01*
X84477114Y-121823339D01*
X84689686Y-121823339D01*
X84689687Y-121823339D01*
X84899643Y-121790085D01*
X85101812Y-121724396D01*
X85291216Y-121627890D01*
X85313189Y-121611925D01*
X85463186Y-121502948D01*
X85463188Y-121502945D01*
X85463192Y-121502943D01*
X85613504Y-121352631D01*
X85613506Y-121352627D01*
X85613509Y-121352625D01*
X85738448Y-121180659D01*
X85738447Y-121180659D01*
X85738451Y-121180655D01*
X85834957Y-120991251D01*
X85900646Y-120789082D01*
X85933900Y-120579126D01*
X85933900Y-120366552D01*
X85900646Y-120156596D01*
X85834957Y-119954427D01*
X85738451Y-119765023D01*
X85738449Y-119765020D01*
X85738448Y-119765018D01*
X85613509Y-119593052D01*
X85463186Y-119442729D01*
X85291220Y-119317790D01*
X85290515Y-119317430D01*
X85282454Y-119313324D01*
X85231659Y-119265351D01*
X85214863Y-119197531D01*
X85237399Y-119131395D01*
X85282454Y-119092354D01*
X85291216Y-119087890D01*
X85330551Y-119059312D01*
X85463186Y-118962948D01*
X85463188Y-118962945D01*
X85463192Y-118962943D01*
X85613504Y-118812631D01*
X85613506Y-118812627D01*
X85613509Y-118812625D01*
X85738448Y-118640659D01*
X85738447Y-118640659D01*
X85738451Y-118640655D01*
X85834957Y-118451251D01*
X85900646Y-118249082D01*
X85933900Y-118039126D01*
X85933900Y-117826552D01*
X85900646Y-117616596D01*
X85834957Y-117414427D01*
X85768898Y-117284778D01*
X90534500Y-117284778D01*
X90534500Y-117505221D01*
X90568985Y-117722952D01*
X90637103Y-117932603D01*
X90637104Y-117932606D01*
X90737187Y-118129025D01*
X90866752Y-118307358D01*
X90866756Y-118307363D01*
X91022636Y-118463243D01*
X91022641Y-118463247D01*
X91129231Y-118540688D01*
X91200978Y-118592815D01*
X91329375Y-118658237D01*
X91397393Y-118692895D01*
X91397396Y-118692896D01*
X91457551Y-118712441D01*
X91607049Y-118761015D01*
X91824778Y-118795500D01*
X91824779Y-118795500D01*
X92045221Y-118795500D01*
X92045222Y-118795500D01*
X92262951Y-118761015D01*
X92472606Y-118692895D01*
X92516268Y-118670648D01*
X99781700Y-118670648D01*
X99781700Y-118929351D01*
X99822149Y-119184734D01*
X99822168Y-119184854D01*
X99902109Y-119430885D01*
X100019553Y-119661382D01*
X100171608Y-119870668D01*
X100354532Y-120053592D01*
X100563818Y-120205647D01*
X100794315Y-120323091D01*
X101040346Y-120403032D01*
X101136161Y-120418207D01*
X101295849Y-120443500D01*
X101295854Y-120443500D01*
X101554551Y-120443500D01*
X101696494Y-120421017D01*
X101810054Y-120403032D01*
X102056085Y-120323091D01*
X102286582Y-120205647D01*
X102495868Y-120053592D01*
X102678792Y-119870668D01*
X102830847Y-119661382D01*
X102948291Y-119430885D01*
X103028232Y-119184854D01*
X103048116Y-119059312D01*
X103068700Y-118929351D01*
X103068700Y-118670693D01*
X103744600Y-118670693D01*
X103744600Y-118929306D01*
X103785056Y-119184733D01*
X103785056Y-119184734D01*
X103864974Y-119430695D01*
X103982383Y-119661122D01*
X104062563Y-119771481D01*
X104062564Y-119771482D01*
X104605053Y-119228992D01*
X104697069Y-119366704D01*
X104820896Y-119490531D01*
X104958605Y-119582545D01*
X104416116Y-120125034D01*
X104416117Y-120125036D01*
X104526477Y-120205216D01*
X104756904Y-120322625D01*
X105002866Y-120402543D01*
X105258294Y-120443000D01*
X105516906Y-120443000D01*
X105772333Y-120402543D01*
X105772334Y-120402543D01*
X106018295Y-120322625D01*
X106248719Y-120205218D01*
X106359081Y-120125034D01*
X106359082Y-120125034D01*
X105816593Y-119582546D01*
X105954304Y-119490531D01*
X106078131Y-119366704D01*
X106170145Y-119228993D01*
X106712634Y-119771482D01*
X106712634Y-119771481D01*
X106792818Y-119661119D01*
X106910225Y-119430695D01*
X106990143Y-119184734D01*
X106990143Y-119184733D01*
X107030600Y-118929306D01*
X107030600Y-118670693D01*
X107030593Y-118670648D01*
X110431700Y-118670648D01*
X110431700Y-118929351D01*
X110472149Y-119184734D01*
X110472168Y-119184854D01*
X110552109Y-119430885D01*
X110669553Y-119661382D01*
X110821608Y-119870668D01*
X111004532Y-120053592D01*
X111213818Y-120205647D01*
X111444315Y-120323091D01*
X111690346Y-120403032D01*
X111786161Y-120418207D01*
X111945849Y-120443500D01*
X111945854Y-120443500D01*
X112204551Y-120443500D01*
X112346494Y-120421017D01*
X112460054Y-120403032D01*
X112706085Y-120323091D01*
X112936582Y-120205647D01*
X113145868Y-120053592D01*
X113328792Y-119870668D01*
X113480847Y-119661382D01*
X113598291Y-119430885D01*
X113678232Y-119184854D01*
X113698116Y-119059312D01*
X113718700Y-118929351D01*
X113718700Y-118670693D01*
X114394600Y-118670693D01*
X114394600Y-118929306D01*
X114435056Y-119184733D01*
X114435056Y-119184734D01*
X114514974Y-119430695D01*
X114632383Y-119661122D01*
X114712563Y-119771481D01*
X114712564Y-119771482D01*
X115255053Y-119228992D01*
X115347069Y-119366704D01*
X115470896Y-119490531D01*
X115608605Y-119582545D01*
X115066116Y-120125034D01*
X115066117Y-120125036D01*
X115176477Y-120205216D01*
X115406904Y-120322625D01*
X115652866Y-120402543D01*
X115908294Y-120443000D01*
X116166906Y-120443000D01*
X116422333Y-120402543D01*
X116422334Y-120402543D01*
X116668295Y-120322625D01*
X116898719Y-120205218D01*
X117009081Y-120125034D01*
X117009082Y-120125034D01*
X116466593Y-119582546D01*
X116604304Y-119490531D01*
X116728131Y-119366704D01*
X116820145Y-119228993D01*
X117362634Y-119771482D01*
X117362634Y-119771481D01*
X117442818Y-119661119D01*
X117560225Y-119430695D01*
X117640143Y-119184734D01*
X117640143Y-119184733D01*
X117680600Y-118929306D01*
X117680600Y-118670693D01*
X117680593Y-118670648D01*
X118356500Y-118670648D01*
X118356500Y-118929351D01*
X118396949Y-119184734D01*
X118396968Y-119184854D01*
X118476909Y-119430885D01*
X118594353Y-119661382D01*
X118746408Y-119870668D01*
X118929332Y-120053592D01*
X119138618Y-120205647D01*
X119369115Y-120323091D01*
X119615146Y-120403032D01*
X119710961Y-120418207D01*
X119870649Y-120443500D01*
X119870654Y-120443500D01*
X120129351Y-120443500D01*
X120271294Y-120421017D01*
X120384854Y-120403032D01*
X120630885Y-120323091D01*
X120861382Y-120205647D01*
X121070668Y-120053592D01*
X121253592Y-119870668D01*
X121405647Y-119661382D01*
X121523091Y-119430885D01*
X121603032Y-119184854D01*
X121622916Y-119059312D01*
X121643500Y-118929351D01*
X121643500Y-118670648D01*
X122318900Y-118670648D01*
X122318900Y-118929351D01*
X122359349Y-119184734D01*
X122359368Y-119184854D01*
X122439309Y-119430885D01*
X122556753Y-119661382D01*
X122708808Y-119870668D01*
X122891732Y-120053592D01*
X123101018Y-120205647D01*
X123331515Y-120323091D01*
X123577546Y-120403032D01*
X123673361Y-120418207D01*
X123833049Y-120443500D01*
X123833054Y-120443500D01*
X124091751Y-120443500D01*
X124233694Y-120421017D01*
X124347254Y-120403032D01*
X124593285Y-120323091D01*
X124823782Y-120205647D01*
X125033068Y-120053592D01*
X125215992Y-119870668D01*
X125368047Y-119661382D01*
X125485491Y-119430885D01*
X125565432Y-119184854D01*
X125585316Y-119059312D01*
X125605900Y-118929351D01*
X125605900Y-118670648D01*
X125573050Y-118463243D01*
X125565432Y-118415146D01*
X125485491Y-118169115D01*
X125368047Y-117938618D01*
X125215992Y-117729332D01*
X125033068Y-117546408D01*
X124823782Y-117394353D01*
X124593285Y-117276909D01*
X124347254Y-117196968D01*
X124347252Y-117196967D01*
X124347250Y-117196967D01*
X124091751Y-117156500D01*
X124091746Y-117156500D01*
X123833054Y-117156500D01*
X123833049Y-117156500D01*
X123577549Y-117196967D01*
X123331512Y-117276910D01*
X123101017Y-117394353D01*
X122891729Y-117546410D01*
X122708810Y-117729329D01*
X122556753Y-117938617D01*
X122439310Y-118169112D01*
X122359367Y-118415149D01*
X122318900Y-118670648D01*
X121643500Y-118670648D01*
X121610650Y-118463243D01*
X121603032Y-118415146D01*
X121523091Y-118169115D01*
X121405647Y-117938618D01*
X121253592Y-117729332D01*
X121070668Y-117546408D01*
X120861382Y-117394353D01*
X120630885Y-117276909D01*
X120384854Y-117196968D01*
X120384852Y-117196967D01*
X120384850Y-117196967D01*
X120129351Y-117156500D01*
X120129346Y-117156500D01*
X119870654Y-117156500D01*
X119870649Y-117156500D01*
X119615149Y-117196967D01*
X119369112Y-117276910D01*
X119138617Y-117394353D01*
X118929329Y-117546410D01*
X118746410Y-117729329D01*
X118594353Y-117938617D01*
X118476910Y-118169112D01*
X118396967Y-118415149D01*
X118356500Y-118670648D01*
X117680593Y-118670648D01*
X117640143Y-118415266D01*
X117640143Y-118415265D01*
X117560225Y-118169304D01*
X117442816Y-117938877D01*
X117362636Y-117828517D01*
X117362634Y-117828516D01*
X116820145Y-118371005D01*
X116728131Y-118233296D01*
X116604304Y-118109469D01*
X116466592Y-118017453D01*
X117009082Y-117474964D01*
X117009081Y-117474963D01*
X116898722Y-117394783D01*
X116668295Y-117277374D01*
X116422333Y-117197456D01*
X116166906Y-117157000D01*
X115908294Y-117157000D01*
X115652866Y-117197456D01*
X115652865Y-117197456D01*
X115406904Y-117277374D01*
X115176484Y-117394779D01*
X115066117Y-117474964D01*
X115066117Y-117474965D01*
X115608606Y-118017453D01*
X115470896Y-118109469D01*
X115347069Y-118233296D01*
X115255053Y-118371006D01*
X114712565Y-117828517D01*
X114712564Y-117828517D01*
X114632379Y-117938884D01*
X114514974Y-118169304D01*
X114435056Y-118415265D01*
X114435056Y-118415266D01*
X114394600Y-118670693D01*
X113718700Y-118670693D01*
X113718700Y-118670648D01*
X113685850Y-118463243D01*
X113678232Y-118415146D01*
X113598291Y-118169115D01*
X113480847Y-117938618D01*
X113328792Y-117729332D01*
X113145868Y-117546408D01*
X112936582Y-117394353D01*
X112706085Y-117276909D01*
X112460054Y-117196968D01*
X112460052Y-117196967D01*
X112460050Y-117196967D01*
X112204551Y-117156500D01*
X112204546Y-117156500D01*
X111945854Y-117156500D01*
X111945849Y-117156500D01*
X111690349Y-117196967D01*
X111444312Y-117276910D01*
X111213817Y-117394353D01*
X111004529Y-117546410D01*
X110821610Y-117729329D01*
X110669553Y-117938617D01*
X110552110Y-118169112D01*
X110472167Y-118415149D01*
X110431700Y-118670648D01*
X107030593Y-118670648D01*
X106990143Y-118415266D01*
X106990143Y-118415265D01*
X106910225Y-118169304D01*
X106792816Y-117938877D01*
X106712636Y-117828517D01*
X106712634Y-117828516D01*
X106170145Y-118371005D01*
X106078131Y-118233296D01*
X105954304Y-118109469D01*
X105816592Y-118017453D01*
X106359082Y-117474964D01*
X106359081Y-117474963D01*
X106248722Y-117394783D01*
X106018295Y-117277374D01*
X105772333Y-117197456D01*
X105516906Y-117157000D01*
X105258294Y-117157000D01*
X105002866Y-117197456D01*
X105002865Y-117197456D01*
X104756904Y-117277374D01*
X104526484Y-117394779D01*
X104416117Y-117474964D01*
X104416117Y-117474965D01*
X104958606Y-118017453D01*
X104820896Y-118109469D01*
X104697069Y-118233296D01*
X104605053Y-118371006D01*
X104062565Y-117828517D01*
X104062564Y-117828517D01*
X103982379Y-117938884D01*
X103864974Y-118169304D01*
X103785056Y-118415265D01*
X103785056Y-118415266D01*
X103744600Y-118670693D01*
X103068700Y-118670693D01*
X103068700Y-118670648D01*
X103035850Y-118463243D01*
X103028232Y-118415146D01*
X102948291Y-118169115D01*
X102830847Y-117938618D01*
X102678792Y-117729332D01*
X102495868Y-117546408D01*
X102286582Y-117394353D01*
X102056085Y-117276909D01*
X101810054Y-117196968D01*
X101810052Y-117196967D01*
X101810050Y-117196967D01*
X101554551Y-117156500D01*
X101554546Y-117156500D01*
X101295854Y-117156500D01*
X101295849Y-117156500D01*
X101040349Y-117196967D01*
X100794312Y-117276910D01*
X100563817Y-117394353D01*
X100354529Y-117546410D01*
X100171610Y-117729329D01*
X100019553Y-117938617D01*
X99902110Y-118169112D01*
X99822167Y-118415149D01*
X99781700Y-118670648D01*
X92516268Y-118670648D01*
X92669022Y-118592815D01*
X92706669Y-118565462D01*
X92706671Y-118565462D01*
X92847358Y-118463247D01*
X92847356Y-118463247D01*
X92847365Y-118463242D01*
X93003242Y-118307365D01*
X93132815Y-118129022D01*
X93232895Y-117932606D01*
X93301015Y-117722951D01*
X93335500Y-117505222D01*
X93335500Y-117284778D01*
X93301015Y-117067049D01*
X93232895Y-116857394D01*
X93232895Y-116857393D01*
X93188408Y-116770085D01*
X93132815Y-116660978D01*
X93082260Y-116591395D01*
X93003247Y-116482641D01*
X93003243Y-116482636D01*
X92952683Y-116432076D01*
X92919198Y-116370753D01*
X92924182Y-116301061D01*
X92966054Y-116245128D01*
X92997031Y-116228213D01*
X93077086Y-116198354D01*
X93077093Y-116198350D01*
X93192187Y-116112190D01*
X93192190Y-116112187D01*
X93278350Y-115997093D01*
X93278354Y-115997086D01*
X93328596Y-115862379D01*
X93328598Y-115862372D01*
X93334999Y-115802844D01*
X93335000Y-115802827D01*
X93335000Y-115105000D01*
X92310278Y-115105000D01*
X92354333Y-115028694D01*
X92385000Y-114914244D01*
X92385000Y-114795756D01*
X92354333Y-114681306D01*
X92310278Y-114605000D01*
X93335000Y-114605000D01*
X93335000Y-113907172D01*
X93334999Y-113907155D01*
X93328598Y-113847627D01*
X93328596Y-113847620D01*
X93278354Y-113712913D01*
X93278350Y-113712906D01*
X93192190Y-113597812D01*
X93192187Y-113597809D01*
X93077093Y-113511649D01*
X93077086Y-113511645D01*
X92942379Y-113461403D01*
X92942372Y-113461401D01*
X92882844Y-113455000D01*
X92185000Y-113455000D01*
X92185000Y-114479722D01*
X92108694Y-114435667D01*
X91994244Y-114405000D01*
X91875756Y-114405000D01*
X91761306Y-114435667D01*
X91685000Y-114479722D01*
X91685000Y-113455000D01*
X90987155Y-113455000D01*
X90927627Y-113461401D01*
X90927620Y-113461403D01*
X90792913Y-113511645D01*
X90792906Y-113511649D01*
X90677812Y-113597809D01*
X90677809Y-113597812D01*
X90591649Y-113712906D01*
X90591645Y-113712913D01*
X90541403Y-113847620D01*
X90541401Y-113847627D01*
X90535000Y-113907155D01*
X90535000Y-114605000D01*
X91559722Y-114605000D01*
X91515667Y-114681306D01*
X91485000Y-114795756D01*
X91485000Y-114914244D01*
X91515667Y-115028694D01*
X91559722Y-115105000D01*
X90535000Y-115105000D01*
X90535000Y-115802844D01*
X90541401Y-115862372D01*
X90541403Y-115862379D01*
X90591645Y-115997086D01*
X90591649Y-115997093D01*
X90677809Y-116112187D01*
X90677812Y-116112190D01*
X90792906Y-116198350D01*
X90792913Y-116198354D01*
X90872968Y-116228213D01*
X90928902Y-116270084D01*
X90953319Y-116335549D01*
X90938467Y-116403822D01*
X90917317Y-116432075D01*
X90866756Y-116482636D01*
X90866752Y-116482641D01*
X90737187Y-116660974D01*
X90637104Y-116857393D01*
X90637103Y-116857396D01*
X90568985Y-117067047D01*
X90534500Y-117284778D01*
X85768898Y-117284778D01*
X85738451Y-117225023D01*
X85689030Y-117157000D01*
X85613509Y-117053052D01*
X85463186Y-116902729D01*
X85291220Y-116777790D01*
X85290515Y-116777430D01*
X85282454Y-116773324D01*
X85231659Y-116725351D01*
X85214863Y-116657531D01*
X85237399Y-116591395D01*
X85282454Y-116552354D01*
X85291216Y-116547890D01*
X85380609Y-116482943D01*
X85463186Y-116422948D01*
X85463188Y-116422945D01*
X85463192Y-116422943D01*
X85613504Y-116272631D01*
X85613506Y-116272627D01*
X85613509Y-116272625D01*
X85738448Y-116100659D01*
X85738447Y-116100659D01*
X85738451Y-116100655D01*
X85834957Y-115911251D01*
X85900646Y-115709082D01*
X85933900Y-115499126D01*
X85933900Y-115286552D01*
X85900646Y-115076596D01*
X85834957Y-114874427D01*
X85738451Y-114685023D01*
X85738449Y-114685020D01*
X85738448Y-114685018D01*
X85613509Y-114513052D01*
X85463186Y-114362729D01*
X85291220Y-114237790D01*
X85290515Y-114237430D01*
X85282454Y-114233324D01*
X85231659Y-114185351D01*
X85214863Y-114117531D01*
X85237399Y-114051395D01*
X85282454Y-114012354D01*
X85291216Y-114007890D01*
X85380609Y-113942943D01*
X85463186Y-113882948D01*
X85463188Y-113882945D01*
X85463192Y-113882943D01*
X85613504Y-113732631D01*
X85613506Y-113732627D01*
X85613509Y-113732625D01*
X85738448Y-113560659D01*
X85738447Y-113560659D01*
X85738451Y-113560655D01*
X85834957Y-113371251D01*
X85900646Y-113169082D01*
X85933900Y-112959126D01*
X85933900Y-112746552D01*
X85900646Y-112536596D01*
X85834957Y-112334427D01*
X85738451Y-112145023D01*
X85738449Y-112145020D01*
X85738448Y-112145018D01*
X85613509Y-111973052D01*
X85463186Y-111822729D01*
X85291220Y-111697790D01*
X85290515Y-111697430D01*
X85282454Y-111693324D01*
X85231659Y-111645351D01*
X85214863Y-111577531D01*
X85237399Y-111511395D01*
X85282454Y-111472354D01*
X85291216Y-111467890D01*
X85380609Y-111402943D01*
X85463186Y-111342948D01*
X85463188Y-111342945D01*
X85463192Y-111342943D01*
X85613504Y-111192631D01*
X85613506Y-111192627D01*
X85613509Y-111192625D01*
X85738448Y-111020659D01*
X85738447Y-111020659D01*
X85738451Y-111020655D01*
X85834957Y-110831251D01*
X85900646Y-110629082D01*
X85933900Y-110419126D01*
X85933900Y-110206552D01*
X85900646Y-109996596D01*
X85834957Y-109794427D01*
X85738451Y-109605023D01*
X85738449Y-109605020D01*
X85738448Y-109605018D01*
X85613509Y-109433052D01*
X85463186Y-109282729D01*
X85291220Y-109157790D01*
X85290515Y-109157430D01*
X85282454Y-109153324D01*
X85231659Y-109105351D01*
X85214863Y-109037531D01*
X85237399Y-108971395D01*
X85282454Y-108932354D01*
X85291216Y-108927890D01*
X85340148Y-108892339D01*
X85463186Y-108802948D01*
X85463188Y-108802945D01*
X85463192Y-108802943D01*
X85613504Y-108652631D01*
X85613506Y-108652627D01*
X85613509Y-108652625D01*
X85738448Y-108480659D01*
X85738447Y-108480659D01*
X85738451Y-108480655D01*
X85834957Y-108291251D01*
X85900646Y-108089082D01*
X85933900Y-107879126D01*
X85933900Y-107666552D01*
X85900646Y-107456596D01*
X85834957Y-107254427D01*
X85738451Y-107065023D01*
X85738449Y-107065020D01*
X85738448Y-107065018D01*
X85613509Y-106893052D01*
X85463186Y-106742729D01*
X85291220Y-106617790D01*
X85290515Y-106617430D01*
X85282454Y-106613324D01*
X85231659Y-106565351D01*
X85214863Y-106497531D01*
X85237399Y-106431395D01*
X85282454Y-106392354D01*
X85291216Y-106387890D01*
X85313189Y-106371925D01*
X85463186Y-106262948D01*
X85463188Y-106262945D01*
X85463192Y-106262943D01*
X85613504Y-106112631D01*
X85613506Y-106112627D01*
X85613509Y-106112625D01*
X85738448Y-105940659D01*
X85738447Y-105940659D01*
X85738451Y-105940655D01*
X85834957Y-105751251D01*
X85900646Y-105549082D01*
X85933900Y-105339126D01*
X85933900Y-105126552D01*
X85900646Y-104916596D01*
X85834957Y-104714427D01*
X85738451Y-104525023D01*
X85738449Y-104525020D01*
X85738448Y-104525018D01*
X85613509Y-104353052D01*
X85499969Y-104239512D01*
X85466484Y-104178189D01*
X85471468Y-104108497D01*
X85513340Y-104052564D01*
X85544315Y-104035649D01*
X85675731Y-103986635D01*
X85790946Y-103900385D01*
X85877196Y-103785170D01*
X85927491Y-103650322D01*
X85933900Y-103590712D01*
X85933899Y-101794967D01*
X85927491Y-101735356D01*
X85922781Y-101722729D01*
X85877197Y-101600510D01*
X85877193Y-101600503D01*
X85790947Y-101485294D01*
X85790944Y-101485291D01*
X85675735Y-101399045D01*
X85675728Y-101399041D01*
X85540882Y-101348747D01*
X85540883Y-101348747D01*
X85481283Y-101342340D01*
X85481281Y-101342339D01*
X85481273Y-101342339D01*
X85481264Y-101342339D01*
X83685529Y-101342339D01*
X83685523Y-101342340D01*
X83625916Y-101348747D01*
X83491071Y-101399041D01*
X83491064Y-101399045D01*
X83375855Y-101485291D01*
X83375852Y-101485294D01*
X83289606Y-101600503D01*
X83289602Y-101600510D01*
X83239308Y-101735356D01*
X83233189Y-101792278D01*
X83232901Y-101794962D01*
X83232900Y-101794974D01*
X82067653Y-101794974D01*
X81833215Y-55894974D01*
X83262900Y-55894974D01*
X83262900Y-57690709D01*
X83262901Y-57690715D01*
X83269308Y-57750322D01*
X83319602Y-57885167D01*
X83319606Y-57885174D01*
X83405852Y-58000383D01*
X83405855Y-58000386D01*
X83521064Y-58086632D01*
X83521071Y-58086636D01*
X83652482Y-58135649D01*
X83708416Y-58177520D01*
X83732833Y-58242984D01*
X83717982Y-58311257D01*
X83696831Y-58339512D01*
X83583289Y-58453054D01*
X83458351Y-58625018D01*
X83361844Y-58814424D01*
X83296153Y-59016599D01*
X83262900Y-59226552D01*
X83262900Y-59439125D01*
X83296153Y-59649078D01*
X83361844Y-59851253D01*
X83458351Y-60040659D01*
X83583290Y-60212625D01*
X83733613Y-60362948D01*
X83905582Y-60487889D01*
X83914346Y-60492355D01*
X83965142Y-60540330D01*
X83981936Y-60608151D01*
X83959398Y-60674286D01*
X83914346Y-60713323D01*
X83905582Y-60717788D01*
X83733613Y-60842729D01*
X83583290Y-60993052D01*
X83458351Y-61165018D01*
X83361844Y-61354424D01*
X83296153Y-61556599D01*
X83267664Y-61736471D01*
X83262900Y-61766552D01*
X83262900Y-61979126D01*
X83296154Y-62189082D01*
X83301630Y-62205936D01*
X83361844Y-62391253D01*
X83458351Y-62580659D01*
X83583290Y-62752625D01*
X83733613Y-62902948D01*
X83905582Y-63027889D01*
X83914346Y-63032355D01*
X83965142Y-63080330D01*
X83981936Y-63148151D01*
X83959398Y-63214286D01*
X83914346Y-63253323D01*
X83905582Y-63257788D01*
X83733613Y-63382729D01*
X83583290Y-63533052D01*
X83458351Y-63705018D01*
X83361844Y-63894424D01*
X83296153Y-64096599D01*
X83262900Y-64306552D01*
X83262900Y-64519125D01*
X83296153Y-64729078D01*
X83361844Y-64931253D01*
X83458351Y-65120659D01*
X83583290Y-65292625D01*
X83733613Y-65442948D01*
X83905582Y-65567889D01*
X83914346Y-65572355D01*
X83965142Y-65620330D01*
X83981936Y-65688151D01*
X83959398Y-65754286D01*
X83914346Y-65793323D01*
X83905582Y-65797788D01*
X83733613Y-65922729D01*
X83583290Y-66073052D01*
X83458351Y-66245018D01*
X83361844Y-66434424D01*
X83296153Y-66636599D01*
X83262900Y-66846552D01*
X83262900Y-67059125D01*
X83294206Y-67256788D01*
X83296154Y-67269082D01*
X83326503Y-67362487D01*
X83361844Y-67471253D01*
X83458351Y-67660659D01*
X83583290Y-67832625D01*
X83733613Y-67982948D01*
X83905579Y-68107887D01*
X83905581Y-68107888D01*
X83905584Y-68107890D01*
X83914893Y-68112633D01*
X83965690Y-68160605D01*
X83982487Y-68228426D01*
X83959952Y-68294561D01*
X83914905Y-68333599D01*
X83905846Y-68338215D01*
X83905840Y-68338219D01*
X83851682Y-68377566D01*
X83851682Y-68377567D01*
X84483991Y-69009876D01*
X84420407Y-69026914D01*
X84306393Y-69092740D01*
X84213301Y-69185832D01*
X84147475Y-69299846D01*
X84130437Y-69363430D01*
X83498128Y-68731121D01*
X83498127Y-68731121D01*
X83458780Y-68785278D01*
X83362304Y-68974621D01*
X83296642Y-69176708D01*
X83296642Y-69176711D01*
X83263400Y-69386592D01*
X83263400Y-69599085D01*
X83296642Y-69808966D01*
X83296642Y-69808969D01*
X83362304Y-70011056D01*
X83458775Y-70200389D01*
X83498128Y-70254555D01*
X84130437Y-69622247D01*
X84147475Y-69685832D01*
X84213301Y-69799846D01*
X84306393Y-69892938D01*
X84420407Y-69958764D01*
X84483991Y-69975801D01*
X83883371Y-70576420D01*
X83962111Y-70693734D01*
X83963320Y-70697568D01*
X83966244Y-70700330D01*
X83973743Y-70730617D01*
X83983127Y-70760368D01*
X83982071Y-70764247D01*
X83983038Y-70768151D01*
X83972973Y-70797683D01*
X83964783Y-70827786D01*
X83961797Y-70830479D01*
X83960500Y-70834286D01*
X83915451Y-70873322D01*
X83905840Y-70878219D01*
X83851682Y-70917566D01*
X83851682Y-70917567D01*
X84483991Y-71549876D01*
X84420407Y-71566914D01*
X84306393Y-71632740D01*
X84213301Y-71725832D01*
X84147475Y-71839846D01*
X84130437Y-71903430D01*
X83498128Y-71271121D01*
X83498127Y-71271121D01*
X83458780Y-71325278D01*
X83362304Y-71514621D01*
X83296642Y-71716708D01*
X83296642Y-71716711D01*
X83263400Y-71926592D01*
X83263400Y-72139085D01*
X83296642Y-72348966D01*
X83296642Y-72348969D01*
X83362304Y-72551056D01*
X83458775Y-72740389D01*
X83498128Y-72794555D01*
X84130437Y-72162247D01*
X84147475Y-72225832D01*
X84213301Y-72339846D01*
X84306393Y-72432938D01*
X84420407Y-72498764D01*
X84483990Y-72515801D01*
X83851682Y-73148108D01*
X83851682Y-73148109D01*
X83905852Y-73187465D01*
X83905851Y-73187465D01*
X83914895Y-73192073D01*
X83965692Y-73240047D01*
X83982487Y-73307868D01*
X83959950Y-73374003D01*
X83914899Y-73413041D01*
X83905582Y-73417788D01*
X83733613Y-73542729D01*
X83583290Y-73693052D01*
X83458351Y-73865018D01*
X83361844Y-74054424D01*
X83296153Y-74256599D01*
X83274479Y-74393445D01*
X83262900Y-74466552D01*
X83262900Y-74679126D01*
X83296154Y-74889082D01*
X83315245Y-74947839D01*
X83361844Y-75091253D01*
X83458351Y-75280659D01*
X83583290Y-75452625D01*
X83733613Y-75602948D01*
X83905579Y-75727887D01*
X83905581Y-75727888D01*
X83905584Y-75727890D01*
X84094988Y-75824396D01*
X84297157Y-75890085D01*
X84507113Y-75923339D01*
X84507114Y-75923339D01*
X84719686Y-75923339D01*
X84719687Y-75923339D01*
X84929643Y-75890085D01*
X85131812Y-75824396D01*
X85321216Y-75727890D01*
X85455508Y-75630322D01*
X85493186Y-75602948D01*
X85493188Y-75602945D01*
X85493192Y-75602943D01*
X85643504Y-75452631D01*
X85643506Y-75452627D01*
X85643509Y-75452625D01*
X85768448Y-75280659D01*
X85768447Y-75280659D01*
X85768451Y-75280655D01*
X85864957Y-75091251D01*
X85930646Y-74889082D01*
X85963900Y-74679126D01*
X85963900Y-74466552D01*
X85930646Y-74256596D01*
X85864957Y-74054427D01*
X85768451Y-73865023D01*
X85768449Y-73865020D01*
X85768448Y-73865018D01*
X85643509Y-73693052D01*
X85493186Y-73542729D01*
X85321217Y-73417788D01*
X85311904Y-73413043D01*
X85261107Y-73365069D01*
X85244312Y-73297248D01*
X85266849Y-73231113D01*
X85311907Y-73192071D01*
X85320955Y-73187461D01*
X85375116Y-73148109D01*
X85375117Y-73148109D01*
X84742808Y-72515801D01*
X84806393Y-72498764D01*
X84920407Y-72432938D01*
X85013499Y-72339846D01*
X85079325Y-72225832D01*
X85096362Y-72162247D01*
X85728670Y-72794556D01*
X85728670Y-72794555D01*
X85768022Y-72740393D01*
X85864495Y-72551056D01*
X85930157Y-72348969D01*
X85930157Y-72348966D01*
X85963400Y-72139085D01*
X85963400Y-71926592D01*
X85930157Y-71716711D01*
X85930157Y-71716708D01*
X85864495Y-71514621D01*
X85768024Y-71325288D01*
X85728670Y-71271121D01*
X85728669Y-71271121D01*
X85096362Y-71903429D01*
X85079325Y-71839846D01*
X85013499Y-71725832D01*
X84920407Y-71632740D01*
X84806393Y-71566914D01*
X84742809Y-71549876D01*
X85375116Y-70917567D01*
X85320950Y-70878214D01*
X85311354Y-70873325D01*
X85260557Y-70825351D01*
X85243761Y-70757531D01*
X85266297Y-70691395D01*
X85311354Y-70652353D01*
X85320954Y-70647461D01*
X85375116Y-70608109D01*
X85375117Y-70608109D01*
X84742808Y-69975801D01*
X84806393Y-69958764D01*
X84920407Y-69892938D01*
X85013499Y-69799846D01*
X85079325Y-69685832D01*
X85096362Y-69622247D01*
X85728670Y-70254556D01*
X85728670Y-70254555D01*
X85768022Y-70200393D01*
X85864495Y-70011056D01*
X85930157Y-69808969D01*
X85930157Y-69808966D01*
X85963400Y-69599085D01*
X85963400Y-69386592D01*
X85930157Y-69176711D01*
X85930157Y-69176708D01*
X85864495Y-68974621D01*
X85768024Y-68785288D01*
X85728670Y-68731121D01*
X85728669Y-68731121D01*
X85096362Y-69363429D01*
X85079325Y-69299846D01*
X85013499Y-69185832D01*
X84920407Y-69092740D01*
X84806393Y-69026914D01*
X84742809Y-69009876D01*
X85375116Y-68377567D01*
X85320947Y-68338212D01*
X85320947Y-68338211D01*
X85311900Y-68333602D01*
X85261106Y-68285627D01*
X85244312Y-68217805D01*
X85266851Y-68151671D01*
X85311908Y-68112632D01*
X85321216Y-68107890D01*
X85430299Y-68028637D01*
X85493186Y-67982948D01*
X85493188Y-67982945D01*
X85493192Y-67982943D01*
X85643504Y-67832631D01*
X85643506Y-67832627D01*
X85643509Y-67832625D01*
X85768448Y-67660659D01*
X85768447Y-67660659D01*
X85768451Y-67660655D01*
X85864957Y-67471251D01*
X85930646Y-67269082D01*
X85963900Y-67059126D01*
X85963900Y-66846552D01*
X85930646Y-66636596D01*
X85864957Y-66434427D01*
X85768451Y-66245023D01*
X85768449Y-66245020D01*
X85768448Y-66245018D01*
X85643509Y-66073052D01*
X85493186Y-65922729D01*
X85321220Y-65797790D01*
X85318148Y-65796225D01*
X85312454Y-65793324D01*
X85261659Y-65745351D01*
X85244863Y-65677531D01*
X85267399Y-65611395D01*
X85312454Y-65572354D01*
X85321216Y-65567890D01*
X85343189Y-65551925D01*
X85493186Y-65442948D01*
X85493188Y-65442945D01*
X85493192Y-65442943D01*
X85643504Y-65292631D01*
X85643506Y-65292627D01*
X85643509Y-65292625D01*
X85768448Y-65120659D01*
X85768447Y-65120659D01*
X85768451Y-65120655D01*
X85864957Y-64931251D01*
X85930646Y-64729082D01*
X85963900Y-64519126D01*
X85963900Y-64306552D01*
X85930646Y-64096596D01*
X85864957Y-63894427D01*
X85768451Y-63705023D01*
X85768449Y-63705020D01*
X85768448Y-63705018D01*
X85643509Y-63533052D01*
X85493186Y-63382729D01*
X85321220Y-63257790D01*
X85320515Y-63257430D01*
X85312454Y-63253324D01*
X85261659Y-63205351D01*
X85244863Y-63137531D01*
X85267399Y-63071395D01*
X85312454Y-63032354D01*
X85321216Y-63027890D01*
X85343942Y-63011379D01*
X85493186Y-62902948D01*
X85493188Y-62902945D01*
X85493192Y-62902943D01*
X85643504Y-62752631D01*
X85643506Y-62752627D01*
X85643509Y-62752625D01*
X85768448Y-62580659D01*
X85768447Y-62580659D01*
X85768451Y-62580655D01*
X85864957Y-62391251D01*
X85930646Y-62189082D01*
X85963900Y-61979126D01*
X85963900Y-61766552D01*
X85930646Y-61556596D01*
X85864957Y-61354427D01*
X85768451Y-61165023D01*
X85768449Y-61165020D01*
X85768448Y-61165018D01*
X85643509Y-60993052D01*
X85493186Y-60842729D01*
X85321220Y-60717790D01*
X85320515Y-60717430D01*
X85312454Y-60713324D01*
X85261659Y-60665351D01*
X85244863Y-60597531D01*
X85267399Y-60531395D01*
X85312454Y-60492354D01*
X85321216Y-60487890D01*
X85343189Y-60471925D01*
X85493186Y-60362948D01*
X85493188Y-60362945D01*
X85493192Y-60362943D01*
X85643504Y-60212631D01*
X85643506Y-60212627D01*
X85643509Y-60212625D01*
X85768448Y-60040659D01*
X85768447Y-60040659D01*
X85768451Y-60040655D01*
X85864957Y-59851251D01*
X85930646Y-59649082D01*
X85963900Y-59439126D01*
X85963900Y-59226552D01*
X85930646Y-59016596D01*
X85864957Y-58814427D01*
X85768451Y-58625023D01*
X85768449Y-58625020D01*
X85768448Y-58625018D01*
X85643509Y-58453052D01*
X85529969Y-58339512D01*
X85496484Y-58278189D01*
X85501468Y-58208497D01*
X85543340Y-58152564D01*
X85574315Y-58135649D01*
X85705731Y-58086635D01*
X85820946Y-58000385D01*
X85907196Y-57885170D01*
X85957491Y-57750322D01*
X85963900Y-57690712D01*
X85963899Y-55894967D01*
X85957491Y-55835356D01*
X85952157Y-55821056D01*
X85907197Y-55700510D01*
X85907193Y-55700503D01*
X85820947Y-55585294D01*
X85820944Y-55585291D01*
X85705735Y-55499045D01*
X85705728Y-55499041D01*
X85570882Y-55448747D01*
X85570883Y-55448747D01*
X85511283Y-55442340D01*
X85511281Y-55442339D01*
X85511273Y-55442339D01*
X85511264Y-55442339D01*
X83715529Y-55442339D01*
X83715523Y-55442340D01*
X83655916Y-55448747D01*
X83521071Y-55499041D01*
X83521064Y-55499045D01*
X83405855Y-55585291D01*
X83405852Y-55585294D01*
X83319606Y-55700503D01*
X83319602Y-55700510D01*
X83269308Y-55835356D01*
X83263189Y-55892278D01*
X83262901Y-55894962D01*
X83262900Y-55894974D01*
X81833215Y-55894974D01*
X81787026Y-46851776D01*
X81787249Y-46843707D01*
X81803309Y-46578134D01*
X81805114Y-46563275D01*
X81852462Y-46304889D01*
X81856041Y-46290370D01*
X81934191Y-46039563D01*
X81939500Y-46025567D01*
X82047298Y-45786045D01*
X82047308Y-45786022D01*
X82054261Y-45772775D01*
X82190167Y-45547952D01*
X82198648Y-45535664D01*
X82360671Y-45328854D01*
X82370578Y-45317671D01*
X82556344Y-45131902D01*
X82567535Y-45121988D01*
X82774333Y-44959971D01*
X82786634Y-44951481D01*
X83011448Y-44815574D01*
X83024684Y-44808626D01*
X83264252Y-44700805D01*
X83278234Y-44695503D01*
X83529035Y-44617349D01*
X83543552Y-44613770D01*
X83801948Y-44566417D01*
X83816805Y-44564613D01*
X84082119Y-44548565D01*
X84089606Y-44548339D01*
X84152392Y-44548339D01*
X91869953Y-44548339D01*
X91936992Y-44568024D01*
G37*
%TD.AperFunction*%
%TA.AperFunction,Conductor*%
G36*
X112295000Y-103100500D02*
G01*
X112322259Y-103202233D01*
X112374920Y-103293445D01*
X112449394Y-103367919D01*
X112540606Y-103420580D01*
X112642339Y-103447839D01*
X112648554Y-103447839D01*
X111825893Y-104270497D01*
X111827448Y-104290244D01*
X111813084Y-104358622D01*
X111776717Y-104400290D01*
X111717490Y-104443321D01*
X111550485Y-104610326D01*
X111550485Y-104610327D01*
X111550483Y-104610329D01*
X111490862Y-104692389D01*
X111411657Y-104801405D01*
X111402368Y-104819636D01*
X111354392Y-104870431D01*
X111291884Y-104887339D01*
X110143165Y-104887339D01*
X110007838Y-104914257D01*
X110007828Y-104914260D01*
X109880353Y-104967061D01*
X109765615Y-105043726D01*
X109765614Y-105043727D01*
X106462181Y-108347161D01*
X106442744Y-108357773D01*
X106426011Y-108372274D01*
X106412679Y-108374190D01*
X106400858Y-108380646D01*
X106378771Y-108379066D01*
X106356853Y-108382218D01*
X106344601Y-108376622D01*
X106331166Y-108375662D01*
X106313439Y-108362391D01*
X106293297Y-108353193D01*
X106286014Y-108341861D01*
X106275233Y-108333790D01*
X106267495Y-108313044D01*
X106255523Y-108294415D01*
X106252371Y-108272496D01*
X106250816Y-108268326D01*
X106250500Y-108259480D01*
X106250500Y-108120807D01*
X106270185Y-108053768D01*
X106286819Y-108033126D01*
X108614014Y-105705931D01*
X111017319Y-103302625D01*
X111078640Y-103269142D01*
X111148332Y-103274126D01*
X111204265Y-103315998D01*
X111227471Y-103370908D01*
X111231934Y-103399088D01*
X111304897Y-103623641D01*
X111412087Y-103834013D01*
X111472338Y-103916943D01*
X111472340Y-103916944D01*
X112295000Y-103094284D01*
X112295000Y-103100500D01*
G37*
%TD.AperFunction*%
%TD*%
M02*
