%TF.GenerationSoftware,KiCad,Pcbnew,9.0.7*%
%TF.CreationDate,2026-02-10T09:52:47-05:00*%
%TF.ProjectId,pcb,7063622e-6b69-4636-9164-5f7063625858,rev?*%
%TF.SameCoordinates,Original*%
%TF.FileFunction,Legend,Bot*%
%TF.FilePolarity,Positive*%
%FSLAX46Y46*%
G04 Gerber Fmt 4.6, Leading zero omitted, Abs format (unit mm)*
G04 Created by KiCad (PCBNEW 9.0.7) date 2026-02-10 09:52:47*
%MOMM*%
%LPD*%
G01*
G04 APERTURE LIST*
%ADD10C,0.508000*%
%ADD11C,0.120000*%
G04 APERTURE END LIST*
D10*
%TO.C,J3*%
X96603400Y-78395000D02*
G75*
G02*
X95841400Y-78395000I-381000J0D01*
G01*
X95841400Y-78395000D02*
G75*
G02*
X96603400Y-78395000I381000J0D01*
G01*
%TO.C,J2*%
X111319400Y-78395000D02*
G75*
G02*
X110557400Y-78395000I-381000J0D01*
G01*
X110557400Y-78395000D02*
G75*
G02*
X111319400Y-78395000I381000J0D01*
G01*
%TO.C,J4*%
X81887400Y-78395000D02*
G75*
G02*
X81125400Y-78395000I-381000J0D01*
G01*
X81125400Y-78395000D02*
G75*
G02*
X81887400Y-78395000I381000J0D01*
G01*
D11*
%TO.C,power2*%
X108243100Y-132095000D02*
X111003100Y-132095000D01*
X108243100Y-149985000D02*
X108243100Y-132095000D01*
X108243100Y-149985000D02*
X111003100Y-149985000D01*
X108243100Y-151255000D02*
X108243100Y-152635000D01*
X108243100Y-152635000D02*
X109623100Y-152635000D01*
X111003100Y-149985000D02*
X111003100Y-132095000D01*
%TO.C,analogA0-A7*%
X108243100Y-109095000D02*
X111003100Y-109095000D01*
X108243100Y-126985000D02*
X108243100Y-109095000D01*
X108243100Y-126985000D02*
X111003100Y-126985000D01*
X108243100Y-128255000D02*
X108243100Y-129635000D01*
X108243100Y-129635000D02*
X109623100Y-129635000D01*
X111003100Y-126985000D02*
X111003100Y-109095000D01*
%TO.C,comm1*%
X60943100Y-91215000D02*
X63703100Y-91215000D01*
X60943100Y-109105000D02*
X60943100Y-91215000D01*
X60943100Y-109105000D02*
X63703100Y-109105000D01*
X60943100Y-110375000D02*
X60943100Y-111755000D01*
X60943100Y-111755000D02*
X62323100Y-111755000D01*
X63703100Y-109105000D02*
X63703100Y-91215000D01*
%TO.C,analogA8-A15*%
X108273100Y-86195000D02*
X111033100Y-86195000D01*
X108273100Y-104085000D02*
X108273100Y-86195000D01*
X108273100Y-104085000D02*
X111033100Y-104085000D01*
X108273100Y-105355000D02*
X108273100Y-106735000D01*
X108273100Y-106735000D02*
X109653100Y-106735000D01*
X111033100Y-104085000D02*
X111033100Y-86195000D01*
%TO.C,pwm1*%
X60943100Y-136125000D02*
X63703100Y-136125000D01*
X60943100Y-159095000D02*
X60943100Y-136125000D01*
X60943100Y-159095000D02*
X63703100Y-159095000D01*
X60943100Y-160365000D02*
X60943100Y-161745000D01*
X60943100Y-161745000D02*
X62323100Y-161745000D01*
X63703100Y-159095000D02*
X63703100Y-136125000D01*
%TO.C,pwm2*%
X60943100Y-114215000D02*
X63703100Y-114215000D01*
X60943100Y-132105000D02*
X60943100Y-114215000D01*
X60943100Y-132105000D02*
X63703100Y-132105000D01*
X60943100Y-133375000D02*
X60943100Y-134755000D01*
X60943100Y-134755000D02*
X62323100Y-134755000D01*
X63703100Y-132105000D02*
X63703100Y-114215000D01*
%TD*%
M02*
