%TF.GenerationSoftware,KiCad,Pcbnew,9.0.7*%
%TF.CreationDate,2026-02-10T09:52:47-05:00*%
%TF.ProjectId,pcb,7063622e-6b69-4636-9164-5f7063625858,rev?*%
%TF.SameCoordinates,Original*%
%TF.FileFunction,Legend,Top*%
%TF.FilePolarity,Positive*%
%FSLAX46Y46*%
G04 Gerber Fmt 4.6, Leading zero omitted, Abs format (unit mm)*
G04 Created by KiCad (PCBNEW 9.0.7) date 2026-02-10 09:52:47*
%MOMM*%
%LPD*%
G01*
G04 APERTURE LIST*
%ADD10C,0.152400*%
%ADD11C,0.304800*%
%ADD12C,0.150000*%
%ADD13C,0.101600*%
%ADD14C,0.100000*%
%ADD15C,0.098425*%
%ADD16C,0.120000*%
%ADD17C,0.127000*%
%ADD18C,0.508000*%
%ADD19C,0.200000*%
G04 APERTURE END LIST*
D10*
X107523142Y-128375000D02*
X107523142Y-87575000D01*
X64423142Y-115575000D02*
X64423142Y-160375000D01*
X64323142Y-110375000D02*
X64323142Y-92475000D01*
X107623142Y-151175000D02*
X107623142Y-133475000D01*
D11*
X65698072Y-93291526D02*
X65625500Y-93146383D01*
X65625500Y-93146383D02*
X65625500Y-92856097D01*
X65625500Y-92856097D02*
X65698072Y-92710954D01*
X65698072Y-92710954D02*
X65770643Y-92638383D01*
X65770643Y-92638383D02*
X65915786Y-92565811D01*
X65915786Y-92565811D02*
X66351214Y-92565811D01*
X66351214Y-92565811D02*
X66496357Y-92638383D01*
X66496357Y-92638383D02*
X66568929Y-92710954D01*
X66568929Y-92710954D02*
X66641500Y-92856097D01*
X66641500Y-92856097D02*
X66641500Y-93146383D01*
X66641500Y-93146383D02*
X66568929Y-93291526D01*
X65625500Y-94162383D02*
X65698072Y-94017240D01*
X65698072Y-94017240D02*
X65770643Y-93944669D01*
X65770643Y-93944669D02*
X65915786Y-93872097D01*
X65915786Y-93872097D02*
X66351214Y-93872097D01*
X66351214Y-93872097D02*
X66496357Y-93944669D01*
X66496357Y-93944669D02*
X66568929Y-94017240D01*
X66568929Y-94017240D02*
X66641500Y-94162383D01*
X66641500Y-94162383D02*
X66641500Y-94380097D01*
X66641500Y-94380097D02*
X66568929Y-94525240D01*
X66568929Y-94525240D02*
X66496357Y-94597812D01*
X66496357Y-94597812D02*
X66351214Y-94670383D01*
X66351214Y-94670383D02*
X65915786Y-94670383D01*
X65915786Y-94670383D02*
X65770643Y-94597812D01*
X65770643Y-94597812D02*
X65698072Y-94525240D01*
X65698072Y-94525240D02*
X65625500Y-94380097D01*
X65625500Y-94380097D02*
X65625500Y-94162383D01*
X65625500Y-95323526D02*
X66641500Y-95323526D01*
X66496357Y-95323526D02*
X66568929Y-95396097D01*
X66568929Y-95396097D02*
X66641500Y-95541240D01*
X66641500Y-95541240D02*
X66641500Y-95758954D01*
X66641500Y-95758954D02*
X66568929Y-95904097D01*
X66568929Y-95904097D02*
X66423786Y-95976669D01*
X66423786Y-95976669D02*
X65625500Y-95976669D01*
X66423786Y-95976669D02*
X66568929Y-96049240D01*
X66568929Y-96049240D02*
X66641500Y-96194383D01*
X66641500Y-96194383D02*
X66641500Y-96412097D01*
X66641500Y-96412097D02*
X66568929Y-96557240D01*
X66568929Y-96557240D02*
X66423786Y-96629811D01*
X66423786Y-96629811D02*
X65625500Y-96629811D01*
X65625500Y-97355526D02*
X66641500Y-97355526D01*
X66496357Y-97355526D02*
X66568929Y-97428097D01*
X66568929Y-97428097D02*
X66641500Y-97573240D01*
X66641500Y-97573240D02*
X66641500Y-97790954D01*
X66641500Y-97790954D02*
X66568929Y-97936097D01*
X66568929Y-97936097D02*
X66423786Y-98008669D01*
X66423786Y-98008669D02*
X65625500Y-98008669D01*
X66423786Y-98008669D02*
X66568929Y-98081240D01*
X66568929Y-98081240D02*
X66641500Y-98226383D01*
X66641500Y-98226383D02*
X66641500Y-98444097D01*
X66641500Y-98444097D02*
X66568929Y-98589240D01*
X66568929Y-98589240D02*
X66423786Y-98661811D01*
X66423786Y-98661811D02*
X65625500Y-98661811D01*
X66641500Y-100040669D02*
X65625500Y-100040669D01*
X66641500Y-99387526D02*
X65843214Y-99387526D01*
X65843214Y-99387526D02*
X65698072Y-99460097D01*
X65698072Y-99460097D02*
X65625500Y-99605240D01*
X65625500Y-99605240D02*
X65625500Y-99822954D01*
X65625500Y-99822954D02*
X65698072Y-99968097D01*
X65698072Y-99968097D02*
X65770643Y-100040669D01*
X66641500Y-100766383D02*
X65625500Y-100766383D01*
X66496357Y-100766383D02*
X66568929Y-100838954D01*
X66568929Y-100838954D02*
X66641500Y-100984097D01*
X66641500Y-100984097D02*
X66641500Y-101201811D01*
X66641500Y-101201811D02*
X66568929Y-101346954D01*
X66568929Y-101346954D02*
X66423786Y-101419526D01*
X66423786Y-101419526D02*
X65625500Y-101419526D01*
X65625500Y-102145240D02*
X66641500Y-102145240D01*
X67149500Y-102145240D02*
X67076929Y-102072668D01*
X67076929Y-102072668D02*
X67004357Y-102145240D01*
X67004357Y-102145240D02*
X67076929Y-102217811D01*
X67076929Y-102217811D02*
X67149500Y-102145240D01*
X67149500Y-102145240D02*
X67004357Y-102145240D01*
X65698072Y-103524097D02*
X65625500Y-103378954D01*
X65625500Y-103378954D02*
X65625500Y-103088668D01*
X65625500Y-103088668D02*
X65698072Y-102943525D01*
X65698072Y-102943525D02*
X65770643Y-102870954D01*
X65770643Y-102870954D02*
X65915786Y-102798382D01*
X65915786Y-102798382D02*
X66351214Y-102798382D01*
X66351214Y-102798382D02*
X66496357Y-102870954D01*
X66496357Y-102870954D02*
X66568929Y-102943525D01*
X66568929Y-102943525D02*
X66641500Y-103088668D01*
X66641500Y-103088668D02*
X66641500Y-103378954D01*
X66641500Y-103378954D02*
X66568929Y-103524097D01*
X65625500Y-104830383D02*
X66423786Y-104830383D01*
X66423786Y-104830383D02*
X66568929Y-104757811D01*
X66568929Y-104757811D02*
X66641500Y-104612668D01*
X66641500Y-104612668D02*
X66641500Y-104322383D01*
X66641500Y-104322383D02*
X66568929Y-104177240D01*
X65698072Y-104830383D02*
X65625500Y-104685240D01*
X65625500Y-104685240D02*
X65625500Y-104322383D01*
X65625500Y-104322383D02*
X65698072Y-104177240D01*
X65698072Y-104177240D02*
X65843214Y-104104668D01*
X65843214Y-104104668D02*
X65988357Y-104104668D01*
X65988357Y-104104668D02*
X66133500Y-104177240D01*
X66133500Y-104177240D02*
X66206072Y-104322383D01*
X66206072Y-104322383D02*
X66206072Y-104685240D01*
X66206072Y-104685240D02*
X66278643Y-104830383D01*
X66641500Y-105338382D02*
X66641500Y-105918954D01*
X67149500Y-105556097D02*
X65843214Y-105556097D01*
X65843214Y-105556097D02*
X65698072Y-105628668D01*
X65698072Y-105628668D02*
X65625500Y-105773811D01*
X65625500Y-105773811D02*
X65625500Y-105918954D01*
X65625500Y-106426954D02*
X66641500Y-106426954D01*
X67149500Y-106426954D02*
X67076929Y-106354382D01*
X67076929Y-106354382D02*
X67004357Y-106426954D01*
X67004357Y-106426954D02*
X67076929Y-106499525D01*
X67076929Y-106499525D02*
X67149500Y-106426954D01*
X67149500Y-106426954D02*
X67004357Y-106426954D01*
X65625500Y-107370382D02*
X65698072Y-107225239D01*
X65698072Y-107225239D02*
X65770643Y-107152668D01*
X65770643Y-107152668D02*
X65915786Y-107080096D01*
X65915786Y-107080096D02*
X66351214Y-107080096D01*
X66351214Y-107080096D02*
X66496357Y-107152668D01*
X66496357Y-107152668D02*
X66568929Y-107225239D01*
X66568929Y-107225239D02*
X66641500Y-107370382D01*
X66641500Y-107370382D02*
X66641500Y-107588096D01*
X66641500Y-107588096D02*
X66568929Y-107733239D01*
X66568929Y-107733239D02*
X66496357Y-107805811D01*
X66496357Y-107805811D02*
X66351214Y-107878382D01*
X66351214Y-107878382D02*
X65915786Y-107878382D01*
X65915786Y-107878382D02*
X65770643Y-107805811D01*
X65770643Y-107805811D02*
X65698072Y-107733239D01*
X65698072Y-107733239D02*
X65625500Y-107588096D01*
X65625500Y-107588096D02*
X65625500Y-107370382D01*
X66641500Y-108531525D02*
X65625500Y-108531525D01*
X66496357Y-108531525D02*
X66568929Y-108604096D01*
X66568929Y-108604096D02*
X66641500Y-108749239D01*
X66641500Y-108749239D02*
X66641500Y-108966953D01*
X66641500Y-108966953D02*
X66568929Y-109112096D01*
X66568929Y-109112096D02*
X66423786Y-109184668D01*
X66423786Y-109184668D02*
X65625500Y-109184668D01*
D10*
X103543786Y-49477965D02*
X104163063Y-49477965D01*
X103853424Y-49787603D02*
X103853424Y-49168327D01*
X104666225Y-49323146D02*
X104588815Y-49284441D01*
X104588815Y-49284441D02*
X104550110Y-49245737D01*
X104550110Y-49245737D02*
X104511406Y-49168327D01*
X104511406Y-49168327D02*
X104511406Y-49129622D01*
X104511406Y-49129622D02*
X104550110Y-49052213D01*
X104550110Y-49052213D02*
X104588815Y-49013508D01*
X104588815Y-49013508D02*
X104666225Y-48974803D01*
X104666225Y-48974803D02*
X104821044Y-48974803D01*
X104821044Y-48974803D02*
X104898453Y-49013508D01*
X104898453Y-49013508D02*
X104937158Y-49052213D01*
X104937158Y-49052213D02*
X104975863Y-49129622D01*
X104975863Y-49129622D02*
X104975863Y-49168327D01*
X104975863Y-49168327D02*
X104937158Y-49245737D01*
X104937158Y-49245737D02*
X104898453Y-49284441D01*
X104898453Y-49284441D02*
X104821044Y-49323146D01*
X104821044Y-49323146D02*
X104666225Y-49323146D01*
X104666225Y-49323146D02*
X104588815Y-49361851D01*
X104588815Y-49361851D02*
X104550110Y-49400556D01*
X104550110Y-49400556D02*
X104511406Y-49477965D01*
X104511406Y-49477965D02*
X104511406Y-49632784D01*
X104511406Y-49632784D02*
X104550110Y-49710194D01*
X104550110Y-49710194D02*
X104588815Y-49748899D01*
X104588815Y-49748899D02*
X104666225Y-49787603D01*
X104666225Y-49787603D02*
X104821044Y-49787603D01*
X104821044Y-49787603D02*
X104898453Y-49748899D01*
X104898453Y-49748899D02*
X104937158Y-49710194D01*
X104937158Y-49710194D02*
X104975863Y-49632784D01*
X104975863Y-49632784D02*
X104975863Y-49477965D01*
X104975863Y-49477965D02*
X104937158Y-49400556D01*
X104937158Y-49400556D02*
X104898453Y-49361851D01*
X104898453Y-49361851D02*
X104821044Y-49323146D01*
X105208091Y-48974803D02*
X105479024Y-49787603D01*
X105479024Y-49787603D02*
X105749958Y-48974803D01*
D11*
X105204783Y-150911616D02*
X106728783Y-150911616D01*
X105277354Y-150911616D02*
X105204783Y-150766474D01*
X105204783Y-150766474D02*
X105204783Y-150476188D01*
X105204783Y-150476188D02*
X105277354Y-150331045D01*
X105277354Y-150331045D02*
X105349926Y-150258474D01*
X105349926Y-150258474D02*
X105495069Y-150185902D01*
X105495069Y-150185902D02*
X105930497Y-150185902D01*
X105930497Y-150185902D02*
X106075640Y-150258474D01*
X106075640Y-150258474D02*
X106148212Y-150331045D01*
X106148212Y-150331045D02*
X106220783Y-150476188D01*
X106220783Y-150476188D02*
X106220783Y-150766474D01*
X106220783Y-150766474D02*
X106148212Y-150911616D01*
X106220783Y-149315045D02*
X106148212Y-149460188D01*
X106148212Y-149460188D02*
X106075640Y-149532759D01*
X106075640Y-149532759D02*
X105930497Y-149605331D01*
X105930497Y-149605331D02*
X105495069Y-149605331D01*
X105495069Y-149605331D02*
X105349926Y-149532759D01*
X105349926Y-149532759D02*
X105277354Y-149460188D01*
X105277354Y-149460188D02*
X105204783Y-149315045D01*
X105204783Y-149315045D02*
X105204783Y-149097331D01*
X105204783Y-149097331D02*
X105277354Y-148952188D01*
X105277354Y-148952188D02*
X105349926Y-148879617D01*
X105349926Y-148879617D02*
X105495069Y-148807045D01*
X105495069Y-148807045D02*
X105930497Y-148807045D01*
X105930497Y-148807045D02*
X106075640Y-148879617D01*
X106075640Y-148879617D02*
X106148212Y-148952188D01*
X106148212Y-148952188D02*
X106220783Y-149097331D01*
X106220783Y-149097331D02*
X106220783Y-149315045D01*
X105204783Y-148299045D02*
X106220783Y-148008760D01*
X106220783Y-148008760D02*
X105495069Y-147718474D01*
X105495069Y-147718474D02*
X106220783Y-147428188D01*
X106220783Y-147428188D02*
X105204783Y-147137902D01*
X106148212Y-145976760D02*
X106220783Y-146121903D01*
X106220783Y-146121903D02*
X106220783Y-146412189D01*
X106220783Y-146412189D02*
X106148212Y-146557331D01*
X106148212Y-146557331D02*
X106003069Y-146629903D01*
X106003069Y-146629903D02*
X105422497Y-146629903D01*
X105422497Y-146629903D02*
X105277354Y-146557331D01*
X105277354Y-146557331D02*
X105204783Y-146412189D01*
X105204783Y-146412189D02*
X105204783Y-146121903D01*
X105204783Y-146121903D02*
X105277354Y-145976760D01*
X105277354Y-145976760D02*
X105422497Y-145904189D01*
X105422497Y-145904189D02*
X105567640Y-145904189D01*
X105567640Y-145904189D02*
X105712783Y-146629903D01*
X106220783Y-145251045D02*
X105204783Y-145251045D01*
X105495069Y-145251045D02*
X105349926Y-145178474D01*
X105349926Y-145178474D02*
X105277354Y-145105903D01*
X105277354Y-145105903D02*
X105204783Y-144960760D01*
X105204783Y-144960760D02*
X105204783Y-144815617D01*
D12*
X90464286Y-160349819D02*
X91035714Y-160349819D01*
X90750000Y-161349819D02*
X90750000Y-160349819D01*
X91369048Y-161349819D02*
X91369048Y-160349819D01*
X91369048Y-160826009D02*
X91940476Y-160826009D01*
X91940476Y-161349819D02*
X91940476Y-160349819D01*
X92321429Y-160349819D02*
X92940476Y-160349819D01*
X92940476Y-160349819D02*
X92607143Y-160730771D01*
X92607143Y-160730771D02*
X92750000Y-160730771D01*
X92750000Y-160730771D02*
X92845238Y-160778390D01*
X92845238Y-160778390D02*
X92892857Y-160826009D01*
X92892857Y-160826009D02*
X92940476Y-160921247D01*
X92940476Y-160921247D02*
X92940476Y-161159342D01*
X92940476Y-161159342D02*
X92892857Y-161254580D01*
X92892857Y-161254580D02*
X92845238Y-161302200D01*
X92845238Y-161302200D02*
X92750000Y-161349819D01*
X92750000Y-161349819D02*
X92464286Y-161349819D01*
X92464286Y-161349819D02*
X92369048Y-161302200D01*
X92369048Y-161302200D02*
X92321429Y-161254580D01*
D11*
X106320783Y-127658474D02*
X105522497Y-127658474D01*
X105522497Y-127658474D02*
X105377354Y-127731045D01*
X105377354Y-127731045D02*
X105304783Y-127876188D01*
X105304783Y-127876188D02*
X105304783Y-128166474D01*
X105304783Y-128166474D02*
X105377354Y-128311616D01*
X106248212Y-127658474D02*
X106320783Y-127803616D01*
X106320783Y-127803616D02*
X106320783Y-128166474D01*
X106320783Y-128166474D02*
X106248212Y-128311616D01*
X106248212Y-128311616D02*
X106103069Y-128384188D01*
X106103069Y-128384188D02*
X105957926Y-128384188D01*
X105957926Y-128384188D02*
X105812783Y-128311616D01*
X105812783Y-128311616D02*
X105740212Y-128166474D01*
X105740212Y-128166474D02*
X105740212Y-127803616D01*
X105740212Y-127803616D02*
X105667640Y-127658474D01*
X105304783Y-126932759D02*
X106320783Y-126932759D01*
X105449926Y-126932759D02*
X105377354Y-126860188D01*
X105377354Y-126860188D02*
X105304783Y-126715045D01*
X105304783Y-126715045D02*
X105304783Y-126497331D01*
X105304783Y-126497331D02*
X105377354Y-126352188D01*
X105377354Y-126352188D02*
X105522497Y-126279617D01*
X105522497Y-126279617D02*
X106320783Y-126279617D01*
X106320783Y-124900760D02*
X105522497Y-124900760D01*
X105522497Y-124900760D02*
X105377354Y-124973331D01*
X105377354Y-124973331D02*
X105304783Y-125118474D01*
X105304783Y-125118474D02*
X105304783Y-125408760D01*
X105304783Y-125408760D02*
X105377354Y-125553902D01*
X106248212Y-124900760D02*
X106320783Y-125045902D01*
X106320783Y-125045902D02*
X106320783Y-125408760D01*
X106320783Y-125408760D02*
X106248212Y-125553902D01*
X106248212Y-125553902D02*
X106103069Y-125626474D01*
X106103069Y-125626474D02*
X105957926Y-125626474D01*
X105957926Y-125626474D02*
X105812783Y-125553902D01*
X105812783Y-125553902D02*
X105740212Y-125408760D01*
X105740212Y-125408760D02*
X105740212Y-125045902D01*
X105740212Y-125045902D02*
X105667640Y-124900760D01*
X106320783Y-123957331D02*
X106248212Y-124102474D01*
X106248212Y-124102474D02*
X106103069Y-124175045D01*
X106103069Y-124175045D02*
X104796783Y-124175045D01*
X106320783Y-123159045D02*
X106248212Y-123304188D01*
X106248212Y-123304188D02*
X106175640Y-123376759D01*
X106175640Y-123376759D02*
X106030497Y-123449331D01*
X106030497Y-123449331D02*
X105595069Y-123449331D01*
X105595069Y-123449331D02*
X105449926Y-123376759D01*
X105449926Y-123376759D02*
X105377354Y-123304188D01*
X105377354Y-123304188D02*
X105304783Y-123159045D01*
X105304783Y-123159045D02*
X105304783Y-122941331D01*
X105304783Y-122941331D02*
X105377354Y-122796188D01*
X105377354Y-122796188D02*
X105449926Y-122723617D01*
X105449926Y-122723617D02*
X105595069Y-122651045D01*
X105595069Y-122651045D02*
X106030497Y-122651045D01*
X106030497Y-122651045D02*
X106175640Y-122723617D01*
X106175640Y-122723617D02*
X106248212Y-122796188D01*
X106248212Y-122796188D02*
X106320783Y-122941331D01*
X106320783Y-122941331D02*
X106320783Y-123159045D01*
X105304783Y-121344760D02*
X106538497Y-121344760D01*
X106538497Y-121344760D02*
X106683640Y-121417331D01*
X106683640Y-121417331D02*
X106756212Y-121489902D01*
X106756212Y-121489902D02*
X106828783Y-121635045D01*
X106828783Y-121635045D02*
X106828783Y-121852760D01*
X106828783Y-121852760D02*
X106756212Y-121997902D01*
X106248212Y-121344760D02*
X106320783Y-121489902D01*
X106320783Y-121489902D02*
X106320783Y-121780188D01*
X106320783Y-121780188D02*
X106248212Y-121925331D01*
X106248212Y-121925331D02*
X106175640Y-121997902D01*
X106175640Y-121997902D02*
X106030497Y-122070474D01*
X106030497Y-122070474D02*
X105595069Y-122070474D01*
X105595069Y-122070474D02*
X105449926Y-121997902D01*
X105449926Y-121997902D02*
X105377354Y-121925331D01*
X105377354Y-121925331D02*
X105304783Y-121780188D01*
X105304783Y-121780188D02*
X105304783Y-121489902D01*
X105304783Y-121489902D02*
X105377354Y-121344760D01*
X106320783Y-119457902D02*
X105304783Y-119457902D01*
X104796783Y-119457902D02*
X104869354Y-119530474D01*
X104869354Y-119530474D02*
X104941926Y-119457902D01*
X104941926Y-119457902D02*
X104869354Y-119385331D01*
X104869354Y-119385331D02*
X104796783Y-119457902D01*
X104796783Y-119457902D02*
X104941926Y-119457902D01*
X105304783Y-118732188D02*
X106320783Y-118732188D01*
X105449926Y-118732188D02*
X105377354Y-118659617D01*
X105377354Y-118659617D02*
X105304783Y-118514474D01*
X105304783Y-118514474D02*
X105304783Y-118296760D01*
X105304783Y-118296760D02*
X105377354Y-118151617D01*
X105377354Y-118151617D02*
X105522497Y-118079046D01*
X105522497Y-118079046D02*
X106320783Y-118079046D01*
X66841500Y-115738383D02*
X65317500Y-115738383D01*
X66768929Y-115738383D02*
X66841500Y-115883526D01*
X66841500Y-115883526D02*
X66841500Y-116173811D01*
X66841500Y-116173811D02*
X66768929Y-116318954D01*
X66768929Y-116318954D02*
X66696357Y-116391526D01*
X66696357Y-116391526D02*
X66551214Y-116464097D01*
X66551214Y-116464097D02*
X66115786Y-116464097D01*
X66115786Y-116464097D02*
X65970643Y-116391526D01*
X65970643Y-116391526D02*
X65898072Y-116318954D01*
X65898072Y-116318954D02*
X65825500Y-116173811D01*
X65825500Y-116173811D02*
X65825500Y-115883526D01*
X65825500Y-115883526D02*
X65898072Y-115738383D01*
X66841500Y-116972097D02*
X65825500Y-117262383D01*
X65825500Y-117262383D02*
X66551214Y-117552668D01*
X66551214Y-117552668D02*
X65825500Y-117842954D01*
X65825500Y-117842954D02*
X66841500Y-118133240D01*
X65825500Y-118713811D02*
X66841500Y-118713811D01*
X66696357Y-118713811D02*
X66768929Y-118786382D01*
X66768929Y-118786382D02*
X66841500Y-118931525D01*
X66841500Y-118931525D02*
X66841500Y-119149239D01*
X66841500Y-119149239D02*
X66768929Y-119294382D01*
X66768929Y-119294382D02*
X66623786Y-119366954D01*
X66623786Y-119366954D02*
X65825500Y-119366954D01*
X66623786Y-119366954D02*
X66768929Y-119439525D01*
X66768929Y-119439525D02*
X66841500Y-119584668D01*
X66841500Y-119584668D02*
X66841500Y-119802382D01*
X66841500Y-119802382D02*
X66768929Y-119947525D01*
X66768929Y-119947525D02*
X66623786Y-120020096D01*
X66623786Y-120020096D02*
X65825500Y-120020096D01*
D10*
X74469539Y-49013508D02*
X74392129Y-48974803D01*
X74392129Y-48974803D02*
X74276015Y-48974803D01*
X74276015Y-48974803D02*
X74159901Y-49013508D01*
X74159901Y-49013508D02*
X74082491Y-49090918D01*
X74082491Y-49090918D02*
X74043786Y-49168327D01*
X74043786Y-49168327D02*
X74005082Y-49323146D01*
X74005082Y-49323146D02*
X74005082Y-49439260D01*
X74005082Y-49439260D02*
X74043786Y-49594079D01*
X74043786Y-49594079D02*
X74082491Y-49671489D01*
X74082491Y-49671489D02*
X74159901Y-49748899D01*
X74159901Y-49748899D02*
X74276015Y-49787603D01*
X74276015Y-49787603D02*
X74353424Y-49787603D01*
X74353424Y-49787603D02*
X74469539Y-49748899D01*
X74469539Y-49748899D02*
X74508243Y-49710194D01*
X74508243Y-49710194D02*
X74508243Y-49439260D01*
X74508243Y-49439260D02*
X74353424Y-49439260D01*
X74856586Y-49787603D02*
X74856586Y-48974803D01*
X74856586Y-48974803D02*
X75321043Y-49787603D01*
X75321043Y-49787603D02*
X75321043Y-48974803D01*
X75708091Y-49787603D02*
X75708091Y-48974803D01*
X75708091Y-48974803D02*
X75901615Y-48974803D01*
X75901615Y-48974803D02*
X76017729Y-49013508D01*
X76017729Y-49013508D02*
X76095139Y-49090918D01*
X76095139Y-49090918D02*
X76133844Y-49168327D01*
X76133844Y-49168327D02*
X76172548Y-49323146D01*
X76172548Y-49323146D02*
X76172548Y-49439260D01*
X76172548Y-49439260D02*
X76133844Y-49594079D01*
X76133844Y-49594079D02*
X76095139Y-49671489D01*
X76095139Y-49671489D02*
X76017729Y-49748899D01*
X76017729Y-49748899D02*
X75901615Y-49787603D01*
X75901615Y-49787603D02*
X75708091Y-49787603D01*
X88043786Y-49477965D02*
X88663063Y-49477965D01*
X88353424Y-49787603D02*
X88353424Y-49168327D01*
X89437158Y-48974803D02*
X89050110Y-48974803D01*
X89050110Y-48974803D02*
X89011406Y-49361851D01*
X89011406Y-49361851D02*
X89050110Y-49323146D01*
X89050110Y-49323146D02*
X89127520Y-49284441D01*
X89127520Y-49284441D02*
X89321044Y-49284441D01*
X89321044Y-49284441D02*
X89398453Y-49323146D01*
X89398453Y-49323146D02*
X89437158Y-49361851D01*
X89437158Y-49361851D02*
X89475863Y-49439260D01*
X89475863Y-49439260D02*
X89475863Y-49632784D01*
X89475863Y-49632784D02*
X89437158Y-49710194D01*
X89437158Y-49710194D02*
X89398453Y-49748899D01*
X89398453Y-49748899D02*
X89321044Y-49787603D01*
X89321044Y-49787603D02*
X89127520Y-49787603D01*
X89127520Y-49787603D02*
X89050110Y-49748899D01*
X89050110Y-49748899D02*
X89011406Y-49710194D01*
X89708091Y-48974803D02*
X89979024Y-49787603D01*
X89979024Y-49787603D02*
X90249958Y-48974803D01*
D13*
X62103378Y-90571738D02*
X62916178Y-90673338D01*
X62142082Y-90576577D02*
X62103378Y-90494329D01*
X62103378Y-90494329D02*
X62103378Y-90339510D01*
X62103378Y-90339510D02*
X62142082Y-90266938D01*
X62142082Y-90266938D02*
X62180787Y-90233072D01*
X62180787Y-90233072D02*
X62258197Y-90204043D01*
X62258197Y-90204043D02*
X62490425Y-90233072D01*
X62490425Y-90233072D02*
X62567835Y-90281453D01*
X62567835Y-90281453D02*
X62606540Y-90324996D01*
X62606540Y-90324996D02*
X62645244Y-90407243D01*
X62645244Y-90407243D02*
X62645244Y-90562062D01*
X62645244Y-90562062D02*
X62606540Y-90634634D01*
X62103378Y-89913758D02*
X62645244Y-89826672D01*
X62645244Y-89826672D02*
X62258197Y-89623472D01*
X62258197Y-89623472D02*
X62645244Y-89517034D01*
X62645244Y-89517034D02*
X62103378Y-89294482D01*
X62645244Y-89052577D02*
X62103378Y-88984843D01*
X62180787Y-88994520D02*
X62142082Y-88950977D01*
X62142082Y-88950977D02*
X62103378Y-88868729D01*
X62103378Y-88868729D02*
X62103378Y-88752615D01*
X62103378Y-88752615D02*
X62142082Y-88680043D01*
X62142082Y-88680043D02*
X62219492Y-88651015D01*
X62219492Y-88651015D02*
X62645244Y-88704234D01*
X62219492Y-88651015D02*
X62142082Y-88602634D01*
X62142082Y-88602634D02*
X62103378Y-88520386D01*
X62103378Y-88520386D02*
X62103378Y-88404272D01*
X62103378Y-88404272D02*
X62142082Y-88331701D01*
X62142082Y-88331701D02*
X62219492Y-88302672D01*
X62219492Y-88302672D02*
X62645244Y-88355891D01*
X61871149Y-86827054D02*
X61832444Y-86899625D01*
X61832444Y-86899625D02*
X61832444Y-87015739D01*
X61832444Y-87015739D02*
X61871149Y-87136692D01*
X61871149Y-87136692D02*
X61948559Y-87223777D01*
X61948559Y-87223777D02*
X62025968Y-87272158D01*
X62025968Y-87272158D02*
X62180787Y-87330215D01*
X62180787Y-87330215D02*
X62296901Y-87344730D01*
X62296901Y-87344730D02*
X62451720Y-87325377D01*
X62451720Y-87325377D02*
X62529130Y-87296349D01*
X62529130Y-87296349D02*
X62606540Y-87228615D01*
X62606540Y-87228615D02*
X62645244Y-87117339D01*
X62645244Y-87117339D02*
X62645244Y-87039930D01*
X62645244Y-87039930D02*
X62606540Y-86918977D01*
X62606540Y-86918977D02*
X62567835Y-86875434D01*
X62567835Y-86875434D02*
X62296901Y-86841568D01*
X62296901Y-86841568D02*
X62296901Y-86996387D01*
X62606540Y-86493225D02*
X62645244Y-86498063D01*
X62645244Y-86498063D02*
X62722654Y-86546444D01*
X62722654Y-86546444D02*
X62761359Y-86589987D01*
X62103378Y-85462710D02*
X62916178Y-85564310D01*
X62142082Y-85467549D02*
X62103378Y-85385301D01*
X62103378Y-85385301D02*
X62103378Y-85230482D01*
X62103378Y-85230482D02*
X62142082Y-85157910D01*
X62142082Y-85157910D02*
X62180787Y-85124044D01*
X62180787Y-85124044D02*
X62258197Y-85095015D01*
X62258197Y-85095015D02*
X62490425Y-85124044D01*
X62490425Y-85124044D02*
X62567835Y-85172425D01*
X62567835Y-85172425D02*
X62606540Y-85215968D01*
X62606540Y-85215968D02*
X62645244Y-85298215D01*
X62645244Y-85298215D02*
X62645244Y-85453034D01*
X62645244Y-85453034D02*
X62606540Y-85525606D01*
X62103378Y-84804730D02*
X62645244Y-84717644D01*
X62645244Y-84717644D02*
X62258197Y-84514444D01*
X62258197Y-84514444D02*
X62645244Y-84408006D01*
X62645244Y-84408006D02*
X62103378Y-84185454D01*
X62645244Y-83943549D02*
X62103378Y-83875815D01*
X62180787Y-83885492D02*
X62142082Y-83841949D01*
X62142082Y-83841949D02*
X62103378Y-83759701D01*
X62103378Y-83759701D02*
X62103378Y-83643587D01*
X62103378Y-83643587D02*
X62142082Y-83571015D01*
X62142082Y-83571015D02*
X62219492Y-83541987D01*
X62219492Y-83541987D02*
X62645244Y-83595206D01*
X62219492Y-83541987D02*
X62142082Y-83493606D01*
X62142082Y-83493606D02*
X62103378Y-83411358D01*
X62103378Y-83411358D02*
X62103378Y-83295244D01*
X62103378Y-83295244D02*
X62142082Y-83222673D01*
X62142082Y-83222673D02*
X62219492Y-83193644D01*
X62219492Y-83193644D02*
X62645244Y-83246863D01*
X62645244Y-82240540D02*
X61832444Y-82138940D01*
X61832444Y-82138940D02*
X61832444Y-81945416D01*
X61832444Y-81945416D02*
X61871149Y-81834140D01*
X61871149Y-81834140D02*
X61948559Y-81766406D01*
X61948559Y-81766406D02*
X62025968Y-81737378D01*
X62025968Y-81737378D02*
X62180787Y-81718026D01*
X62180787Y-81718026D02*
X62296901Y-81732540D01*
X62296901Y-81732540D02*
X62451720Y-81790597D01*
X62451720Y-81790597D02*
X62529130Y-81838978D01*
X62529130Y-81838978D02*
X62606540Y-81926064D01*
X62606540Y-81926064D02*
X62645244Y-82047016D01*
X62645244Y-82047016D02*
X62645244Y-82240540D01*
X62606540Y-81384197D02*
X62645244Y-81389035D01*
X62645244Y-81389035D02*
X62722654Y-81437416D01*
X62722654Y-81437416D02*
X62761359Y-81480959D01*
X62335606Y-81001987D02*
X62335606Y-80382711D01*
X62645244Y-80731054D02*
X62025968Y-80653644D01*
X62180787Y-79860196D02*
X62142082Y-79932768D01*
X62142082Y-79932768D02*
X62103378Y-79966634D01*
X62103378Y-79966634D02*
X62025968Y-79995663D01*
X62025968Y-79995663D02*
X61987263Y-79990825D01*
X61987263Y-79990825D02*
X61909854Y-79942444D01*
X61909854Y-79942444D02*
X61871149Y-79898901D01*
X61871149Y-79898901D02*
X61832444Y-79816654D01*
X61832444Y-79816654D02*
X61832444Y-79661834D01*
X61832444Y-79661834D02*
X61871149Y-79589263D01*
X61871149Y-79589263D02*
X61909854Y-79555396D01*
X61909854Y-79555396D02*
X61987263Y-79526368D01*
X61987263Y-79526368D02*
X62025968Y-79531206D01*
X62025968Y-79531206D02*
X62103378Y-79579587D01*
X62103378Y-79579587D02*
X62142082Y-79623130D01*
X62142082Y-79623130D02*
X62180787Y-79705377D01*
X62180787Y-79705377D02*
X62180787Y-79860196D01*
X62180787Y-79860196D02*
X62219492Y-79942444D01*
X62219492Y-79942444D02*
X62258197Y-79985987D01*
X62258197Y-79985987D02*
X62335606Y-80034368D01*
X62335606Y-80034368D02*
X62490425Y-80053720D01*
X62490425Y-80053720D02*
X62567835Y-80024692D01*
X62567835Y-80024692D02*
X62606540Y-79990825D01*
X62606540Y-79990825D02*
X62645244Y-79918254D01*
X62645244Y-79918254D02*
X62645244Y-79763434D01*
X62645244Y-79763434D02*
X62606540Y-79681187D01*
X62606540Y-79681187D02*
X62567835Y-79637644D01*
X62567835Y-79637644D02*
X62490425Y-79589263D01*
X62490425Y-79589263D02*
X62335606Y-79569911D01*
X62335606Y-79569911D02*
X62258197Y-79598939D01*
X62258197Y-79598939D02*
X62219492Y-79632806D01*
X62219492Y-79632806D02*
X62180787Y-79705377D01*
X61832444Y-79274787D02*
X62645244Y-79105454D01*
X62645244Y-79105454D02*
X61832444Y-78732920D01*
X62606540Y-78520044D02*
X62645244Y-78524882D01*
X62645244Y-78524882D02*
X62722654Y-78573263D01*
X62722654Y-78573263D02*
X62761359Y-78616806D01*
X62335606Y-77518558D02*
X62335606Y-76899282D01*
X62645244Y-77247625D02*
X62025968Y-77170215D01*
X61832444Y-76062291D02*
X61832444Y-76449339D01*
X61832444Y-76449339D02*
X62219492Y-76536425D01*
X62219492Y-76536425D02*
X62180787Y-76492882D01*
X62180787Y-76492882D02*
X62142082Y-76410634D01*
X62142082Y-76410634D02*
X62142082Y-76217110D01*
X62142082Y-76217110D02*
X62180787Y-76144539D01*
X62180787Y-76144539D02*
X62219492Y-76110672D01*
X62219492Y-76110672D02*
X62296901Y-76081644D01*
X62296901Y-76081644D02*
X62490425Y-76105834D01*
X62490425Y-76105834D02*
X62567835Y-76154215D01*
X62567835Y-76154215D02*
X62606540Y-76197758D01*
X62606540Y-76197758D02*
X62645244Y-76280005D01*
X62645244Y-76280005D02*
X62645244Y-76473529D01*
X62645244Y-76473529D02*
X62606540Y-76546101D01*
X62606540Y-76546101D02*
X62567835Y-76579967D01*
X61832444Y-75791358D02*
X62645244Y-75622025D01*
X62645244Y-75622025D02*
X61832444Y-75249491D01*
X62606540Y-75036615D02*
X62645244Y-75041453D01*
X62645244Y-75041453D02*
X62722654Y-75089834D01*
X62722654Y-75089834D02*
X62761359Y-75133377D01*
X61871149Y-73551320D02*
X61832444Y-73623891D01*
X61832444Y-73623891D02*
X61832444Y-73740005D01*
X61832444Y-73740005D02*
X61871149Y-73860958D01*
X61871149Y-73860958D02*
X61948559Y-73948043D01*
X61948559Y-73948043D02*
X62025968Y-73996424D01*
X62025968Y-73996424D02*
X62180787Y-74054481D01*
X62180787Y-74054481D02*
X62296901Y-74068996D01*
X62296901Y-74068996D02*
X62451720Y-74049643D01*
X62451720Y-74049643D02*
X62529130Y-74020615D01*
X62529130Y-74020615D02*
X62606540Y-73952881D01*
X62606540Y-73952881D02*
X62645244Y-73841605D01*
X62645244Y-73841605D02*
X62645244Y-73764196D01*
X62645244Y-73764196D02*
X62606540Y-73643243D01*
X62606540Y-73643243D02*
X62567835Y-73599700D01*
X62567835Y-73599700D02*
X62296901Y-73565834D01*
X62296901Y-73565834D02*
X62296901Y-73720653D01*
X62645244Y-73261034D02*
X61832444Y-73159434D01*
X61832444Y-73159434D02*
X62645244Y-72796577D01*
X62645244Y-72796577D02*
X61832444Y-72694977D01*
X62645244Y-72409529D02*
X61832444Y-72307929D01*
X61832444Y-72307929D02*
X61832444Y-72114405D01*
X61832444Y-72114405D02*
X61871149Y-72003129D01*
X61871149Y-72003129D02*
X61948559Y-71935395D01*
X61948559Y-71935395D02*
X62025968Y-71906367D01*
X62025968Y-71906367D02*
X62180787Y-71887015D01*
X62180787Y-71887015D02*
X62296901Y-71901529D01*
X62296901Y-71901529D02*
X62451720Y-71959586D01*
X62451720Y-71959586D02*
X62529130Y-72007967D01*
X62529130Y-72007967D02*
X62606540Y-72095053D01*
X62606540Y-72095053D02*
X62645244Y-72216005D01*
X62645244Y-72216005D02*
X62645244Y-72409529D01*
D12*
X79614286Y-160349819D02*
X80185714Y-160349819D01*
X79900000Y-161349819D02*
X79900000Y-160349819D01*
X80519048Y-161349819D02*
X80519048Y-160349819D01*
X80519048Y-160826009D02*
X81090476Y-160826009D01*
X81090476Y-161349819D02*
X81090476Y-160349819D01*
X81519048Y-160445057D02*
X81566667Y-160397438D01*
X81566667Y-160397438D02*
X81661905Y-160349819D01*
X81661905Y-160349819D02*
X81900000Y-160349819D01*
X81900000Y-160349819D02*
X81995238Y-160397438D01*
X81995238Y-160397438D02*
X82042857Y-160445057D01*
X82042857Y-160445057D02*
X82090476Y-160540295D01*
X82090476Y-160540295D02*
X82090476Y-160635533D01*
X82090476Y-160635533D02*
X82042857Y-160778390D01*
X82042857Y-160778390D02*
X81471429Y-161349819D01*
X81471429Y-161349819D02*
X82090476Y-161349819D01*
D14*
X71654761Y-136852419D02*
X71321428Y-136376228D01*
X71083333Y-136852419D02*
X71083333Y-135852419D01*
X71083333Y-135852419D02*
X71464285Y-135852419D01*
X71464285Y-135852419D02*
X71559523Y-135900038D01*
X71559523Y-135900038D02*
X71607142Y-135947657D01*
X71607142Y-135947657D02*
X71654761Y-136042895D01*
X71654761Y-136042895D02*
X71654761Y-136185752D01*
X71654761Y-136185752D02*
X71607142Y-136280990D01*
X71607142Y-136280990D02*
X71559523Y-136328609D01*
X71559523Y-136328609D02*
X71464285Y-136376228D01*
X71464285Y-136376228D02*
X71083333Y-136376228D01*
X71940476Y-135852419D02*
X72273809Y-136852419D01*
X72273809Y-136852419D02*
X72607142Y-135852419D01*
X72845238Y-135852419D02*
X73464285Y-135852419D01*
X73464285Y-135852419D02*
X73130952Y-136233371D01*
X73130952Y-136233371D02*
X73273809Y-136233371D01*
X73273809Y-136233371D02*
X73369047Y-136280990D01*
X73369047Y-136280990D02*
X73416666Y-136328609D01*
X73416666Y-136328609D02*
X73464285Y-136423847D01*
X73464285Y-136423847D02*
X73464285Y-136661942D01*
X73464285Y-136661942D02*
X73416666Y-136757180D01*
X73416666Y-136757180D02*
X73369047Y-136804800D01*
X73369047Y-136804800D02*
X73273809Y-136852419D01*
X73273809Y-136852419D02*
X72988095Y-136852419D01*
X72988095Y-136852419D02*
X72892857Y-136804800D01*
X72892857Y-136804800D02*
X72845238Y-136757180D01*
D15*
X103094383Y-125032014D02*
X102963149Y-124844538D01*
X102869411Y-125032014D02*
X102869411Y-124638313D01*
X102869411Y-124638313D02*
X103019392Y-124638313D01*
X103019392Y-124638313D02*
X103056888Y-124657061D01*
X103056888Y-124657061D02*
X103075635Y-124675809D01*
X103075635Y-124675809D02*
X103094383Y-124713304D01*
X103094383Y-124713304D02*
X103094383Y-124769547D01*
X103094383Y-124769547D02*
X103075635Y-124807042D01*
X103075635Y-124807042D02*
X103056888Y-124825790D01*
X103056888Y-124825790D02*
X103019392Y-124844538D01*
X103019392Y-124844538D02*
X102869411Y-124844538D01*
X103431841Y-124638313D02*
X103356850Y-124638313D01*
X103356850Y-124638313D02*
X103319355Y-124657061D01*
X103319355Y-124657061D02*
X103300607Y-124675809D01*
X103300607Y-124675809D02*
X103263112Y-124732052D01*
X103263112Y-124732052D02*
X103244364Y-124807042D01*
X103244364Y-124807042D02*
X103244364Y-124957024D01*
X103244364Y-124957024D02*
X103263112Y-124994519D01*
X103263112Y-124994519D02*
X103281860Y-125013267D01*
X103281860Y-125013267D02*
X103319355Y-125032014D01*
X103319355Y-125032014D02*
X103394346Y-125032014D01*
X103394346Y-125032014D02*
X103431841Y-125013267D01*
X103431841Y-125013267D02*
X103450589Y-124994519D01*
X103450589Y-124994519D02*
X103469336Y-124957024D01*
X103469336Y-124957024D02*
X103469336Y-124863285D01*
X103469336Y-124863285D02*
X103450589Y-124825790D01*
X103450589Y-124825790D02*
X103431841Y-124807042D01*
X103431841Y-124807042D02*
X103394346Y-124788295D01*
X103394346Y-124788295D02*
X103319355Y-124788295D01*
X103319355Y-124788295D02*
X103281860Y-124807042D01*
X103281860Y-124807042D02*
X103263112Y-124825790D01*
X103263112Y-124825790D02*
X103244364Y-124863285D01*
D12*
X89799333Y-78940180D02*
X89799333Y-78225895D01*
X89799333Y-78225895D02*
X89846952Y-78083038D01*
X89846952Y-78083038D02*
X89942190Y-77987800D01*
X89942190Y-77987800D02*
X90085047Y-77940180D01*
X90085047Y-77940180D02*
X90180285Y-77940180D01*
X89418380Y-78940180D02*
X88799333Y-78940180D01*
X88799333Y-78940180D02*
X89132666Y-78559228D01*
X89132666Y-78559228D02*
X88989809Y-78559228D01*
X88989809Y-78559228D02*
X88894571Y-78511609D01*
X88894571Y-78511609D02*
X88846952Y-78463990D01*
X88846952Y-78463990D02*
X88799333Y-78368752D01*
X88799333Y-78368752D02*
X88799333Y-78130657D01*
X88799333Y-78130657D02*
X88846952Y-78035419D01*
X88846952Y-78035419D02*
X88894571Y-77987800D01*
X88894571Y-77987800D02*
X88989809Y-77940180D01*
X88989809Y-77940180D02*
X89275523Y-77940180D01*
X89275523Y-77940180D02*
X89370761Y-77987800D01*
X89370761Y-77987800D02*
X89418380Y-78035419D01*
X93115595Y-112639819D02*
X93115595Y-113449342D01*
X93115595Y-113449342D02*
X93163214Y-113544580D01*
X93163214Y-113544580D02*
X93210833Y-113592200D01*
X93210833Y-113592200D02*
X93306071Y-113639819D01*
X93306071Y-113639819D02*
X93496547Y-113639819D01*
X93496547Y-113639819D02*
X93591785Y-113592200D01*
X93591785Y-113592200D02*
X93639404Y-113544580D01*
X93639404Y-113544580D02*
X93687023Y-113449342D01*
X93687023Y-113449342D02*
X93687023Y-112639819D01*
X94115595Y-112735057D02*
X94163214Y-112687438D01*
X94163214Y-112687438D02*
X94258452Y-112639819D01*
X94258452Y-112639819D02*
X94496547Y-112639819D01*
X94496547Y-112639819D02*
X94591785Y-112687438D01*
X94591785Y-112687438D02*
X94639404Y-112735057D01*
X94639404Y-112735057D02*
X94687023Y-112830295D01*
X94687023Y-112830295D02*
X94687023Y-112925533D01*
X94687023Y-112925533D02*
X94639404Y-113068390D01*
X94639404Y-113068390D02*
X94067976Y-113639819D01*
X94067976Y-113639819D02*
X94687023Y-113639819D01*
D15*
X84094383Y-122032014D02*
X83963149Y-121844538D01*
X83869411Y-122032014D02*
X83869411Y-121638313D01*
X83869411Y-121638313D02*
X84019392Y-121638313D01*
X84019392Y-121638313D02*
X84056888Y-121657061D01*
X84056888Y-121657061D02*
X84075635Y-121675809D01*
X84075635Y-121675809D02*
X84094383Y-121713304D01*
X84094383Y-121713304D02*
X84094383Y-121769547D01*
X84094383Y-121769547D02*
X84075635Y-121807042D01*
X84075635Y-121807042D02*
X84056888Y-121825790D01*
X84056888Y-121825790D02*
X84019392Y-121844538D01*
X84019392Y-121844538D02*
X83869411Y-121844538D01*
X84225617Y-121638313D02*
X84469336Y-121638313D01*
X84469336Y-121638313D02*
X84338103Y-121788295D01*
X84338103Y-121788295D02*
X84394346Y-121788295D01*
X84394346Y-121788295D02*
X84431841Y-121807042D01*
X84431841Y-121807042D02*
X84450589Y-121825790D01*
X84450589Y-121825790D02*
X84469336Y-121863285D01*
X84469336Y-121863285D02*
X84469336Y-121957024D01*
X84469336Y-121957024D02*
X84450589Y-121994519D01*
X84450589Y-121994519D02*
X84431841Y-122013267D01*
X84431841Y-122013267D02*
X84394346Y-122032014D01*
X84394346Y-122032014D02*
X84281860Y-122032014D01*
X84281860Y-122032014D02*
X84244364Y-122013267D01*
X84244364Y-122013267D02*
X84225617Y-121994519D01*
D14*
X93154761Y-105352419D02*
X92821428Y-104876228D01*
X92583333Y-105352419D02*
X92583333Y-104352419D01*
X92583333Y-104352419D02*
X92964285Y-104352419D01*
X92964285Y-104352419D02*
X93059523Y-104400038D01*
X93059523Y-104400038D02*
X93107142Y-104447657D01*
X93107142Y-104447657D02*
X93154761Y-104542895D01*
X93154761Y-104542895D02*
X93154761Y-104685752D01*
X93154761Y-104685752D02*
X93107142Y-104780990D01*
X93107142Y-104780990D02*
X93059523Y-104828609D01*
X93059523Y-104828609D02*
X92964285Y-104876228D01*
X92964285Y-104876228D02*
X92583333Y-104876228D01*
X93440476Y-104352419D02*
X93773809Y-105352419D01*
X93773809Y-105352419D02*
X94107142Y-104352419D01*
X94392857Y-104447657D02*
X94440476Y-104400038D01*
X94440476Y-104400038D02*
X94535714Y-104352419D01*
X94535714Y-104352419D02*
X94773809Y-104352419D01*
X94773809Y-104352419D02*
X94869047Y-104400038D01*
X94869047Y-104400038D02*
X94916666Y-104447657D01*
X94916666Y-104447657D02*
X94964285Y-104542895D01*
X94964285Y-104542895D02*
X94964285Y-104638133D01*
X94964285Y-104638133D02*
X94916666Y-104780990D01*
X94916666Y-104780990D02*
X94345238Y-105352419D01*
X94345238Y-105352419D02*
X94964285Y-105352419D01*
D15*
X101786907Y-154017014D02*
X101655673Y-153829538D01*
X101561935Y-154017014D02*
X101561935Y-153623313D01*
X101561935Y-153623313D02*
X101711916Y-153623313D01*
X101711916Y-153623313D02*
X101749412Y-153642061D01*
X101749412Y-153642061D02*
X101768159Y-153660809D01*
X101768159Y-153660809D02*
X101786907Y-153698304D01*
X101786907Y-153698304D02*
X101786907Y-153754547D01*
X101786907Y-153754547D02*
X101768159Y-153792042D01*
X101768159Y-153792042D02*
X101749412Y-153810790D01*
X101749412Y-153810790D02*
X101711916Y-153829538D01*
X101711916Y-153829538D02*
X101561935Y-153829538D01*
X102161860Y-154017014D02*
X101936888Y-154017014D01*
X102049374Y-154017014D02*
X102049374Y-153623313D01*
X102049374Y-153623313D02*
X102011879Y-153679556D01*
X102011879Y-153679556D02*
X101974384Y-153717052D01*
X101974384Y-153717052D02*
X101936888Y-153735799D01*
X102405580Y-153623313D02*
X102443075Y-153623313D01*
X102443075Y-153623313D02*
X102480570Y-153642061D01*
X102480570Y-153642061D02*
X102499318Y-153660809D01*
X102499318Y-153660809D02*
X102518066Y-153698304D01*
X102518066Y-153698304D02*
X102536813Y-153773295D01*
X102536813Y-153773295D02*
X102536813Y-153867033D01*
X102536813Y-153867033D02*
X102518066Y-153942024D01*
X102518066Y-153942024D02*
X102499318Y-153979519D01*
X102499318Y-153979519D02*
X102480570Y-153998267D01*
X102480570Y-153998267D02*
X102443075Y-154017014D01*
X102443075Y-154017014D02*
X102405580Y-154017014D01*
X102405580Y-154017014D02*
X102368084Y-153998267D01*
X102368084Y-153998267D02*
X102349337Y-153979519D01*
X102349337Y-153979519D02*
X102330589Y-153942024D01*
X102330589Y-153942024D02*
X102311841Y-153867033D01*
X102311841Y-153867033D02*
X102311841Y-153773295D01*
X102311841Y-153773295D02*
X102330589Y-153698304D01*
X102330589Y-153698304D02*
X102349337Y-153660809D01*
X102349337Y-153660809D02*
X102368084Y-153642061D01*
X102368084Y-153642061D02*
X102405580Y-153623313D01*
X84125983Y-119032014D02*
X83994749Y-118844538D01*
X83901011Y-119032014D02*
X83901011Y-118638313D01*
X83901011Y-118638313D02*
X84050992Y-118638313D01*
X84050992Y-118638313D02*
X84088488Y-118657061D01*
X84088488Y-118657061D02*
X84107235Y-118675809D01*
X84107235Y-118675809D02*
X84125983Y-118713304D01*
X84125983Y-118713304D02*
X84125983Y-118769547D01*
X84125983Y-118769547D02*
X84107235Y-118807042D01*
X84107235Y-118807042D02*
X84088488Y-118825790D01*
X84088488Y-118825790D02*
X84050992Y-118844538D01*
X84050992Y-118844538D02*
X83901011Y-118844538D01*
X84463441Y-118769547D02*
X84463441Y-119032014D01*
X84369703Y-118619566D02*
X84275964Y-118900781D01*
X84275964Y-118900781D02*
X84519684Y-118900781D01*
D12*
X70107142Y-103754580D02*
X70059523Y-103802200D01*
X70059523Y-103802200D02*
X69916666Y-103849819D01*
X69916666Y-103849819D02*
X69821428Y-103849819D01*
X69821428Y-103849819D02*
X69678571Y-103802200D01*
X69678571Y-103802200D02*
X69583333Y-103706961D01*
X69583333Y-103706961D02*
X69535714Y-103611723D01*
X69535714Y-103611723D02*
X69488095Y-103421247D01*
X69488095Y-103421247D02*
X69488095Y-103278390D01*
X69488095Y-103278390D02*
X69535714Y-103087914D01*
X69535714Y-103087914D02*
X69583333Y-102992676D01*
X69583333Y-102992676D02*
X69678571Y-102897438D01*
X69678571Y-102897438D02*
X69821428Y-102849819D01*
X69821428Y-102849819D02*
X69916666Y-102849819D01*
X69916666Y-102849819D02*
X70059523Y-102897438D01*
X70059523Y-102897438D02*
X70107142Y-102945057D01*
X71059523Y-103849819D02*
X70488095Y-103849819D01*
X70773809Y-103849819D02*
X70773809Y-102849819D01*
X70773809Y-102849819D02*
X70678571Y-102992676D01*
X70678571Y-102992676D02*
X70583333Y-103087914D01*
X70583333Y-103087914D02*
X70488095Y-103135533D01*
X71916666Y-102849819D02*
X71726190Y-102849819D01*
X71726190Y-102849819D02*
X71630952Y-102897438D01*
X71630952Y-102897438D02*
X71583333Y-102945057D01*
X71583333Y-102945057D02*
X71488095Y-103087914D01*
X71488095Y-103087914D02*
X71440476Y-103278390D01*
X71440476Y-103278390D02*
X71440476Y-103659342D01*
X71440476Y-103659342D02*
X71488095Y-103754580D01*
X71488095Y-103754580D02*
X71535714Y-103802200D01*
X71535714Y-103802200D02*
X71630952Y-103849819D01*
X71630952Y-103849819D02*
X71821428Y-103849819D01*
X71821428Y-103849819D02*
X71916666Y-103802200D01*
X71916666Y-103802200D02*
X71964285Y-103754580D01*
X71964285Y-103754580D02*
X72011904Y-103659342D01*
X72011904Y-103659342D02*
X72011904Y-103421247D01*
X72011904Y-103421247D02*
X71964285Y-103326009D01*
X71964285Y-103326009D02*
X71916666Y-103278390D01*
X71916666Y-103278390D02*
X71821428Y-103230771D01*
X71821428Y-103230771D02*
X71630952Y-103230771D01*
X71630952Y-103230771D02*
X71535714Y-103278390D01*
X71535714Y-103278390D02*
X71488095Y-103326009D01*
X71488095Y-103326009D02*
X71440476Y-103421247D01*
X88607142Y-133754580D02*
X88559523Y-133802200D01*
X88559523Y-133802200D02*
X88416666Y-133849819D01*
X88416666Y-133849819D02*
X88321428Y-133849819D01*
X88321428Y-133849819D02*
X88178571Y-133802200D01*
X88178571Y-133802200D02*
X88083333Y-133706961D01*
X88083333Y-133706961D02*
X88035714Y-133611723D01*
X88035714Y-133611723D02*
X87988095Y-133421247D01*
X87988095Y-133421247D02*
X87988095Y-133278390D01*
X87988095Y-133278390D02*
X88035714Y-133087914D01*
X88035714Y-133087914D02*
X88083333Y-132992676D01*
X88083333Y-132992676D02*
X88178571Y-132897438D01*
X88178571Y-132897438D02*
X88321428Y-132849819D01*
X88321428Y-132849819D02*
X88416666Y-132849819D01*
X88416666Y-132849819D02*
X88559523Y-132897438D01*
X88559523Y-132897438D02*
X88607142Y-132945057D01*
X89559523Y-133849819D02*
X88988095Y-133849819D01*
X89273809Y-133849819D02*
X89273809Y-132849819D01*
X89273809Y-132849819D02*
X89178571Y-132992676D01*
X89178571Y-132992676D02*
X89083333Y-133087914D01*
X89083333Y-133087914D02*
X88988095Y-133135533D01*
X90035714Y-133849819D02*
X90226190Y-133849819D01*
X90226190Y-133849819D02*
X90321428Y-133802200D01*
X90321428Y-133802200D02*
X90369047Y-133754580D01*
X90369047Y-133754580D02*
X90464285Y-133611723D01*
X90464285Y-133611723D02*
X90511904Y-133421247D01*
X90511904Y-133421247D02*
X90511904Y-133040295D01*
X90511904Y-133040295D02*
X90464285Y-132945057D01*
X90464285Y-132945057D02*
X90416666Y-132897438D01*
X90416666Y-132897438D02*
X90321428Y-132849819D01*
X90321428Y-132849819D02*
X90130952Y-132849819D01*
X90130952Y-132849819D02*
X90035714Y-132897438D01*
X90035714Y-132897438D02*
X89988095Y-132945057D01*
X89988095Y-132945057D02*
X89940476Y-133040295D01*
X89940476Y-133040295D02*
X89940476Y-133278390D01*
X89940476Y-133278390D02*
X89988095Y-133373628D01*
X89988095Y-133373628D02*
X90035714Y-133421247D01*
X90035714Y-133421247D02*
X90130952Y-133468866D01*
X90130952Y-133468866D02*
X90321428Y-133468866D01*
X90321428Y-133468866D02*
X90416666Y-133421247D01*
X90416666Y-133421247D02*
X90464285Y-133373628D01*
X90464285Y-133373628D02*
X90511904Y-133278390D01*
X90993095Y-144972819D02*
X90993095Y-145782342D01*
X90993095Y-145782342D02*
X91040714Y-145877580D01*
X91040714Y-145877580D02*
X91088333Y-145925200D01*
X91088333Y-145925200D02*
X91183571Y-145972819D01*
X91183571Y-145972819D02*
X91374047Y-145972819D01*
X91374047Y-145972819D02*
X91469285Y-145925200D01*
X91469285Y-145925200D02*
X91516904Y-145877580D01*
X91516904Y-145877580D02*
X91564523Y-145782342D01*
X91564523Y-145782342D02*
X91564523Y-144972819D01*
X92469285Y-145306152D02*
X92469285Y-145972819D01*
X92231190Y-144925200D02*
X91993095Y-145639485D01*
X91993095Y-145639485D02*
X92612142Y-145639485D01*
X90607142Y-103754580D02*
X90559523Y-103802200D01*
X90559523Y-103802200D02*
X90416666Y-103849819D01*
X90416666Y-103849819D02*
X90321428Y-103849819D01*
X90321428Y-103849819D02*
X90178571Y-103802200D01*
X90178571Y-103802200D02*
X90083333Y-103706961D01*
X90083333Y-103706961D02*
X90035714Y-103611723D01*
X90035714Y-103611723D02*
X89988095Y-103421247D01*
X89988095Y-103421247D02*
X89988095Y-103278390D01*
X89988095Y-103278390D02*
X90035714Y-103087914D01*
X90035714Y-103087914D02*
X90083333Y-102992676D01*
X90083333Y-102992676D02*
X90178571Y-102897438D01*
X90178571Y-102897438D02*
X90321428Y-102849819D01*
X90321428Y-102849819D02*
X90416666Y-102849819D01*
X90416666Y-102849819D02*
X90559523Y-102897438D01*
X90559523Y-102897438D02*
X90607142Y-102945057D01*
X91559523Y-103849819D02*
X90988095Y-103849819D01*
X91273809Y-103849819D02*
X91273809Y-102849819D01*
X91273809Y-102849819D02*
X91178571Y-102992676D01*
X91178571Y-102992676D02*
X91083333Y-103087914D01*
X91083333Y-103087914D02*
X90988095Y-103135533D01*
X91892857Y-102849819D02*
X92559523Y-102849819D01*
X92559523Y-102849819D02*
X92130952Y-103849819D01*
X91204819Y-91633094D02*
X90204819Y-91633094D01*
X90204819Y-91633094D02*
X90204819Y-91394999D01*
X90204819Y-91394999D02*
X90252438Y-91252142D01*
X90252438Y-91252142D02*
X90347676Y-91156904D01*
X90347676Y-91156904D02*
X90442914Y-91109285D01*
X90442914Y-91109285D02*
X90633390Y-91061666D01*
X90633390Y-91061666D02*
X90776247Y-91061666D01*
X90776247Y-91061666D02*
X90966723Y-91109285D01*
X90966723Y-91109285D02*
X91061961Y-91156904D01*
X91061961Y-91156904D02*
X91157200Y-91252142D01*
X91157200Y-91252142D02*
X91204819Y-91394999D01*
X91204819Y-91394999D02*
X91204819Y-91633094D01*
X90538152Y-90204523D02*
X91204819Y-90204523D01*
X90157200Y-90442618D02*
X90871485Y-90680713D01*
X90871485Y-90680713D02*
X90871485Y-90061666D01*
D15*
X82645307Y-148032014D02*
X82514073Y-147844538D01*
X82420335Y-148032014D02*
X82420335Y-147638313D01*
X82420335Y-147638313D02*
X82570316Y-147638313D01*
X82570316Y-147638313D02*
X82607812Y-147657061D01*
X82607812Y-147657061D02*
X82626559Y-147675809D01*
X82626559Y-147675809D02*
X82645307Y-147713304D01*
X82645307Y-147713304D02*
X82645307Y-147769547D01*
X82645307Y-147769547D02*
X82626559Y-147807042D01*
X82626559Y-147807042D02*
X82607812Y-147825790D01*
X82607812Y-147825790D02*
X82570316Y-147844538D01*
X82570316Y-147844538D02*
X82420335Y-147844538D01*
X83020260Y-148032014D02*
X82795288Y-148032014D01*
X82907774Y-148032014D02*
X82907774Y-147638313D01*
X82907774Y-147638313D02*
X82870279Y-147694556D01*
X82870279Y-147694556D02*
X82832784Y-147732052D01*
X82832784Y-147732052D02*
X82795288Y-147750799D01*
X83357718Y-147769547D02*
X83357718Y-148032014D01*
X83263980Y-147619566D02*
X83170241Y-147900781D01*
X83170241Y-147900781D02*
X83413961Y-147900781D01*
D14*
X92154761Y-137352419D02*
X91821428Y-136876228D01*
X91583333Y-137352419D02*
X91583333Y-136352419D01*
X91583333Y-136352419D02*
X91964285Y-136352419D01*
X91964285Y-136352419D02*
X92059523Y-136400038D01*
X92059523Y-136400038D02*
X92107142Y-136447657D01*
X92107142Y-136447657D02*
X92154761Y-136542895D01*
X92154761Y-136542895D02*
X92154761Y-136685752D01*
X92154761Y-136685752D02*
X92107142Y-136780990D01*
X92107142Y-136780990D02*
X92059523Y-136828609D01*
X92059523Y-136828609D02*
X91964285Y-136876228D01*
X91964285Y-136876228D02*
X91583333Y-136876228D01*
X92440476Y-136352419D02*
X92773809Y-137352419D01*
X92773809Y-137352419D02*
X93107142Y-136352419D01*
X93869047Y-136685752D02*
X93869047Y-137352419D01*
X93630952Y-136304800D02*
X93392857Y-137019085D01*
X93392857Y-137019085D02*
X94011904Y-137019085D01*
D12*
X81028095Y-138701819D02*
X81599523Y-138701819D01*
X81313809Y-139701819D02*
X81313809Y-138701819D01*
X81932857Y-139701819D02*
X81932857Y-138701819D01*
X81932857Y-138701819D02*
X82313809Y-138701819D01*
X82313809Y-138701819D02*
X82409047Y-138749438D01*
X82409047Y-138749438D02*
X82456666Y-138797057D01*
X82456666Y-138797057D02*
X82504285Y-138892295D01*
X82504285Y-138892295D02*
X82504285Y-139035152D01*
X82504285Y-139035152D02*
X82456666Y-139130390D01*
X82456666Y-139130390D02*
X82409047Y-139178009D01*
X82409047Y-139178009D02*
X82313809Y-139225628D01*
X82313809Y-139225628D02*
X81932857Y-139225628D01*
X82837619Y-138701819D02*
X83456666Y-138701819D01*
X83456666Y-138701819D02*
X83123333Y-139082771D01*
X83123333Y-139082771D02*
X83266190Y-139082771D01*
X83266190Y-139082771D02*
X83361428Y-139130390D01*
X83361428Y-139130390D02*
X83409047Y-139178009D01*
X83409047Y-139178009D02*
X83456666Y-139273247D01*
X83456666Y-139273247D02*
X83456666Y-139511342D01*
X83456666Y-139511342D02*
X83409047Y-139606580D01*
X83409047Y-139606580D02*
X83361428Y-139654200D01*
X83361428Y-139654200D02*
X83266190Y-139701819D01*
X83266190Y-139701819D02*
X82980476Y-139701819D01*
X82980476Y-139701819D02*
X82885238Y-139654200D01*
X82885238Y-139654200D02*
X82837619Y-139606580D01*
D15*
X103164383Y-119032014D02*
X103033149Y-118844538D01*
X102939411Y-119032014D02*
X102939411Y-118638313D01*
X102939411Y-118638313D02*
X103089392Y-118638313D01*
X103089392Y-118638313D02*
X103126888Y-118657061D01*
X103126888Y-118657061D02*
X103145635Y-118675809D01*
X103145635Y-118675809D02*
X103164383Y-118713304D01*
X103164383Y-118713304D02*
X103164383Y-118769547D01*
X103164383Y-118769547D02*
X103145635Y-118807042D01*
X103145635Y-118807042D02*
X103126888Y-118825790D01*
X103126888Y-118825790D02*
X103089392Y-118844538D01*
X103089392Y-118844538D02*
X102939411Y-118844538D01*
X103389355Y-118807042D02*
X103351860Y-118788295D01*
X103351860Y-118788295D02*
X103333112Y-118769547D01*
X103333112Y-118769547D02*
X103314364Y-118732052D01*
X103314364Y-118732052D02*
X103314364Y-118713304D01*
X103314364Y-118713304D02*
X103333112Y-118675809D01*
X103333112Y-118675809D02*
X103351860Y-118657061D01*
X103351860Y-118657061D02*
X103389355Y-118638313D01*
X103389355Y-118638313D02*
X103464346Y-118638313D01*
X103464346Y-118638313D02*
X103501841Y-118657061D01*
X103501841Y-118657061D02*
X103520589Y-118675809D01*
X103520589Y-118675809D02*
X103539336Y-118713304D01*
X103539336Y-118713304D02*
X103539336Y-118732052D01*
X103539336Y-118732052D02*
X103520589Y-118769547D01*
X103520589Y-118769547D02*
X103501841Y-118788295D01*
X103501841Y-118788295D02*
X103464346Y-118807042D01*
X103464346Y-118807042D02*
X103389355Y-118807042D01*
X103389355Y-118807042D02*
X103351860Y-118825790D01*
X103351860Y-118825790D02*
X103333112Y-118844538D01*
X103333112Y-118844538D02*
X103314364Y-118882033D01*
X103314364Y-118882033D02*
X103314364Y-118957024D01*
X103314364Y-118957024D02*
X103333112Y-118994519D01*
X103333112Y-118994519D02*
X103351860Y-119013267D01*
X103351860Y-119013267D02*
X103389355Y-119032014D01*
X103389355Y-119032014D02*
X103464346Y-119032014D01*
X103464346Y-119032014D02*
X103501841Y-119013267D01*
X103501841Y-119013267D02*
X103520589Y-118994519D01*
X103520589Y-118994519D02*
X103539336Y-118957024D01*
X103539336Y-118957024D02*
X103539336Y-118882033D01*
X103539336Y-118882033D02*
X103520589Y-118844538D01*
X103520589Y-118844538D02*
X103501841Y-118825790D01*
X103501841Y-118825790D02*
X103464346Y-118807042D01*
D12*
X62704819Y-69109285D02*
X63419104Y-69198571D01*
X63419104Y-69198571D02*
X63561961Y-69264047D01*
X63561961Y-69264047D02*
X63657200Y-69371190D01*
X63657200Y-69371190D02*
X63704819Y-69520000D01*
X63704819Y-69520000D02*
X63704819Y-69615238D01*
X63704819Y-68234285D02*
X63704819Y-68805714D01*
X63704819Y-68519999D02*
X62704819Y-68394999D01*
X62704819Y-68394999D02*
X62847676Y-68508095D01*
X62847676Y-68508095D02*
X62942914Y-68615238D01*
X62942914Y-68615238D02*
X62990533Y-68716428D01*
X69107142Y-133754580D02*
X69059523Y-133802200D01*
X69059523Y-133802200D02*
X68916666Y-133849819D01*
X68916666Y-133849819D02*
X68821428Y-133849819D01*
X68821428Y-133849819D02*
X68678571Y-133802200D01*
X68678571Y-133802200D02*
X68583333Y-133706961D01*
X68583333Y-133706961D02*
X68535714Y-133611723D01*
X68535714Y-133611723D02*
X68488095Y-133421247D01*
X68488095Y-133421247D02*
X68488095Y-133278390D01*
X68488095Y-133278390D02*
X68535714Y-133087914D01*
X68535714Y-133087914D02*
X68583333Y-132992676D01*
X68583333Y-132992676D02*
X68678571Y-132897438D01*
X68678571Y-132897438D02*
X68821428Y-132849819D01*
X68821428Y-132849819D02*
X68916666Y-132849819D01*
X68916666Y-132849819D02*
X69059523Y-132897438D01*
X69059523Y-132897438D02*
X69107142Y-132945057D01*
X70059523Y-133849819D02*
X69488095Y-133849819D01*
X69773809Y-133849819D02*
X69773809Y-132849819D01*
X69773809Y-132849819D02*
X69678571Y-132992676D01*
X69678571Y-132992676D02*
X69583333Y-133087914D01*
X69583333Y-133087914D02*
X69488095Y-133135533D01*
X70630952Y-133278390D02*
X70535714Y-133230771D01*
X70535714Y-133230771D02*
X70488095Y-133183152D01*
X70488095Y-133183152D02*
X70440476Y-133087914D01*
X70440476Y-133087914D02*
X70440476Y-133040295D01*
X70440476Y-133040295D02*
X70488095Y-132945057D01*
X70488095Y-132945057D02*
X70535714Y-132897438D01*
X70535714Y-132897438D02*
X70630952Y-132849819D01*
X70630952Y-132849819D02*
X70821428Y-132849819D01*
X70821428Y-132849819D02*
X70916666Y-132897438D01*
X70916666Y-132897438D02*
X70964285Y-132945057D01*
X70964285Y-132945057D02*
X71011904Y-133040295D01*
X71011904Y-133040295D02*
X71011904Y-133087914D01*
X71011904Y-133087914D02*
X70964285Y-133183152D01*
X70964285Y-133183152D02*
X70916666Y-133230771D01*
X70916666Y-133230771D02*
X70821428Y-133278390D01*
X70821428Y-133278390D02*
X70630952Y-133278390D01*
X70630952Y-133278390D02*
X70535714Y-133326009D01*
X70535714Y-133326009D02*
X70488095Y-133373628D01*
X70488095Y-133373628D02*
X70440476Y-133468866D01*
X70440476Y-133468866D02*
X70440476Y-133659342D01*
X70440476Y-133659342D02*
X70488095Y-133754580D01*
X70488095Y-133754580D02*
X70535714Y-133802200D01*
X70535714Y-133802200D02*
X70630952Y-133849819D01*
X70630952Y-133849819D02*
X70821428Y-133849819D01*
X70821428Y-133849819D02*
X70916666Y-133802200D01*
X70916666Y-133802200D02*
X70964285Y-133754580D01*
X70964285Y-133754580D02*
X71011904Y-133659342D01*
X71011904Y-133659342D02*
X71011904Y-133468866D01*
X71011904Y-133468866D02*
X70964285Y-133373628D01*
X70964285Y-133373628D02*
X70916666Y-133326009D01*
X70916666Y-133326009D02*
X70821428Y-133278390D01*
X100214286Y-160349819D02*
X100785714Y-160349819D01*
X100500000Y-161349819D02*
X100500000Y-160349819D01*
X101119048Y-161349819D02*
X101119048Y-160349819D01*
X101119048Y-160826009D02*
X101690476Y-160826009D01*
X101690476Y-161349819D02*
X101690476Y-160349819D01*
X102595238Y-160683152D02*
X102595238Y-161349819D01*
X102357143Y-160302200D02*
X102119048Y-161016485D01*
X102119048Y-161016485D02*
X102738095Y-161016485D01*
D15*
X84195983Y-124962014D02*
X84064749Y-124774538D01*
X83971011Y-124962014D02*
X83971011Y-124568313D01*
X83971011Y-124568313D02*
X84120992Y-124568313D01*
X84120992Y-124568313D02*
X84158488Y-124587061D01*
X84158488Y-124587061D02*
X84177235Y-124605809D01*
X84177235Y-124605809D02*
X84195983Y-124643304D01*
X84195983Y-124643304D02*
X84195983Y-124699547D01*
X84195983Y-124699547D02*
X84177235Y-124737042D01*
X84177235Y-124737042D02*
X84158488Y-124755790D01*
X84158488Y-124755790D02*
X84120992Y-124774538D01*
X84120992Y-124774538D02*
X83971011Y-124774538D01*
X84345964Y-124605809D02*
X84364712Y-124587061D01*
X84364712Y-124587061D02*
X84402207Y-124568313D01*
X84402207Y-124568313D02*
X84495946Y-124568313D01*
X84495946Y-124568313D02*
X84533441Y-124587061D01*
X84533441Y-124587061D02*
X84552189Y-124605809D01*
X84552189Y-124605809D02*
X84570936Y-124643304D01*
X84570936Y-124643304D02*
X84570936Y-124680799D01*
X84570936Y-124680799D02*
X84552189Y-124737042D01*
X84552189Y-124737042D02*
X84327217Y-124962014D01*
X84327217Y-124962014D02*
X84570936Y-124962014D01*
X103094383Y-116032014D02*
X102963149Y-115844538D01*
X102869411Y-116032014D02*
X102869411Y-115638313D01*
X102869411Y-115638313D02*
X103019392Y-115638313D01*
X103019392Y-115638313D02*
X103056888Y-115657061D01*
X103056888Y-115657061D02*
X103075635Y-115675809D01*
X103075635Y-115675809D02*
X103094383Y-115713304D01*
X103094383Y-115713304D02*
X103094383Y-115769547D01*
X103094383Y-115769547D02*
X103075635Y-115807042D01*
X103075635Y-115807042D02*
X103056888Y-115825790D01*
X103056888Y-115825790D02*
X103019392Y-115844538D01*
X103019392Y-115844538D02*
X102869411Y-115844538D01*
X103281860Y-116032014D02*
X103356850Y-116032014D01*
X103356850Y-116032014D02*
X103394346Y-116013267D01*
X103394346Y-116013267D02*
X103413093Y-115994519D01*
X103413093Y-115994519D02*
X103450589Y-115938276D01*
X103450589Y-115938276D02*
X103469336Y-115863285D01*
X103469336Y-115863285D02*
X103469336Y-115713304D01*
X103469336Y-115713304D02*
X103450589Y-115675809D01*
X103450589Y-115675809D02*
X103431841Y-115657061D01*
X103431841Y-115657061D02*
X103394346Y-115638313D01*
X103394346Y-115638313D02*
X103319355Y-115638313D01*
X103319355Y-115638313D02*
X103281860Y-115657061D01*
X103281860Y-115657061D02*
X103263112Y-115675809D01*
X103263112Y-115675809D02*
X103244364Y-115713304D01*
X103244364Y-115713304D02*
X103244364Y-115807042D01*
X103244364Y-115807042D02*
X103263112Y-115844538D01*
X103263112Y-115844538D02*
X103281860Y-115863285D01*
X103281860Y-115863285D02*
X103319355Y-115882033D01*
X103319355Y-115882033D02*
X103394346Y-115882033D01*
X103394346Y-115882033D02*
X103431841Y-115863285D01*
X103431841Y-115863285D02*
X103450589Y-115844538D01*
X103450589Y-115844538D02*
X103469336Y-115807042D01*
X82645307Y-151032014D02*
X82514073Y-150844538D01*
X82420335Y-151032014D02*
X82420335Y-150638313D01*
X82420335Y-150638313D02*
X82570316Y-150638313D01*
X82570316Y-150638313D02*
X82607812Y-150657061D01*
X82607812Y-150657061D02*
X82626559Y-150675809D01*
X82626559Y-150675809D02*
X82645307Y-150713304D01*
X82645307Y-150713304D02*
X82645307Y-150769547D01*
X82645307Y-150769547D02*
X82626559Y-150807042D01*
X82626559Y-150807042D02*
X82607812Y-150825790D01*
X82607812Y-150825790D02*
X82570316Y-150844538D01*
X82570316Y-150844538D02*
X82420335Y-150844538D01*
X83020260Y-151032014D02*
X82795288Y-151032014D01*
X82907774Y-151032014D02*
X82907774Y-150638313D01*
X82907774Y-150638313D02*
X82870279Y-150694556D01*
X82870279Y-150694556D02*
X82832784Y-150732052D01*
X82832784Y-150732052D02*
X82795288Y-150750799D01*
X83151494Y-150638313D02*
X83395213Y-150638313D01*
X83395213Y-150638313D02*
X83263980Y-150788295D01*
X83263980Y-150788295D02*
X83320223Y-150788295D01*
X83320223Y-150788295D02*
X83357718Y-150807042D01*
X83357718Y-150807042D02*
X83376466Y-150825790D01*
X83376466Y-150825790D02*
X83395213Y-150863285D01*
X83395213Y-150863285D02*
X83395213Y-150957024D01*
X83395213Y-150957024D02*
X83376466Y-150994519D01*
X83376466Y-150994519D02*
X83357718Y-151013267D01*
X83357718Y-151013267D02*
X83320223Y-151032014D01*
X83320223Y-151032014D02*
X83207737Y-151032014D01*
X83207737Y-151032014D02*
X83170241Y-151013267D01*
X83170241Y-151013267D02*
X83151494Y-150994519D01*
X84125983Y-115962014D02*
X83994749Y-115774538D01*
X83901011Y-115962014D02*
X83901011Y-115568313D01*
X83901011Y-115568313D02*
X84050992Y-115568313D01*
X84050992Y-115568313D02*
X84088488Y-115587061D01*
X84088488Y-115587061D02*
X84107235Y-115605809D01*
X84107235Y-115605809D02*
X84125983Y-115643304D01*
X84125983Y-115643304D02*
X84125983Y-115699547D01*
X84125983Y-115699547D02*
X84107235Y-115737042D01*
X84107235Y-115737042D02*
X84088488Y-115755790D01*
X84088488Y-115755790D02*
X84050992Y-115774538D01*
X84050992Y-115774538D02*
X83901011Y-115774538D01*
X84482189Y-115568313D02*
X84294712Y-115568313D01*
X84294712Y-115568313D02*
X84275964Y-115755790D01*
X84275964Y-115755790D02*
X84294712Y-115737042D01*
X84294712Y-115737042D02*
X84332207Y-115718295D01*
X84332207Y-115718295D02*
X84425946Y-115718295D01*
X84425946Y-115718295D02*
X84463441Y-115737042D01*
X84463441Y-115737042D02*
X84482189Y-115755790D01*
X84482189Y-115755790D02*
X84500936Y-115793285D01*
X84500936Y-115793285D02*
X84500936Y-115887024D01*
X84500936Y-115887024D02*
X84482189Y-115924519D01*
X84482189Y-115924519D02*
X84463441Y-115943267D01*
X84463441Y-115943267D02*
X84425946Y-115962014D01*
X84425946Y-115962014D02*
X84332207Y-115962014D01*
X84332207Y-115962014D02*
X84294712Y-115943267D01*
X84294712Y-115943267D02*
X84275964Y-115924519D01*
X101716907Y-148017014D02*
X101585673Y-147829538D01*
X101491935Y-148017014D02*
X101491935Y-147623313D01*
X101491935Y-147623313D02*
X101641916Y-147623313D01*
X101641916Y-147623313D02*
X101679412Y-147642061D01*
X101679412Y-147642061D02*
X101698159Y-147660809D01*
X101698159Y-147660809D02*
X101716907Y-147698304D01*
X101716907Y-147698304D02*
X101716907Y-147754547D01*
X101716907Y-147754547D02*
X101698159Y-147792042D01*
X101698159Y-147792042D02*
X101679412Y-147810790D01*
X101679412Y-147810790D02*
X101641916Y-147829538D01*
X101641916Y-147829538D02*
X101491935Y-147829538D01*
X102091860Y-148017014D02*
X101866888Y-148017014D01*
X101979374Y-148017014D02*
X101979374Y-147623313D01*
X101979374Y-147623313D02*
X101941879Y-147679556D01*
X101941879Y-147679556D02*
X101904384Y-147717052D01*
X101904384Y-147717052D02*
X101866888Y-147735799D01*
X102279337Y-148017014D02*
X102354327Y-148017014D01*
X102354327Y-148017014D02*
X102391823Y-147998267D01*
X102391823Y-147998267D02*
X102410570Y-147979519D01*
X102410570Y-147979519D02*
X102448066Y-147923276D01*
X102448066Y-147923276D02*
X102466813Y-147848285D01*
X102466813Y-147848285D02*
X102466813Y-147698304D01*
X102466813Y-147698304D02*
X102448066Y-147660809D01*
X102448066Y-147660809D02*
X102429318Y-147642061D01*
X102429318Y-147642061D02*
X102391823Y-147623313D01*
X102391823Y-147623313D02*
X102316832Y-147623313D01*
X102316832Y-147623313D02*
X102279337Y-147642061D01*
X102279337Y-147642061D02*
X102260589Y-147660809D01*
X102260589Y-147660809D02*
X102241841Y-147698304D01*
X102241841Y-147698304D02*
X102241841Y-147792042D01*
X102241841Y-147792042D02*
X102260589Y-147829538D01*
X102260589Y-147829538D02*
X102279337Y-147848285D01*
X102279337Y-147848285D02*
X102316832Y-147867033D01*
X102316832Y-147867033D02*
X102391823Y-147867033D01*
X102391823Y-147867033D02*
X102429318Y-147848285D01*
X102429318Y-147848285D02*
X102448066Y-147829538D01*
X102448066Y-147829538D02*
X102466813Y-147792042D01*
D12*
X82419695Y-105334819D02*
X82991123Y-105334819D01*
X82705409Y-106334819D02*
X82705409Y-105334819D01*
X83324457Y-106334819D02*
X83324457Y-105334819D01*
X83324457Y-105334819D02*
X83705409Y-105334819D01*
X83705409Y-105334819D02*
X83800647Y-105382438D01*
X83800647Y-105382438D02*
X83848266Y-105430057D01*
X83848266Y-105430057D02*
X83895885Y-105525295D01*
X83895885Y-105525295D02*
X83895885Y-105668152D01*
X83895885Y-105668152D02*
X83848266Y-105763390D01*
X83848266Y-105763390D02*
X83800647Y-105811009D01*
X83800647Y-105811009D02*
X83705409Y-105858628D01*
X83705409Y-105858628D02*
X83324457Y-105858628D01*
X84848266Y-106334819D02*
X84276838Y-106334819D01*
X84562552Y-106334819D02*
X84562552Y-105334819D01*
X84562552Y-105334819D02*
X84467314Y-105477676D01*
X84467314Y-105477676D02*
X84372076Y-105572914D01*
X84372076Y-105572914D02*
X84276838Y-105620533D01*
X99988095Y-138701819D02*
X100559523Y-138701819D01*
X100273809Y-139701819D02*
X100273809Y-138701819D01*
X100892857Y-139701819D02*
X100892857Y-138701819D01*
X100892857Y-138701819D02*
X101273809Y-138701819D01*
X101273809Y-138701819D02*
X101369047Y-138749438D01*
X101369047Y-138749438D02*
X101416666Y-138797057D01*
X101416666Y-138797057D02*
X101464285Y-138892295D01*
X101464285Y-138892295D02*
X101464285Y-139035152D01*
X101464285Y-139035152D02*
X101416666Y-139130390D01*
X101416666Y-139130390D02*
X101369047Y-139178009D01*
X101369047Y-139178009D02*
X101273809Y-139225628D01*
X101273809Y-139225628D02*
X100892857Y-139225628D01*
X102321428Y-139035152D02*
X102321428Y-139701819D01*
X102083333Y-138654200D02*
X101845238Y-139368485D01*
X101845238Y-139368485D02*
X102464285Y-139368485D01*
X104515333Y-78940180D02*
X104515333Y-78225895D01*
X104515333Y-78225895D02*
X104562952Y-78083038D01*
X104562952Y-78083038D02*
X104658190Y-77987800D01*
X104658190Y-77987800D02*
X104801047Y-77940180D01*
X104801047Y-77940180D02*
X104896285Y-77940180D01*
X104086761Y-78844942D02*
X104039142Y-78892561D01*
X104039142Y-78892561D02*
X103943904Y-78940180D01*
X103943904Y-78940180D02*
X103705809Y-78940180D01*
X103705809Y-78940180D02*
X103610571Y-78892561D01*
X103610571Y-78892561D02*
X103562952Y-78844942D01*
X103562952Y-78844942D02*
X103515333Y-78749704D01*
X103515333Y-78749704D02*
X103515333Y-78654466D01*
X103515333Y-78654466D02*
X103562952Y-78511609D01*
X103562952Y-78511609D02*
X104134380Y-77940180D01*
X104134380Y-77940180D02*
X103515333Y-77940180D01*
D15*
X81697014Y-90738092D02*
X81509538Y-90869326D01*
X81697014Y-90963064D02*
X81303313Y-90963064D01*
X81303313Y-90963064D02*
X81303313Y-90813083D01*
X81303313Y-90813083D02*
X81322061Y-90775588D01*
X81322061Y-90775588D02*
X81340809Y-90756840D01*
X81340809Y-90756840D02*
X81378304Y-90738092D01*
X81378304Y-90738092D02*
X81434547Y-90738092D01*
X81434547Y-90738092D02*
X81472042Y-90756840D01*
X81472042Y-90756840D02*
X81490790Y-90775588D01*
X81490790Y-90775588D02*
X81509538Y-90813083D01*
X81509538Y-90813083D02*
X81509538Y-90963064D01*
X81697014Y-90363139D02*
X81697014Y-90588111D01*
X81697014Y-90475625D02*
X81303313Y-90475625D01*
X81303313Y-90475625D02*
X81359556Y-90513120D01*
X81359556Y-90513120D02*
X81397052Y-90550616D01*
X81397052Y-90550616D02*
X81415799Y-90588111D01*
X81472042Y-90138167D02*
X81453295Y-90175663D01*
X81453295Y-90175663D02*
X81434547Y-90194410D01*
X81434547Y-90194410D02*
X81397052Y-90213158D01*
X81397052Y-90213158D02*
X81378304Y-90213158D01*
X81378304Y-90213158D02*
X81340809Y-90194410D01*
X81340809Y-90194410D02*
X81322061Y-90175663D01*
X81322061Y-90175663D02*
X81303313Y-90138167D01*
X81303313Y-90138167D02*
X81303313Y-90063177D01*
X81303313Y-90063177D02*
X81322061Y-90025681D01*
X81322061Y-90025681D02*
X81340809Y-90006934D01*
X81340809Y-90006934D02*
X81378304Y-89988186D01*
X81378304Y-89988186D02*
X81397052Y-89988186D01*
X81397052Y-89988186D02*
X81434547Y-90006934D01*
X81434547Y-90006934D02*
X81453295Y-90025681D01*
X81453295Y-90025681D02*
X81472042Y-90063177D01*
X81472042Y-90063177D02*
X81472042Y-90138167D01*
X81472042Y-90138167D02*
X81490790Y-90175663D01*
X81490790Y-90175663D02*
X81509538Y-90194410D01*
X81509538Y-90194410D02*
X81547033Y-90213158D01*
X81547033Y-90213158D02*
X81622024Y-90213158D01*
X81622024Y-90213158D02*
X81659519Y-90194410D01*
X81659519Y-90194410D02*
X81678267Y-90175663D01*
X81678267Y-90175663D02*
X81697014Y-90138167D01*
X81697014Y-90138167D02*
X81697014Y-90063177D01*
X81697014Y-90063177D02*
X81678267Y-90025681D01*
X81678267Y-90025681D02*
X81659519Y-90006934D01*
X81659519Y-90006934D02*
X81622024Y-89988186D01*
X81622024Y-89988186D02*
X81547033Y-89988186D01*
X81547033Y-89988186D02*
X81509538Y-90006934D01*
X81509538Y-90006934D02*
X81490790Y-90025681D01*
X81490790Y-90025681D02*
X81472042Y-90063177D01*
D12*
X74449695Y-112739819D02*
X74449695Y-113549342D01*
X74449695Y-113549342D02*
X74497314Y-113644580D01*
X74497314Y-113644580D02*
X74544933Y-113692200D01*
X74544933Y-113692200D02*
X74640171Y-113739819D01*
X74640171Y-113739819D02*
X74830647Y-113739819D01*
X74830647Y-113739819D02*
X74925885Y-113692200D01*
X74925885Y-113692200D02*
X74973504Y-113644580D01*
X74973504Y-113644580D02*
X75021123Y-113549342D01*
X75021123Y-113549342D02*
X75021123Y-112739819D01*
X76021123Y-113739819D02*
X75449695Y-113739819D01*
X75735409Y-113739819D02*
X75735409Y-112739819D01*
X75735409Y-112739819D02*
X75640171Y-112882676D01*
X75640171Y-112882676D02*
X75544933Y-112977914D01*
X75544933Y-112977914D02*
X75449695Y-113025533D01*
X68864286Y-160349819D02*
X69435714Y-160349819D01*
X69150000Y-161349819D02*
X69150000Y-160349819D01*
X69769048Y-161349819D02*
X69769048Y-160349819D01*
X69769048Y-160826009D02*
X70340476Y-160826009D01*
X70340476Y-161349819D02*
X70340476Y-160349819D01*
X71340476Y-161349819D02*
X70769048Y-161349819D01*
X71054762Y-161349819D02*
X71054762Y-160349819D01*
X71054762Y-160349819D02*
X70959524Y-160492676D01*
X70959524Y-160492676D02*
X70864286Y-160587914D01*
X70864286Y-160587914D02*
X70769048Y-160635533D01*
D15*
X103094383Y-122032014D02*
X102963149Y-121844538D01*
X102869411Y-122032014D02*
X102869411Y-121638313D01*
X102869411Y-121638313D02*
X103019392Y-121638313D01*
X103019392Y-121638313D02*
X103056888Y-121657061D01*
X103056888Y-121657061D02*
X103075635Y-121675809D01*
X103075635Y-121675809D02*
X103094383Y-121713304D01*
X103094383Y-121713304D02*
X103094383Y-121769547D01*
X103094383Y-121769547D02*
X103075635Y-121807042D01*
X103075635Y-121807042D02*
X103056888Y-121825790D01*
X103056888Y-121825790D02*
X103019392Y-121844538D01*
X103019392Y-121844538D02*
X102869411Y-121844538D01*
X103225617Y-121638313D02*
X103488084Y-121638313D01*
X103488084Y-121638313D02*
X103319355Y-122032014D01*
D12*
X75083333Y-78940180D02*
X75083333Y-78225895D01*
X75083333Y-78225895D02*
X75130952Y-78083038D01*
X75130952Y-78083038D02*
X75226190Y-77987800D01*
X75226190Y-77987800D02*
X75369047Y-77940180D01*
X75369047Y-77940180D02*
X75464285Y-77940180D01*
X74178571Y-78606847D02*
X74178571Y-77940180D01*
X74416666Y-78987800D02*
X74654761Y-78273514D01*
X74654761Y-78273514D02*
X74035714Y-78273514D01*
D15*
X82575307Y-157032014D02*
X82444073Y-156844538D01*
X82350335Y-157032014D02*
X82350335Y-156638313D01*
X82350335Y-156638313D02*
X82500316Y-156638313D01*
X82500316Y-156638313D02*
X82537812Y-156657061D01*
X82537812Y-156657061D02*
X82556559Y-156675809D01*
X82556559Y-156675809D02*
X82575307Y-156713304D01*
X82575307Y-156713304D02*
X82575307Y-156769547D01*
X82575307Y-156769547D02*
X82556559Y-156807042D01*
X82556559Y-156807042D02*
X82537812Y-156825790D01*
X82537812Y-156825790D02*
X82500316Y-156844538D01*
X82500316Y-156844538D02*
X82350335Y-156844538D01*
X82950260Y-157032014D02*
X82725288Y-157032014D01*
X82837774Y-157032014D02*
X82837774Y-156638313D01*
X82837774Y-156638313D02*
X82800279Y-156694556D01*
X82800279Y-156694556D02*
X82762784Y-156732052D01*
X82762784Y-156732052D02*
X82725288Y-156750799D01*
X83325213Y-157032014D02*
X83100241Y-157032014D01*
X83212727Y-157032014D02*
X83212727Y-156638313D01*
X83212727Y-156638313D02*
X83175232Y-156694556D01*
X83175232Y-156694556D02*
X83137737Y-156732052D01*
X83137737Y-156732052D02*
X83100241Y-156750799D01*
D12*
X72575595Y-144749819D02*
X72575595Y-145559342D01*
X72575595Y-145559342D02*
X72623214Y-145654580D01*
X72623214Y-145654580D02*
X72670833Y-145702200D01*
X72670833Y-145702200D02*
X72766071Y-145749819D01*
X72766071Y-145749819D02*
X72956547Y-145749819D01*
X72956547Y-145749819D02*
X73051785Y-145702200D01*
X73051785Y-145702200D02*
X73099404Y-145654580D01*
X73099404Y-145654580D02*
X73147023Y-145559342D01*
X73147023Y-145559342D02*
X73147023Y-144749819D01*
X73527976Y-144749819D02*
X74147023Y-144749819D01*
X74147023Y-144749819D02*
X73813690Y-145130771D01*
X73813690Y-145130771D02*
X73956547Y-145130771D01*
X73956547Y-145130771D02*
X74051785Y-145178390D01*
X74051785Y-145178390D02*
X74099404Y-145226009D01*
X74099404Y-145226009D02*
X74147023Y-145321247D01*
X74147023Y-145321247D02*
X74147023Y-145559342D01*
X74147023Y-145559342D02*
X74099404Y-145654580D01*
X74099404Y-145654580D02*
X74051785Y-145702200D01*
X74051785Y-145702200D02*
X73956547Y-145749819D01*
X73956547Y-145749819D02*
X73670833Y-145749819D01*
X73670833Y-145749819D02*
X73575595Y-145702200D01*
X73575595Y-145702200D02*
X73527976Y-145654580D01*
X102488095Y-105161819D02*
X103059523Y-105161819D01*
X102773809Y-106161819D02*
X102773809Y-105161819D01*
X103392857Y-106161819D02*
X103392857Y-105161819D01*
X103392857Y-105161819D02*
X103773809Y-105161819D01*
X103773809Y-105161819D02*
X103869047Y-105209438D01*
X103869047Y-105209438D02*
X103916666Y-105257057D01*
X103916666Y-105257057D02*
X103964285Y-105352295D01*
X103964285Y-105352295D02*
X103964285Y-105495152D01*
X103964285Y-105495152D02*
X103916666Y-105590390D01*
X103916666Y-105590390D02*
X103869047Y-105638009D01*
X103869047Y-105638009D02*
X103773809Y-105685628D01*
X103773809Y-105685628D02*
X103392857Y-105685628D01*
X104345238Y-105257057D02*
X104392857Y-105209438D01*
X104392857Y-105209438D02*
X104488095Y-105161819D01*
X104488095Y-105161819D02*
X104726190Y-105161819D01*
X104726190Y-105161819D02*
X104821428Y-105209438D01*
X104821428Y-105209438D02*
X104869047Y-105257057D01*
X104869047Y-105257057D02*
X104916666Y-105352295D01*
X104916666Y-105352295D02*
X104916666Y-105447533D01*
X104916666Y-105447533D02*
X104869047Y-105590390D01*
X104869047Y-105590390D02*
X104297619Y-106161819D01*
X104297619Y-106161819D02*
X104916666Y-106161819D01*
D15*
X101904383Y-157017014D02*
X101773149Y-156829538D01*
X101679411Y-157017014D02*
X101679411Y-156623313D01*
X101679411Y-156623313D02*
X101829392Y-156623313D01*
X101829392Y-156623313D02*
X101866888Y-156642061D01*
X101866888Y-156642061D02*
X101885635Y-156660809D01*
X101885635Y-156660809D02*
X101904383Y-156698304D01*
X101904383Y-156698304D02*
X101904383Y-156754547D01*
X101904383Y-156754547D02*
X101885635Y-156792042D01*
X101885635Y-156792042D02*
X101866888Y-156810790D01*
X101866888Y-156810790D02*
X101829392Y-156829538D01*
X101829392Y-156829538D02*
X101679411Y-156829538D01*
X102279336Y-157017014D02*
X102054364Y-157017014D01*
X102166850Y-157017014D02*
X102166850Y-156623313D01*
X102166850Y-156623313D02*
X102129355Y-156679556D01*
X102129355Y-156679556D02*
X102091860Y-156717052D01*
X102091860Y-156717052D02*
X102054364Y-156735799D01*
X101716907Y-151017014D02*
X101585673Y-150829538D01*
X101491935Y-151017014D02*
X101491935Y-150623313D01*
X101491935Y-150623313D02*
X101641916Y-150623313D01*
X101641916Y-150623313D02*
X101679412Y-150642061D01*
X101679412Y-150642061D02*
X101698159Y-150660809D01*
X101698159Y-150660809D02*
X101716907Y-150698304D01*
X101716907Y-150698304D02*
X101716907Y-150754547D01*
X101716907Y-150754547D02*
X101698159Y-150792042D01*
X101698159Y-150792042D02*
X101679412Y-150810790D01*
X101679412Y-150810790D02*
X101641916Y-150829538D01*
X101641916Y-150829538D02*
X101491935Y-150829538D01*
X102091860Y-151017014D02*
X101866888Y-151017014D01*
X101979374Y-151017014D02*
X101979374Y-150623313D01*
X101979374Y-150623313D02*
X101941879Y-150679556D01*
X101941879Y-150679556D02*
X101904384Y-150717052D01*
X101904384Y-150717052D02*
X101866888Y-150735799D01*
X102448066Y-150623313D02*
X102260589Y-150623313D01*
X102260589Y-150623313D02*
X102241841Y-150810790D01*
X102241841Y-150810790D02*
X102260589Y-150792042D01*
X102260589Y-150792042D02*
X102298084Y-150773295D01*
X102298084Y-150773295D02*
X102391823Y-150773295D01*
X102391823Y-150773295D02*
X102429318Y-150792042D01*
X102429318Y-150792042D02*
X102448066Y-150810790D01*
X102448066Y-150810790D02*
X102466813Y-150848285D01*
X102466813Y-150848285D02*
X102466813Y-150942024D01*
X102466813Y-150942024D02*
X102448066Y-150979519D01*
X102448066Y-150979519D02*
X102429318Y-150998267D01*
X102429318Y-150998267D02*
X102391823Y-151017014D01*
X102391823Y-151017014D02*
X102298084Y-151017014D01*
X102298084Y-151017014D02*
X102260589Y-150998267D01*
X102260589Y-150998267D02*
X102241841Y-150979519D01*
X82645307Y-154032014D02*
X82514073Y-153844538D01*
X82420335Y-154032014D02*
X82420335Y-153638313D01*
X82420335Y-153638313D02*
X82570316Y-153638313D01*
X82570316Y-153638313D02*
X82607812Y-153657061D01*
X82607812Y-153657061D02*
X82626559Y-153675809D01*
X82626559Y-153675809D02*
X82645307Y-153713304D01*
X82645307Y-153713304D02*
X82645307Y-153769547D01*
X82645307Y-153769547D02*
X82626559Y-153807042D01*
X82626559Y-153807042D02*
X82607812Y-153825790D01*
X82607812Y-153825790D02*
X82570316Y-153844538D01*
X82570316Y-153844538D02*
X82420335Y-153844538D01*
X83020260Y-154032014D02*
X82795288Y-154032014D01*
X82907774Y-154032014D02*
X82907774Y-153638313D01*
X82907774Y-153638313D02*
X82870279Y-153694556D01*
X82870279Y-153694556D02*
X82832784Y-153732052D01*
X82832784Y-153732052D02*
X82795288Y-153750799D01*
X83170241Y-153675809D02*
X83188989Y-153657061D01*
X83188989Y-153657061D02*
X83226484Y-153638313D01*
X83226484Y-153638313D02*
X83320223Y-153638313D01*
X83320223Y-153638313D02*
X83357718Y-153657061D01*
X83357718Y-153657061D02*
X83376466Y-153675809D01*
X83376466Y-153675809D02*
X83395213Y-153713304D01*
X83395213Y-153713304D02*
X83395213Y-153750799D01*
X83395213Y-153750799D02*
X83376466Y-153807042D01*
X83376466Y-153807042D02*
X83151494Y-154032014D01*
X83151494Y-154032014D02*
X83395213Y-154032014D01*
D14*
X74154761Y-105352419D02*
X73821428Y-104876228D01*
X73583333Y-105352419D02*
X73583333Y-104352419D01*
X73583333Y-104352419D02*
X73964285Y-104352419D01*
X73964285Y-104352419D02*
X74059523Y-104400038D01*
X74059523Y-104400038D02*
X74107142Y-104447657D01*
X74107142Y-104447657D02*
X74154761Y-104542895D01*
X74154761Y-104542895D02*
X74154761Y-104685752D01*
X74154761Y-104685752D02*
X74107142Y-104780990D01*
X74107142Y-104780990D02*
X74059523Y-104828609D01*
X74059523Y-104828609D02*
X73964285Y-104876228D01*
X73964285Y-104876228D02*
X73583333Y-104876228D01*
X74440476Y-104352419D02*
X74773809Y-105352419D01*
X74773809Y-105352419D02*
X75107142Y-104352419D01*
X75964285Y-105352419D02*
X75392857Y-105352419D01*
X75678571Y-105352419D02*
X75678571Y-104352419D01*
X75678571Y-104352419D02*
X75583333Y-104495276D01*
X75583333Y-104495276D02*
X75488095Y-104590514D01*
X75488095Y-104590514D02*
X75392857Y-104638133D01*
D16*
%TO.C,TH2*%
X76700000Y-166095000D02*
X77450000Y-166095000D01*
X77450000Y-163145000D02*
X80500000Y-163145000D01*
X77450000Y-166095000D02*
X77450000Y-163145000D01*
X83350000Y-168645000D02*
X84600000Y-168645000D01*
X83550000Y-163145000D02*
X80500000Y-163145000D01*
X83550000Y-166095000D02*
X83550000Y-163145000D01*
X84300000Y-166095000D02*
X83550000Y-166095000D01*
X84600000Y-168645000D02*
X84600000Y-167395000D01*
X78500000Y-168345000D02*
X76700000Y-168345000D01*
X76700000Y-167595000D01*
X78500000Y-167595000D01*
X78500000Y-168345000D01*
X81000000Y-168345000D02*
X80000000Y-168345000D01*
X80000000Y-167595000D01*
X81000000Y-167595000D01*
X81000000Y-168345000D01*
X84300000Y-168345000D02*
X82500000Y-168345000D01*
X82500000Y-167595000D01*
X84300000Y-167595000D01*
X84300000Y-168345000D01*
X84310000Y-168355000D02*
X76690000Y-168355000D01*
X76690000Y-162385000D01*
X84310000Y-162385000D01*
X84310000Y-168355000D01*
%TO.C,TH3*%
X87200000Y-166095000D02*
X87950000Y-166095000D01*
X87950000Y-163145000D02*
X91000000Y-163145000D01*
X87950000Y-166095000D02*
X87950000Y-163145000D01*
X93850000Y-168645000D02*
X95100000Y-168645000D01*
X94050000Y-163145000D02*
X91000000Y-163145000D01*
X94050000Y-166095000D02*
X94050000Y-163145000D01*
X94800000Y-166095000D02*
X94050000Y-166095000D01*
X95100000Y-168645000D02*
X95100000Y-167395000D01*
X89000000Y-168345000D02*
X87200000Y-168345000D01*
X87200000Y-167595000D01*
X89000000Y-167595000D01*
X89000000Y-168345000D01*
X91500000Y-168345000D02*
X90500000Y-168345000D01*
X90500000Y-167595000D01*
X91500000Y-167595000D01*
X91500000Y-168345000D01*
X94800000Y-168345000D02*
X93000000Y-168345000D01*
X93000000Y-167595000D01*
X94800000Y-167595000D01*
X94800000Y-168345000D01*
X94810000Y-168355000D02*
X87190000Y-168355000D01*
X87190000Y-162385000D01*
X94810000Y-162385000D01*
X94810000Y-168355000D01*
D17*
%TO.C,R6*%
X102870000Y-122905000D02*
X102630000Y-122905000D01*
X102870000Y-124265000D02*
X102630000Y-124265000D01*
D10*
%TO.C,J3*%
X83344600Y-50773390D02*
X83344600Y-71472426D01*
X83344600Y-72597574D02*
X83344600Y-81632426D01*
X83344600Y-82757574D02*
X83344600Y-84021999D01*
X83344600Y-84021999D02*
X95587400Y-84021999D01*
X95587400Y-50773390D02*
X83344600Y-50773390D01*
X95587400Y-71472426D02*
X95587400Y-50773390D01*
X95587400Y-81632426D02*
X95587400Y-72597574D01*
X95587400Y-84021999D02*
X95587400Y-82757574D01*
D18*
X96603400Y-78395000D02*
G75*
G02*
X95841400Y-78395000I-381000J0D01*
G01*
X95841400Y-78395000D02*
G75*
G02*
X96603400Y-78395000I381000J0D01*
G01*
D17*
%TO.C,U2*%
X90615000Y-114290000D02*
X96965000Y-114290000D01*
X90615000Y-123880000D02*
X96965000Y-123880000D01*
D19*
X88855000Y-115275000D02*
G75*
G02*
X88655000Y-115275000I-100000J0D01*
G01*
X88655000Y-115275000D02*
G75*
G02*
X88855000Y-115275000I100000J0D01*
G01*
D17*
%TO.C,R3*%
X83870000Y-119905000D02*
X83630000Y-119905000D01*
X83870000Y-121265000D02*
X83630000Y-121265000D01*
%TO.C,R10*%
X101750000Y-151890000D02*
X101510000Y-151890000D01*
X101750000Y-153250000D02*
X101510000Y-153250000D01*
%TO.C,R4*%
X83901600Y-116905000D02*
X83661600Y-116905000D01*
X83901600Y-118265000D02*
X83661600Y-118265000D01*
%TO.C,C16*%
X72100000Y-98945000D02*
X72100000Y-99275000D01*
X72100000Y-101515000D02*
X72100000Y-101845000D01*
X72100000Y-101845000D02*
X72800000Y-102545000D01*
X72800000Y-98245000D02*
X72100000Y-98945000D01*
X72800000Y-102545000D02*
X76400000Y-102545000D01*
X76400000Y-98245000D02*
X72800000Y-98245000D01*
X76400000Y-99275000D02*
X76400000Y-98245000D01*
X76400000Y-102545000D02*
X76400000Y-101515000D01*
D19*
X71200000Y-98945000D02*
G75*
G02*
X71000000Y-98945000I-100000J0D01*
G01*
X71000000Y-98945000D02*
G75*
G02*
X71200000Y-98945000I100000J0D01*
G01*
D17*
%TO.C,C19*%
X90600000Y-129445000D02*
X90600000Y-129775000D01*
X90600000Y-132015000D02*
X90600000Y-132345000D01*
X90600000Y-132345000D02*
X91300000Y-133045000D01*
X91300000Y-128745000D02*
X90600000Y-129445000D01*
X91300000Y-133045000D02*
X94900000Y-133045000D01*
X94900000Y-128745000D02*
X91300000Y-128745000D01*
X94900000Y-129775000D02*
X94900000Y-128745000D01*
X94900000Y-133045000D02*
X94900000Y-132015000D01*
D19*
X89700000Y-129445000D02*
G75*
G02*
X89500000Y-129445000I-100000J0D01*
G01*
X89500000Y-129445000D02*
G75*
G02*
X89700000Y-129445000I100000J0D01*
G01*
D17*
%TO.C,U4*%
X89145000Y-146330000D02*
X95495000Y-146330000D01*
X89145000Y-155920000D02*
X95495000Y-155920000D01*
D19*
X87385000Y-147315000D02*
G75*
G02*
X87185000Y-147315000I-100000J0D01*
G01*
X87185000Y-147315000D02*
G75*
G02*
X87385000Y-147315000I100000J0D01*
G01*
D17*
%TO.C,C17*%
X92350000Y-98945000D02*
X92350000Y-99275000D01*
X92350000Y-101515000D02*
X92350000Y-101845000D01*
X92350000Y-101845000D02*
X93050000Y-102545000D01*
X93050000Y-98245000D02*
X92350000Y-98945000D01*
X93050000Y-102545000D02*
X96650000Y-102545000D01*
X96650000Y-98245000D02*
X93050000Y-98245000D01*
X96650000Y-99275000D02*
X96650000Y-98245000D01*
X96650000Y-102545000D02*
X96650000Y-101515000D01*
D19*
X91450000Y-98945000D02*
G75*
G02*
X91250000Y-98945000I-100000J0D01*
G01*
X91250000Y-98945000D02*
G75*
G02*
X91450000Y-98945000I100000J0D01*
G01*
D16*
%TO.C,D4*%
X84705000Y-93460000D02*
X87795000Y-93460000D01*
X84705170Y-93460000D02*
G75*
G02*
X86250000Y-87910000I1544830J2560000D01*
G01*
X86250000Y-87910000D02*
G75*
G02*
X87794830Y-93460000I0J-2990000D01*
G01*
X88750000Y-90900000D02*
G75*
G02*
X83750000Y-90900000I-2500000J0D01*
G01*
X83750000Y-90900000D02*
G75*
G02*
X88750000Y-90900000I2500000J0D01*
G01*
D17*
%TO.C,R14*%
X82608400Y-145905000D02*
X82368400Y-145905000D01*
X82608400Y-147265000D02*
X82368400Y-147265000D01*
D16*
%TO.C,TP3*%
X83240000Y-140895000D02*
G75*
G02*
X81340000Y-140895000I-950000J0D01*
G01*
X81340000Y-140895000D02*
G75*
G02*
X83240000Y-140895000I950000J0D01*
G01*
D17*
%TO.C,R8*%
X102940000Y-116905000D02*
X102700000Y-116905000D01*
X102940000Y-118265000D02*
X102700000Y-118265000D01*
D16*
%TO.C,J1*%
X60500000Y-65995000D02*
X60500000Y-67245000D01*
X60500000Y-67245000D02*
X61750000Y-67245000D01*
X63050000Y-51845000D02*
X63050000Y-52595000D01*
X63050000Y-52595000D02*
X66000000Y-52595000D01*
X63050000Y-66195000D02*
X66000000Y-66195000D01*
X63050000Y-66945000D02*
X63050000Y-66195000D01*
X66000000Y-52595000D02*
X66000000Y-59395000D01*
X66000000Y-66195000D02*
X66000000Y-59395000D01*
X60790000Y-66955000D02*
X66760000Y-66955000D01*
X66760000Y-51835000D01*
X60790000Y-51835000D01*
X60790000Y-66955000D01*
X60800000Y-53645000D02*
X61550000Y-53645000D01*
X61550000Y-51845000D01*
X60800000Y-51845000D01*
X60800000Y-53645000D01*
X60800000Y-63645000D02*
X61550000Y-63645000D01*
X61550000Y-55145000D01*
X60800000Y-55145000D01*
X60800000Y-63645000D01*
X60800000Y-66945000D02*
X61550000Y-66945000D01*
X61550000Y-65145000D01*
X60800000Y-65145000D01*
X60800000Y-66945000D01*
D17*
%TO.C,C18*%
X71600000Y-129445000D02*
X71600000Y-129775000D01*
X71600000Y-132015000D02*
X71600000Y-132345000D01*
X71600000Y-132345000D02*
X72300000Y-133045000D01*
X72300000Y-128745000D02*
X71600000Y-129445000D01*
X72300000Y-133045000D02*
X75900000Y-133045000D01*
X75900000Y-128745000D02*
X72300000Y-128745000D01*
X75900000Y-129775000D02*
X75900000Y-128745000D01*
X75900000Y-133045000D02*
X75900000Y-132015000D01*
D19*
X70700000Y-129445000D02*
G75*
G02*
X70500000Y-129445000I-100000J0D01*
G01*
X70500000Y-129445000D02*
G75*
G02*
X70700000Y-129445000I100000J0D01*
G01*
D16*
%TO.C,TH4*%
X97700000Y-166095000D02*
X98450000Y-166095000D01*
X98450000Y-163145000D02*
X101500000Y-163145000D01*
X98450000Y-166095000D02*
X98450000Y-163145000D01*
X104350000Y-168645000D02*
X105600000Y-168645000D01*
X104550000Y-163145000D02*
X101500000Y-163145000D01*
X104550000Y-166095000D02*
X104550000Y-163145000D01*
X105300000Y-166095000D02*
X104550000Y-166095000D01*
X105600000Y-168645000D02*
X105600000Y-167395000D01*
X99500000Y-168345000D02*
X97700000Y-168345000D01*
X97700000Y-167595000D01*
X99500000Y-167595000D01*
X99500000Y-168345000D01*
X102000000Y-168345000D02*
X101000000Y-168345000D01*
X101000000Y-167595000D01*
X102000000Y-167595000D01*
X102000000Y-168345000D01*
X105300000Y-168345000D02*
X103500000Y-168345000D01*
X103500000Y-167595000D01*
X105300000Y-167595000D01*
X105300000Y-168345000D01*
X105310000Y-168355000D02*
X97690000Y-168355000D01*
X97690000Y-162385000D01*
X105310000Y-162385000D01*
X105310000Y-168355000D01*
D17*
%TO.C,R2*%
X83971600Y-122835000D02*
X83731600Y-122835000D01*
X83971600Y-124195000D02*
X83731600Y-124195000D01*
%TO.C,R9*%
X102870000Y-113905000D02*
X102630000Y-113905000D01*
X102870000Y-115265000D02*
X102630000Y-115265000D01*
%TO.C,R13*%
X82608400Y-148905000D02*
X82368400Y-148905000D01*
X82608400Y-150265000D02*
X82368400Y-150265000D01*
%TO.C,R5*%
X83901600Y-113835000D02*
X83661600Y-113835000D01*
X83901600Y-115195000D02*
X83661600Y-115195000D01*
%TO.C,R19*%
X101680000Y-145890000D02*
X101440000Y-145890000D01*
X101680000Y-147250000D02*
X101440000Y-147250000D01*
D16*
%TO.C,TP1*%
X84731600Y-107880000D02*
G75*
G02*
X82831600Y-107880000I-950000J0D01*
G01*
X82831600Y-107880000D02*
G75*
G02*
X84731600Y-107880000I950000J0D01*
G01*
%TO.C,TP4*%
X102200000Y-140895000D02*
G75*
G02*
X100300000Y-140895000I-950000J0D01*
G01*
X100300000Y-140895000D02*
G75*
G02*
X102200000Y-140895000I950000J0D01*
G01*
D10*
%TO.C,J2*%
X98060600Y-50773390D02*
X98060600Y-71472426D01*
X98060600Y-72597574D02*
X98060600Y-81632426D01*
X98060600Y-82757574D02*
X98060600Y-84021999D01*
X98060600Y-84021999D02*
X110303400Y-84021999D01*
X110303400Y-50773390D02*
X98060600Y-50773390D01*
X110303400Y-71472426D02*
X110303400Y-50773390D01*
X110303400Y-81632426D02*
X110303400Y-72597574D01*
X110303400Y-84021999D02*
X110303400Y-82757574D01*
D18*
X111319400Y-78395000D02*
G75*
G02*
X110557400Y-78395000I-381000J0D01*
G01*
X110557400Y-78395000D02*
G75*
G02*
X111319400Y-78395000I381000J0D01*
G01*
D17*
%TO.C,R18*%
X79570000Y-90775000D02*
X79570000Y-91015000D01*
X80930000Y-90775000D02*
X80930000Y-91015000D01*
%TO.C,U1*%
X71836600Y-114290000D02*
X78186600Y-114290000D01*
X71836600Y-123880000D02*
X78186600Y-123880000D01*
D19*
X70076600Y-115275000D02*
G75*
G02*
X69876600Y-115275000I-100000J0D01*
G01*
X69876600Y-115275000D02*
G75*
G02*
X70076600Y-115275000I100000J0D01*
G01*
D16*
%TO.C,TH1*%
X66100000Y-166095000D02*
X66850000Y-166095000D01*
X66850000Y-163145000D02*
X69900000Y-163145000D01*
X66850000Y-166095000D02*
X66850000Y-163145000D01*
X72750000Y-168645000D02*
X74000000Y-168645000D01*
X72950000Y-163145000D02*
X69900000Y-163145000D01*
X72950000Y-166095000D02*
X72950000Y-163145000D01*
X73700000Y-166095000D02*
X72950000Y-166095000D01*
X74000000Y-168645000D02*
X74000000Y-167395000D01*
X67900000Y-168345000D02*
X66100000Y-168345000D01*
X66100000Y-167595000D01*
X67900000Y-167595000D01*
X67900000Y-168345000D01*
X70400000Y-168345000D02*
X69400000Y-168345000D01*
X69400000Y-167595000D01*
X70400000Y-167595000D01*
X70400000Y-168345000D01*
X73700000Y-168345000D02*
X71900000Y-168345000D01*
X71900000Y-167595000D01*
X73700000Y-167595000D01*
X73700000Y-168345000D01*
X73710000Y-168355000D02*
X66090000Y-168355000D01*
X66090000Y-162385000D01*
X73710000Y-162385000D01*
X73710000Y-168355000D01*
D17*
%TO.C,R7*%
X102870000Y-119905000D02*
X102630000Y-119905000D01*
X102870000Y-121265000D02*
X102630000Y-121265000D01*
D10*
%TO.C,J4*%
X68628600Y-50773390D02*
X68628600Y-71472426D01*
X68628600Y-72597574D02*
X68628600Y-81632426D01*
X68628600Y-82757574D02*
X68628600Y-84021999D01*
X68628600Y-84021999D02*
X80871400Y-84021999D01*
X80871400Y-50773390D02*
X68628600Y-50773390D01*
X80871400Y-71472426D02*
X80871400Y-50773390D01*
X80871400Y-81632426D02*
X80871400Y-72597574D01*
X80871400Y-84021999D02*
X80871400Y-82757574D01*
D18*
X81887400Y-78395000D02*
G75*
G02*
X81125400Y-78395000I-381000J0D01*
G01*
X81125400Y-78395000D02*
G75*
G02*
X81887400Y-78395000I381000J0D01*
G01*
D17*
%TO.C,R11*%
X82538400Y-154905000D02*
X82298400Y-154905000D01*
X82538400Y-156265000D02*
X82298400Y-156265000D01*
%TO.C,U3*%
X70075000Y-146100000D02*
X76425000Y-146100000D01*
X70075000Y-155690000D02*
X76425000Y-155690000D01*
D19*
X68315000Y-147085000D02*
G75*
G02*
X68115000Y-147085000I-100000J0D01*
G01*
X68115000Y-147085000D02*
G75*
G02*
X68315000Y-147085000I100000J0D01*
G01*
D16*
%TO.C,TP2*%
X104700000Y-107355000D02*
G75*
G02*
X102800000Y-107355000I-950000J0D01*
G01*
X102800000Y-107355000D02*
G75*
G02*
X104700000Y-107355000I950000J0D01*
G01*
D17*
%TO.C,R1*%
X101680000Y-154890000D02*
X101440000Y-154890000D01*
X101680000Y-156250000D02*
X101440000Y-156250000D01*
%TO.C,R15*%
X101680000Y-148890000D02*
X101440000Y-148890000D01*
X101680000Y-150250000D02*
X101440000Y-150250000D01*
%TO.C,R12*%
X82608400Y-151905000D02*
X82368400Y-151905000D01*
X82608400Y-153265000D02*
X82368400Y-153265000D01*
%TD*%
M02*
