%TF.GenerationSoftware,KiCad,Pcbnew,9.0.7*%
%TF.CreationDate,2026-02-28T11:21:02-05:00*%
%TF.ProjectId,pcb,7063622e-6b69-4636-9164-5f7063625858,rev?*%
%TF.SameCoordinates,Original*%
%TF.FileFunction,Paste,Top*%
%TF.FilePolarity,Positive*%
%FSLAX46Y46*%
G04 Gerber Fmt 4.6, Leading zero omitted, Abs format (unit mm)*
G04 Created by KiCad (PCBNEW 9.0.7) date 2026-02-28 11:21:02*
%MOMM*%
%LPD*%
G01*
G04 APERTURE LIST*
G04 Aperture macros list*
%AMRoundRect*
0 Rectangle with rounded corners*
0 $1 Rounding radius*
0 $2 $3 $4 $5 $6 $7 $8 $9 X,Y pos of 4 corners*
0 Add a 4 corners polygon primitive as box body*
4,1,4,$2,$3,$4,$5,$6,$7,$8,$9,$2,$3,0*
0 Add four circle primitives for the rounded corners*
1,1,$1+$1,$2,$3*
1,1,$1+$1,$4,$5*
1,1,$1+$1,$6,$7*
1,1,$1+$1,$8,$9*
0 Add four rect primitives between the rounded corners*
20,1,$1+$1,$2,$3,$4,$5,0*
20,1,$1+$1,$4,$5,$6,$7,0*
20,1,$1+$1,$6,$7,$8,$9,0*
20,1,$1+$1,$8,$9,$2,$3,0*%
G04 Aperture macros list end*
%ADD10R,0.970000X1.380000*%
%ADD11R,2.500000X1.600000*%
%ADD12RoundRect,0.075000X-0.910000X-0.225000X0.910000X-0.225000X0.910000X0.225000X-0.910000X0.225000X0*%
%ADD13R,1.380000X0.970000*%
G04 APERTURE END LIST*
D10*
%TO.C,R6*%
X91870000Y-90000000D03*
X93730000Y-90000000D03*
%TD*%
%TO.C,R3*%
X91806500Y-102000000D03*
X93666500Y-102000000D03*
%TD*%
%TO.C,R10*%
X93666500Y-57000000D03*
X91806500Y-57000000D03*
%TD*%
%TO.C,R4*%
X91870000Y-104600000D03*
X93730000Y-104600000D03*
%TD*%
D11*
%TO.C,C1*%
X123750000Y-104000000D03*
X120250000Y-104000000D03*
%TD*%
%TO.C,C4*%
X123986500Y-62547839D03*
X120486500Y-62547839D03*
%TD*%
%TO.C,C2*%
X123986500Y-92547839D03*
X120486500Y-92547839D03*
%TD*%
D10*
%TO.C,R14*%
X93736500Y-80547839D03*
X91876500Y-80547839D03*
%TD*%
D12*
%TO.C,U1*%
X100530000Y-102695000D03*
X100530000Y-103965000D03*
X100530000Y-105235000D03*
X100530000Y-106505000D03*
X105470000Y-106505000D03*
X105470000Y-105235000D03*
X105470000Y-103965000D03*
X105470000Y-102695000D03*
%TD*%
%TO.C,U3*%
X100730000Y-73695000D03*
X100730000Y-74965000D03*
X100730000Y-76235000D03*
X100730000Y-77505000D03*
X105670000Y-77505000D03*
X105670000Y-76235000D03*
X105670000Y-74965000D03*
X105670000Y-73695000D03*
%TD*%
D10*
%TO.C,R8*%
X93666500Y-93047839D03*
X91806500Y-93047839D03*
%TD*%
D11*
%TO.C,C3*%
X123986500Y-78047839D03*
X120486500Y-78047839D03*
%TD*%
D10*
%TO.C,R2*%
X91806500Y-107547839D03*
X93666500Y-107547839D03*
%TD*%
%TO.C,R9*%
X93666500Y-96047839D03*
X91806500Y-96047839D03*
%TD*%
%TO.C,R13*%
X91876500Y-77547839D03*
X93736500Y-77547839D03*
%TD*%
%TO.C,R5*%
X91806500Y-110547839D03*
X93666500Y-110547839D03*
%TD*%
%TO.C,R19*%
X93666500Y-66047839D03*
X91806500Y-66047839D03*
%TD*%
D13*
%TO.C,R18*%
X97135000Y-117060000D03*
X97135000Y-115200000D03*
%TD*%
D10*
%TO.C,R7*%
X91806500Y-87000000D03*
X93666500Y-87000000D03*
%TD*%
D12*
%TO.C,U2*%
X100530000Y-88295000D03*
X100530000Y-89565000D03*
X100530000Y-90835000D03*
X100530000Y-92105000D03*
X105470000Y-92105000D03*
X105470000Y-90835000D03*
X105470000Y-89565000D03*
X105470000Y-88295000D03*
%TD*%
%TO.C,U4*%
X100460000Y-58990000D03*
X100460000Y-60260000D03*
X100460000Y-61530000D03*
X100460000Y-62800000D03*
X105400000Y-62800000D03*
X105400000Y-61530000D03*
X105400000Y-60260000D03*
X105400000Y-58990000D03*
%TD*%
D10*
%TO.C,R11*%
X91670000Y-74600000D03*
X93530000Y-74600000D03*
%TD*%
%TO.C,R1*%
X93730000Y-60000000D03*
X91870000Y-60000000D03*
%TD*%
%TO.C,R15*%
X91806500Y-63047839D03*
X93666500Y-63047839D03*
%TD*%
%TO.C,R12*%
X91670000Y-71000000D03*
X93530000Y-71000000D03*
%TD*%
M02*
