M48
; DRILL file {KiCad 9.0.7} date 2026-02-28T11:21:26-0500
; FORMAT={-:-/ absolute / metric / decimal}
; #@! TF.CreationDate,2026-02-28T11:21:26-05:00
; #@! TF.GenerationSoftware,Kicad,Pcbnew,9.0.7
; #@! TF.FileFunction,Plated,1,2,PTH
FMAT,2
METRIC
; #@! TA.AperFunction,Plated,PTH,ViaDrill
T1C0.700
; #@! TA.AperFunction,Plated,PTH,ComponentDrill
T2C0.700
; #@! TA.AperFunction,Plated,PTH,ComponentDrill
T3C0.800
; #@! TA.AperFunction,Plated,PTH,ComponentDrill
T4C0.900
; #@! TA.AperFunction,Plated,PTH,ComponentDrill
T5C1.000
; #@! TA.AperFunction,Plated,PTH,ComponentDrill
T6C1.778
%
G90
G05
T1
X97.0Y-91.6
X97.2Y-62.4
X97.2Y-77.0
X97.2Y-107.0
X105.2Y-108.2
X105.7Y-79.2
X106.0Y-64.8
X108.2Y-91.835
T2
X102.992Y-66.548
X102.992Y-81.643
X102.992Y-95.548
X102.992Y-110.143
T3
X112.695Y-74.548
X112.695Y-77.088
X112.695Y-79.628
X112.695Y-89.548
X112.695Y-92.088
X112.695Y-94.628
X112.695Y-103.048
X112.695Y-105.588
X112.695Y-108.128
X112.8Y-59.548
X112.8Y-62.088
X112.8Y-64.628
T4
X91.935Y-114.855
X91.935Y-117.395
T5
X84.583Y-102.693
X84.583Y-105.233
X84.583Y-107.773
X84.583Y-110.313
X84.583Y-112.853
X84.583Y-115.393
X84.583Y-117.933
X84.583Y-120.473
X84.613Y-56.793
X84.613Y-59.333
X84.613Y-61.873
X84.613Y-64.413
X84.613Y-66.953
X84.613Y-69.493
X84.613Y-72.033
X84.613Y-74.573
X84.613Y-79.793
X84.613Y-82.333
X84.613Y-84.873
X84.613Y-87.413
X84.613Y-89.953
X84.613Y-92.493
X84.613Y-95.033
X84.613Y-97.573
X131.913Y-47.683
X131.913Y-50.223
X131.913Y-52.763
X131.913Y-55.303
X131.913Y-57.843
X131.913Y-60.383
X131.913Y-62.923
X131.913Y-65.463
X131.913Y-68.003
X131.913Y-70.543
X131.913Y-74.673
X131.913Y-77.213
X131.913Y-79.753
X131.913Y-82.293
X131.913Y-84.833
X131.913Y-87.373
X131.913Y-89.913
X131.913Y-92.453
X131.913Y-97.673
X131.913Y-100.213
X131.913Y-102.753
X131.913Y-105.293
X131.913Y-107.833
X131.913Y-110.373
X131.913Y-112.913
X131.913Y-115.453
T6
X88.438Y-49.2
X92.4Y-49.2
X99.352Y-49.2
X101.425Y-118.8
X103.315Y-49.2
X105.388Y-118.8
X110.438Y-49.2
X112.075Y-118.8
X114.4Y-49.2
X116.038Y-118.8
X120.0Y-118.8
X121.352Y-49.2
X123.962Y-118.8
X125.315Y-49.2
M30
