%TF.GenerationSoftware,KiCad,Pcbnew,9.0.7*%
%TF.CreationDate,2026-02-28T11:21:02-05:00*%
%TF.ProjectId,pcb,7063622e-6b69-4636-9164-5f7063625858,rev?*%
%TF.SameCoordinates,Original*%
%TF.FileFunction,Copper,L1,Top*%
%TF.FilePolarity,Positive*%
%FSLAX46Y46*%
G04 Gerber Fmt 4.6, Leading zero omitted, Abs format (unit mm)*
G04 Created by KiCad (PCBNEW 9.0.7) date 2026-02-28 11:21:02*
%MOMM*%
%LPD*%
G01*
G04 APERTURE LIST*
G04 Aperture macros list*
%AMRoundRect*
0 Rectangle with rounded corners*
0 $1 Rounding radius*
0 $2 $3 $4 $5 $6 $7 $8 $9 X,Y pos of 4 corners*
0 Add a 4 corners polygon primitive as box body*
4,1,4,$2,$3,$4,$5,$6,$7,$8,$9,$2,$3,0*
0 Add four circle primitives for the rounded corners*
1,1,$1+$1,$2,$3*
1,1,$1+$1,$4,$5*
1,1,$1+$1,$6,$7*
1,1,$1+$1,$8,$9*
0 Add four rect primitives between the rounded corners*
20,1,$1+$1,$2,$3,$4,$5,0*
20,1,$1+$1,$4,$5,$6,$7,0*
20,1,$1+$1,$6,$7,$8,$9,0*
20,1,$1+$1,$8,$9,$2,$3,0*%
G04 Aperture macros list end*
%TA.AperFunction,ComponentPad*%
%ADD10R,2.000000X2.000000*%
%TD*%
%TA.AperFunction,ComponentPad*%
%ADD11C,2.000000*%
%TD*%
%TA.AperFunction,ComponentPad*%
%ADD12C,2.286000*%
%TD*%
%TA.AperFunction,SMDPad,CuDef*%
%ADD13R,0.970000X1.380000*%
%TD*%
%TA.AperFunction,SMDPad,CuDef*%
%ADD14R,2.500000X1.600000*%
%TD*%
%TA.AperFunction,ComponentPad*%
%ADD15R,1.800000X1.800000*%
%TD*%
%TA.AperFunction,ComponentPad*%
%ADD16C,1.800000*%
%TD*%
%TA.AperFunction,SMDPad,CuDef*%
%ADD17RoundRect,0.075000X-0.910000X-0.225000X0.910000X-0.225000X0.910000X0.225000X-0.910000X0.225000X0*%
%TD*%
%TA.AperFunction,ComponentPad*%
%ADD18C,1.500000*%
%TD*%
%TA.AperFunction,SMDPad,CuDef*%
%ADD19R,1.380000X0.970000*%
%TD*%
%TA.AperFunction,ComponentPad*%
%ADD20R,1.700000X1.700000*%
%TD*%
%TA.AperFunction,ComponentPad*%
%ADD21C,1.700000*%
%TD*%
%TA.AperFunction,ViaPad*%
%ADD22C,1.100000*%
%TD*%
%TA.AperFunction,Conductor*%
%ADD23C,0.300000*%
%TD*%
%TA.AperFunction,Conductor*%
%ADD24C,0.400000*%
%TD*%
%TA.AperFunction,Conductor*%
%ADD25C,0.600000*%
%TD*%
G04 APERTURE END LIST*
D10*
%TO.P,RV3,1,1*%
%TO.N,Net-(U3-NEGB)*%
X112695000Y-79627839D03*
D11*
%TO.P,RV3,2,2*%
%TO.N,T3 sortie*%
X112695000Y-77087839D03*
%TO.P,RV3,3,3*%
%TO.N,GND*%
X112695000Y-74547839D03*
%TD*%
D12*
%TO.P,J1,1,1*%
%TO.N,GND*%
X105387600Y-118800000D03*
%TO.P,J1,2,2*%
%TO.N,+5V (Ali seulement)*%
X101425200Y-118800000D03*
%TD*%
D13*
%TO.P,R6,1*%
%TO.N,+5V*%
X91870000Y-90000000D03*
%TO.P,R6,2*%
%TO.N,Net-(U2-POSA)*%
X93730000Y-90000000D03*
%TD*%
%TO.P,R3,1*%
%TO.N,GND*%
X91806500Y-102000000D03*
%TO.P,R3,2*%
%TO.N,Net-(U1-POSA)*%
X93666500Y-102000000D03*
%TD*%
D10*
%TO.P,RV2,1,1*%
%TO.N,Net-(U2-NEGB)*%
X112695000Y-94627839D03*
D11*
%TO.P,RV2,2,2*%
%TO.N,T2 sortie*%
X112695000Y-92087839D03*
%TO.P,RV2,3,3*%
%TO.N,GND*%
X112695000Y-89547839D03*
%TD*%
D13*
%TO.P,R10,1*%
%TO.N,Net-(U4-POSA)*%
X93666500Y-57000000D03*
%TO.P,R10,2*%
%TO.N,GND*%
X91806500Y-57000000D03*
%TD*%
%TO.P,R4,1*%
%TO.N,+5V*%
X91870000Y-104600000D03*
%TO.P,R4,2*%
%TO.N,Net-(U1-POSA)*%
X93730000Y-104600000D03*
%TD*%
D14*
%TO.P,C1,1*%
%TO.N,Net-(U1-NEGB)*%
X123750000Y-104000000D03*
%TO.P,C1,2*%
%TO.N,T1 sortie*%
X120250000Y-104000000D03*
%TD*%
%TO.P,C4,1*%
%TO.N,Net-(U4-NEGB)*%
X123986500Y-62547839D03*
%TO.P,C4,2*%
%TO.N,T4 sortie*%
X120486500Y-62547839D03*
%TD*%
%TO.P,C2,1*%
%TO.N,Net-(U2-NEGB)*%
X123986500Y-92547839D03*
%TO.P,C2,2*%
%TO.N,T2 sortie*%
X120486500Y-92547839D03*
%TD*%
D12*
%TO.P,TH3,1*%
%TO.N,Net-(U3-POSB)*%
X110437600Y-49200000D03*
%TO.P,TH3,2*%
%TO.N,+5V*%
X114400000Y-49200000D03*
%TD*%
D15*
%TO.P,D1,1,K*%
%TO.N,GND*%
X91935000Y-114855000D03*
D16*
%TO.P,D1,2,A*%
%TO.N,Net-(D1-A)*%
X91935000Y-117395000D03*
%TD*%
D12*
%TO.P,TH2,1*%
%TO.N,Net-(U2-POSB)*%
X99352200Y-49200000D03*
%TO.P,TH2,2*%
%TO.N,+5V*%
X103314600Y-49200000D03*
%TD*%
D13*
%TO.P,R14,1*%
%TO.N,Net-(U3-POSB)*%
X93736500Y-80547839D03*
%TO.P,R14,2*%
%TO.N,GND*%
X91876500Y-80547839D03*
%TD*%
D17*
%TO.P,U1,1,OUTA*%
%TO.N,Net-(U1-NEGA)*%
X100530000Y-102695000D03*
%TO.P,U1,2,NEGA*%
X100530000Y-103965000D03*
%TO.P,U1,3,POSA*%
%TO.N,Net-(U1-POSA)*%
X100530000Y-105235000D03*
%TO.P,U1,4,V-*%
%TO.N,GND*%
X100530000Y-106505000D03*
%TO.P,U1,5,POSB*%
%TO.N,Net-(U1-POSB)*%
X105470000Y-106505000D03*
%TO.P,U1,6,NEGB*%
%TO.N,Net-(U1-NEGB)*%
X105470000Y-105235000D03*
%TO.P,U1,7,OUTB*%
%TO.N,T1 sortie*%
X105470000Y-103965000D03*
%TO.P,U1,8,V+*%
%TO.N,+5V*%
X105470000Y-102695000D03*
%TD*%
D10*
%TO.P,RV4,1,1*%
%TO.N,Net-(U4-NEGB)*%
X112800000Y-64627839D03*
D11*
%TO.P,RV4,2,2*%
%TO.N,T4 sortie*%
X112800000Y-62087839D03*
%TO.P,RV4,3,3*%
%TO.N,GND*%
X112800000Y-59547839D03*
%TD*%
D12*
%TO.P,TH4,1*%
%TO.N,Net-(U4-POSB)*%
X121352200Y-49200000D03*
%TO.P,TH4,2*%
%TO.N,+5V*%
X125314600Y-49200000D03*
%TD*%
D18*
%TO.P,TP3,1,1*%
%TO.N,T3 sortie*%
X102991500Y-81642839D03*
%TD*%
D17*
%TO.P,U3,1,OUTA*%
%TO.N,Net-(U3-NEGA)*%
X100730000Y-73695000D03*
%TO.P,U3,2,NEGA*%
X100730000Y-74965000D03*
%TO.P,U3,3,POSA*%
%TO.N,Net-(U3-POSA)*%
X100730000Y-76235000D03*
%TO.P,U3,4,V-*%
%TO.N,GND*%
X100730000Y-77505000D03*
%TO.P,U3,5,POSB*%
%TO.N,Net-(U3-POSB)*%
X105670000Y-77505000D03*
%TO.P,U3,6,NEGB*%
%TO.N,Net-(U3-NEGB)*%
X105670000Y-76235000D03*
%TO.P,U3,7,OUTB*%
%TO.N,T3 sortie*%
X105670000Y-74965000D03*
%TO.P,U3,8,V+*%
%TO.N,+5V*%
X105670000Y-73695000D03*
%TD*%
D13*
%TO.P,R8,1*%
%TO.N,Net-(U2-NEGB)*%
X93666500Y-93047839D03*
%TO.P,R8,2*%
%TO.N,Net-(U2-NEGA)*%
X91806500Y-93047839D03*
%TD*%
D14*
%TO.P,C3,1*%
%TO.N,Net-(U3-NEGB)*%
X123986500Y-78047839D03*
%TO.P,C3,2*%
%TO.N,T3 sortie*%
X120486500Y-78047839D03*
%TD*%
D13*
%TO.P,R2,1*%
%TO.N,Net-(U1-NEGB)*%
X91806500Y-107547839D03*
%TO.P,R2,2*%
%TO.N,Net-(U1-NEGA)*%
X93666500Y-107547839D03*
%TD*%
%TO.P,R9,1*%
%TO.N,Net-(U2-POSB)*%
X93666500Y-96047839D03*
%TO.P,R9,2*%
%TO.N,GND*%
X91806500Y-96047839D03*
%TD*%
%TO.P,R13,1*%
%TO.N,Net-(U3-NEGB)*%
X91876500Y-77547839D03*
%TO.P,R13,2*%
%TO.N,Net-(U3-NEGA)*%
X93736500Y-77547839D03*
%TD*%
%TO.P,R5,1*%
%TO.N,GND*%
X91806500Y-110547839D03*
%TO.P,R5,2*%
%TO.N,Net-(U1-POSB)*%
X93666500Y-110547839D03*
%TD*%
%TO.P,R19,1*%
%TO.N,Net-(U4-POSB)*%
X93666500Y-66047839D03*
%TO.P,R19,2*%
%TO.N,GND*%
X91806500Y-66047839D03*
%TD*%
D18*
%TO.P,TP1,1,1*%
%TO.N,T1 sortie*%
X102991500Y-110142839D03*
%TD*%
%TO.P,TP4,1,1*%
%TO.N,T4 sortie*%
X102991500Y-66547839D03*
%TD*%
D12*
%TO.P,TH1,1*%
%TO.N,Net-(U1-POSB)*%
X88437600Y-49200000D03*
%TO.P,TH1,2*%
%TO.N,+5V*%
X92400000Y-49200000D03*
%TD*%
D19*
%TO.P,R18,1*%
%TO.N,+5V*%
X97135000Y-117060000D03*
%TO.P,R18,2*%
%TO.N,Net-(D1-A)*%
X97135000Y-115200000D03*
%TD*%
D13*
%TO.P,R7,1*%
%TO.N,GND*%
X91806500Y-87000000D03*
%TO.P,R7,2*%
%TO.N,Net-(U2-POSA)*%
X93666500Y-87000000D03*
%TD*%
D17*
%TO.P,U2,1,OUTA*%
%TO.N,Net-(U2-NEGA)*%
X100530000Y-88295000D03*
%TO.P,U2,2,NEGA*%
X100530000Y-89565000D03*
%TO.P,U2,3,POSA*%
%TO.N,Net-(U2-POSA)*%
X100530000Y-90835000D03*
%TO.P,U2,4,V-*%
%TO.N,GND*%
X100530000Y-92105000D03*
%TO.P,U2,5,POSB*%
%TO.N,Net-(U2-POSB)*%
X105470000Y-92105000D03*
%TO.P,U2,6,NEGB*%
%TO.N,Net-(U2-NEGB)*%
X105470000Y-90835000D03*
%TO.P,U2,7,OUTB*%
%TO.N,T2 sortie*%
X105470000Y-89565000D03*
%TO.P,U2,8,V+*%
%TO.N,+5V*%
X105470000Y-88295000D03*
%TD*%
%TO.P,U4,1,OUTA*%
%TO.N,Net-(U4-NEGA)*%
X100460000Y-58990000D03*
%TO.P,U4,2,NEGA*%
X100460000Y-60260000D03*
%TO.P,U4,3,POSA*%
%TO.N,Net-(U4-POSA)*%
X100460000Y-61530000D03*
%TO.P,U4,4,V-*%
%TO.N,GND*%
X100460000Y-62800000D03*
%TO.P,U4,5,POSB*%
%TO.N,Net-(U4-POSB)*%
X105400000Y-62800000D03*
%TO.P,U4,6,NEGB*%
%TO.N,Net-(U4-NEGB)*%
X105400000Y-61530000D03*
%TO.P,U4,7,OUTB*%
%TO.N,T4 sortie*%
X105400000Y-60260000D03*
%TO.P,U4,8,V+*%
%TO.N,+5V*%
X105400000Y-58990000D03*
%TD*%
D13*
%TO.P,R11,1*%
%TO.N,+5V*%
X91670000Y-74600000D03*
%TO.P,R11,2*%
%TO.N,Net-(U3-POSA)*%
X93530000Y-74600000D03*
%TD*%
D12*
%TO.P,J2,1,1*%
%TO.N,pwmdroite*%
X123962400Y-118800000D03*
%TO.P,J2,2,2*%
%TO.N,pwmgauche*%
X120000000Y-118800000D03*
%TO.P,J2,3,3*%
%TO.N,GND*%
X116037600Y-118800000D03*
%TO.P,J2,4,4*%
%TO.N,+5V (Ali seulement)*%
X112075200Y-118800000D03*
%TD*%
D18*
%TO.P,TP2,1,1*%
%TO.N,T2 sortie*%
X102991500Y-95547839D03*
%TD*%
D13*
%TO.P,R1,1*%
%TO.N,Net-(U4-POSA)*%
X93730000Y-60000000D03*
%TO.P,R1,2*%
%TO.N,+5V*%
X91870000Y-60000000D03*
%TD*%
%TO.P,R15,1*%
%TO.N,Net-(U4-NEGB)*%
X91806500Y-63047839D03*
%TO.P,R15,2*%
%TO.N,Net-(U4-NEGA)*%
X93666500Y-63047839D03*
%TD*%
%TO.P,R12,1*%
%TO.N,GND*%
X91670000Y-71000000D03*
%TO.P,R12,2*%
%TO.N,Net-(U3-POSA)*%
X93530000Y-71000000D03*
%TD*%
D10*
%TO.P,RV1,1,1*%
%TO.N,Net-(U1-NEGB)*%
X112695000Y-108127839D03*
D11*
%TO.P,RV1,2,2*%
%TO.N,T1 sortie*%
X112695000Y-105587839D03*
%TO.P,RV1,3,3*%
%TO.N,GND*%
X112695000Y-103047839D03*
%TD*%
D20*
%TO.P,power2,1,Pin_1*%
%TO.N,unconnected-(power2-Pin_1-Pad1)*%
X84613400Y-56792839D03*
D21*
%TO.P,power2,2,Pin_2*%
%TO.N,+IOREF*%
X84613400Y-59332839D03*
%TO.P,power2,3,Pin_3*%
%TO.N,/RESET*%
X84613400Y-61872839D03*
%TO.P,power2,4,Pin_4*%
%TO.N,+3.3V*%
X84613400Y-64412839D03*
%TO.P,power2,5,Pin_5*%
%TO.N,+5V*%
X84613400Y-66952839D03*
%TO.P,power2,6,Pin_6*%
%TO.N,GND*%
X84613400Y-69492839D03*
%TO.P,power2,7,Pin_7*%
X84613400Y-72032839D03*
%TO.P,power2,8,Pin_8*%
%TO.N,+VIN*%
X84613400Y-74572839D03*
%TD*%
D20*
%TO.P,analogA0-A7,1,Pin_1*%
%TO.N,T4 sortie*%
X84613400Y-79792839D03*
D21*
%TO.P,analogA0-A7,2,Pin_2*%
%TO.N,T3 sortie*%
X84613400Y-82332839D03*
%TO.P,analogA0-A7,3,Pin_3*%
%TO.N,T2 sortie*%
X84613400Y-84872839D03*
%TO.P,analogA0-A7,4,Pin_4*%
%TO.N,T1 sortie*%
X84613400Y-87412839D03*
%TO.P,analogA0-A7,5,Pin_5*%
%TO.N,/A4*%
X84613400Y-89952839D03*
%TO.P,analogA0-A7,6,Pin_6*%
%TO.N,/A5*%
X84613400Y-92492839D03*
%TO.P,analogA0-A7,7,Pin_7*%
%TO.N,/A6*%
X84613400Y-95032839D03*
%TO.P,analogA0-A7,8,Pin_8*%
%TO.N,/A7*%
X84613400Y-97572839D03*
%TD*%
D20*
%TO.P,comm1,1,Pin_1*%
%TO.N,/D14*%
X131913400Y-97672839D03*
D21*
%TO.P,comm1,2,Pin_2*%
%TO.N,/D15*%
X131913400Y-100212839D03*
%TO.P,comm1,3,Pin_3*%
%TO.N,/D16*%
X131913400Y-102752839D03*
%TO.P,comm1,4,Pin_4*%
%TO.N,/D17*%
X131913400Y-105292839D03*
%TO.P,comm1,5,Pin_5*%
%TO.N,/D18*%
X131913400Y-107832839D03*
%TO.P,comm1,6,Pin_6*%
%TO.N,/D19*%
X131913400Y-110372839D03*
%TO.P,comm1,7,Pin_7*%
%TO.N,/D20*%
X131913400Y-112912839D03*
%TO.P,comm1,8,Pin_8*%
%TO.N,/D21*%
X131913400Y-115452839D03*
%TD*%
D20*
%TO.P,analogA8-A15,1,Pin_1*%
%TO.N,/A8*%
X84583400Y-102692839D03*
D21*
%TO.P,analogA8-A15,2,Pin_2*%
%TO.N,/A9*%
X84583400Y-105232839D03*
%TO.P,analogA8-A15,3,Pin_3*%
%TO.N,/A10*%
X84583400Y-107772839D03*
%TO.P,analogA8-A15,4,Pin_4*%
%TO.N,/A11*%
X84583400Y-110312839D03*
%TO.P,analogA8-A15,5,Pin_5*%
%TO.N,/A12*%
X84583400Y-112852839D03*
%TO.P,analogA8-A15,6,Pin_6*%
%TO.N,/A13*%
X84583400Y-115392839D03*
%TO.P,analogA8-A15,7,Pin_7*%
%TO.N,/A14*%
X84583400Y-117932839D03*
%TO.P,analogA8-A15,8,Pin_8*%
%TO.N,/A15*%
X84583400Y-120472839D03*
%TD*%
D20*
%TO.P,pwm1,1,Pin_1*%
%TO.N,/SCL*%
X131913400Y-47682839D03*
D21*
%TO.P,pwm1,2,Pin_2*%
%TO.N,/SDA*%
X131913400Y-50222839D03*
%TO.P,pwm1,3,Pin_3*%
%TO.N,+AREF*%
X131913400Y-52762839D03*
%TO.P,pwm1,4,Pin_4*%
%TO.N,GND*%
X131913400Y-55302839D03*
%TO.P,pwm1,5,Pin_5*%
%TO.N,/D13*%
X131913400Y-57842839D03*
%TO.P,pwm1,6,Pin_6*%
%TO.N,/D12*%
X131913400Y-60382839D03*
%TO.P,pwm1,7,Pin_7*%
%TO.N,pwmgauche*%
X131913400Y-62922839D03*
%TO.P,pwm1,8,Pin_8*%
%TO.N,/D10*%
X131913400Y-65462839D03*
%TO.P,pwm1,9,Pin_9*%
%TO.N,/D9*%
X131913400Y-68002839D03*
%TO.P,pwm1,10,Pin_10*%
%TO.N,/D8*%
X131913400Y-70542839D03*
%TD*%
D20*
%TO.P,pwm2,1,Pin_1*%
%TO.N,/D7*%
X131913400Y-74672839D03*
D21*
%TO.P,pwm2,2,Pin_2*%
%TO.N,/D6*%
X131913400Y-77212839D03*
%TO.P,pwm2,3,Pin_3*%
%TO.N,pwmdroite*%
X131913400Y-79752839D03*
%TO.P,pwm2,4,Pin_4*%
%TO.N,/D4*%
X131913400Y-82292839D03*
%TO.P,pwm2,5,Pin_5*%
%TO.N,/D3*%
X131913400Y-84832839D03*
%TO.P,pwm2,6,Pin_6*%
%TO.N,/D2*%
X131913400Y-87372839D03*
%TO.P,pwm2,7,Pin_7*%
%TO.N,/D1{slash}TX0*%
X131913400Y-89912839D03*
%TO.P,pwm2,8,Pin_8*%
%TO.N,/D0{slash}RX0*%
X131913400Y-92452839D03*
%TD*%
D22*
%TO.N,GND*%
X97000000Y-91600000D03*
X97200000Y-62400000D03*
X97200000Y-77000000D03*
X97200000Y-107000000D03*
%TO.N,Net-(U1-POSB)*%
X105200000Y-108200000D03*
%TO.N,Net-(U2-POSB)*%
X108200000Y-91835000D03*
%TO.N,Net-(U3-POSB)*%
X105700000Y-79200000D03*
%TO.N,Net-(U4-POSB)*%
X106000000Y-64800000D03*
%TD*%
D23*
%TO.N,T1 sortie*%
X111072161Y-103965000D02*
X112695000Y-105587839D01*
X115200000Y-105600000D02*
X115187839Y-105587839D01*
X116800000Y-104000000D02*
X115200000Y-105600000D01*
X105470000Y-103965000D02*
X111072161Y-103965000D01*
X120250000Y-104000000D02*
X116800000Y-104000000D01*
X115187839Y-105587839D02*
X112695000Y-105587839D01*
%TO.N,T3 sortie*%
X109565000Y-74965000D02*
X111687839Y-77087839D01*
X111687839Y-77087839D02*
X112695000Y-77087839D01*
X105670000Y-74965000D02*
X109565000Y-74965000D01*
X113655000Y-78047839D02*
X112695000Y-77087839D01*
X120486500Y-78047839D02*
X113655000Y-78047839D01*
%TO.N,T2 sortie*%
X113155000Y-92547839D02*
X112695000Y-92087839D01*
X120486500Y-92547839D02*
X113155000Y-92547839D01*
X110172161Y-89565000D02*
X112695000Y-92087839D01*
X105470000Y-89565000D02*
X110172161Y-89565000D01*
%TO.N,GND*%
X91806500Y-110547839D02*
X91806500Y-114726500D01*
X100530000Y-92105000D02*
X101514999Y-92105000D01*
X91806500Y-57000000D02*
X92947500Y-55859000D01*
X92947500Y-85859000D02*
X91806500Y-87000000D01*
X102767000Y-73001102D02*
X102767000Y-76452999D01*
X100530000Y-106505000D02*
X101514999Y-106505000D01*
X97600000Y-62800000D02*
X100460000Y-62800000D01*
X99624898Y-69859000D02*
X102767000Y-73001102D01*
X91806500Y-66047839D02*
X90352161Y-66047839D01*
X97505000Y-92105000D02*
X97000000Y-91600000D01*
X102567000Y-105452999D02*
X102567000Y-101917058D01*
X92811000Y-69859000D02*
X99624898Y-69859000D01*
X92947500Y-100859000D02*
X91806500Y-102000000D01*
X102567000Y-101917058D02*
X101508942Y-100859000D01*
X90352161Y-66047839D02*
X86907161Y-69492839D01*
X100059898Y-55859000D02*
X102497000Y-58296102D01*
X101444999Y-62800000D02*
X100460000Y-62800000D01*
X102497000Y-58296102D02*
X102497000Y-61747999D01*
X91670000Y-71000000D02*
X92811000Y-69859000D01*
X86907161Y-69492839D02*
X84613400Y-69492839D01*
X91876500Y-80547839D02*
X91876500Y-84788000D01*
X92947500Y-55859000D02*
X100059898Y-55859000D01*
X100824898Y-85859000D02*
X92947500Y-85859000D01*
X91806500Y-99718000D02*
X92947500Y-100859000D01*
X102567000Y-87601102D02*
X100824898Y-85859000D01*
X91876500Y-84788000D02*
X92947500Y-85859000D01*
X102567000Y-91052999D02*
X102567000Y-87601102D01*
X97200000Y-62400000D02*
X97600000Y-62800000D01*
X91806500Y-96047839D02*
X91806500Y-99718000D01*
X100530000Y-92105000D02*
X97505000Y-92105000D01*
X102497000Y-61747999D02*
X101444999Y-62800000D01*
X97695000Y-106505000D02*
X97200000Y-107000000D01*
X100730000Y-77505000D02*
X97705000Y-77505000D01*
X97705000Y-77505000D02*
X97200000Y-77000000D01*
X101508942Y-100859000D02*
X92947500Y-100859000D01*
X101514999Y-92105000D02*
X102567000Y-91052999D01*
X102767000Y-76452999D02*
X101714999Y-77505000D01*
X91806500Y-114726500D02*
X91935000Y-114855000D01*
X101514999Y-106505000D02*
X102567000Y-105452999D01*
X100530000Y-106505000D02*
X97695000Y-106505000D01*
X101714999Y-77505000D02*
X100730000Y-77505000D01*
D24*
%TO.N,pwmgauche*%
X128200000Y-66636239D02*
X128200000Y-110600000D01*
X128200000Y-110600000D02*
X120000000Y-118800000D01*
X131913400Y-62922839D02*
X128200000Y-66636239D01*
%TO.N,pwmdroite*%
X129400000Y-82266239D02*
X131913400Y-79752839D01*
X129400000Y-113362400D02*
X129400000Y-82266239D01*
X123962400Y-118800000D02*
X129400000Y-113362400D01*
D23*
%TO.N,T4 sortie*%
X105400000Y-60260000D02*
X110972161Y-60260000D01*
X110972161Y-60260000D02*
X112800000Y-62087839D01*
D24*
X112800000Y-62087839D02*
X120026500Y-62087839D01*
X120026500Y-62087839D02*
X120486500Y-62547839D01*
D25*
%TO.N,+5V (Ali seulement)*%
X103625200Y-116600000D02*
X109875200Y-116600000D01*
X101425200Y-118800000D02*
X103625200Y-116600000D01*
X109875200Y-116600000D02*
X112075200Y-118800000D01*
D23*
%TO.N,Net-(U1-NEGB)*%
X109802161Y-105235000D02*
X112695000Y-108127839D01*
X112695000Y-108127839D02*
X119622161Y-108127839D01*
X105470000Y-105235000D02*
X109802161Y-105235000D01*
X101031162Y-108688839D02*
X92947500Y-108688839D01*
X105470000Y-105235000D02*
X104485001Y-105235000D01*
X119622161Y-108127839D02*
X123750000Y-104000000D01*
X92947500Y-108688839D02*
X91806500Y-107547839D01*
X104485001Y-105235000D02*
X101031162Y-108688839D01*
%TO.N,Net-(U2-NEGB)*%
X102400000Y-93200000D02*
X93818661Y-93200000D01*
X93818661Y-93200000D02*
X93666500Y-93047839D01*
X105470000Y-90835000D02*
X108902161Y-90835000D01*
X108902161Y-90835000D02*
X112695000Y-94627839D01*
X104765000Y-90835000D02*
X102400000Y-93200000D01*
X105470000Y-90835000D02*
X104765000Y-90835000D01*
X121906500Y-94627839D02*
X123986500Y-92547839D01*
X112695000Y-94627839D02*
X121906500Y-94627839D01*
%TO.N,Net-(U1-NEGA)*%
X100530000Y-102695000D02*
X100530000Y-103965000D01*
X93666500Y-107547839D02*
X97249339Y-103965000D01*
X97249339Y-103965000D02*
X100530000Y-103965000D01*
%TO.N,Net-(U1-POSA)*%
X93666500Y-104536500D02*
X93730000Y-104600000D01*
X93666500Y-102000000D02*
X93666500Y-104536500D01*
X93730000Y-104600000D02*
X96386000Y-101944000D01*
X96386000Y-101944000D02*
X101744000Y-101944000D01*
X101744000Y-101944000D02*
X101966000Y-102166000D01*
X101966000Y-104409956D02*
X101140956Y-105235000D01*
X101140956Y-105235000D02*
X100530000Y-105235000D01*
X101966000Y-102166000D02*
X101966000Y-104409956D01*
%TO.N,Net-(U1-POSB)*%
X104064943Y-106505000D02*
X105470000Y-106505000D01*
X93666500Y-110547839D02*
X100022104Y-110547839D01*
X100022104Y-110547839D02*
X104064943Y-106505000D01*
X105470000Y-107930000D02*
X105200000Y-108200000D01*
X105470000Y-106505000D02*
X105470000Y-107930000D01*
%TO.N,Net-(U2-POSA)*%
X101659956Y-87544000D02*
X101966000Y-87850044D01*
X101966000Y-87850044D02*
X101966000Y-90009956D01*
X96186000Y-87544000D02*
X101659956Y-87544000D01*
X93666500Y-89936500D02*
X93730000Y-90000000D01*
X101140956Y-90835000D02*
X100530000Y-90835000D01*
X93666500Y-87000000D02*
X93666500Y-89936500D01*
X93730000Y-90000000D02*
X96186000Y-87544000D01*
X101966000Y-90009956D02*
X101140956Y-90835000D01*
%TO.N,Net-(U2-NEGA)*%
X94400000Y-91800000D02*
X96635000Y-89565000D01*
X93054339Y-91800000D02*
X94400000Y-91800000D01*
X91806500Y-93047839D02*
X93054339Y-91800000D01*
X96635000Y-89565000D02*
X100530000Y-89565000D01*
X100530000Y-88295000D02*
X100530000Y-89565000D01*
%TO.N,Net-(U2-POSB)*%
X108200000Y-91835000D02*
X107235000Y-92800000D01*
X93666500Y-96047839D02*
X95914339Y-93800000D01*
X106165000Y-92800000D02*
X105470000Y-92105000D01*
X95914339Y-93800000D02*
X103775000Y-93800000D01*
X107235000Y-92800000D02*
X106165000Y-92800000D01*
X103775000Y-93800000D02*
X105470000Y-92105000D01*
%TO.N,Net-(U3-NEGB)*%
X105670000Y-76235000D02*
X109302161Y-76235000D01*
X122406500Y-79627839D02*
X123986500Y-78047839D01*
X104965000Y-76235000D02*
X102200000Y-79000000D01*
X105670000Y-76235000D02*
X104965000Y-76235000D01*
X93328661Y-79000000D02*
X91876500Y-77547839D01*
X112695000Y-79627839D02*
X122406500Y-79627839D01*
X102200000Y-79000000D02*
X93328661Y-79000000D01*
X109302161Y-76235000D02*
X112695000Y-79627839D01*
%TO.N,Net-(U4-NEGB)*%
X101800000Y-64400000D02*
X93158661Y-64400000D01*
X121906500Y-64627839D02*
X123986500Y-62547839D01*
X93158661Y-64400000D02*
X91806500Y-63047839D01*
X105400000Y-61530000D02*
X104670000Y-61530000D01*
X109702161Y-61530000D02*
X112800000Y-64627839D01*
X104670000Y-61530000D02*
X101800000Y-64400000D01*
X105400000Y-61530000D02*
X109702161Y-61530000D01*
X112800000Y-64627839D02*
X121906500Y-64627839D01*
%TO.N,Net-(U4-POSA)*%
X101896000Y-61078999D02*
X101444999Y-61530000D01*
X101589956Y-58239000D02*
X101896000Y-58545044D01*
X101896000Y-58545044D02*
X101896000Y-61078999D01*
X93666500Y-57000000D02*
X93666500Y-59936500D01*
X95491000Y-58239000D02*
X101589956Y-58239000D01*
X93666500Y-59936500D02*
X93730000Y-60000000D01*
X93730000Y-60000000D02*
X95491000Y-58239000D01*
X101444999Y-61530000D02*
X100460000Y-61530000D01*
%TO.N,Net-(U3-POSA)*%
X93530000Y-74600000D02*
X93530000Y-71000000D01*
X101859956Y-72944000D02*
X95186000Y-72944000D01*
X102166000Y-75783999D02*
X102166000Y-73250044D01*
X101714999Y-76235000D02*
X102166000Y-75783999D01*
X100730000Y-76235000D02*
X101714999Y-76235000D01*
X102166000Y-73250044D02*
X101859956Y-72944000D01*
X95186000Y-72944000D02*
X93530000Y-74600000D01*
%TO.N,Net-(U3-NEGA)*%
X100730000Y-73695000D02*
X100730000Y-74965000D01*
X96319339Y-74965000D02*
X100730000Y-74965000D01*
X93736500Y-77547839D02*
X96319339Y-74965000D01*
%TO.N,Net-(U3-POSB)*%
X105670000Y-79170000D02*
X105670000Y-77505000D01*
X105700000Y-79200000D02*
X105670000Y-79170000D01*
X93736500Y-80547839D02*
X101652161Y-80547839D01*
X101652161Y-80547839D02*
X104695000Y-77505000D01*
X104695000Y-77505000D02*
X105670000Y-77505000D01*
X105700000Y-79200000D02*
X105700000Y-79700000D01*
X105700000Y-79700000D02*
X105800000Y-79800000D01*
%TO.N,Net-(U4-NEGA)*%
X96454339Y-60260000D02*
X100460000Y-60260000D01*
X93666500Y-63047839D02*
X96454339Y-60260000D01*
D24*
X100460000Y-58990000D02*
X100460000Y-60260000D01*
D23*
%TO.N,Net-(U4-POSB)*%
X93666500Y-66047839D02*
X94714339Y-65000000D01*
X102600000Y-65000000D02*
X104800000Y-62800000D01*
X94714339Y-65000000D02*
X102600000Y-65000000D01*
X105400000Y-64200000D02*
X106000000Y-64800000D01*
X104800000Y-62800000D02*
X105400000Y-62800000D01*
X105400000Y-62800000D02*
X105400000Y-64200000D01*
D24*
%TO.N,Net-(D1-A)*%
X95800000Y-115200000D02*
X97135000Y-115200000D01*
X93605000Y-117395000D02*
X95800000Y-115200000D01*
X91935000Y-117395000D02*
X93605000Y-117395000D01*
%TD*%
%TA.AperFunction,Conductor*%
%TO.N,+5V*%
G36*
X131790236Y-44548565D02*
G01*
X132056186Y-44564652D01*
X132071049Y-44566457D01*
X132142301Y-44579514D01*
X132329430Y-44613807D01*
X132343959Y-44617388D01*
X132594753Y-44695539D01*
X132608740Y-44700844D01*
X132848289Y-44808657D01*
X132861535Y-44815609D01*
X133053742Y-44931804D01*
X133086333Y-44951507D01*
X133098656Y-44960013D01*
X133305429Y-45122011D01*
X133316637Y-45131940D01*
X133502384Y-45317689D01*
X133512313Y-45328898D01*
X133674303Y-45535667D01*
X133682809Y-45547990D01*
X133818700Y-45772786D01*
X133825659Y-45786045D01*
X133933462Y-46025580D01*
X133938772Y-46039581D01*
X134016918Y-46290370D01*
X134020501Y-46304909D01*
X134067846Y-46563280D01*
X134069651Y-46578144D01*
X134085773Y-46844720D01*
X134085999Y-46851856D01*
X134085999Y-46913724D01*
X134086175Y-46914383D01*
X134086200Y-46923023D01*
X134086199Y-46923026D01*
X134086200Y-46923040D01*
X134285987Y-121243946D01*
X134285761Y-121251768D01*
X134269682Y-121517516D01*
X134267877Y-121532380D01*
X134220525Y-121790757D01*
X134216941Y-121805296D01*
X134138791Y-122056078D01*
X134133481Y-122070078D01*
X134025674Y-122309610D01*
X134018715Y-122322869D01*
X133882820Y-122547661D01*
X133874314Y-122559984D01*
X133712316Y-122766756D01*
X133702387Y-122777964D01*
X133516641Y-122963707D01*
X133505433Y-122973636D01*
X133298659Y-123135631D01*
X133286336Y-123144137D01*
X133061542Y-123280029D01*
X133048283Y-123286988D01*
X132808740Y-123394796D01*
X132794739Y-123400105D01*
X132543966Y-123478249D01*
X132529427Y-123481833D01*
X132271050Y-123529181D01*
X132256186Y-123530986D01*
X132030821Y-123544618D01*
X131989622Y-123547111D01*
X131982088Y-123547337D01*
X84540432Y-123527268D01*
X84540431Y-123527268D01*
X84532392Y-123527264D01*
X84532291Y-123527238D01*
X84470109Y-123527238D01*
X84470102Y-123527236D01*
X84462675Y-123527012D01*
X84196707Y-123510924D01*
X84181843Y-123509119D01*
X83923463Y-123461770D01*
X83908924Y-123458186D01*
X83658146Y-123380041D01*
X83644145Y-123374732D01*
X83404597Y-123266921D01*
X83391338Y-123259962D01*
X83166541Y-123124068D01*
X83154219Y-123115562D01*
X82947441Y-122953564D01*
X82936232Y-122943635D01*
X82750483Y-122757889D01*
X82740554Y-122746681D01*
X82578553Y-122539905D01*
X82570047Y-122527582D01*
X82434150Y-122302786D01*
X82427191Y-122289527D01*
X82319381Y-122049989D01*
X82314071Y-122035989D01*
X82235918Y-121785194D01*
X82232339Y-121770676D01*
X82184984Y-121512284D01*
X82183179Y-121497420D01*
X82167124Y-121232072D01*
X82166900Y-121225225D01*
X82166898Y-121224838D01*
X82166898Y-121161839D01*
X82166565Y-121160598D01*
X82067653Y-101794974D01*
X83232900Y-101794974D01*
X83232900Y-103590709D01*
X83232901Y-103590715D01*
X83239308Y-103650322D01*
X83289602Y-103785167D01*
X83289606Y-103785174D01*
X83375852Y-103900383D01*
X83375855Y-103900386D01*
X83491064Y-103986632D01*
X83491071Y-103986636D01*
X83622482Y-104035649D01*
X83678416Y-104077520D01*
X83702833Y-104142984D01*
X83687982Y-104211257D01*
X83666831Y-104239512D01*
X83553289Y-104353054D01*
X83428351Y-104525018D01*
X83331844Y-104714424D01*
X83266153Y-104916599D01*
X83256650Y-104976599D01*
X83232900Y-105126552D01*
X83232900Y-105339126D01*
X83235811Y-105357503D01*
X83258010Y-105497667D01*
X83266154Y-105549082D01*
X83331512Y-105750233D01*
X83331844Y-105751253D01*
X83428351Y-105940659D01*
X83553290Y-106112625D01*
X83703613Y-106262948D01*
X83875582Y-106387889D01*
X83884346Y-106392355D01*
X83935142Y-106440330D01*
X83951936Y-106508151D01*
X83929398Y-106574286D01*
X83884346Y-106613323D01*
X83875582Y-106617788D01*
X83703613Y-106742729D01*
X83553290Y-106893052D01*
X83428351Y-107065018D01*
X83331844Y-107254424D01*
X83266153Y-107456599D01*
X83254473Y-107530345D01*
X83232900Y-107666552D01*
X83232900Y-107879126D01*
X83235682Y-107896692D01*
X83252364Y-108002020D01*
X83266154Y-108089082D01*
X83330044Y-108285715D01*
X83331844Y-108291253D01*
X83428351Y-108480659D01*
X83553290Y-108652625D01*
X83703613Y-108802948D01*
X83875582Y-108927889D01*
X83884346Y-108932355D01*
X83935142Y-108980330D01*
X83951936Y-109048151D01*
X83929398Y-109114286D01*
X83884346Y-109153323D01*
X83875582Y-109157788D01*
X83703613Y-109282729D01*
X83553290Y-109433052D01*
X83428351Y-109605018D01*
X83331844Y-109794424D01*
X83266153Y-109996599D01*
X83232900Y-110206552D01*
X83232900Y-110419125D01*
X83265169Y-110622868D01*
X83266154Y-110629082D01*
X83321118Y-110798244D01*
X83331844Y-110831253D01*
X83428351Y-111020659D01*
X83553290Y-111192625D01*
X83703613Y-111342948D01*
X83875582Y-111467889D01*
X83884346Y-111472355D01*
X83935142Y-111520330D01*
X83951936Y-111588151D01*
X83929398Y-111654286D01*
X83884346Y-111693323D01*
X83875582Y-111697788D01*
X83703613Y-111822729D01*
X83553290Y-111973052D01*
X83428351Y-112145018D01*
X83331844Y-112334424D01*
X83266153Y-112536599D01*
X83256650Y-112596599D01*
X83232900Y-112746552D01*
X83232900Y-112959126D01*
X83266154Y-113169082D01*
X83285649Y-113229082D01*
X83331844Y-113371253D01*
X83428351Y-113560659D01*
X83553290Y-113732625D01*
X83703613Y-113882948D01*
X83875582Y-114007889D01*
X83884346Y-114012355D01*
X83935142Y-114060330D01*
X83951936Y-114128151D01*
X83929398Y-114194286D01*
X83884346Y-114233323D01*
X83875582Y-114237788D01*
X83703613Y-114362729D01*
X83553290Y-114513052D01*
X83428351Y-114685018D01*
X83331844Y-114874424D01*
X83266153Y-115076599D01*
X83256650Y-115136599D01*
X83232900Y-115286552D01*
X83232900Y-115499126D01*
X83266154Y-115709082D01*
X83315997Y-115862483D01*
X83331844Y-115911253D01*
X83428351Y-116100659D01*
X83553290Y-116272625D01*
X83703613Y-116422948D01*
X83875582Y-116547889D01*
X83884346Y-116552355D01*
X83935142Y-116600330D01*
X83951936Y-116668151D01*
X83929398Y-116734286D01*
X83884346Y-116773323D01*
X83875582Y-116777788D01*
X83703613Y-116902729D01*
X83553290Y-117053052D01*
X83428351Y-117225018D01*
X83331844Y-117414424D01*
X83266153Y-117616599D01*
X83248298Y-117729332D01*
X83232900Y-117826552D01*
X83232900Y-118039126D01*
X83237565Y-118068578D01*
X83265641Y-118245848D01*
X83266154Y-118249082D01*
X83320111Y-118415145D01*
X83331844Y-118451253D01*
X83428351Y-118640659D01*
X83553290Y-118812625D01*
X83703613Y-118962948D01*
X83875582Y-119087889D01*
X83884346Y-119092355D01*
X83935142Y-119140330D01*
X83951936Y-119208151D01*
X83929398Y-119274286D01*
X83884346Y-119313323D01*
X83875582Y-119317788D01*
X83703613Y-119442729D01*
X83553290Y-119593052D01*
X83428351Y-119765018D01*
X83331844Y-119954424D01*
X83266153Y-120156599D01*
X83232900Y-120366552D01*
X83232900Y-120579125D01*
X83266153Y-120789078D01*
X83331844Y-120991253D01*
X83428351Y-121180659D01*
X83553290Y-121352625D01*
X83703613Y-121502948D01*
X83875579Y-121627887D01*
X83875581Y-121627888D01*
X83875584Y-121627890D01*
X84064988Y-121724396D01*
X84267157Y-121790085D01*
X84477113Y-121823339D01*
X84477114Y-121823339D01*
X84689686Y-121823339D01*
X84689687Y-121823339D01*
X84899643Y-121790085D01*
X85101812Y-121724396D01*
X85291216Y-121627890D01*
X85313189Y-121611925D01*
X85463186Y-121502948D01*
X85463188Y-121502945D01*
X85463192Y-121502943D01*
X85613504Y-121352631D01*
X85613506Y-121352627D01*
X85613509Y-121352625D01*
X85738448Y-121180659D01*
X85738447Y-121180659D01*
X85738451Y-121180655D01*
X85834957Y-120991251D01*
X85900646Y-120789082D01*
X85933900Y-120579126D01*
X85933900Y-120366552D01*
X85900646Y-120156596D01*
X85834957Y-119954427D01*
X85738451Y-119765023D01*
X85738449Y-119765020D01*
X85738448Y-119765018D01*
X85613509Y-119593052D01*
X85463186Y-119442729D01*
X85291220Y-119317790D01*
X85290515Y-119317430D01*
X85282454Y-119313324D01*
X85231659Y-119265351D01*
X85214863Y-119197531D01*
X85237399Y-119131395D01*
X85282454Y-119092354D01*
X85291216Y-119087890D01*
X85313189Y-119071925D01*
X85463186Y-118962948D01*
X85463188Y-118962945D01*
X85463192Y-118962943D01*
X85613504Y-118812631D01*
X85613506Y-118812627D01*
X85613509Y-118812625D01*
X85738448Y-118640659D01*
X85738447Y-118640659D01*
X85738451Y-118640655D01*
X85834957Y-118451251D01*
X85900646Y-118249082D01*
X85933900Y-118039126D01*
X85933900Y-117826552D01*
X85900646Y-117616596D01*
X85834957Y-117414427D01*
X85738451Y-117225023D01*
X85738449Y-117225020D01*
X85738448Y-117225018D01*
X85613509Y-117053052D01*
X85463186Y-116902729D01*
X85291220Y-116777790D01*
X85290515Y-116777430D01*
X85282454Y-116773324D01*
X85231659Y-116725351D01*
X85214863Y-116657531D01*
X85237399Y-116591395D01*
X85282454Y-116552354D01*
X85291216Y-116547890D01*
X85319732Y-116527172D01*
X85463186Y-116422948D01*
X85463188Y-116422945D01*
X85463192Y-116422943D01*
X85613504Y-116272631D01*
X85613506Y-116272627D01*
X85613509Y-116272625D01*
X85738448Y-116100659D01*
X85738447Y-116100659D01*
X85738451Y-116100655D01*
X85834957Y-115911251D01*
X85900646Y-115709082D01*
X85933900Y-115499126D01*
X85933900Y-115286552D01*
X85900646Y-115076596D01*
X85834957Y-114874427D01*
X85738451Y-114685023D01*
X85738449Y-114685020D01*
X85738448Y-114685018D01*
X85613509Y-114513052D01*
X85463186Y-114362729D01*
X85291220Y-114237790D01*
X85290515Y-114237430D01*
X85282454Y-114233324D01*
X85231659Y-114185351D01*
X85214863Y-114117531D01*
X85237399Y-114051395D01*
X85282454Y-114012354D01*
X85291216Y-114007890D01*
X85380609Y-113942943D01*
X85429895Y-113907135D01*
X90534500Y-113907135D01*
X90534500Y-115802870D01*
X90534501Y-115802876D01*
X90540908Y-115862483D01*
X90591202Y-115997328D01*
X90591206Y-115997335D01*
X90677452Y-116112544D01*
X90677455Y-116112547D01*
X90792664Y-116198793D01*
X90792671Y-116198797D01*
X90872580Y-116228601D01*
X90928514Y-116270472D01*
X90952931Y-116335936D01*
X90938080Y-116404209D01*
X90916929Y-116432463D01*
X90866756Y-116482636D01*
X90866752Y-116482641D01*
X90737187Y-116660974D01*
X90637104Y-116857393D01*
X90637103Y-116857396D01*
X90568985Y-117067047D01*
X90534500Y-117284778D01*
X90534500Y-117505221D01*
X90568985Y-117722952D01*
X90637103Y-117932603D01*
X90637104Y-117932606D01*
X90737187Y-118129025D01*
X90866752Y-118307358D01*
X90866756Y-118307363D01*
X91022636Y-118463243D01*
X91022641Y-118463247D01*
X91163330Y-118565462D01*
X91200978Y-118592815D01*
X91329375Y-118658237D01*
X91397393Y-118692895D01*
X91397396Y-118692896D01*
X91502221Y-118726955D01*
X91607049Y-118761015D01*
X91824778Y-118795500D01*
X91824779Y-118795500D01*
X92045221Y-118795500D01*
X92045222Y-118795500D01*
X92262951Y-118761015D01*
X92472606Y-118692895D01*
X92516268Y-118670648D01*
X99781700Y-118670648D01*
X99781700Y-118929351D01*
X99813701Y-119131395D01*
X99822168Y-119184854D01*
X99902109Y-119430885D01*
X100019553Y-119661382D01*
X100171608Y-119870668D01*
X100354532Y-120053592D01*
X100563818Y-120205647D01*
X100794315Y-120323091D01*
X101040346Y-120403032D01*
X101136161Y-120418207D01*
X101295849Y-120443500D01*
X101295854Y-120443500D01*
X101554551Y-120443500D01*
X101696494Y-120421017D01*
X101810054Y-120403032D01*
X102056085Y-120323091D01*
X102286582Y-120205647D01*
X102495868Y-120053592D01*
X102678792Y-119870668D01*
X102830847Y-119661382D01*
X102948291Y-119430885D01*
X103028232Y-119184854D01*
X103046217Y-119071294D01*
X103068700Y-118929351D01*
X103068700Y-118670648D01*
X103035850Y-118463243D01*
X103028232Y-118415146D01*
X103028227Y-118415132D01*
X103027776Y-118413250D01*
X103027813Y-118412501D01*
X103027470Y-118410334D01*
X103027925Y-118410261D01*
X103031260Y-118343467D01*
X103060664Y-118296612D01*
X103920459Y-117436819D01*
X103947386Y-117422115D01*
X103973205Y-117405523D01*
X103979405Y-117404631D01*
X103981782Y-117403334D01*
X104008140Y-117400500D01*
X104163478Y-117400500D01*
X104230517Y-117420185D01*
X104276272Y-117472989D01*
X104286216Y-117542147D01*
X104257191Y-117605703D01*
X104251159Y-117612181D01*
X104134010Y-117729329D01*
X103981953Y-117938617D01*
X103864510Y-118169112D01*
X103784567Y-118415149D01*
X103744100Y-118670648D01*
X103744100Y-118929351D01*
X103776101Y-119131395D01*
X103784568Y-119184854D01*
X103864509Y-119430885D01*
X103981953Y-119661382D01*
X104134008Y-119870668D01*
X104316932Y-120053592D01*
X104526218Y-120205647D01*
X104756715Y-120323091D01*
X105002746Y-120403032D01*
X105098561Y-120418207D01*
X105258249Y-120443500D01*
X105258254Y-120443500D01*
X105516951Y-120443500D01*
X105658894Y-120421017D01*
X105772454Y-120403032D01*
X106018485Y-120323091D01*
X106248982Y-120205647D01*
X106458268Y-120053592D01*
X106641192Y-119870668D01*
X106793247Y-119661382D01*
X106910691Y-119430885D01*
X106990632Y-119184854D01*
X107008617Y-119071294D01*
X107031100Y-118929351D01*
X107031100Y-118670648D01*
X106998250Y-118463243D01*
X106990632Y-118415146D01*
X106910691Y-118169115D01*
X106793247Y-117938618D01*
X106641192Y-117729332D01*
X106524041Y-117612181D01*
X106490556Y-117550858D01*
X106495540Y-117481166D01*
X106537412Y-117425233D01*
X106602876Y-117400816D01*
X106611722Y-117400500D01*
X109492260Y-117400500D01*
X109559299Y-117420185D01*
X109579941Y-117436819D01*
X110439732Y-118296610D01*
X110473217Y-118357933D01*
X110472661Y-118410291D01*
X110472930Y-118410334D01*
X110472641Y-118412157D01*
X110472630Y-118413216D01*
X110472169Y-118415135D01*
X110431700Y-118670648D01*
X110431700Y-118929351D01*
X110463701Y-119131395D01*
X110472168Y-119184854D01*
X110552109Y-119430885D01*
X110669553Y-119661382D01*
X110821608Y-119870668D01*
X111004532Y-120053592D01*
X111213818Y-120205647D01*
X111444315Y-120323091D01*
X111690346Y-120403032D01*
X111786161Y-120418207D01*
X111945849Y-120443500D01*
X111945854Y-120443500D01*
X112204551Y-120443500D01*
X112346494Y-120421017D01*
X112460054Y-120403032D01*
X112706085Y-120323091D01*
X112936582Y-120205647D01*
X113145868Y-120053592D01*
X113328792Y-119870668D01*
X113480847Y-119661382D01*
X113598291Y-119430885D01*
X113678232Y-119184854D01*
X113696217Y-119071294D01*
X113718700Y-118929351D01*
X113718700Y-118670648D01*
X114394100Y-118670648D01*
X114394100Y-118929351D01*
X114426101Y-119131395D01*
X114434568Y-119184854D01*
X114514509Y-119430885D01*
X114631953Y-119661382D01*
X114784008Y-119870668D01*
X114966932Y-120053592D01*
X115176218Y-120205647D01*
X115406715Y-120323091D01*
X115652746Y-120403032D01*
X115748561Y-120418207D01*
X115908249Y-120443500D01*
X115908254Y-120443500D01*
X116166951Y-120443500D01*
X116308894Y-120421017D01*
X116422454Y-120403032D01*
X116668485Y-120323091D01*
X116898982Y-120205647D01*
X117108268Y-120053592D01*
X117291192Y-119870668D01*
X117443247Y-119661382D01*
X117560691Y-119430885D01*
X117640632Y-119184854D01*
X117658617Y-119071294D01*
X117681100Y-118929351D01*
X117681100Y-118670648D01*
X118356500Y-118670648D01*
X118356500Y-118929351D01*
X118388501Y-119131395D01*
X118396968Y-119184854D01*
X118476909Y-119430885D01*
X118594353Y-119661382D01*
X118746408Y-119870668D01*
X118929332Y-120053592D01*
X119138618Y-120205647D01*
X119369115Y-120323091D01*
X119615146Y-120403032D01*
X119710961Y-120418207D01*
X119870649Y-120443500D01*
X119870654Y-120443500D01*
X120129351Y-120443500D01*
X120271294Y-120421017D01*
X120384854Y-120403032D01*
X120630885Y-120323091D01*
X120861382Y-120205647D01*
X121070668Y-120053592D01*
X121253592Y-119870668D01*
X121405647Y-119661382D01*
X121523091Y-119430885D01*
X121603032Y-119184854D01*
X121621017Y-119071294D01*
X121643500Y-118929351D01*
X121643500Y-118670648D01*
X121603032Y-118415145D01*
X121570716Y-118315689D01*
X121568721Y-118245848D01*
X121600964Y-118189691D01*
X128487821Y-111302835D01*
X128549142Y-111269352D01*
X128618834Y-111274336D01*
X128674767Y-111316208D01*
X128699184Y-111381672D01*
X128699500Y-111390518D01*
X128699500Y-113020880D01*
X128679815Y-113087919D01*
X128663181Y-113108561D01*
X124572709Y-117199032D01*
X124511386Y-117232517D01*
X124446711Y-117229282D01*
X124347256Y-117196968D01*
X124347257Y-117196968D01*
X124091751Y-117156500D01*
X124091746Y-117156500D01*
X123833054Y-117156500D01*
X123833049Y-117156500D01*
X123577549Y-117196967D01*
X123331512Y-117276910D01*
X123101017Y-117394353D01*
X122891729Y-117546410D01*
X122708810Y-117729329D01*
X122556753Y-117938617D01*
X122439310Y-118169112D01*
X122359367Y-118415149D01*
X122318900Y-118670648D01*
X122318900Y-118929351D01*
X122350901Y-119131395D01*
X122359368Y-119184854D01*
X122439309Y-119430885D01*
X122556753Y-119661382D01*
X122708808Y-119870668D01*
X122891732Y-120053592D01*
X123101018Y-120205647D01*
X123331515Y-120323091D01*
X123577546Y-120403032D01*
X123673361Y-120418207D01*
X123833049Y-120443500D01*
X123833054Y-120443500D01*
X124091751Y-120443500D01*
X124233694Y-120421017D01*
X124347254Y-120403032D01*
X124593285Y-120323091D01*
X124823782Y-120205647D01*
X125033068Y-120053592D01*
X125215992Y-119870668D01*
X125368047Y-119661382D01*
X125485491Y-119430885D01*
X125565432Y-119184854D01*
X125583417Y-119071294D01*
X125605900Y-118929351D01*
X125605900Y-118670648D01*
X125565432Y-118415145D01*
X125533116Y-118315689D01*
X125531121Y-118245848D01*
X125563364Y-118189691D01*
X129944114Y-113808943D01*
X130020775Y-113694211D01*
X130073580Y-113566728D01*
X130100500Y-113431394D01*
X130100500Y-113293406D01*
X130100500Y-96774974D01*
X130562900Y-96774974D01*
X130562900Y-98570709D01*
X130562901Y-98570715D01*
X130569308Y-98630322D01*
X130619602Y-98765167D01*
X130619606Y-98765174D01*
X130705852Y-98880383D01*
X130705855Y-98880386D01*
X130821064Y-98966632D01*
X130821071Y-98966636D01*
X130952482Y-99015649D01*
X131008416Y-99057520D01*
X131032833Y-99122984D01*
X131017982Y-99191257D01*
X130996831Y-99219512D01*
X130883289Y-99333054D01*
X130758351Y-99505018D01*
X130661844Y-99694424D01*
X130596153Y-99896599D01*
X130594389Y-99907738D01*
X130562900Y-100106552D01*
X130562900Y-100319126D01*
X130596154Y-100529082D01*
X130661057Y-100728833D01*
X130661844Y-100731253D01*
X130758351Y-100920659D01*
X130883290Y-101092625D01*
X131033613Y-101242948D01*
X131205582Y-101367889D01*
X131214346Y-101372355D01*
X131265142Y-101420330D01*
X131281936Y-101488151D01*
X131259398Y-101554286D01*
X131214346Y-101593323D01*
X131205582Y-101597788D01*
X131033613Y-101722729D01*
X130883290Y-101873052D01*
X130758351Y-102045018D01*
X130661844Y-102234424D01*
X130596153Y-102436599D01*
X130562900Y-102646552D01*
X130562900Y-102859125D01*
X130592742Y-103047544D01*
X130596154Y-103069082D01*
X130652342Y-103242011D01*
X130661844Y-103271253D01*
X130758351Y-103460659D01*
X130883290Y-103632625D01*
X131033613Y-103782948D01*
X131205582Y-103907889D01*
X131214346Y-103912355D01*
X131265142Y-103960330D01*
X131281936Y-104028151D01*
X131259398Y-104094286D01*
X131214346Y-104133323D01*
X131205582Y-104137788D01*
X131033613Y-104262729D01*
X130883290Y-104413052D01*
X130758351Y-104585018D01*
X130661844Y-104774424D01*
X130661843Y-104774426D01*
X130661843Y-104774427D01*
X130634115Y-104859764D01*
X130596153Y-104976599D01*
X130576772Y-105098967D01*
X130562900Y-105186552D01*
X130562900Y-105399126D01*
X130596154Y-105609082D01*
X130655100Y-105790499D01*
X130661844Y-105811253D01*
X130758351Y-106000659D01*
X130883290Y-106172625D01*
X131033613Y-106322948D01*
X131205582Y-106447889D01*
X131214346Y-106452355D01*
X131265142Y-106500330D01*
X131281936Y-106568151D01*
X131259398Y-106634286D01*
X131214346Y-106673323D01*
X131205582Y-106677788D01*
X131033613Y-106802729D01*
X130883290Y-106953052D01*
X130758351Y-107125018D01*
X130661844Y-107314424D01*
X130661843Y-107314426D01*
X130661843Y-107314427D01*
X130658030Y-107326163D01*
X130596153Y-107516599D01*
X130562900Y-107726552D01*
X130562900Y-107939125D01*
X130587830Y-108096530D01*
X130596154Y-108149082D01*
X130646316Y-108303465D01*
X130661844Y-108351253D01*
X130758351Y-108540659D01*
X130883290Y-108712625D01*
X131033613Y-108862948D01*
X131205582Y-108987889D01*
X131214346Y-108992355D01*
X131265142Y-109040330D01*
X131281936Y-109108151D01*
X131259398Y-109174286D01*
X131214346Y-109213323D01*
X131205582Y-109217788D01*
X131033613Y-109342729D01*
X130883290Y-109493052D01*
X130758351Y-109665018D01*
X130661844Y-109854424D01*
X130596153Y-110056599D01*
X130562900Y-110266552D01*
X130562900Y-110479125D01*
X130585666Y-110622868D01*
X130596154Y-110689082D01*
X130642348Y-110831253D01*
X130661844Y-110891253D01*
X130758351Y-111080659D01*
X130883290Y-111252625D01*
X131033613Y-111402948D01*
X131205582Y-111527889D01*
X131214346Y-111532355D01*
X131265142Y-111580330D01*
X131281936Y-111648151D01*
X131259398Y-111714286D01*
X131214346Y-111753323D01*
X131205582Y-111757788D01*
X131033613Y-111882729D01*
X130883290Y-112033052D01*
X130758351Y-112205018D01*
X130661844Y-112394424D01*
X130596153Y-112596599D01*
X130572403Y-112746552D01*
X130562900Y-112806552D01*
X130562900Y-113019126D01*
X130596154Y-113229082D01*
X130650889Y-113397539D01*
X130661844Y-113431253D01*
X130758351Y-113620659D01*
X130883290Y-113792625D01*
X131033613Y-113942948D01*
X131205582Y-114067889D01*
X131214346Y-114072355D01*
X131265142Y-114120330D01*
X131281936Y-114188151D01*
X131259398Y-114254286D01*
X131214346Y-114293323D01*
X131205582Y-114297788D01*
X131033613Y-114422729D01*
X130883290Y-114573052D01*
X130758351Y-114745018D01*
X130661844Y-114934424D01*
X130596153Y-115136599D01*
X130562900Y-115346552D01*
X130562900Y-115559125D01*
X130590420Y-115732883D01*
X130596154Y-115769082D01*
X130647572Y-115927331D01*
X130661844Y-115971253D01*
X130758351Y-116160659D01*
X130883290Y-116332625D01*
X131033613Y-116482948D01*
X131205579Y-116607887D01*
X131205581Y-116607888D01*
X131205584Y-116607890D01*
X131394988Y-116704396D01*
X131597157Y-116770085D01*
X131807113Y-116803339D01*
X131807114Y-116803339D01*
X132019686Y-116803339D01*
X132019687Y-116803339D01*
X132229643Y-116770085D01*
X132431812Y-116704396D01*
X132621216Y-116607890D01*
X132697657Y-116552353D01*
X132793186Y-116482948D01*
X132793188Y-116482945D01*
X132793192Y-116482943D01*
X132943504Y-116332631D01*
X132943506Y-116332627D01*
X132943509Y-116332625D01*
X133068448Y-116160659D01*
X133068447Y-116160659D01*
X133068451Y-116160655D01*
X133164957Y-115971251D01*
X133230646Y-115769082D01*
X133263900Y-115559126D01*
X133263900Y-115346552D01*
X133230646Y-115136596D01*
X133164957Y-114934427D01*
X133068451Y-114745023D01*
X133068449Y-114745020D01*
X133068448Y-114745018D01*
X132943509Y-114573052D01*
X132793186Y-114422729D01*
X132621220Y-114297790D01*
X132620515Y-114297430D01*
X132612454Y-114293324D01*
X132561659Y-114245351D01*
X132544863Y-114177531D01*
X132567399Y-114111395D01*
X132612454Y-114072354D01*
X132621216Y-114067890D01*
X132697657Y-114012353D01*
X132793186Y-113942948D01*
X132793188Y-113942945D01*
X132793192Y-113942943D01*
X132943504Y-113792631D01*
X132943506Y-113792627D01*
X132943509Y-113792625D01*
X133068448Y-113620659D01*
X133068447Y-113620659D01*
X133068451Y-113620655D01*
X133164957Y-113431251D01*
X133230646Y-113229082D01*
X133263900Y-113019126D01*
X133263900Y-112806552D01*
X133230646Y-112596596D01*
X133164957Y-112394427D01*
X133068451Y-112205023D01*
X133068449Y-112205020D01*
X133068448Y-112205018D01*
X132943509Y-112033052D01*
X132793186Y-111882729D01*
X132621220Y-111757790D01*
X132620515Y-111757430D01*
X132612454Y-111753324D01*
X132561659Y-111705351D01*
X132544863Y-111637531D01*
X132567399Y-111571395D01*
X132612454Y-111532354D01*
X132621216Y-111527890D01*
X132686892Y-111480174D01*
X132793186Y-111402948D01*
X132793188Y-111402945D01*
X132793192Y-111402943D01*
X132943504Y-111252631D01*
X132943506Y-111252627D01*
X132943509Y-111252625D01*
X133068448Y-111080659D01*
X133068447Y-111080659D01*
X133068451Y-111080655D01*
X133164957Y-110891251D01*
X133230646Y-110689082D01*
X133263900Y-110479126D01*
X133263900Y-110266552D01*
X133230646Y-110056596D01*
X133164957Y-109854427D01*
X133068451Y-109665023D01*
X133068449Y-109665020D01*
X133068448Y-109665018D01*
X132943509Y-109493052D01*
X132793186Y-109342729D01*
X132621220Y-109217790D01*
X132620515Y-109217430D01*
X132612454Y-109213324D01*
X132561659Y-109165351D01*
X132544863Y-109097531D01*
X132567399Y-109031395D01*
X132612454Y-108992354D01*
X132621216Y-108987890D01*
X132697657Y-108932353D01*
X132793186Y-108862948D01*
X132793188Y-108862945D01*
X132793192Y-108862943D01*
X132943504Y-108712631D01*
X132943506Y-108712627D01*
X132943509Y-108712625D01*
X133068448Y-108540659D01*
X133068447Y-108540659D01*
X133068451Y-108540655D01*
X133164957Y-108351251D01*
X133230646Y-108149082D01*
X133263900Y-107939126D01*
X133263900Y-107726552D01*
X133230646Y-107516596D01*
X133164957Y-107314427D01*
X133068451Y-107125023D01*
X133068449Y-107125020D01*
X133068448Y-107125018D01*
X132943509Y-106953052D01*
X132793186Y-106802729D01*
X132621220Y-106677790D01*
X132618731Y-106676522D01*
X132612454Y-106673324D01*
X132561659Y-106625351D01*
X132544863Y-106557531D01*
X132567399Y-106491395D01*
X132612454Y-106452354D01*
X132621216Y-106447890D01*
X132667803Y-106414043D01*
X132793186Y-106322948D01*
X132793188Y-106322945D01*
X132793192Y-106322943D01*
X132943504Y-106172631D01*
X132943506Y-106172627D01*
X132943509Y-106172625D01*
X133068448Y-106000659D01*
X133068447Y-106000659D01*
X133068451Y-106000655D01*
X133164957Y-105811251D01*
X133230646Y-105609082D01*
X133263900Y-105399126D01*
X133263900Y-105186552D01*
X133230646Y-104976596D01*
X133164957Y-104774427D01*
X133068451Y-104585023D01*
X133068449Y-104585020D01*
X133068448Y-104585018D01*
X132943509Y-104413052D01*
X132793186Y-104262729D01*
X132621220Y-104137790D01*
X132620515Y-104137430D01*
X132612454Y-104133324D01*
X132561659Y-104085351D01*
X132544863Y-104017531D01*
X132567399Y-103951395D01*
X132612454Y-103912354D01*
X132621216Y-103907890D01*
X132643189Y-103891925D01*
X132793186Y-103782948D01*
X132793188Y-103782945D01*
X132793192Y-103782943D01*
X132943504Y-103632631D01*
X132943506Y-103632627D01*
X132943509Y-103632625D01*
X133064419Y-103466204D01*
X133068451Y-103460655D01*
X133164957Y-103271251D01*
X133230646Y-103069082D01*
X133263900Y-102859126D01*
X133263900Y-102646552D01*
X133230646Y-102436596D01*
X133164957Y-102234427D01*
X133068451Y-102045023D01*
X133068449Y-102045020D01*
X133068448Y-102045018D01*
X132943509Y-101873052D01*
X132793186Y-101722729D01*
X132621220Y-101597790D01*
X132620515Y-101597430D01*
X132612454Y-101593324D01*
X132561659Y-101545351D01*
X132544863Y-101477531D01*
X132567399Y-101411395D01*
X132612454Y-101372354D01*
X132621216Y-101367890D01*
X132656384Y-101342339D01*
X132793186Y-101242948D01*
X132793188Y-101242945D01*
X132793192Y-101242943D01*
X132943504Y-101092631D01*
X132943506Y-101092627D01*
X132943509Y-101092625D01*
X133068448Y-100920659D01*
X133068447Y-100920659D01*
X133068451Y-100920655D01*
X133164957Y-100731251D01*
X133230646Y-100529082D01*
X133263900Y-100319126D01*
X133263900Y-100106552D01*
X133230646Y-99896596D01*
X133164957Y-99694427D01*
X133068451Y-99505023D01*
X133068449Y-99505020D01*
X133068448Y-99505018D01*
X132943509Y-99333052D01*
X132829969Y-99219512D01*
X132796484Y-99158189D01*
X132801468Y-99088497D01*
X132843340Y-99032564D01*
X132874315Y-99015649D01*
X133005731Y-98966635D01*
X133120946Y-98880385D01*
X133207196Y-98765170D01*
X133257491Y-98630322D01*
X133263900Y-98570712D01*
X133263899Y-96774967D01*
X133257491Y-96715356D01*
X133254270Y-96706721D01*
X133207197Y-96580510D01*
X133207193Y-96580503D01*
X133120947Y-96465294D01*
X133120944Y-96465291D01*
X133005735Y-96379045D01*
X133005728Y-96379041D01*
X132870882Y-96328747D01*
X132870883Y-96328747D01*
X132811283Y-96322340D01*
X132811281Y-96322339D01*
X132811273Y-96322339D01*
X132811264Y-96322339D01*
X131015529Y-96322339D01*
X131015523Y-96322340D01*
X130955916Y-96328747D01*
X130821071Y-96379041D01*
X130821064Y-96379045D01*
X130705855Y-96465291D01*
X130705852Y-96465294D01*
X130619606Y-96580503D01*
X130619602Y-96580510D01*
X130569308Y-96715356D01*
X130562901Y-96774955D01*
X130562901Y-96774962D01*
X130562900Y-96774974D01*
X130100500Y-96774974D01*
X130100500Y-82607757D01*
X130120185Y-82540718D01*
X130136819Y-82520076D01*
X130351219Y-82305676D01*
X130412542Y-82272191D01*
X130482234Y-82277175D01*
X130538167Y-82319047D01*
X130562584Y-82384511D01*
X130562900Y-82393357D01*
X130562900Y-82399125D01*
X130594187Y-82596667D01*
X130596154Y-82609082D01*
X130629712Y-82712363D01*
X130661844Y-82811253D01*
X130758351Y-83000659D01*
X130883290Y-83172625D01*
X131033613Y-83322948D01*
X131205582Y-83447889D01*
X131214346Y-83452355D01*
X131265142Y-83500330D01*
X131281936Y-83568151D01*
X131259398Y-83634286D01*
X131214346Y-83673323D01*
X131205582Y-83677788D01*
X131033613Y-83802729D01*
X130883290Y-83953052D01*
X130758351Y-84125018D01*
X130661844Y-84314424D01*
X130596153Y-84516599D01*
X130562900Y-84726552D01*
X130562900Y-84939125D01*
X130587766Y-85096127D01*
X130596154Y-85149082D01*
X130639515Y-85282534D01*
X130661844Y-85351253D01*
X130758351Y-85540659D01*
X130883290Y-85712625D01*
X131033613Y-85862948D01*
X131205582Y-85987889D01*
X131214346Y-85992355D01*
X131265142Y-86040330D01*
X131281936Y-86108151D01*
X131259398Y-86174286D01*
X131214346Y-86213323D01*
X131205582Y-86217788D01*
X131033613Y-86342729D01*
X130883290Y-86493052D01*
X130758351Y-86665018D01*
X130661844Y-86854424D01*
X130596153Y-87056599D01*
X130562900Y-87266552D01*
X130562900Y-87479126D01*
X130569235Y-87519125D01*
X130591532Y-87659905D01*
X130596154Y-87689082D01*
X130612010Y-87737883D01*
X130661844Y-87891253D01*
X130758351Y-88080659D01*
X130883290Y-88252625D01*
X131033613Y-88402948D01*
X131205582Y-88527889D01*
X131214346Y-88532355D01*
X131265142Y-88580330D01*
X131281936Y-88648151D01*
X131259398Y-88714286D01*
X131214346Y-88753323D01*
X131205582Y-88757788D01*
X131033613Y-88882729D01*
X130883290Y-89033052D01*
X130758351Y-89205018D01*
X130661844Y-89394424D01*
X130596153Y-89596599D01*
X130562900Y-89806552D01*
X130562900Y-90019125D01*
X130594451Y-90218333D01*
X130596154Y-90229082D01*
X130647449Y-90386952D01*
X130661844Y-90431253D01*
X130758351Y-90620659D01*
X130883290Y-90792625D01*
X131033613Y-90942948D01*
X131205582Y-91067889D01*
X131214346Y-91072355D01*
X131265142Y-91120330D01*
X131281936Y-91188151D01*
X131259398Y-91254286D01*
X131214346Y-91293323D01*
X131205582Y-91297788D01*
X131033613Y-91422729D01*
X130883290Y-91573052D01*
X130758351Y-91745018D01*
X130661844Y-91934424D01*
X130596153Y-92136599D01*
X130562900Y-92346552D01*
X130562900Y-92559125D01*
X130595656Y-92765941D01*
X130596154Y-92769082D01*
X130645781Y-92921819D01*
X130661844Y-92971253D01*
X130758351Y-93160659D01*
X130883290Y-93332625D01*
X131033613Y-93482948D01*
X131205579Y-93607887D01*
X131205581Y-93607888D01*
X131205584Y-93607890D01*
X131394988Y-93704396D01*
X131597157Y-93770085D01*
X131807113Y-93803339D01*
X131807114Y-93803339D01*
X132019686Y-93803339D01*
X132019687Y-93803339D01*
X132229643Y-93770085D01*
X132431812Y-93704396D01*
X132621216Y-93607890D01*
X132659656Y-93579962D01*
X132793186Y-93482948D01*
X132793188Y-93482945D01*
X132793192Y-93482943D01*
X132943504Y-93332631D01*
X132943506Y-93332627D01*
X132943509Y-93332625D01*
X133068448Y-93160659D01*
X133068447Y-93160659D01*
X133068451Y-93160655D01*
X133164957Y-92971251D01*
X133230646Y-92769082D01*
X133263900Y-92559126D01*
X133263900Y-92346552D01*
X133230646Y-92136596D01*
X133164957Y-91934427D01*
X133068451Y-91745023D01*
X133068449Y-91745020D01*
X133068448Y-91745018D01*
X132943509Y-91573052D01*
X132793186Y-91422729D01*
X132621220Y-91297790D01*
X132620515Y-91297430D01*
X132612454Y-91293324D01*
X132561659Y-91245351D01*
X132544863Y-91177531D01*
X132567399Y-91111395D01*
X132612454Y-91072354D01*
X132621216Y-91067890D01*
X132649711Y-91047187D01*
X132793186Y-90942948D01*
X132793188Y-90942945D01*
X132793192Y-90942943D01*
X132943504Y-90792631D01*
X132943506Y-90792627D01*
X132943509Y-90792625D01*
X133068448Y-90620659D01*
X133068447Y-90620659D01*
X133068451Y-90620655D01*
X133164957Y-90431251D01*
X133230646Y-90229082D01*
X133263900Y-90019126D01*
X133263900Y-89806552D01*
X133230646Y-89596596D01*
X133164957Y-89394427D01*
X133068451Y-89205023D01*
X133068449Y-89205020D01*
X133068448Y-89205018D01*
X132943509Y-89033052D01*
X132793186Y-88882729D01*
X132621220Y-88757790D01*
X132620515Y-88757430D01*
X132612454Y-88753324D01*
X132561659Y-88705351D01*
X132544863Y-88637531D01*
X132567399Y-88571395D01*
X132612454Y-88532354D01*
X132621216Y-88527890D01*
X132669164Y-88493054D01*
X132793186Y-88402948D01*
X132793188Y-88402945D01*
X132793192Y-88402943D01*
X132943504Y-88252631D01*
X132943506Y-88252627D01*
X132943509Y-88252625D01*
X133068448Y-88080659D01*
X133068447Y-88080659D01*
X133068451Y-88080655D01*
X133164957Y-87891251D01*
X133230646Y-87689082D01*
X133263900Y-87479126D01*
X133263900Y-87266552D01*
X133230646Y-87056596D01*
X133164957Y-86854427D01*
X133068451Y-86665023D01*
X133068449Y-86665020D01*
X133068448Y-86665018D01*
X132943509Y-86493052D01*
X132793186Y-86342729D01*
X132621220Y-86217790D01*
X132620515Y-86217430D01*
X132612454Y-86213324D01*
X132561659Y-86165351D01*
X132544863Y-86097531D01*
X132567399Y-86031395D01*
X132612454Y-85992354D01*
X132621216Y-85987890D01*
X132643189Y-85971925D01*
X132793186Y-85862948D01*
X132793188Y-85862945D01*
X132793192Y-85862943D01*
X132943504Y-85712631D01*
X132943506Y-85712627D01*
X132943509Y-85712625D01*
X133068448Y-85540659D01*
X133068447Y-85540659D01*
X133068451Y-85540655D01*
X133164957Y-85351251D01*
X133230646Y-85149082D01*
X133263900Y-84939126D01*
X133263900Y-84726552D01*
X133230646Y-84516596D01*
X133164957Y-84314427D01*
X133068451Y-84125023D01*
X133068449Y-84125020D01*
X133068448Y-84125018D01*
X132943509Y-83953052D01*
X132793186Y-83802729D01*
X132621220Y-83677790D01*
X132620515Y-83677430D01*
X132612454Y-83673324D01*
X132561659Y-83625351D01*
X132544863Y-83557531D01*
X132567399Y-83491395D01*
X132612454Y-83452354D01*
X132621216Y-83447890D01*
X132643189Y-83431925D01*
X132793186Y-83322948D01*
X132793188Y-83322945D01*
X132793192Y-83322943D01*
X132943504Y-83172631D01*
X132943506Y-83172627D01*
X132943509Y-83172625D01*
X133068448Y-83000659D01*
X133068447Y-83000659D01*
X133068451Y-83000655D01*
X133164957Y-82811251D01*
X133230646Y-82609082D01*
X133263900Y-82399126D01*
X133263900Y-82186552D01*
X133230646Y-81976596D01*
X133164957Y-81774427D01*
X133068451Y-81585023D01*
X133068449Y-81585020D01*
X133068448Y-81585018D01*
X132943509Y-81413052D01*
X132793186Y-81262729D01*
X132621220Y-81137790D01*
X132617018Y-81135649D01*
X132612454Y-81133324D01*
X132561659Y-81085351D01*
X132544863Y-81017531D01*
X132567399Y-80951395D01*
X132612454Y-80912354D01*
X132621216Y-80907890D01*
X132673128Y-80870174D01*
X132793186Y-80782948D01*
X132793188Y-80782945D01*
X132793192Y-80782943D01*
X132943504Y-80632631D01*
X132943506Y-80632627D01*
X132943509Y-80632625D01*
X133068448Y-80460659D01*
X133068447Y-80460659D01*
X133068451Y-80460655D01*
X133164957Y-80271251D01*
X133230646Y-80069082D01*
X133263900Y-79859126D01*
X133263900Y-79646552D01*
X133230646Y-79436596D01*
X133164957Y-79234427D01*
X133068451Y-79045023D01*
X133068449Y-79045020D01*
X133068448Y-79045018D01*
X132943509Y-78873052D01*
X132793186Y-78722729D01*
X132621220Y-78597790D01*
X132620515Y-78597430D01*
X132612454Y-78593324D01*
X132561659Y-78545351D01*
X132544863Y-78477531D01*
X132567399Y-78411395D01*
X132612454Y-78372354D01*
X132621216Y-78367890D01*
X132658757Y-78340615D01*
X132793186Y-78242948D01*
X132793188Y-78242945D01*
X132793192Y-78242943D01*
X132943504Y-78092631D01*
X132943506Y-78092627D01*
X132943509Y-78092625D01*
X133068448Y-77920659D01*
X133068447Y-77920659D01*
X133068451Y-77920655D01*
X133164957Y-77731251D01*
X133230646Y-77529082D01*
X133263900Y-77319126D01*
X133263900Y-77106552D01*
X133230646Y-76896596D01*
X133164957Y-76694427D01*
X133068451Y-76505023D01*
X133068449Y-76505020D01*
X133068448Y-76505018D01*
X132943509Y-76333052D01*
X132829969Y-76219512D01*
X132796484Y-76158189D01*
X132801468Y-76088497D01*
X132843340Y-76032564D01*
X132874315Y-76015649D01*
X133005731Y-75966635D01*
X133120946Y-75880385D01*
X133207196Y-75765170D01*
X133257491Y-75630322D01*
X133263900Y-75570712D01*
X133263899Y-73774967D01*
X133257491Y-73715356D01*
X133249172Y-73693052D01*
X133207197Y-73580510D01*
X133207193Y-73580503D01*
X133120947Y-73465294D01*
X133120944Y-73465291D01*
X133005735Y-73379045D01*
X133005728Y-73379041D01*
X132870882Y-73328747D01*
X132870883Y-73328747D01*
X132811283Y-73322340D01*
X132811281Y-73322339D01*
X132811273Y-73322339D01*
X132811264Y-73322339D01*
X131015529Y-73322339D01*
X131015523Y-73322340D01*
X130955916Y-73328747D01*
X130821071Y-73379041D01*
X130821064Y-73379045D01*
X130705855Y-73465291D01*
X130705852Y-73465294D01*
X130619606Y-73580503D01*
X130619602Y-73580510D01*
X130569308Y-73715356D01*
X130564358Y-73761405D01*
X130562901Y-73774962D01*
X130562900Y-73774974D01*
X130562900Y-75570709D01*
X130562901Y-75570715D01*
X130569308Y-75630322D01*
X130619602Y-75765167D01*
X130619606Y-75765174D01*
X130705852Y-75880383D01*
X130705855Y-75880386D01*
X130821064Y-75966632D01*
X130821071Y-75966636D01*
X130952482Y-76015649D01*
X131008416Y-76057520D01*
X131032833Y-76122984D01*
X131017982Y-76191257D01*
X130996831Y-76219512D01*
X130883289Y-76333054D01*
X130758351Y-76505018D01*
X130661844Y-76694424D01*
X130596153Y-76896599D01*
X130562900Y-77106552D01*
X130562900Y-77319125D01*
X130596153Y-77529078D01*
X130661844Y-77731253D01*
X130758351Y-77920659D01*
X130883290Y-78092625D01*
X131033613Y-78242948D01*
X131205582Y-78367889D01*
X131214346Y-78372355D01*
X131265142Y-78420330D01*
X131281936Y-78488151D01*
X131259398Y-78554286D01*
X131214346Y-78593323D01*
X131205582Y-78597788D01*
X131033613Y-78722729D01*
X130883290Y-78873052D01*
X130758351Y-79045018D01*
X130661844Y-79234424D01*
X130596153Y-79436599D01*
X130562900Y-79646552D01*
X130562900Y-79859126D01*
X130562899Y-79859126D01*
X130587684Y-80015611D01*
X130578729Y-80084904D01*
X130552892Y-80122689D01*
X129112181Y-81563401D01*
X129050858Y-81596886D01*
X128981166Y-81591902D01*
X128925233Y-81550030D01*
X128900816Y-81484566D01*
X128900500Y-81475720D01*
X128900500Y-66977757D01*
X128920185Y-66910718D01*
X128936814Y-66890081D01*
X130351219Y-65475675D01*
X130412542Y-65442191D01*
X130482234Y-65447175D01*
X130538167Y-65489047D01*
X130562584Y-65554511D01*
X130562900Y-65563357D01*
X130562900Y-65569126D01*
X130566842Y-65594013D01*
X130593660Y-65763339D01*
X130596154Y-65779082D01*
X130632984Y-65892434D01*
X130661844Y-65981253D01*
X130758351Y-66170659D01*
X130883290Y-66342625D01*
X131033613Y-66492948D01*
X131205582Y-66617889D01*
X131214346Y-66622355D01*
X131265142Y-66670330D01*
X131281936Y-66738151D01*
X131259398Y-66804286D01*
X131214346Y-66843323D01*
X131205582Y-66847788D01*
X131033613Y-66972729D01*
X130883290Y-67123052D01*
X130758351Y-67295018D01*
X130661844Y-67484424D01*
X130596153Y-67686599D01*
X130562900Y-67896552D01*
X130562900Y-68109126D01*
X130569550Y-68151113D01*
X130583831Y-68241282D01*
X130596154Y-68319082D01*
X130600690Y-68333043D01*
X130661844Y-68521253D01*
X130758351Y-68710659D01*
X130883290Y-68882625D01*
X131033613Y-69032948D01*
X131205582Y-69157889D01*
X131214346Y-69162355D01*
X131265142Y-69210330D01*
X131281936Y-69278151D01*
X131259398Y-69344286D01*
X131214346Y-69383323D01*
X131205582Y-69387788D01*
X131033613Y-69512729D01*
X130883290Y-69663052D01*
X130758351Y-69835018D01*
X130661844Y-70024424D01*
X130596153Y-70226599D01*
X130590528Y-70262116D01*
X130562900Y-70436552D01*
X130562900Y-70649126D01*
X130569595Y-70691395D01*
X130592226Y-70834286D01*
X130596154Y-70859082D01*
X130600781Y-70873323D01*
X130661844Y-71061253D01*
X130758351Y-71250659D01*
X130883290Y-71422625D01*
X131033613Y-71572948D01*
X131205579Y-71697887D01*
X131205581Y-71697888D01*
X131205584Y-71697890D01*
X131394988Y-71794396D01*
X131597157Y-71860085D01*
X131807113Y-71893339D01*
X131807114Y-71893339D01*
X132019686Y-71893339D01*
X132019687Y-71893339D01*
X132229643Y-71860085D01*
X132431812Y-71794396D01*
X132621216Y-71697890D01*
X132643189Y-71681925D01*
X132793186Y-71572948D01*
X132793188Y-71572945D01*
X132793192Y-71572943D01*
X132943504Y-71422631D01*
X132943506Y-71422627D01*
X132943509Y-71422625D01*
X133068448Y-71250659D01*
X133068447Y-71250659D01*
X133068451Y-71250655D01*
X133164957Y-71061251D01*
X133230646Y-70859082D01*
X133263900Y-70649126D01*
X133263900Y-70436552D01*
X133230646Y-70226596D01*
X133164957Y-70024427D01*
X133068451Y-69835023D01*
X133068449Y-69835020D01*
X133068448Y-69835018D01*
X132943509Y-69663052D01*
X132793186Y-69512729D01*
X132621220Y-69387790D01*
X132618790Y-69386552D01*
X132612454Y-69383324D01*
X132561659Y-69335351D01*
X132544863Y-69267531D01*
X132567399Y-69201395D01*
X132612454Y-69162354D01*
X132621216Y-69157890D01*
X132643189Y-69141925D01*
X132793186Y-69032948D01*
X132793188Y-69032945D01*
X132793192Y-69032943D01*
X132943504Y-68882631D01*
X132943506Y-68882627D01*
X132943509Y-68882625D01*
X133068448Y-68710659D01*
X133068447Y-68710659D01*
X133068451Y-68710655D01*
X133164957Y-68521251D01*
X133230646Y-68319082D01*
X133263900Y-68109126D01*
X133263900Y-67896552D01*
X133230646Y-67686596D01*
X133164957Y-67484427D01*
X133068451Y-67295023D01*
X133068449Y-67295020D01*
X133068448Y-67295018D01*
X132943509Y-67123052D01*
X132793186Y-66972729D01*
X132621220Y-66847790D01*
X132616374Y-66845321D01*
X132612454Y-66843324D01*
X132561659Y-66795351D01*
X132544863Y-66727531D01*
X132567399Y-66661395D01*
X132612454Y-66622354D01*
X132621216Y-66617890D01*
X132710368Y-66553118D01*
X132793186Y-66492948D01*
X132793188Y-66492945D01*
X132793192Y-66492943D01*
X132943504Y-66342631D01*
X132943506Y-66342627D01*
X132943509Y-66342625D01*
X133068448Y-66170659D01*
X133068447Y-66170659D01*
X133068451Y-66170655D01*
X133164957Y-65981251D01*
X133230646Y-65779082D01*
X133263900Y-65569126D01*
X133263900Y-65356552D01*
X133230646Y-65146596D01*
X133164957Y-64944427D01*
X133068451Y-64755023D01*
X133068449Y-64755020D01*
X133068448Y-64755018D01*
X132943509Y-64583052D01*
X132793186Y-64432729D01*
X132621220Y-64307790D01*
X132618790Y-64306552D01*
X132612454Y-64303324D01*
X132561659Y-64255351D01*
X132544863Y-64187531D01*
X132567399Y-64121395D01*
X132612454Y-64082354D01*
X132621216Y-64077890D01*
X132644517Y-64060961D01*
X132793186Y-63952948D01*
X132793188Y-63952945D01*
X132793192Y-63952943D01*
X132943504Y-63802631D01*
X132943506Y-63802627D01*
X132943509Y-63802625D01*
X133068448Y-63630659D01*
X133068447Y-63630659D01*
X133068451Y-63630655D01*
X133164957Y-63441251D01*
X133230646Y-63239082D01*
X133263900Y-63029126D01*
X133263900Y-62816552D01*
X133230646Y-62606596D01*
X133164957Y-62404427D01*
X133068451Y-62215023D01*
X133068449Y-62215020D01*
X133068448Y-62215018D01*
X132943509Y-62043052D01*
X132793186Y-61892729D01*
X132621220Y-61767790D01*
X132618790Y-61766552D01*
X132612454Y-61763324D01*
X132561659Y-61715351D01*
X132544863Y-61647531D01*
X132567399Y-61581395D01*
X132612454Y-61542354D01*
X132621216Y-61537890D01*
X132665793Y-61505503D01*
X132793186Y-61412948D01*
X132793188Y-61412945D01*
X132793192Y-61412943D01*
X132943504Y-61262631D01*
X132943506Y-61262627D01*
X132943509Y-61262625D01*
X133068448Y-61090659D01*
X133068447Y-61090659D01*
X133068451Y-61090655D01*
X133164957Y-60901251D01*
X133230646Y-60699082D01*
X133263900Y-60489126D01*
X133263900Y-60276552D01*
X133230646Y-60066596D01*
X133164957Y-59864427D01*
X133068451Y-59675023D01*
X133068449Y-59675020D01*
X133068448Y-59675018D01*
X132943509Y-59503052D01*
X132793186Y-59352729D01*
X132621220Y-59227790D01*
X132618790Y-59226552D01*
X132612454Y-59223324D01*
X132561659Y-59175351D01*
X132544863Y-59107531D01*
X132567399Y-59041395D01*
X132612454Y-59002354D01*
X132621216Y-58997890D01*
X132683575Y-58952584D01*
X132793186Y-58872948D01*
X132793188Y-58872945D01*
X132793192Y-58872943D01*
X132943504Y-58722631D01*
X132943506Y-58722627D01*
X132943509Y-58722625D01*
X133068448Y-58550659D01*
X133068447Y-58550659D01*
X133068451Y-58550655D01*
X133164957Y-58361251D01*
X133230646Y-58159082D01*
X133263900Y-57949126D01*
X133263900Y-57736552D01*
X133230646Y-57526596D01*
X133164957Y-57324427D01*
X133068451Y-57135023D01*
X133068449Y-57135020D01*
X133068448Y-57135018D01*
X132943509Y-56963052D01*
X132793186Y-56812729D01*
X132621220Y-56687790D01*
X132620515Y-56687430D01*
X132612454Y-56683324D01*
X132561659Y-56635351D01*
X132544863Y-56567531D01*
X132567399Y-56501395D01*
X132612454Y-56462354D01*
X132621216Y-56457890D01*
X132643189Y-56441925D01*
X132793186Y-56332948D01*
X132793188Y-56332945D01*
X132793192Y-56332943D01*
X132943504Y-56182631D01*
X132943506Y-56182627D01*
X132943509Y-56182625D01*
X133068448Y-56010659D01*
X133068447Y-56010659D01*
X133068451Y-56010655D01*
X133164957Y-55821251D01*
X133230646Y-55619082D01*
X133263900Y-55409126D01*
X133263900Y-55196552D01*
X133230646Y-54986596D01*
X133164957Y-54784427D01*
X133068451Y-54595023D01*
X133068449Y-54595020D01*
X133068448Y-54595018D01*
X132943509Y-54423052D01*
X132793186Y-54272729D01*
X132621220Y-54147790D01*
X132620515Y-54147430D01*
X132612454Y-54143324D01*
X132561659Y-54095351D01*
X132544863Y-54027531D01*
X132567399Y-53961395D01*
X132612454Y-53922354D01*
X132621216Y-53917890D01*
X132643189Y-53901925D01*
X132793186Y-53792948D01*
X132793188Y-53792945D01*
X132793192Y-53792943D01*
X132943504Y-53642631D01*
X132943506Y-53642627D01*
X132943509Y-53642625D01*
X133068448Y-53470659D01*
X133068447Y-53470659D01*
X133068451Y-53470655D01*
X133164957Y-53281251D01*
X133230646Y-53079082D01*
X133263900Y-52869126D01*
X133263900Y-52656552D01*
X133230646Y-52446596D01*
X133164957Y-52244427D01*
X133068451Y-52055023D01*
X133068449Y-52055020D01*
X133068448Y-52055018D01*
X132943509Y-51883052D01*
X132793186Y-51732729D01*
X132621220Y-51607790D01*
X132620515Y-51607430D01*
X132612454Y-51603324D01*
X132561659Y-51555351D01*
X132544863Y-51487531D01*
X132567399Y-51421395D01*
X132612454Y-51382354D01*
X132621216Y-51377890D01*
X132643189Y-51361925D01*
X132793186Y-51252948D01*
X132793188Y-51252945D01*
X132793192Y-51252943D01*
X132943504Y-51102631D01*
X132943506Y-51102627D01*
X132943509Y-51102625D01*
X133068448Y-50930659D01*
X133068447Y-50930659D01*
X133068451Y-50930655D01*
X133164957Y-50741251D01*
X133230646Y-50539082D01*
X133263900Y-50329126D01*
X133263900Y-50116552D01*
X133230646Y-49906596D01*
X133164957Y-49704427D01*
X133068451Y-49515023D01*
X133068449Y-49515020D01*
X133068448Y-49515018D01*
X132943509Y-49343052D01*
X132829969Y-49229512D01*
X132796484Y-49168189D01*
X132801468Y-49098497D01*
X132843340Y-49042564D01*
X132874315Y-49025649D01*
X133005731Y-48976635D01*
X133120946Y-48890385D01*
X133207196Y-48775170D01*
X133257491Y-48640322D01*
X133263900Y-48580712D01*
X133263899Y-46784967D01*
X133257491Y-46725356D01*
X133207196Y-46590508D01*
X133207195Y-46590507D01*
X133207193Y-46590503D01*
X133120947Y-46475294D01*
X133120944Y-46475291D01*
X133005735Y-46389045D01*
X133005728Y-46389041D01*
X132870882Y-46338747D01*
X132870883Y-46338747D01*
X132811283Y-46332340D01*
X132811281Y-46332339D01*
X132811273Y-46332339D01*
X132811264Y-46332339D01*
X131015529Y-46332339D01*
X131015523Y-46332340D01*
X130955916Y-46338747D01*
X130821071Y-46389041D01*
X130821064Y-46389045D01*
X130705855Y-46475291D01*
X130705852Y-46475294D01*
X130619606Y-46590503D01*
X130619602Y-46590510D01*
X130569308Y-46725356D01*
X130562901Y-46784955D01*
X130562901Y-46784962D01*
X130562900Y-46784974D01*
X130562900Y-48580709D01*
X130562901Y-48580715D01*
X130569308Y-48640322D01*
X130619602Y-48775167D01*
X130619606Y-48775174D01*
X130705852Y-48890383D01*
X130705855Y-48890386D01*
X130821064Y-48976632D01*
X130821071Y-48976636D01*
X130952482Y-49025649D01*
X131008416Y-49067520D01*
X131032833Y-49132984D01*
X131017982Y-49201257D01*
X130996831Y-49229512D01*
X130883289Y-49343054D01*
X130758351Y-49515018D01*
X130661844Y-49704424D01*
X130596153Y-49906599D01*
X130562900Y-50116552D01*
X130562900Y-50329125D01*
X130582613Y-50453592D01*
X130596154Y-50539082D01*
X130655942Y-50723091D01*
X130661844Y-50741253D01*
X130758351Y-50930659D01*
X130883290Y-51102625D01*
X131033613Y-51252948D01*
X131205582Y-51377889D01*
X131214346Y-51382355D01*
X131265142Y-51430330D01*
X131281936Y-51498151D01*
X131259398Y-51564286D01*
X131214346Y-51603323D01*
X131205582Y-51607788D01*
X131033613Y-51732729D01*
X130883290Y-51883052D01*
X130758351Y-52055018D01*
X130661844Y-52244424D01*
X130596153Y-52446599D01*
X130562900Y-52656552D01*
X130562900Y-52869125D01*
X130596153Y-53079078D01*
X130661844Y-53281253D01*
X130758351Y-53470659D01*
X130883290Y-53642625D01*
X131033613Y-53792948D01*
X131205582Y-53917889D01*
X131214346Y-53922355D01*
X131265142Y-53970330D01*
X131281936Y-54038151D01*
X131259398Y-54104286D01*
X131214346Y-54143323D01*
X131205582Y-54147788D01*
X131033613Y-54272729D01*
X130883290Y-54423052D01*
X130758351Y-54595018D01*
X130661844Y-54784424D01*
X130596153Y-54986599D01*
X130562900Y-55196552D01*
X130562900Y-55409126D01*
X130568161Y-55442340D01*
X130577141Y-55499043D01*
X130596154Y-55619082D01*
X130660107Y-55815909D01*
X130661844Y-55821253D01*
X130758351Y-56010659D01*
X130883290Y-56182625D01*
X131033613Y-56332948D01*
X131205582Y-56457889D01*
X131214346Y-56462355D01*
X131265142Y-56510330D01*
X131281936Y-56578151D01*
X131259398Y-56644286D01*
X131214346Y-56683323D01*
X131205582Y-56687788D01*
X131033613Y-56812729D01*
X130883290Y-56963052D01*
X130758351Y-57135018D01*
X130661844Y-57324424D01*
X130596153Y-57526599D01*
X130562900Y-57736552D01*
X130562900Y-57949125D01*
X130595121Y-58152564D01*
X130596154Y-58159082D01*
X130634854Y-58278189D01*
X130661844Y-58361253D01*
X130758351Y-58550659D01*
X130883290Y-58722625D01*
X131033613Y-58872948D01*
X131205582Y-58997889D01*
X131214346Y-59002355D01*
X131265142Y-59050330D01*
X131281936Y-59118151D01*
X131259398Y-59184286D01*
X131214346Y-59223323D01*
X131205582Y-59227788D01*
X131033613Y-59352729D01*
X130883290Y-59503052D01*
X130758351Y-59675018D01*
X130661844Y-59864424D01*
X130596153Y-60066599D01*
X130587088Y-60123835D01*
X130562900Y-60276552D01*
X130562900Y-60489126D01*
X130568221Y-60522720D01*
X130595088Y-60692356D01*
X130596154Y-60699082D01*
X130661413Y-60899929D01*
X130661844Y-60901253D01*
X130758351Y-61090659D01*
X130883290Y-61262625D01*
X131033613Y-61412948D01*
X131205582Y-61537889D01*
X131214346Y-61542355D01*
X131265142Y-61590330D01*
X131281936Y-61658151D01*
X131259398Y-61724286D01*
X131214346Y-61763323D01*
X131205582Y-61767788D01*
X131033613Y-61892729D01*
X130883290Y-62043052D01*
X130758351Y-62215018D01*
X130661844Y-62404424D01*
X130596153Y-62606599D01*
X130562900Y-62816552D01*
X130562900Y-63029126D01*
X130562899Y-63029126D01*
X130587684Y-63185610D01*
X130578729Y-63254903D01*
X130552892Y-63292688D01*
X127655887Y-66189693D01*
X127579222Y-66304431D01*
X127526421Y-66431906D01*
X127526418Y-66431918D01*
X127502311Y-66553113D01*
X127502310Y-66553118D01*
X127499500Y-66567241D01*
X127499500Y-110258480D01*
X127479815Y-110325519D01*
X127463181Y-110346161D01*
X120610309Y-117199032D01*
X120548986Y-117232517D01*
X120484311Y-117229282D01*
X120384856Y-117196968D01*
X120384857Y-117196968D01*
X120129351Y-117156500D01*
X120129346Y-117156500D01*
X119870654Y-117156500D01*
X119870649Y-117156500D01*
X119615149Y-117196967D01*
X119369112Y-117276910D01*
X119138617Y-117394353D01*
X118929329Y-117546410D01*
X118746410Y-117729329D01*
X118594353Y-117938617D01*
X118476910Y-118169112D01*
X118396967Y-118415149D01*
X118356500Y-118670648D01*
X117681100Y-118670648D01*
X117648250Y-118463243D01*
X117640632Y-118415146D01*
X117560691Y-118169115D01*
X117443247Y-117938618D01*
X117291192Y-117729332D01*
X117108268Y-117546408D01*
X116898982Y-117394353D01*
X116668485Y-117276909D01*
X116422454Y-117196968D01*
X116422452Y-117196967D01*
X116422450Y-117196967D01*
X116166951Y-117156500D01*
X116166946Y-117156500D01*
X115908254Y-117156500D01*
X115908249Y-117156500D01*
X115652749Y-117196967D01*
X115406712Y-117276910D01*
X115176217Y-117394353D01*
X114966929Y-117546410D01*
X114784010Y-117729329D01*
X114631953Y-117938617D01*
X114514510Y-118169112D01*
X114434567Y-118415149D01*
X114394100Y-118670648D01*
X113718700Y-118670648D01*
X113685850Y-118463243D01*
X113678232Y-118415146D01*
X113598291Y-118169115D01*
X113480847Y-117938618D01*
X113328792Y-117729332D01*
X113145868Y-117546408D01*
X112936582Y-117394353D01*
X112706085Y-117276909D01*
X112460054Y-117196968D01*
X112460052Y-117196967D01*
X112460050Y-117196967D01*
X112204551Y-117156500D01*
X112204546Y-117156500D01*
X111945854Y-117156500D01*
X111945849Y-117156500D01*
X111690335Y-117196969D01*
X111688416Y-117197430D01*
X111687665Y-117197392D01*
X111685534Y-117197730D01*
X111685463Y-117197281D01*
X111618634Y-117193927D01*
X111571810Y-117164532D01*
X110385492Y-115978213D01*
X110385488Y-115978210D01*
X110254385Y-115890609D01*
X110254372Y-115890602D01*
X110108701Y-115830264D01*
X110108689Y-115830261D01*
X109954045Y-115799500D01*
X109954042Y-115799500D01*
X103704043Y-115799500D01*
X103546358Y-115799500D01*
X103546355Y-115799500D01*
X103391710Y-115830261D01*
X103391698Y-115830264D01*
X103246027Y-115890602D01*
X103246014Y-115890609D01*
X103114911Y-115978210D01*
X103114907Y-115978213D01*
X101928587Y-117164533D01*
X101867264Y-117198018D01*
X101814909Y-117197455D01*
X101814866Y-117197730D01*
X101813005Y-117197435D01*
X101811952Y-117197424D01*
X101810056Y-117196968D01*
X101810054Y-117196968D01*
X101810051Y-117196967D01*
X101810049Y-117196967D01*
X101554551Y-117156500D01*
X101554546Y-117156500D01*
X101295854Y-117156500D01*
X101295849Y-117156500D01*
X101040349Y-117196967D01*
X100794312Y-117276910D01*
X100563817Y-117394353D01*
X100354529Y-117546410D01*
X100171610Y-117729329D01*
X100019553Y-117938617D01*
X99902110Y-118169112D01*
X99822167Y-118415149D01*
X99781700Y-118670648D01*
X92516268Y-118670648D01*
X92669022Y-118592815D01*
X92706669Y-118565462D01*
X92706671Y-118565462D01*
X92847358Y-118463247D01*
X92847356Y-118463247D01*
X92847365Y-118463242D01*
X93003242Y-118307365D01*
X93120034Y-118146613D01*
X93175362Y-118103949D01*
X93220351Y-118095500D01*
X93673996Y-118095500D01*
X93765040Y-118077389D01*
X93809328Y-118068580D01*
X93873069Y-118042177D01*
X93936807Y-118015777D01*
X93936808Y-118015776D01*
X93936811Y-118015775D01*
X94051543Y-117939114D01*
X94397813Y-117592844D01*
X95945000Y-117592844D01*
X95951401Y-117652372D01*
X95951403Y-117652379D01*
X96001645Y-117787086D01*
X96001649Y-117787093D01*
X96087809Y-117902187D01*
X96087812Y-117902190D01*
X96202906Y-117988350D01*
X96202913Y-117988354D01*
X96337620Y-118038596D01*
X96337627Y-118038598D01*
X96397155Y-118044999D01*
X96397172Y-118045000D01*
X96885000Y-118045000D01*
X97385000Y-118045000D01*
X97872828Y-118045000D01*
X97872844Y-118044999D01*
X97932372Y-118038598D01*
X97932379Y-118038596D01*
X98067086Y-117988354D01*
X98067093Y-117988350D01*
X98182187Y-117902190D01*
X98182190Y-117902187D01*
X98268350Y-117787093D01*
X98268354Y-117787086D01*
X98318596Y-117652379D01*
X98318598Y-117652372D01*
X98324999Y-117592844D01*
X98325000Y-117592827D01*
X98325000Y-117310000D01*
X97385000Y-117310000D01*
X97385000Y-118045000D01*
X96885000Y-118045000D01*
X96885000Y-117310000D01*
X95945000Y-117310000D01*
X95945000Y-117592844D01*
X94397813Y-117592844D01*
X95805472Y-116185183D01*
X95866793Y-116151700D01*
X95936484Y-116156684D01*
X95992418Y-116198555D01*
X96016835Y-116264020D01*
X96003740Y-116324226D01*
X96004746Y-116324601D01*
X96002138Y-116331590D01*
X96001988Y-116332285D01*
X96001647Y-116332909D01*
X95951403Y-116467620D01*
X95951401Y-116467627D01*
X95945000Y-116527155D01*
X95945000Y-116810000D01*
X98325000Y-116810000D01*
X98325000Y-116527172D01*
X98324999Y-116527155D01*
X98318598Y-116467627D01*
X98318596Y-116467620D01*
X98268354Y-116332913D01*
X98268350Y-116332906D01*
X98176875Y-116210712D01*
X98177968Y-116209893D01*
X98148931Y-116156715D01*
X98153915Y-116087023D01*
X98177708Y-116050001D01*
X98177232Y-116049645D01*
X98182215Y-116042987D01*
X98182416Y-116042676D01*
X98182542Y-116042548D01*
X98182546Y-116042546D01*
X98268796Y-115927331D01*
X98319091Y-115792483D01*
X98325500Y-115732873D01*
X98325499Y-114667128D01*
X98319091Y-114607517D01*
X98306236Y-114573052D01*
X98268797Y-114472671D01*
X98268793Y-114472664D01*
X98182547Y-114357455D01*
X98182544Y-114357452D01*
X98067335Y-114271206D01*
X98067328Y-114271202D01*
X97932482Y-114220908D01*
X97932483Y-114220908D01*
X97872883Y-114214501D01*
X97872881Y-114214500D01*
X97872873Y-114214500D01*
X97872864Y-114214500D01*
X96397129Y-114214500D01*
X96397123Y-114214501D01*
X96337516Y-114220908D01*
X96202671Y-114271202D01*
X96202664Y-114271206D01*
X96087456Y-114357452D01*
X96087455Y-114357453D01*
X96087454Y-114357454D01*
X96038585Y-114422735D01*
X96018316Y-114449811D01*
X95962382Y-114491682D01*
X95919049Y-114499500D01*
X95731004Y-114499500D01*
X95595677Y-114526418D01*
X95595667Y-114526421D01*
X95468192Y-114579222D01*
X95353454Y-114655887D01*
X95353453Y-114655888D01*
X93351162Y-116658181D01*
X93324234Y-116672884D01*
X93298416Y-116689477D01*
X93292215Y-116690368D01*
X93289839Y-116691666D01*
X93263481Y-116694500D01*
X93220351Y-116694500D01*
X93153312Y-116674815D01*
X93120035Y-116643388D01*
X93003242Y-116482635D01*
X92953070Y-116432463D01*
X92919586Y-116371141D01*
X92924570Y-116301449D01*
X92966442Y-116245516D01*
X92997420Y-116228601D01*
X93077326Y-116198798D01*
X93077326Y-116198797D01*
X93077331Y-116198796D01*
X93192546Y-116112546D01*
X93278796Y-115997331D01*
X93329091Y-115862483D01*
X93335500Y-115802873D01*
X93335499Y-113907128D01*
X93329091Y-113847517D01*
X93286241Y-113732631D01*
X93278797Y-113712671D01*
X93278793Y-113712664D01*
X93192547Y-113597455D01*
X93192544Y-113597452D01*
X93077335Y-113511206D01*
X93077328Y-113511202D01*
X92942482Y-113460908D01*
X92942483Y-113460908D01*
X92882883Y-113454501D01*
X92882881Y-113454500D01*
X92882873Y-113454500D01*
X92882865Y-113454500D01*
X92581000Y-113454500D01*
X92513961Y-113434815D01*
X92468206Y-113382011D01*
X92457000Y-113330500D01*
X92457000Y-111796386D01*
X92476685Y-111729347D01*
X92508066Y-111696103D01*
X92521777Y-111686130D01*
X92533831Y-111681635D01*
X92649046Y-111595385D01*
X92652028Y-111591401D01*
X92663566Y-111583010D01*
X92687674Y-111574394D01*
X92710142Y-111562127D01*
X92720028Y-111562833D01*
X92729361Y-111559499D01*
X92754296Y-111565284D01*
X92779834Y-111567111D01*
X92789815Y-111573526D01*
X92797422Y-111575291D01*
X92805529Y-111583624D01*
X92816434Y-111590633D01*
X92816855Y-111590071D01*
X92939164Y-111681632D01*
X92939171Y-111681636D01*
X93074017Y-111731930D01*
X93074016Y-111731930D01*
X93080944Y-111732674D01*
X93133627Y-111738339D01*
X94199372Y-111738338D01*
X94258983Y-111731930D01*
X94393831Y-111681635D01*
X94509046Y-111595385D01*
X94595296Y-111480170D01*
X94645591Y-111345322D01*
X94649487Y-111309081D01*
X94676224Y-111244533D01*
X94733616Y-111204685D01*
X94772776Y-111198339D01*
X100086175Y-111198339D01*
X100170719Y-111181521D01*
X100211848Y-111173340D01*
X100330231Y-111124304D01*
X100381604Y-111089978D01*
X100436773Y-111053116D01*
X101529319Y-109960568D01*
X101590642Y-109927084D01*
X101660333Y-109932068D01*
X101716267Y-109973939D01*
X101740684Y-110039404D01*
X101741000Y-110048250D01*
X101741000Y-110241261D01*
X101771790Y-110435665D01*
X101832617Y-110622868D01*
X101921976Y-110798244D01*
X102037672Y-110957485D01*
X102176854Y-111096667D01*
X102336095Y-111212363D01*
X102399233Y-111244533D01*
X102511470Y-111301721D01*
X102511472Y-111301721D01*
X102511475Y-111301723D01*
X102611817Y-111334326D01*
X102698673Y-111362548D01*
X102893078Y-111393339D01*
X102893083Y-111393339D01*
X103089922Y-111393339D01*
X103284326Y-111362548D01*
X103471525Y-111301723D01*
X103646905Y-111212363D01*
X103806146Y-111096667D01*
X103945328Y-110957485D01*
X104061024Y-110798244D01*
X104150384Y-110622864D01*
X104211209Y-110435665D01*
X104242000Y-110241261D01*
X104242000Y-110044416D01*
X104211209Y-109850012D01*
X104178828Y-109750355D01*
X104150384Y-109662814D01*
X104150382Y-109662811D01*
X104150382Y-109662809D01*
X104063886Y-109493052D01*
X104061024Y-109487434D01*
X103945328Y-109328193D01*
X103806146Y-109189011D01*
X103646905Y-109073315D01*
X103597518Y-109048151D01*
X103471529Y-108983956D01*
X103284326Y-108923129D01*
X103089922Y-108892339D01*
X103089917Y-108892339D01*
X102896911Y-108892339D01*
X102829872Y-108872654D01*
X102784117Y-108819850D01*
X102774173Y-108750692D01*
X102803198Y-108687136D01*
X102809230Y-108680658D01*
X103487868Y-108002020D01*
X104202288Y-107287599D01*
X104219831Y-107278020D01*
X104234462Y-107264399D01*
X104249868Y-107261619D01*
X104263609Y-107254116D01*
X104283547Y-107255541D01*
X104303221Y-107251992D01*
X104330199Y-107258878D01*
X104333301Y-107259100D01*
X104337419Y-107260721D01*
X104389572Y-107282323D01*
X104443976Y-107326163D01*
X104466041Y-107392457D01*
X104448762Y-107460157D01*
X104429802Y-107484564D01*
X104384024Y-107530342D01*
X104269058Y-107702403D01*
X104189870Y-107893579D01*
X104189868Y-107893587D01*
X104149500Y-108096530D01*
X104149500Y-108303469D01*
X104189868Y-108506412D01*
X104189870Y-108506420D01*
X104262445Y-108681632D01*
X104269059Y-108697598D01*
X104296281Y-108738339D01*
X104384024Y-108869657D01*
X104530342Y-109015975D01*
X104530345Y-109015977D01*
X104702402Y-109130941D01*
X104893580Y-109210130D01*
X105020225Y-109235321D01*
X105096530Y-109250499D01*
X105096534Y-109250500D01*
X105096535Y-109250500D01*
X105303466Y-109250500D01*
X105303467Y-109250499D01*
X105506420Y-109210130D01*
X105697598Y-109130941D01*
X105869655Y-109015977D01*
X106015977Y-108869655D01*
X106130941Y-108697598D01*
X106210130Y-108506420D01*
X106250500Y-108303465D01*
X106250500Y-108096535D01*
X106210130Y-107893580D01*
X106130941Y-107702402D01*
X106130940Y-107702401D01*
X106129939Y-107699983D01*
X106128312Y-107691805D01*
X106125523Y-107687465D01*
X106120500Y-107652530D01*
X106120500Y-107429500D01*
X106140185Y-107362461D01*
X106192989Y-107316706D01*
X106244500Y-107305500D01*
X106417713Y-107305500D01*
X106417720Y-107305500D01*
X106530236Y-107290687D01*
X106670233Y-107232698D01*
X106790451Y-107140451D01*
X106882698Y-107020233D01*
X106940687Y-106880236D01*
X106955500Y-106767720D01*
X106955500Y-106242280D01*
X106940687Y-106129764D01*
X106930544Y-106105277D01*
X106910528Y-106056952D01*
X106903059Y-105987483D01*
X106934335Y-105925004D01*
X106994424Y-105889352D01*
X107025089Y-105885500D01*
X109481353Y-105885500D01*
X109548392Y-105905185D01*
X109569034Y-105921819D01*
X111158181Y-107510965D01*
X111191666Y-107572288D01*
X111194500Y-107598646D01*
X111194500Y-109175709D01*
X111194501Y-109175715D01*
X111200908Y-109235322D01*
X111251202Y-109370167D01*
X111251206Y-109370174D01*
X111337452Y-109485383D01*
X111337455Y-109485386D01*
X111452664Y-109571632D01*
X111452671Y-109571636D01*
X111587517Y-109621930D01*
X111587516Y-109621930D01*
X111594444Y-109622674D01*
X111647127Y-109628339D01*
X113742872Y-109628338D01*
X113802483Y-109621930D01*
X113937331Y-109571635D01*
X114052546Y-109485385D01*
X114138796Y-109370170D01*
X114189091Y-109235322D01*
X114195500Y-109175712D01*
X114195500Y-108902339D01*
X114215185Y-108835300D01*
X114267989Y-108789545D01*
X114319500Y-108778339D01*
X119686232Y-108778339D01*
X119770776Y-108761521D01*
X119811905Y-108753340D01*
X119930288Y-108704304D01*
X119964215Y-108681635D01*
X120036830Y-108633116D01*
X123333127Y-105336817D01*
X123394450Y-105303333D01*
X123420808Y-105300499D01*
X125047871Y-105300499D01*
X125047872Y-105300499D01*
X125107483Y-105294091D01*
X125242331Y-105243796D01*
X125357546Y-105157546D01*
X125443796Y-105042331D01*
X125494091Y-104907483D01*
X125500500Y-104847873D01*
X125500499Y-103152128D01*
X125494091Y-103092517D01*
X125485780Y-103070235D01*
X125443797Y-102957671D01*
X125443793Y-102957664D01*
X125357547Y-102842455D01*
X125357544Y-102842452D01*
X125242335Y-102756206D01*
X125242328Y-102756202D01*
X125107482Y-102705908D01*
X125107483Y-102705908D01*
X125047883Y-102699501D01*
X125047881Y-102699500D01*
X125047873Y-102699500D01*
X125047864Y-102699500D01*
X122452129Y-102699500D01*
X122452123Y-102699501D01*
X122392516Y-102705908D01*
X122257671Y-102756202D01*
X122257664Y-102756206D01*
X122142455Y-102842452D01*
X122099266Y-102900145D01*
X122043332Y-102942015D01*
X121973640Y-102946999D01*
X121912317Y-102913513D01*
X121900734Y-102900145D01*
X121879376Y-102871615D01*
X121857546Y-102842454D01*
X121857544Y-102842453D01*
X121857544Y-102842452D01*
X121742335Y-102756206D01*
X121742328Y-102756202D01*
X121607482Y-102705908D01*
X121607483Y-102705908D01*
X121547883Y-102699501D01*
X121547881Y-102699500D01*
X121547873Y-102699500D01*
X121547864Y-102699500D01*
X118952129Y-102699500D01*
X118952123Y-102699501D01*
X118892516Y-102705908D01*
X118757671Y-102756202D01*
X118757664Y-102756206D01*
X118642455Y-102842452D01*
X118642452Y-102842455D01*
X118556206Y-102957664D01*
X118556202Y-102957671D01*
X118505908Y-103092517D01*
X118499501Y-103152116D01*
X118499501Y-103152123D01*
X118499500Y-103152135D01*
X118499500Y-103225500D01*
X118479815Y-103292539D01*
X118427011Y-103338294D01*
X118375500Y-103349500D01*
X116735929Y-103349500D01*
X116610261Y-103374497D01*
X116610255Y-103374499D01*
X116525754Y-103409501D01*
X116525753Y-103409501D01*
X116491876Y-103423532D01*
X116385326Y-103494726D01*
X116385325Y-103494727D01*
X114979034Y-104901020D01*
X114917711Y-104934505D01*
X114891353Y-104937339D01*
X114123592Y-104937339D01*
X114056553Y-104917654D01*
X114013107Y-104869634D01*
X114001071Y-104846013D01*
X113978343Y-104801406D01*
X113839517Y-104610329D01*
X113672510Y-104443322D01*
X113637872Y-104418156D01*
X113595207Y-104362828D01*
X113589228Y-104293214D01*
X113621833Y-104231419D01*
X113637873Y-104217521D01*
X113672510Y-104192356D01*
X113839517Y-104025349D01*
X113978343Y-103834272D01*
X114085568Y-103623831D01*
X114158553Y-103399207D01*
X114159353Y-103394154D01*
X114195500Y-103165936D01*
X114195500Y-102929741D01*
X114158553Y-102696470D01*
X114085566Y-102471842D01*
X114029002Y-102360830D01*
X113978343Y-102261406D01*
X113839517Y-102070329D01*
X113672510Y-101903322D01*
X113481433Y-101764496D01*
X113424241Y-101735355D01*
X113270996Y-101657272D01*
X113046368Y-101584285D01*
X112813097Y-101547339D01*
X112813092Y-101547339D01*
X112576908Y-101547339D01*
X112576903Y-101547339D01*
X112343631Y-101584285D01*
X112119003Y-101657272D01*
X111908566Y-101764496D01*
X111799550Y-101843701D01*
X111717490Y-101903322D01*
X111717488Y-101903324D01*
X111717487Y-101903324D01*
X111550485Y-102070326D01*
X111550485Y-102070327D01*
X111550483Y-102070329D01*
X111490862Y-102152389D01*
X111411657Y-102261405D01*
X111304433Y-102471842D01*
X111231446Y-102696470D01*
X111194500Y-102929741D01*
X111194500Y-103165934D01*
X111195319Y-103171106D01*
X111186362Y-103240399D01*
X111141364Y-103293850D01*
X111074612Y-103314487D01*
X111072845Y-103314500D01*
X107024548Y-103314500D01*
X106957509Y-103294815D01*
X106911754Y-103242011D01*
X106901810Y-103172853D01*
X106909986Y-103143048D01*
X106940200Y-103070102D01*
X106954999Y-102957697D01*
X106955000Y-102957683D01*
X106955000Y-102945000D01*
X103985000Y-102945000D01*
X103985000Y-102957697D01*
X103999800Y-103070104D01*
X103999801Y-103070108D01*
X104057737Y-103209981D01*
X104091594Y-103254104D01*
X104116788Y-103319274D01*
X104102749Y-103387718D01*
X104091594Y-103405076D01*
X104057302Y-103449766D01*
X104057300Y-103449769D01*
X103999313Y-103589763D01*
X103999313Y-103589764D01*
X103984500Y-103702272D01*
X103984500Y-104227727D01*
X103999313Y-104340235D01*
X103999313Y-104340236D01*
X104057301Y-104480233D01*
X104091279Y-104524514D01*
X104099509Y-104545804D01*
X104111861Y-104565000D01*
X104111867Y-104577771D01*
X104116473Y-104589684D01*
X104111886Y-104612044D01*
X104111899Y-104634870D01*
X104104022Y-104650385D01*
X104102434Y-104658129D01*
X104097255Y-104666982D01*
X104094439Y-104671367D01*
X104057302Y-104719767D01*
X104046255Y-104746434D01*
X104040278Y-104755747D01*
X104033522Y-104761607D01*
X104023607Y-104776446D01*
X103429181Y-105370873D01*
X103367858Y-105404358D01*
X103298167Y-105399374D01*
X103242233Y-105357503D01*
X103217816Y-105292038D01*
X103217500Y-105283192D01*
X103217500Y-102432302D01*
X103985000Y-102432302D01*
X103985000Y-102445000D01*
X105220000Y-102445000D01*
X105720000Y-102445000D01*
X106955000Y-102445000D01*
X106955000Y-102432316D01*
X106954999Y-102432302D01*
X106940199Y-102319895D01*
X106940198Y-102319891D01*
X106882263Y-102180021D01*
X106790094Y-102059905D01*
X106669978Y-101967736D01*
X106530108Y-101909801D01*
X106530104Y-101909800D01*
X106417697Y-101895000D01*
X105720000Y-101895000D01*
X105720000Y-102445000D01*
X105220000Y-102445000D01*
X105220000Y-101895000D01*
X104522302Y-101895000D01*
X104409895Y-101909800D01*
X104409891Y-101909801D01*
X104270021Y-101967736D01*
X104149905Y-102059905D01*
X104057736Y-102180021D01*
X103999801Y-102319891D01*
X103999800Y-102319895D01*
X103985000Y-102432302D01*
X103217500Y-102432302D01*
X103217500Y-101852986D01*
X103192502Y-101727319D01*
X103192501Y-101727318D01*
X103192501Y-101727314D01*
X103143465Y-101608931D01*
X103137837Y-101600508D01*
X103133036Y-101593323D01*
X103072278Y-101502390D01*
X103072272Y-101502383D01*
X101923615Y-100353726D01*
X101871832Y-100319126D01*
X101817069Y-100282535D01*
X101698686Y-100233499D01*
X101698680Y-100233497D01*
X101573013Y-100208500D01*
X101573011Y-100208500D01*
X93268308Y-100208500D01*
X93201269Y-100188815D01*
X93180627Y-100172181D01*
X92493319Y-99484873D01*
X92459834Y-99423550D01*
X92457000Y-99397192D01*
X92457000Y-97296386D01*
X92476685Y-97229347D01*
X92508066Y-97196103D01*
X92521777Y-97186130D01*
X92533831Y-97181635D01*
X92649046Y-97095385D01*
X92652028Y-97091401D01*
X92663566Y-97083010D01*
X92687674Y-97074394D01*
X92710142Y-97062127D01*
X92720028Y-97062833D01*
X92729361Y-97059499D01*
X92754296Y-97065284D01*
X92779834Y-97067111D01*
X92789815Y-97073526D01*
X92797422Y-97075291D01*
X92805529Y-97083624D01*
X92816434Y-97090633D01*
X92816855Y-97090071D01*
X92939164Y-97181632D01*
X92939171Y-97181636D01*
X93074017Y-97231930D01*
X93074016Y-97231930D01*
X93080944Y-97232674D01*
X93133627Y-97238339D01*
X94199372Y-97238338D01*
X94258983Y-97231930D01*
X94393831Y-97181635D01*
X94509046Y-97095385D01*
X94595296Y-96980170D01*
X94645591Y-96845322D01*
X94652000Y-96785712D01*
X94651999Y-96033645D01*
X94671683Y-95966607D01*
X94688313Y-95945970D01*
X96147466Y-94486819D01*
X96208789Y-94453334D01*
X96235147Y-94450500D01*
X102021003Y-94450500D01*
X102088042Y-94470185D01*
X102133797Y-94522989D01*
X102143741Y-94592147D01*
X102114716Y-94655703D01*
X102108684Y-94662181D01*
X102037674Y-94733190D01*
X102037674Y-94733191D01*
X102037672Y-94733193D01*
X101987985Y-94801580D01*
X101921976Y-94892433D01*
X101832617Y-95067809D01*
X101771790Y-95255012D01*
X101741000Y-95449416D01*
X101741000Y-95646261D01*
X101771790Y-95840665D01*
X101832617Y-96027868D01*
X101883810Y-96128339D01*
X101921976Y-96203244D01*
X102037672Y-96362485D01*
X102176854Y-96501667D01*
X102336095Y-96617363D01*
X102418955Y-96659582D01*
X102511470Y-96706721D01*
X102511472Y-96706721D01*
X102511475Y-96706723D01*
X102611817Y-96739326D01*
X102698673Y-96767548D01*
X102893078Y-96798339D01*
X102893083Y-96798339D01*
X103089922Y-96798339D01*
X103284326Y-96767548D01*
X103471525Y-96706723D01*
X103646905Y-96617363D01*
X103806146Y-96501667D01*
X103945328Y-96362485D01*
X104061024Y-96203244D01*
X104150384Y-96027864D01*
X104211209Y-95840665D01*
X104242000Y-95646261D01*
X104242000Y-95449416D01*
X104211209Y-95255012D01*
X104171600Y-95133111D01*
X104150384Y-95067814D01*
X104150382Y-95067811D01*
X104150382Y-95067809D01*
X104061023Y-94892433D01*
X104040182Y-94863748D01*
X103945328Y-94733193D01*
X103855946Y-94643811D01*
X103822461Y-94582488D01*
X103827445Y-94512796D01*
X103869317Y-94456863D01*
X103919433Y-94434514D01*
X103964744Y-94425501D01*
X104083127Y-94376465D01*
X104100027Y-94365173D01*
X104189669Y-94305277D01*
X105382320Y-93112625D01*
X105443641Y-93079142D01*
X105513332Y-93084126D01*
X105557680Y-93112627D01*
X105750327Y-93305274D01*
X105750330Y-93305276D01*
X105801507Y-93339471D01*
X105856873Y-93376465D01*
X105975256Y-93425501D01*
X105975260Y-93425501D01*
X105975261Y-93425502D01*
X106100928Y-93450500D01*
X106100931Y-93450500D01*
X107299071Y-93450500D01*
X107383615Y-93433682D01*
X107424744Y-93425501D01*
X107543127Y-93376465D01*
X107598493Y-93339471D01*
X107649669Y-93305277D01*
X108033126Y-92921818D01*
X108094449Y-92888334D01*
X108120807Y-92885500D01*
X108303466Y-92885500D01*
X108303467Y-92885499D01*
X108506420Y-92845130D01*
X108697598Y-92765941D01*
X108869655Y-92650977D01*
X109015977Y-92504655D01*
X109130941Y-92332598D01*
X109162105Y-92257360D01*
X109205945Y-92202957D01*
X109272239Y-92180892D01*
X109339939Y-92198171D01*
X109364347Y-92217132D01*
X111158181Y-94010966D01*
X111191666Y-94072289D01*
X111194500Y-94098647D01*
X111194500Y-95675709D01*
X111194501Y-95675715D01*
X111200908Y-95735322D01*
X111251202Y-95870167D01*
X111251206Y-95870174D01*
X111337452Y-95985383D01*
X111337455Y-95985386D01*
X111452664Y-96071632D01*
X111452671Y-96071636D01*
X111587517Y-96121930D01*
X111587516Y-96121930D01*
X111594444Y-96122674D01*
X111647127Y-96128339D01*
X113742872Y-96128338D01*
X113802483Y-96121930D01*
X113937331Y-96071635D01*
X114052546Y-95985385D01*
X114138796Y-95870170D01*
X114189091Y-95735322D01*
X114195500Y-95675712D01*
X114195500Y-95402339D01*
X114215185Y-95335300D01*
X114267989Y-95289545D01*
X114319500Y-95278339D01*
X121970571Y-95278339D01*
X122087833Y-95255013D01*
X122096244Y-95253340D01*
X122214627Y-95204304D01*
X122217336Y-95202493D01*
X122218272Y-95201869D01*
X122253491Y-95178336D01*
X122321169Y-95133116D01*
X123569626Y-93884656D01*
X123630949Y-93851172D01*
X123657307Y-93848338D01*
X125284371Y-93848338D01*
X125284372Y-93848338D01*
X125343983Y-93841930D01*
X125478831Y-93791635D01*
X125594046Y-93705385D01*
X125680296Y-93590170D01*
X125730591Y-93455322D01*
X125737000Y-93395712D01*
X125736999Y-91699967D01*
X125730591Y-91640356D01*
X125720407Y-91613052D01*
X125680297Y-91505510D01*
X125680293Y-91505503D01*
X125594047Y-91390294D01*
X125594044Y-91390291D01*
X125478835Y-91304045D01*
X125478828Y-91304041D01*
X125343982Y-91253747D01*
X125343983Y-91253747D01*
X125284383Y-91247340D01*
X125284381Y-91247339D01*
X125284373Y-91247339D01*
X125284364Y-91247339D01*
X122688629Y-91247339D01*
X122688623Y-91247340D01*
X122629016Y-91253747D01*
X122494171Y-91304041D01*
X122494164Y-91304045D01*
X122378955Y-91390291D01*
X122335766Y-91447984D01*
X122279832Y-91489854D01*
X122210140Y-91494838D01*
X122148817Y-91461352D01*
X122137234Y-91447984D01*
X122095243Y-91391892D01*
X122094046Y-91390293D01*
X122094044Y-91390292D01*
X122094044Y-91390291D01*
X121978835Y-91304045D01*
X121978828Y-91304041D01*
X121843982Y-91253747D01*
X121843983Y-91253747D01*
X121784383Y-91247340D01*
X121784381Y-91247339D01*
X121784373Y-91247339D01*
X121784364Y-91247339D01*
X119188629Y-91247339D01*
X119188623Y-91247340D01*
X119129016Y-91253747D01*
X118994171Y-91304041D01*
X118994164Y-91304045D01*
X118878955Y-91390291D01*
X118878952Y-91390294D01*
X118792706Y-91505503D01*
X118792702Y-91505510D01*
X118742408Y-91640356D01*
X118736001Y-91699955D01*
X118736001Y-91699962D01*
X118736000Y-91699974D01*
X118736000Y-91773339D01*
X118716315Y-91840378D01*
X118663511Y-91886133D01*
X118612000Y-91897339D01*
X114289938Y-91897339D01*
X114222899Y-91877654D01*
X114177144Y-91824850D01*
X114167465Y-91792737D01*
X114158553Y-91736470D01*
X114105453Y-91573047D01*
X114085568Y-91511847D01*
X114085566Y-91511844D01*
X114085566Y-91511842D01*
X114018609Y-91380432D01*
X113978343Y-91301406D01*
X113839517Y-91110329D01*
X113672510Y-90943322D01*
X113637872Y-90918156D01*
X113595207Y-90862828D01*
X113589228Y-90793214D01*
X113621833Y-90731419D01*
X113637873Y-90717521D01*
X113672510Y-90692356D01*
X113839517Y-90525349D01*
X113978343Y-90334272D01*
X114085568Y-90123831D01*
X114158553Y-89899207D01*
X114169874Y-89827727D01*
X114195500Y-89665936D01*
X114195500Y-89429741D01*
X114158553Y-89196470D01*
X114116782Y-89067913D01*
X114085568Y-88971847D01*
X114085566Y-88971844D01*
X114085566Y-88971842D01*
X114004385Y-88812517D01*
X113978343Y-88761406D01*
X113839517Y-88570329D01*
X113672510Y-88403322D01*
X113481433Y-88264496D01*
X113458135Y-88252625D01*
X113270996Y-88157272D01*
X113046368Y-88084285D01*
X112813097Y-88047339D01*
X112813092Y-88047339D01*
X112576908Y-88047339D01*
X112576903Y-88047339D01*
X112343631Y-88084285D01*
X112119003Y-88157272D01*
X111908566Y-88264496D01*
X111834237Y-88318500D01*
X111717490Y-88403322D01*
X111717488Y-88403324D01*
X111717487Y-88403324D01*
X111550485Y-88570326D01*
X111550485Y-88570327D01*
X111550483Y-88570329D01*
X111543217Y-88580330D01*
X111411657Y-88761405D01*
X111304433Y-88971842D01*
X111231447Y-89196469D01*
X111200076Y-89394533D01*
X111170146Y-89457667D01*
X111110835Y-89494598D01*
X111040972Y-89493600D01*
X110989922Y-89462815D01*
X110586835Y-89059727D01*
X110586834Y-89059726D01*
X110586830Y-89059723D01*
X110480288Y-88988535D01*
X110462302Y-88981085D01*
X110361905Y-88939499D01*
X110361899Y-88939497D01*
X110236232Y-88914500D01*
X110236230Y-88914500D01*
X107024548Y-88914500D01*
X106957509Y-88894815D01*
X106911754Y-88842011D01*
X106901810Y-88772853D01*
X106909986Y-88743048D01*
X106940200Y-88670102D01*
X106954999Y-88557697D01*
X106955000Y-88557683D01*
X106955000Y-88545000D01*
X103985000Y-88545000D01*
X103985000Y-88557697D01*
X103999800Y-88670104D01*
X103999801Y-88670108D01*
X104057737Y-88809981D01*
X104091594Y-88854104D01*
X104116788Y-88919274D01*
X104102749Y-88987718D01*
X104091594Y-89005076D01*
X104057302Y-89049766D01*
X104057300Y-89049769D01*
X103999313Y-89189763D01*
X103999313Y-89189764D01*
X103984500Y-89302272D01*
X103984500Y-89827727D01*
X103999313Y-89940235D01*
X103999313Y-89940236D01*
X104057301Y-90080233D01*
X104091279Y-90124514D01*
X104116473Y-90189684D01*
X104102434Y-90258129D01*
X104091279Y-90275486D01*
X104057301Y-90319766D01*
X103999313Y-90459763D01*
X103999313Y-90459764D01*
X103984500Y-90572272D01*
X103984500Y-90644192D01*
X103964815Y-90711231D01*
X103948181Y-90731873D01*
X103420760Y-91259293D01*
X103359437Y-91292778D01*
X103289745Y-91287794D01*
X103233812Y-91245922D01*
X103209395Y-91180458D01*
X103211461Y-91147423D01*
X103217500Y-91117068D01*
X103217500Y-88032302D01*
X103985000Y-88032302D01*
X103985000Y-88045000D01*
X105220000Y-88045000D01*
X105720000Y-88045000D01*
X106955000Y-88045000D01*
X106955000Y-88032316D01*
X106954999Y-88032302D01*
X106940199Y-87919895D01*
X106940198Y-87919891D01*
X106882263Y-87780021D01*
X106790094Y-87659905D01*
X106669978Y-87567736D01*
X106530108Y-87509801D01*
X106530104Y-87509800D01*
X106417697Y-87495000D01*
X105720000Y-87495000D01*
X105720000Y-88045000D01*
X105220000Y-88045000D01*
X105220000Y-87495000D01*
X104522302Y-87495000D01*
X104409895Y-87509800D01*
X104409891Y-87509801D01*
X104270021Y-87567736D01*
X104149905Y-87659905D01*
X104057736Y-87780021D01*
X103999801Y-87919891D01*
X103999800Y-87919895D01*
X103985000Y-88032302D01*
X103217500Y-88032302D01*
X103217500Y-87537033D01*
X103217500Y-87537030D01*
X103192502Y-87411363D01*
X103192501Y-87411362D01*
X103192501Y-87411358D01*
X103143465Y-87292975D01*
X103143464Y-87292972D01*
X103072277Y-87186433D01*
X103072271Y-87186426D01*
X101239571Y-85353726D01*
X101235867Y-85351251D01*
X101133025Y-85282535D01*
X101014642Y-85233499D01*
X101014636Y-85233497D01*
X100888969Y-85208500D01*
X100888967Y-85208500D01*
X93268308Y-85208500D01*
X93201269Y-85188815D01*
X93180627Y-85172181D01*
X92563319Y-84554873D01*
X92529834Y-84493550D01*
X92527000Y-84467192D01*
X92527000Y-81796386D01*
X92546685Y-81729347D01*
X92578066Y-81696103D01*
X92591777Y-81686130D01*
X92603831Y-81681635D01*
X92719046Y-81595385D01*
X92722028Y-81591401D01*
X92733566Y-81583010D01*
X92757674Y-81574394D01*
X92780142Y-81562127D01*
X92790028Y-81562833D01*
X92799361Y-81559499D01*
X92824296Y-81565284D01*
X92849834Y-81567111D01*
X92859815Y-81573526D01*
X92867422Y-81575291D01*
X92875529Y-81583624D01*
X92886434Y-81590633D01*
X92886855Y-81590071D01*
X93009164Y-81681632D01*
X93009171Y-81681636D01*
X93144017Y-81731930D01*
X93144016Y-81731930D01*
X93150944Y-81732674D01*
X93203627Y-81738339D01*
X94269372Y-81738338D01*
X94328983Y-81731930D01*
X94463831Y-81681635D01*
X94579046Y-81595385D01*
X94665296Y-81480170D01*
X94715591Y-81345322D01*
X94719487Y-81309081D01*
X94746224Y-81244533D01*
X94803616Y-81204685D01*
X94842776Y-81198339D01*
X101650911Y-81198339D01*
X101717950Y-81218024D01*
X101763705Y-81270828D01*
X101773649Y-81339986D01*
X101772084Y-81348160D01*
X101741000Y-81544416D01*
X101741000Y-81741261D01*
X101771790Y-81935665D01*
X101832617Y-82122868D01*
X101865066Y-82186552D01*
X101921976Y-82298244D01*
X102037672Y-82457485D01*
X102176854Y-82596667D01*
X102336095Y-82712363D01*
X102418955Y-82754582D01*
X102511470Y-82801721D01*
X102511472Y-82801721D01*
X102511475Y-82801723D01*
X102611817Y-82834326D01*
X102698673Y-82862548D01*
X102893078Y-82893339D01*
X102893083Y-82893339D01*
X103089922Y-82893339D01*
X103284326Y-82862548D01*
X103319094Y-82851251D01*
X103471525Y-82801723D01*
X103646905Y-82712363D01*
X103806146Y-82596667D01*
X103945328Y-82457485D01*
X104061024Y-82298244D01*
X104150384Y-82122864D01*
X104211209Y-81935665D01*
X104230411Y-81814427D01*
X104242000Y-81741261D01*
X104242000Y-81544416D01*
X104211209Y-81350012D01*
X104150382Y-81162809D01*
X104088461Y-81041282D01*
X104061024Y-80987434D01*
X103945328Y-80828193D01*
X103806146Y-80689011D01*
X103646905Y-80573315D01*
X103471529Y-80483956D01*
X103284326Y-80423129D01*
X103089922Y-80392339D01*
X103089917Y-80392339D01*
X103026968Y-80392339D01*
X102959929Y-80372654D01*
X102914174Y-80319850D01*
X102904230Y-80250692D01*
X102933255Y-80187136D01*
X102939287Y-80180658D01*
X103762606Y-79357339D01*
X104586656Y-78533288D01*
X104647977Y-78499805D01*
X104717669Y-78504789D01*
X104773602Y-78546661D01*
X104798019Y-78612125D01*
X104783167Y-78680398D01*
X104777440Y-78689858D01*
X104769058Y-78702402D01*
X104689870Y-78893579D01*
X104689868Y-78893587D01*
X104649500Y-79096530D01*
X104649500Y-79303469D01*
X104689868Y-79506412D01*
X104689870Y-79506420D01*
X104769058Y-79697596D01*
X104884024Y-79869657D01*
X105030342Y-80015975D01*
X105030345Y-80015977D01*
X105202402Y-80130941D01*
X105202405Y-80130942D01*
X105204633Y-80132133D01*
X105233865Y-80153811D01*
X105330746Y-80250692D01*
X105385330Y-80305276D01*
X105385331Y-80305277D01*
X105491871Y-80376464D01*
X105491870Y-80376464D01*
X105526544Y-80390826D01*
X105610256Y-80425501D01*
X105735926Y-80450498D01*
X105735930Y-80450499D01*
X105735931Y-80450499D01*
X105864070Y-80450499D01*
X105864071Y-80450498D01*
X105989743Y-80425501D01*
X106108126Y-80376465D01*
X106108126Y-80376464D01*
X106108128Y-80376464D01*
X106192857Y-80319850D01*
X106214669Y-80305276D01*
X106305276Y-80214669D01*
X106376465Y-80108126D01*
X106425501Y-79989743D01*
X106425513Y-79989678D01*
X106425527Y-79989651D01*
X106427269Y-79983912D01*
X106428356Y-79984242D01*
X106457891Y-79927768D01*
X106459380Y-79926251D01*
X106515977Y-79869655D01*
X106630941Y-79697598D01*
X106710130Y-79506420D01*
X106750500Y-79303465D01*
X106750500Y-79096535D01*
X106710130Y-78893580D01*
X106630941Y-78702402D01*
X106515977Y-78530345D01*
X106515975Y-78530342D01*
X106502814Y-78517181D01*
X106469329Y-78455858D01*
X106474313Y-78386166D01*
X106516185Y-78330233D01*
X106581649Y-78305816D01*
X106590495Y-78305500D01*
X106617713Y-78305500D01*
X106617720Y-78305500D01*
X106730236Y-78290687D01*
X106870233Y-78232698D01*
X106990451Y-78140451D01*
X107082698Y-78020233D01*
X107140687Y-77880236D01*
X107155500Y-77767720D01*
X107155500Y-77242280D01*
X107140687Y-77129764D01*
X107129794Y-77103465D01*
X107110528Y-77056952D01*
X107103059Y-76987483D01*
X107134335Y-76925004D01*
X107194424Y-76889352D01*
X107225089Y-76885500D01*
X108981353Y-76885500D01*
X109048392Y-76905185D01*
X109069034Y-76921819D01*
X111158181Y-79010966D01*
X111191666Y-79072289D01*
X111194500Y-79098647D01*
X111194500Y-80675709D01*
X111194501Y-80675715D01*
X111200908Y-80735322D01*
X111251202Y-80870167D01*
X111251206Y-80870174D01*
X111337452Y-80985383D01*
X111337455Y-80985386D01*
X111452664Y-81071632D01*
X111452671Y-81071636D01*
X111587517Y-81121930D01*
X111587516Y-81121930D01*
X111594444Y-81122674D01*
X111647127Y-81128339D01*
X113742872Y-81128338D01*
X113802483Y-81121930D01*
X113937331Y-81071635D01*
X114052546Y-80985385D01*
X114138796Y-80870170D01*
X114189091Y-80735322D01*
X114195500Y-80675712D01*
X114195500Y-80402339D01*
X114215185Y-80335300D01*
X114267989Y-80289545D01*
X114319500Y-80278339D01*
X122470571Y-80278339D01*
X122555115Y-80261521D01*
X122596244Y-80253340D01*
X122714627Y-80204304D01*
X122721993Y-80199382D01*
X122821169Y-80133116D01*
X123569627Y-79384656D01*
X123630950Y-79351172D01*
X123657308Y-79348338D01*
X125284371Y-79348338D01*
X125284372Y-79348338D01*
X125343983Y-79341930D01*
X125478831Y-79291635D01*
X125594046Y-79205385D01*
X125680296Y-79090170D01*
X125730591Y-78955322D01*
X125737000Y-78895712D01*
X125736999Y-77199967D01*
X125730591Y-77140356D01*
X125726640Y-77129764D01*
X125680297Y-77005510D01*
X125680293Y-77005503D01*
X125594047Y-76890294D01*
X125594044Y-76890291D01*
X125478835Y-76804045D01*
X125478828Y-76804041D01*
X125343982Y-76753747D01*
X125343983Y-76753747D01*
X125284383Y-76747340D01*
X125284381Y-76747339D01*
X125284373Y-76747339D01*
X125284364Y-76747339D01*
X122688629Y-76747339D01*
X122688623Y-76747340D01*
X122629016Y-76753747D01*
X122494171Y-76804041D01*
X122494164Y-76804045D01*
X122378955Y-76890291D01*
X122335766Y-76947984D01*
X122279832Y-76989854D01*
X122210140Y-76994838D01*
X122148817Y-76961352D01*
X122137234Y-76947984D01*
X122105194Y-76905185D01*
X122094046Y-76890293D01*
X122094044Y-76890292D01*
X122094044Y-76890291D01*
X121978835Y-76804045D01*
X121978828Y-76804041D01*
X121843982Y-76753747D01*
X121843983Y-76753747D01*
X121784383Y-76747340D01*
X121784381Y-76747339D01*
X121784373Y-76747339D01*
X121784364Y-76747339D01*
X119188629Y-76747339D01*
X119188623Y-76747340D01*
X119129016Y-76753747D01*
X118994171Y-76804041D01*
X118994164Y-76804045D01*
X118878955Y-76890291D01*
X118878952Y-76890294D01*
X118792706Y-77005503D01*
X118792702Y-77005510D01*
X118742408Y-77140356D01*
X118736001Y-77199955D01*
X118736001Y-77199962D01*
X118736000Y-77199974D01*
X118736000Y-77273339D01*
X118716315Y-77340378D01*
X118663511Y-77386133D01*
X118612000Y-77397339D01*
X114310370Y-77397339D01*
X114243331Y-77377654D01*
X114197576Y-77324850D01*
X114187632Y-77255692D01*
X114187897Y-77253942D01*
X114195500Y-77205937D01*
X114195500Y-76969741D01*
X114158553Y-76736470D01*
X114092620Y-76533551D01*
X114085568Y-76511847D01*
X114085566Y-76511844D01*
X114085566Y-76511842D01*
X113993088Y-76330345D01*
X113978343Y-76301406D01*
X113839517Y-76110329D01*
X113672510Y-75943322D01*
X113637872Y-75918156D01*
X113595207Y-75862828D01*
X113589228Y-75793214D01*
X113621833Y-75731419D01*
X113637873Y-75717521D01*
X113672510Y-75692356D01*
X113839517Y-75525349D01*
X113978343Y-75334272D01*
X114085568Y-75123831D01*
X114158553Y-74899207D01*
X114177554Y-74779240D01*
X114195500Y-74665936D01*
X114195500Y-74429741D01*
X114158553Y-74196470D01*
X114085566Y-73971842D01*
X113999346Y-73802627D01*
X113978343Y-73761406D01*
X113839517Y-73570329D01*
X113672510Y-73403322D01*
X113481433Y-73264496D01*
X113416469Y-73231395D01*
X113270996Y-73157272D01*
X113046368Y-73084285D01*
X112813097Y-73047339D01*
X112813092Y-73047339D01*
X112576908Y-73047339D01*
X112576903Y-73047339D01*
X112343631Y-73084285D01*
X112119003Y-73157272D01*
X111908566Y-73264496D01*
X111832317Y-73319895D01*
X111717490Y-73403322D01*
X111717488Y-73403324D01*
X111717487Y-73403324D01*
X111550485Y-73570326D01*
X111550485Y-73570327D01*
X111550483Y-73570329D01*
X111532922Y-73594500D01*
X111411657Y-73761405D01*
X111304433Y-73971842D01*
X111231446Y-74196470D01*
X111194500Y-74429741D01*
X111194500Y-74665936D01*
X111231446Y-74899207D01*
X111304433Y-75123835D01*
X111384338Y-75280655D01*
X111411657Y-75334272D01*
X111550483Y-75525349D01*
X111717490Y-75692356D01*
X111752127Y-75717522D01*
X111766118Y-75735665D01*
X111783457Y-75750645D01*
X111787048Y-75762809D01*
X111794792Y-75772852D01*
X111796752Y-75795677D01*
X111803241Y-75817655D01*
X111799685Y-75829829D01*
X111800771Y-75842465D01*
X111790078Y-75862729D01*
X111783656Y-75884723D01*
X111771890Y-75897199D01*
X111768165Y-75904260D01*
X111760583Y-75911431D01*
X111756501Y-75914978D01*
X111717490Y-75943322D01*
X111674998Y-75985813D01*
X111671721Y-75988662D01*
X111643750Y-76001485D01*
X111616736Y-76016237D01*
X111612273Y-76015917D01*
X111608209Y-76017781D01*
X111577744Y-76013447D01*
X111547044Y-76011251D01*
X111542706Y-76008463D01*
X111539035Y-76007941D01*
X111530731Y-76000767D01*
X111502698Y-75982751D01*
X109979673Y-74459726D01*
X109979669Y-74459723D01*
X109873127Y-74388535D01*
X109754744Y-74339499D01*
X109754738Y-74339497D01*
X109629071Y-74314500D01*
X109629069Y-74314500D01*
X107224548Y-74314500D01*
X107157509Y-74294815D01*
X107111754Y-74242011D01*
X107101810Y-74172853D01*
X107109986Y-74143048D01*
X107140200Y-74070102D01*
X107154999Y-73957697D01*
X107155000Y-73957683D01*
X107155000Y-73945000D01*
X104185000Y-73945000D01*
X104185000Y-73957697D01*
X104199800Y-74070104D01*
X104199801Y-74070108D01*
X104257737Y-74209981D01*
X104291594Y-74254104D01*
X104316788Y-74319274D01*
X104302749Y-74387718D01*
X104291594Y-74405076D01*
X104257302Y-74449766D01*
X104257300Y-74449769D01*
X104199313Y-74589763D01*
X104199313Y-74589764D01*
X104184500Y-74702272D01*
X104184500Y-75227727D01*
X104199313Y-75340235D01*
X104199313Y-75340236D01*
X104257301Y-75480233D01*
X104291279Y-75524514D01*
X104316473Y-75589684D01*
X104302434Y-75658129D01*
X104291279Y-75675486D01*
X104257301Y-75719766D01*
X104199313Y-75859763D01*
X104199313Y-75859764D01*
X104184500Y-75972272D01*
X104184500Y-76044192D01*
X104164815Y-76111231D01*
X104148181Y-76131873D01*
X103620760Y-76659293D01*
X103559437Y-76692778D01*
X103489745Y-76687794D01*
X103433812Y-76645922D01*
X103409395Y-76580458D01*
X103411461Y-76547424D01*
X103417500Y-76517068D01*
X103417500Y-73432302D01*
X104185000Y-73432302D01*
X104185000Y-73445000D01*
X105420000Y-73445000D01*
X105920000Y-73445000D01*
X107155000Y-73445000D01*
X107155000Y-73432316D01*
X107154999Y-73432302D01*
X107140199Y-73319895D01*
X107140198Y-73319891D01*
X107082263Y-73180021D01*
X106990094Y-73059905D01*
X106869978Y-72967736D01*
X106730108Y-72909801D01*
X106730104Y-72909800D01*
X106617697Y-72895000D01*
X105920000Y-72895000D01*
X105920000Y-73445000D01*
X105420000Y-73445000D01*
X105420000Y-72895000D01*
X104722302Y-72895000D01*
X104609895Y-72909800D01*
X104609891Y-72909801D01*
X104470021Y-72967736D01*
X104349905Y-73059905D01*
X104257736Y-73180021D01*
X104199801Y-73319891D01*
X104199800Y-73319895D01*
X104185000Y-73432302D01*
X103417500Y-73432302D01*
X103417500Y-72937033D01*
X103417500Y-72937030D01*
X103392502Y-72811363D01*
X103392501Y-72811362D01*
X103392501Y-72811358D01*
X103343465Y-72692975D01*
X103305311Y-72635873D01*
X103305311Y-72635872D01*
X103272274Y-72586429D01*
X100039571Y-69353726D01*
X100039567Y-69353723D01*
X99933025Y-69282535D01*
X99933020Y-69282533D01*
X99814642Y-69233499D01*
X99814636Y-69233497D01*
X99688969Y-69208500D01*
X99688967Y-69208500D01*
X92746931Y-69208500D01*
X92746929Y-69208500D01*
X92621261Y-69233497D01*
X92621255Y-69233499D01*
X92502876Y-69282533D01*
X92472103Y-69303095D01*
X92472102Y-69303095D01*
X92396336Y-69353718D01*
X92396331Y-69353722D01*
X91976872Y-69773181D01*
X91915549Y-69806666D01*
X91889191Y-69809500D01*
X91137129Y-69809500D01*
X91137123Y-69809501D01*
X91077516Y-69815908D01*
X90942671Y-69866202D01*
X90942664Y-69866206D01*
X90827455Y-69952452D01*
X90827452Y-69952455D01*
X90741206Y-70067664D01*
X90741203Y-70067670D01*
X90690908Y-70202517D01*
X90684501Y-70262116D01*
X90684500Y-70262135D01*
X90684500Y-71737870D01*
X90684501Y-71737876D01*
X90690908Y-71797483D01*
X90741202Y-71932328D01*
X90741206Y-71932335D01*
X90827452Y-72047544D01*
X90827455Y-72047547D01*
X90942664Y-72133793D01*
X90942671Y-72133797D01*
X91077517Y-72184091D01*
X91077516Y-72184091D01*
X91084444Y-72184835D01*
X91137127Y-72190500D01*
X92202872Y-72190499D01*
X92262483Y-72184091D01*
X92397331Y-72133796D01*
X92512546Y-72047546D01*
X92512545Y-72047546D01*
X92519645Y-72042232D01*
X92520463Y-72043325D01*
X92573642Y-72014288D01*
X92643334Y-72019272D01*
X92672934Y-72035171D01*
X92684471Y-72043562D01*
X92687454Y-72047546D01*
X92802669Y-72133796D01*
X92814722Y-72138291D01*
X92828434Y-72148264D01*
X92839820Y-72163044D01*
X92854757Y-72174223D01*
X92860699Y-72190148D01*
X92871073Y-72203615D01*
X92872660Y-72222203D01*
X92879183Y-72239684D01*
X92879500Y-72248547D01*
X92879500Y-73351452D01*
X92859815Y-73418491D01*
X92810199Y-73461482D01*
X92810456Y-73461952D01*
X92808299Y-73463129D01*
X92807011Y-73464246D01*
X92803877Y-73465544D01*
X92802672Y-73466202D01*
X92687451Y-73552456D01*
X92687324Y-73552584D01*
X92687166Y-73552670D01*
X92680355Y-73557769D01*
X92679621Y-73556789D01*
X92626001Y-73586069D01*
X92556309Y-73581085D01*
X92519708Y-73557562D01*
X92519288Y-73558125D01*
X92397093Y-73466649D01*
X92397086Y-73466645D01*
X92262379Y-73416403D01*
X92262372Y-73416401D01*
X92202844Y-73410000D01*
X91920000Y-73410000D01*
X91920000Y-75790000D01*
X92202828Y-75790000D01*
X92202844Y-75789999D01*
X92262372Y-75783598D01*
X92262379Y-75783596D01*
X92397086Y-75733354D01*
X92397093Y-75733350D01*
X92519288Y-75641875D01*
X92520106Y-75642968D01*
X92573285Y-75613931D01*
X92642977Y-75618915D01*
X92679998Y-75642708D01*
X92680355Y-75642232D01*
X92687012Y-75647215D01*
X92687324Y-75647416D01*
X92687455Y-75647547D01*
X92802664Y-75733793D01*
X92802671Y-75733797D01*
X92937517Y-75784091D01*
X92937516Y-75784091D01*
X92944444Y-75784835D01*
X92997127Y-75790500D01*
X94062872Y-75790499D01*
X94122483Y-75784091D01*
X94257331Y-75733796D01*
X94372546Y-75647546D01*
X94458796Y-75532331D01*
X94509091Y-75397483D01*
X94515500Y-75337873D01*
X94515499Y-74585806D01*
X94535183Y-74518768D01*
X94551813Y-74498131D01*
X95419127Y-73630819D01*
X95480450Y-73597334D01*
X95506808Y-73594500D01*
X99120500Y-73594500D01*
X99187539Y-73614185D01*
X99233294Y-73666989D01*
X99244500Y-73718500D01*
X99244500Y-73957720D01*
X99259313Y-74070236D01*
X99293254Y-74152177D01*
X99295544Y-74161802D01*
X99294220Y-74187213D01*
X99296941Y-74212517D01*
X99292433Y-74221521D01*
X99291910Y-74231577D01*
X99277055Y-74252242D01*
X99265665Y-74274996D01*
X99257006Y-74280133D01*
X99251128Y-74288311D01*
X99227457Y-74297665D01*
X99205576Y-74310648D01*
X99189493Y-74312668D01*
X99186149Y-74313990D01*
X99183357Y-74313439D01*
X99174911Y-74314500D01*
X96255268Y-74314500D01*
X96129600Y-74339497D01*
X96129594Y-74339499D01*
X96011213Y-74388534D01*
X95904665Y-74459726D01*
X94043371Y-76321020D01*
X93982048Y-76354505D01*
X93955690Y-76357339D01*
X93203629Y-76357339D01*
X93203623Y-76357340D01*
X93144016Y-76363747D01*
X93009171Y-76414041D01*
X93009164Y-76414045D01*
X92886855Y-76505607D01*
X92886036Y-76504513D01*
X92832858Y-76533551D01*
X92763166Y-76528567D01*
X92726565Y-76505044D01*
X92726145Y-76505607D01*
X92603835Y-76414045D01*
X92603828Y-76414041D01*
X92468982Y-76363747D01*
X92468983Y-76363747D01*
X92409383Y-76357340D01*
X92409381Y-76357339D01*
X92409373Y-76357339D01*
X92409364Y-76357339D01*
X91343629Y-76357339D01*
X91343623Y-76357340D01*
X91284016Y-76363747D01*
X91149171Y-76414041D01*
X91149164Y-76414045D01*
X91033955Y-76500291D01*
X91033952Y-76500294D01*
X90947706Y-76615503D01*
X90947702Y-76615510D01*
X90897408Y-76750356D01*
X90891001Y-76809955D01*
X90891000Y-76809974D01*
X90891000Y-78285709D01*
X90891001Y-78285715D01*
X90897408Y-78345322D01*
X90947702Y-78480167D01*
X90947706Y-78480174D01*
X91033952Y-78595383D01*
X91033955Y-78595386D01*
X91149164Y-78681632D01*
X91149171Y-78681636D01*
X91284017Y-78731930D01*
X91284016Y-78731930D01*
X91290944Y-78732674D01*
X91343627Y-78738339D01*
X92095691Y-78738338D01*
X92162730Y-78758022D01*
X92183372Y-78774657D01*
X92560477Y-79151762D01*
X92593962Y-79213085D01*
X92588978Y-79282777D01*
X92547106Y-79338710D01*
X92481642Y-79363127D01*
X92459542Y-79362733D01*
X92409373Y-79357339D01*
X92409366Y-79357339D01*
X91343629Y-79357339D01*
X91343623Y-79357340D01*
X91284016Y-79363747D01*
X91149171Y-79414041D01*
X91149164Y-79414045D01*
X91033955Y-79500291D01*
X91033952Y-79500294D01*
X90947706Y-79615503D01*
X90947702Y-79615510D01*
X90897408Y-79750356D01*
X90891001Y-79809955D01*
X90891000Y-79809974D01*
X90891000Y-81285709D01*
X90891001Y-81285715D01*
X90897408Y-81345322D01*
X90947702Y-81480167D01*
X90947706Y-81480174D01*
X91033952Y-81595383D01*
X91033955Y-81595386D01*
X91149164Y-81681632D01*
X91156954Y-81685886D01*
X91155783Y-81688030D01*
X91201257Y-81722062D01*
X91225683Y-81787523D01*
X91226000Y-81796386D01*
X91226000Y-84852069D01*
X91226000Y-84852071D01*
X91225999Y-84852071D01*
X91243317Y-84939126D01*
X91243317Y-84939127D01*
X91250996Y-84977737D01*
X91250998Y-84977742D01*
X91250999Y-84977744D01*
X91300035Y-85096127D01*
X91362142Y-85189078D01*
X91371226Y-85202673D01*
X91371227Y-85202674D01*
X91766373Y-85597819D01*
X91799858Y-85659142D01*
X91794874Y-85728833D01*
X91753003Y-85784767D01*
X91687538Y-85809184D01*
X91678692Y-85809500D01*
X91273629Y-85809500D01*
X91273623Y-85809501D01*
X91214016Y-85815908D01*
X91079171Y-85866202D01*
X91079164Y-85866206D01*
X90963955Y-85952452D01*
X90963952Y-85952455D01*
X90877706Y-86067664D01*
X90877702Y-86067671D01*
X90827408Y-86202517D01*
X90821001Y-86262116D01*
X90821000Y-86262135D01*
X90821000Y-87737870D01*
X90821001Y-87737876D01*
X90827408Y-87797483D01*
X90877702Y-87932328D01*
X90877706Y-87932335D01*
X90963952Y-88047544D01*
X90963955Y-88047547D01*
X91079164Y-88133793D01*
X91079171Y-88133797D01*
X91214017Y-88184091D01*
X91214016Y-88184091D01*
X91220944Y-88184835D01*
X91273627Y-88190500D01*
X92339372Y-88190499D01*
X92398983Y-88184091D01*
X92533831Y-88133796D01*
X92649046Y-88047546D01*
X92649045Y-88047546D01*
X92656145Y-88042232D01*
X92656963Y-88043325D01*
X92710142Y-88014288D01*
X92779834Y-88019272D01*
X92809434Y-88035171D01*
X92820971Y-88043562D01*
X92823954Y-88047546D01*
X92939169Y-88133796D01*
X92951222Y-88138291D01*
X92964934Y-88148264D01*
X92976320Y-88163044D01*
X92991257Y-88174223D01*
X92997199Y-88190148D01*
X93007573Y-88203615D01*
X93009160Y-88222203D01*
X93015683Y-88239684D01*
X93016000Y-88248547D01*
X93016000Y-88794154D01*
X92996315Y-88861193D01*
X92966312Y-88893420D01*
X92887452Y-88952455D01*
X92887324Y-88952584D01*
X92887164Y-88952671D01*
X92880356Y-88957768D01*
X92879623Y-88956789D01*
X92826001Y-88986069D01*
X92756309Y-88981085D01*
X92719708Y-88957562D01*
X92719288Y-88958125D01*
X92597093Y-88866649D01*
X92597086Y-88866645D01*
X92462379Y-88816403D01*
X92462372Y-88816401D01*
X92402844Y-88810000D01*
X92120000Y-88810000D01*
X92120000Y-91190000D01*
X92402828Y-91190000D01*
X92402834Y-91189999D01*
X92436053Y-91186427D01*
X92504813Y-91198830D01*
X92555952Y-91246438D01*
X92573234Y-91314137D01*
X92551172Y-91380432D01*
X92536994Y-91397397D01*
X92113371Y-91821020D01*
X92052048Y-91854505D01*
X92025690Y-91857339D01*
X91273629Y-91857339D01*
X91273623Y-91857340D01*
X91214016Y-91863747D01*
X91079171Y-91914041D01*
X91079164Y-91914045D01*
X90963955Y-92000291D01*
X90963952Y-92000294D01*
X90877706Y-92115503D01*
X90877702Y-92115510D01*
X90827408Y-92250356D01*
X90821001Y-92309955D01*
X90821000Y-92309974D01*
X90821000Y-93785709D01*
X90821001Y-93785715D01*
X90827408Y-93845322D01*
X90877702Y-93980167D01*
X90877706Y-93980174D01*
X90963952Y-94095383D01*
X90963955Y-94095386D01*
X91079164Y-94181632D01*
X91079171Y-94181636D01*
X91214017Y-94231930D01*
X91214016Y-94231930D01*
X91220944Y-94232674D01*
X91273627Y-94238339D01*
X92339372Y-94238338D01*
X92398983Y-94231930D01*
X92533831Y-94181635D01*
X92649046Y-94095385D01*
X92649045Y-94095385D01*
X92656145Y-94090071D01*
X92656963Y-94091164D01*
X92710142Y-94062127D01*
X92779834Y-94067111D01*
X92816434Y-94090633D01*
X92816855Y-94090071D01*
X92939164Y-94181632D01*
X92939171Y-94181636D01*
X93074017Y-94231930D01*
X93074016Y-94231930D01*
X93080944Y-94232674D01*
X93133627Y-94238339D01*
X94199372Y-94238338D01*
X94199374Y-94238337D01*
X94199388Y-94238337D01*
X94238589Y-94234122D01*
X94249539Y-94232945D01*
X94318299Y-94245350D01*
X94369436Y-94292960D01*
X94386716Y-94360659D01*
X94364652Y-94426953D01*
X94350476Y-94443915D01*
X93973371Y-94821020D01*
X93912048Y-94854505D01*
X93885690Y-94857339D01*
X93133629Y-94857339D01*
X93133623Y-94857340D01*
X93074016Y-94863747D01*
X92939171Y-94914041D01*
X92939164Y-94914045D01*
X92816855Y-95005607D01*
X92816036Y-95004513D01*
X92762858Y-95033551D01*
X92693166Y-95028567D01*
X92656565Y-95005044D01*
X92656145Y-95005607D01*
X92533835Y-94914045D01*
X92533828Y-94914041D01*
X92398982Y-94863747D01*
X92398983Y-94863747D01*
X92339383Y-94857340D01*
X92339381Y-94857339D01*
X92339373Y-94857339D01*
X92339364Y-94857339D01*
X91273629Y-94857339D01*
X91273623Y-94857340D01*
X91214016Y-94863747D01*
X91079171Y-94914041D01*
X91079164Y-94914045D01*
X90963955Y-95000291D01*
X90963952Y-95000294D01*
X90877706Y-95115503D01*
X90877702Y-95115510D01*
X90827408Y-95250356D01*
X90821001Y-95309955D01*
X90821000Y-95309974D01*
X90821000Y-96785709D01*
X90821001Y-96785715D01*
X90827408Y-96845322D01*
X90877702Y-96980167D01*
X90877706Y-96980174D01*
X90963952Y-97095383D01*
X90963955Y-97095386D01*
X91079164Y-97181632D01*
X91086954Y-97185886D01*
X91085783Y-97188030D01*
X91131257Y-97222062D01*
X91155683Y-97287523D01*
X91156000Y-97296386D01*
X91156000Y-99782069D01*
X91156000Y-99782071D01*
X91155999Y-99782071D01*
X91180997Y-99907738D01*
X91180999Y-99907744D01*
X91230035Y-100026127D01*
X91301223Y-100132669D01*
X91301226Y-100132673D01*
X91301227Y-100132674D01*
X91766373Y-100597819D01*
X91799858Y-100659142D01*
X91794874Y-100728833D01*
X91753003Y-100784767D01*
X91687538Y-100809184D01*
X91678692Y-100809500D01*
X91273629Y-100809500D01*
X91273623Y-100809501D01*
X91214016Y-100815908D01*
X91079171Y-100866202D01*
X91079164Y-100866206D01*
X90963955Y-100952452D01*
X90963952Y-100952455D01*
X90877706Y-101067664D01*
X90877702Y-101067671D01*
X90827408Y-101202517D01*
X90821001Y-101262116D01*
X90821000Y-101262135D01*
X90821000Y-102737870D01*
X90821001Y-102737876D01*
X90827408Y-102797483D01*
X90877702Y-102932328D01*
X90877706Y-102932335D01*
X90963952Y-103047544D01*
X90963955Y-103047547D01*
X91079164Y-103133793D01*
X91079171Y-103133797D01*
X91103975Y-103143048D01*
X91214017Y-103184091D01*
X91225142Y-103185287D01*
X91289691Y-103212024D01*
X91329540Y-103269416D01*
X91332035Y-103339241D01*
X91296383Y-103399330D01*
X91255219Y-103424758D01*
X91142913Y-103466645D01*
X91142906Y-103466649D01*
X91027812Y-103552809D01*
X91027809Y-103552812D01*
X90941649Y-103667906D01*
X90941645Y-103667913D01*
X90891403Y-103802620D01*
X90891401Y-103802627D01*
X90885000Y-103862155D01*
X90885000Y-104350000D01*
X91746000Y-104350000D01*
X91813039Y-104369685D01*
X91858794Y-104422489D01*
X91870000Y-104474000D01*
X91870000Y-104600000D01*
X91996000Y-104600000D01*
X92063039Y-104619685D01*
X92108794Y-104672489D01*
X92120000Y-104724000D01*
X92120000Y-105790000D01*
X92402828Y-105790000D01*
X92402844Y-105789999D01*
X92462372Y-105783598D01*
X92462379Y-105783596D01*
X92597086Y-105733354D01*
X92597093Y-105733350D01*
X92719288Y-105641875D01*
X92720106Y-105642968D01*
X92773285Y-105613931D01*
X92842977Y-105618915D01*
X92879998Y-105642708D01*
X92880355Y-105642232D01*
X92887012Y-105647215D01*
X92887324Y-105647416D01*
X92887455Y-105647547D01*
X93002664Y-105733793D01*
X93002671Y-105733797D01*
X93137517Y-105784091D01*
X93137516Y-105784091D01*
X93144444Y-105784835D01*
X93197127Y-105790500D01*
X94204530Y-105790499D01*
X94271569Y-105810183D01*
X94317324Y-105862987D01*
X94327268Y-105932146D01*
X94298243Y-105995702D01*
X94292211Y-106002180D01*
X93973371Y-106321020D01*
X93912048Y-106354505D01*
X93885690Y-106357339D01*
X93133629Y-106357339D01*
X93133623Y-106357340D01*
X93074016Y-106363747D01*
X92939171Y-106414041D01*
X92939164Y-106414045D01*
X92816855Y-106505607D01*
X92816036Y-106504513D01*
X92762858Y-106533551D01*
X92693166Y-106528567D01*
X92656565Y-106505044D01*
X92656145Y-106505607D01*
X92533835Y-106414045D01*
X92533828Y-106414041D01*
X92398982Y-106363747D01*
X92398983Y-106363747D01*
X92339383Y-106357340D01*
X92339381Y-106357339D01*
X92339373Y-106357339D01*
X92339364Y-106357339D01*
X91273629Y-106357339D01*
X91273623Y-106357340D01*
X91214016Y-106363747D01*
X91079171Y-106414041D01*
X91079164Y-106414045D01*
X90963955Y-106500291D01*
X90963952Y-106500294D01*
X90877706Y-106615503D01*
X90877702Y-106615510D01*
X90827408Y-106750356D01*
X90821001Y-106809955D01*
X90821000Y-106809974D01*
X90821000Y-108285709D01*
X90821001Y-108285715D01*
X90827408Y-108345322D01*
X90877702Y-108480167D01*
X90877706Y-108480174D01*
X90963952Y-108595383D01*
X90963955Y-108595386D01*
X91079164Y-108681632D01*
X91079171Y-108681636D01*
X91214017Y-108731930D01*
X91214016Y-108731930D01*
X91220944Y-108732674D01*
X91273627Y-108738339D01*
X92025691Y-108738338D01*
X92092730Y-108758022D01*
X92113372Y-108774657D01*
X92490477Y-109151762D01*
X92523962Y-109213085D01*
X92518978Y-109282777D01*
X92477106Y-109338710D01*
X92411642Y-109363127D01*
X92389542Y-109362733D01*
X92339373Y-109357339D01*
X92339366Y-109357339D01*
X91273629Y-109357339D01*
X91273623Y-109357340D01*
X91214016Y-109363747D01*
X91079171Y-109414041D01*
X91079164Y-109414045D01*
X90963955Y-109500291D01*
X90963952Y-109500294D01*
X90877706Y-109615503D01*
X90877702Y-109615510D01*
X90827408Y-109750356D01*
X90821001Y-109809955D01*
X90821000Y-109809974D01*
X90821000Y-111285709D01*
X90821001Y-111285715D01*
X90827408Y-111345322D01*
X90877702Y-111480167D01*
X90877706Y-111480174D01*
X90963952Y-111595383D01*
X90963955Y-111595386D01*
X91079164Y-111681632D01*
X91086954Y-111685886D01*
X91085783Y-111688030D01*
X91131257Y-111722062D01*
X91155683Y-111787523D01*
X91156000Y-111796386D01*
X91156000Y-113330500D01*
X91136315Y-113397539D01*
X91083511Y-113443294D01*
X91032003Y-113454500D01*
X90987131Y-113454500D01*
X90987123Y-113454501D01*
X90927516Y-113460908D01*
X90792671Y-113511202D01*
X90792664Y-113511206D01*
X90677455Y-113597452D01*
X90677452Y-113597455D01*
X90591206Y-113712664D01*
X90591202Y-113712671D01*
X90540908Y-113847517D01*
X90534501Y-113907116D01*
X90534501Y-113907123D01*
X90534500Y-113907135D01*
X85429895Y-113907135D01*
X85463186Y-113882948D01*
X85463188Y-113882945D01*
X85463192Y-113882943D01*
X85613504Y-113732631D01*
X85613506Y-113732627D01*
X85613509Y-113732625D01*
X85738448Y-113560659D01*
X85738447Y-113560659D01*
X85738451Y-113560655D01*
X85834957Y-113371251D01*
X85900646Y-113169082D01*
X85933900Y-112959126D01*
X85933900Y-112746552D01*
X85900646Y-112536596D01*
X85834957Y-112334427D01*
X85738451Y-112145023D01*
X85738449Y-112145020D01*
X85738448Y-112145018D01*
X85613509Y-111973052D01*
X85463186Y-111822729D01*
X85291220Y-111697790D01*
X85287909Y-111696103D01*
X85282454Y-111693324D01*
X85231659Y-111645351D01*
X85214863Y-111577531D01*
X85237399Y-111511395D01*
X85282454Y-111472354D01*
X85291216Y-111467890D01*
X85380609Y-111402943D01*
X85463186Y-111342948D01*
X85463188Y-111342945D01*
X85463192Y-111342943D01*
X85613504Y-111192631D01*
X85613506Y-111192627D01*
X85613509Y-111192625D01*
X85738448Y-111020659D01*
X85738447Y-111020659D01*
X85738451Y-111020655D01*
X85834957Y-110831251D01*
X85900646Y-110629082D01*
X85933900Y-110419126D01*
X85933900Y-110206552D01*
X85900646Y-109996596D01*
X85834957Y-109794427D01*
X85738451Y-109605023D01*
X85738449Y-109605020D01*
X85738448Y-109605018D01*
X85613509Y-109433052D01*
X85463186Y-109282729D01*
X85291220Y-109157790D01*
X85290515Y-109157430D01*
X85282454Y-109153324D01*
X85231659Y-109105351D01*
X85214863Y-109037531D01*
X85237399Y-108971395D01*
X85282454Y-108932354D01*
X85291216Y-108927890D01*
X85340148Y-108892339D01*
X85463186Y-108802948D01*
X85463188Y-108802945D01*
X85463192Y-108802943D01*
X85613504Y-108652631D01*
X85613506Y-108652627D01*
X85613509Y-108652625D01*
X85738448Y-108480659D01*
X85738447Y-108480659D01*
X85738451Y-108480655D01*
X85834957Y-108291251D01*
X85900646Y-108089082D01*
X85933900Y-107879126D01*
X85933900Y-107666552D01*
X85900646Y-107456596D01*
X85834957Y-107254427D01*
X85738451Y-107065023D01*
X85738449Y-107065020D01*
X85738448Y-107065018D01*
X85613509Y-106893052D01*
X85463186Y-106742729D01*
X85291220Y-106617790D01*
X85286731Y-106615503D01*
X85282454Y-106613324D01*
X85231659Y-106565351D01*
X85214863Y-106497531D01*
X85237399Y-106431395D01*
X85282454Y-106392354D01*
X85291216Y-106387890D01*
X85337167Y-106354505D01*
X85463186Y-106262948D01*
X85463188Y-106262945D01*
X85463192Y-106262943D01*
X85613504Y-106112631D01*
X85613506Y-106112627D01*
X85613509Y-106112625D01*
X85738448Y-105940659D01*
X85738447Y-105940659D01*
X85738451Y-105940655D01*
X85834957Y-105751251D01*
X85900646Y-105549082D01*
X85933900Y-105339126D01*
X85933900Y-105337844D01*
X90885000Y-105337844D01*
X90891401Y-105397372D01*
X90891403Y-105397379D01*
X90941645Y-105532086D01*
X90941649Y-105532093D01*
X91027809Y-105647187D01*
X91027812Y-105647190D01*
X91142906Y-105733350D01*
X91142913Y-105733354D01*
X91277620Y-105783596D01*
X91277627Y-105783598D01*
X91337155Y-105789999D01*
X91337172Y-105790000D01*
X91620000Y-105790000D01*
X91620000Y-104850000D01*
X90885000Y-104850000D01*
X90885000Y-105337844D01*
X85933900Y-105337844D01*
X85933900Y-105126552D01*
X85900646Y-104916596D01*
X85834957Y-104714427D01*
X85738451Y-104525023D01*
X85738449Y-104525020D01*
X85738448Y-104525018D01*
X85613509Y-104353052D01*
X85499969Y-104239512D01*
X85466484Y-104178189D01*
X85471468Y-104108497D01*
X85513340Y-104052564D01*
X85544315Y-104035649D01*
X85675731Y-103986635D01*
X85790946Y-103900385D01*
X85877196Y-103785170D01*
X85927491Y-103650322D01*
X85933900Y-103590712D01*
X85933899Y-101794967D01*
X85927491Y-101735356D01*
X85924493Y-101727319D01*
X85877196Y-101600508D01*
X85877193Y-101600503D01*
X85790947Y-101485294D01*
X85790944Y-101485291D01*
X85675735Y-101399045D01*
X85675728Y-101399041D01*
X85540882Y-101348747D01*
X85540883Y-101348747D01*
X85481283Y-101342340D01*
X85481281Y-101342339D01*
X85481273Y-101342339D01*
X85481264Y-101342339D01*
X83685529Y-101342339D01*
X83685523Y-101342340D01*
X83625916Y-101348747D01*
X83491071Y-101399041D01*
X83491064Y-101399045D01*
X83375855Y-101485291D01*
X83375852Y-101485294D01*
X83289606Y-101600503D01*
X83289604Y-101600508D01*
X83239308Y-101735356D01*
X83233189Y-101792278D01*
X83232901Y-101794962D01*
X83232900Y-101794974D01*
X82067653Y-101794974D01*
X81950689Y-78894974D01*
X83262900Y-78894974D01*
X83262900Y-80690709D01*
X83262901Y-80690715D01*
X83269308Y-80750322D01*
X83319602Y-80885167D01*
X83319606Y-80885174D01*
X83405852Y-81000383D01*
X83405855Y-81000386D01*
X83521064Y-81086632D01*
X83521071Y-81086636D01*
X83652482Y-81135649D01*
X83708416Y-81177520D01*
X83732833Y-81242984D01*
X83717982Y-81311257D01*
X83696831Y-81339512D01*
X83583289Y-81453054D01*
X83458351Y-81625018D01*
X83361844Y-81814424D01*
X83296153Y-82016599D01*
X83262900Y-82226552D01*
X83262900Y-82439125D01*
X83289818Y-82609082D01*
X83296154Y-82649082D01*
X83345750Y-82801723D01*
X83361844Y-82851253D01*
X83458351Y-83040659D01*
X83583290Y-83212625D01*
X83733613Y-83362948D01*
X83905582Y-83487889D01*
X83914346Y-83492355D01*
X83965142Y-83540330D01*
X83981936Y-83608151D01*
X83959398Y-83674286D01*
X83914346Y-83713323D01*
X83905582Y-83717788D01*
X83733613Y-83842729D01*
X83583290Y-83993052D01*
X83458351Y-84165018D01*
X83361844Y-84354424D01*
X83296153Y-84556599D01*
X83262900Y-84766552D01*
X83262900Y-84979125D01*
X83296111Y-85188815D01*
X83296154Y-85189082D01*
X83349650Y-85353726D01*
X83361844Y-85391253D01*
X83458351Y-85580659D01*
X83583290Y-85752625D01*
X83733613Y-85902948D01*
X83905582Y-86027889D01*
X83914346Y-86032355D01*
X83965142Y-86080330D01*
X83981936Y-86148151D01*
X83959398Y-86214286D01*
X83914346Y-86253323D01*
X83905582Y-86257788D01*
X83733613Y-86382729D01*
X83583290Y-86533052D01*
X83458351Y-86705018D01*
X83361844Y-86894424D01*
X83361843Y-86894426D01*
X83361843Y-86894427D01*
X83348357Y-86935931D01*
X83296153Y-87096599D01*
X83262900Y-87306552D01*
X83262900Y-87519125D01*
X83289818Y-87689082D01*
X83296154Y-87729082D01*
X83358153Y-87919895D01*
X83361844Y-87931253D01*
X83458351Y-88120659D01*
X83583290Y-88292625D01*
X83733613Y-88442948D01*
X83905582Y-88567889D01*
X83914346Y-88572355D01*
X83965142Y-88620330D01*
X83981936Y-88688151D01*
X83959398Y-88754286D01*
X83914346Y-88793323D01*
X83905582Y-88797788D01*
X83733613Y-88922729D01*
X83583290Y-89073052D01*
X83458351Y-89245018D01*
X83361844Y-89434424D01*
X83296153Y-89636599D01*
X83262900Y-89846552D01*
X83262900Y-90059125D01*
X83294483Y-90258535D01*
X83296154Y-90269082D01*
X83358110Y-90459763D01*
X83361844Y-90471253D01*
X83458351Y-90660659D01*
X83583290Y-90832625D01*
X83733613Y-90982948D01*
X83905582Y-91107889D01*
X83914346Y-91112355D01*
X83965142Y-91160330D01*
X83981936Y-91228151D01*
X83959398Y-91294286D01*
X83914346Y-91333323D01*
X83905582Y-91337788D01*
X83733613Y-91462729D01*
X83583290Y-91613052D01*
X83458351Y-91785018D01*
X83361844Y-91974424D01*
X83296153Y-92176599D01*
X83262900Y-92386552D01*
X83262900Y-92599125D01*
X83289818Y-92769082D01*
X83296154Y-92809082D01*
X83319523Y-92881005D01*
X83361844Y-93011253D01*
X83458351Y-93200659D01*
X83583290Y-93372625D01*
X83733613Y-93522948D01*
X83905582Y-93647889D01*
X83914346Y-93652355D01*
X83965142Y-93700330D01*
X83981936Y-93768151D01*
X83959398Y-93834286D01*
X83914346Y-93873323D01*
X83905582Y-93877788D01*
X83733613Y-94002729D01*
X83583290Y-94153052D01*
X83458351Y-94325018D01*
X83361844Y-94514424D01*
X83296153Y-94716599D01*
X83262900Y-94926552D01*
X83262900Y-95139125D01*
X83289958Y-95309966D01*
X83296154Y-95349082D01*
X83313458Y-95402339D01*
X83361844Y-95551253D01*
X83458351Y-95740659D01*
X83583290Y-95912625D01*
X83733613Y-96062948D01*
X83905582Y-96187889D01*
X83914346Y-96192355D01*
X83965142Y-96240330D01*
X83981936Y-96308151D01*
X83959398Y-96374286D01*
X83914346Y-96413323D01*
X83905582Y-96417788D01*
X83733613Y-96542729D01*
X83583290Y-96693052D01*
X83458351Y-96865018D01*
X83361844Y-97054424D01*
X83296153Y-97256599D01*
X83262900Y-97466552D01*
X83262900Y-97679125D01*
X83296153Y-97889078D01*
X83361844Y-98091253D01*
X83458351Y-98280659D01*
X83583290Y-98452625D01*
X83733613Y-98602948D01*
X83905579Y-98727887D01*
X83905581Y-98727888D01*
X83905584Y-98727890D01*
X84094988Y-98824396D01*
X84297157Y-98890085D01*
X84507113Y-98923339D01*
X84507114Y-98923339D01*
X84719686Y-98923339D01*
X84719687Y-98923339D01*
X84929643Y-98890085D01*
X85131812Y-98824396D01*
X85321216Y-98727890D01*
X85455508Y-98630322D01*
X85493186Y-98602948D01*
X85493188Y-98602945D01*
X85493192Y-98602943D01*
X85643504Y-98452631D01*
X85643506Y-98452627D01*
X85643509Y-98452625D01*
X85768448Y-98280659D01*
X85768447Y-98280659D01*
X85768451Y-98280655D01*
X85864957Y-98091251D01*
X85930646Y-97889082D01*
X85963900Y-97679126D01*
X85963900Y-97466552D01*
X85930646Y-97256596D01*
X85864957Y-97054427D01*
X85768451Y-96865023D01*
X85768449Y-96865020D01*
X85768448Y-96865018D01*
X85643509Y-96693052D01*
X85493186Y-96542729D01*
X85321220Y-96417790D01*
X85320515Y-96417430D01*
X85312454Y-96413324D01*
X85261659Y-96365351D01*
X85244863Y-96297531D01*
X85267399Y-96231395D01*
X85312454Y-96192354D01*
X85321216Y-96187890D01*
X85343189Y-96171925D01*
X85493186Y-96062948D01*
X85493188Y-96062945D01*
X85493192Y-96062943D01*
X85643504Y-95912631D01*
X85643506Y-95912627D01*
X85643509Y-95912625D01*
X85768448Y-95740659D01*
X85768447Y-95740659D01*
X85768451Y-95740655D01*
X85864957Y-95551251D01*
X85930646Y-95349082D01*
X85963900Y-95139126D01*
X85963900Y-94926552D01*
X85930646Y-94716596D01*
X85864957Y-94514427D01*
X85768451Y-94325023D01*
X85768449Y-94325020D01*
X85768448Y-94325018D01*
X85643509Y-94153052D01*
X85493186Y-94002729D01*
X85321220Y-93877790D01*
X85320515Y-93877430D01*
X85312454Y-93873324D01*
X85261659Y-93825351D01*
X85244863Y-93757531D01*
X85267399Y-93691395D01*
X85312454Y-93652354D01*
X85321216Y-93647890D01*
X85400656Y-93590174D01*
X85493186Y-93522948D01*
X85493188Y-93522945D01*
X85493192Y-93522943D01*
X85643504Y-93372631D01*
X85643506Y-93372627D01*
X85643509Y-93372625D01*
X85768448Y-93200659D01*
X85768447Y-93200659D01*
X85768451Y-93200655D01*
X85864957Y-93011251D01*
X85930646Y-92809082D01*
X85963900Y-92599126D01*
X85963900Y-92386552D01*
X85930646Y-92176596D01*
X85864957Y-91974427D01*
X85768451Y-91785023D01*
X85768449Y-91785020D01*
X85768448Y-91785018D01*
X85643509Y-91613052D01*
X85493186Y-91462729D01*
X85321220Y-91337790D01*
X85320515Y-91337430D01*
X85312454Y-91333324D01*
X85261659Y-91285351D01*
X85244863Y-91217531D01*
X85267399Y-91151395D01*
X85312454Y-91112354D01*
X85321216Y-91107890D01*
X85404767Y-91047187D01*
X85493186Y-90982948D01*
X85493188Y-90982945D01*
X85493192Y-90982943D01*
X85643504Y-90832631D01*
X85643506Y-90832627D01*
X85643509Y-90832625D01*
X85712371Y-90737844D01*
X90885000Y-90737844D01*
X90891401Y-90797372D01*
X90891403Y-90797379D01*
X90941645Y-90932086D01*
X90941649Y-90932093D01*
X91027809Y-91047187D01*
X91027812Y-91047190D01*
X91142906Y-91133350D01*
X91142913Y-91133354D01*
X91277620Y-91183596D01*
X91277627Y-91183598D01*
X91337155Y-91189999D01*
X91337172Y-91190000D01*
X91620000Y-91190000D01*
X91620000Y-90250000D01*
X90885000Y-90250000D01*
X90885000Y-90737844D01*
X85712371Y-90737844D01*
X85768448Y-90660659D01*
X85768447Y-90660659D01*
X85768451Y-90660655D01*
X85864957Y-90471251D01*
X85930646Y-90269082D01*
X85941588Y-90200000D01*
X85944876Y-90179240D01*
X85963900Y-90059125D01*
X85963900Y-89846552D01*
X85960917Y-89827720D01*
X85930646Y-89636596D01*
X85864957Y-89434427D01*
X85777180Y-89262155D01*
X90885000Y-89262155D01*
X90885000Y-89750000D01*
X91620000Y-89750000D01*
X91620000Y-88810000D01*
X91337155Y-88810000D01*
X91277627Y-88816401D01*
X91277620Y-88816403D01*
X91142913Y-88866645D01*
X91142906Y-88866649D01*
X91027812Y-88952809D01*
X91027809Y-88952812D01*
X90941649Y-89067906D01*
X90941645Y-89067913D01*
X90891403Y-89202620D01*
X90891401Y-89202627D01*
X90885000Y-89262155D01*
X85777180Y-89262155D01*
X85768451Y-89245023D01*
X85768450Y-89245021D01*
X85643509Y-89073052D01*
X85493186Y-88922729D01*
X85321220Y-88797790D01*
X85320515Y-88797430D01*
X85312454Y-88793324D01*
X85261659Y-88745351D01*
X85244863Y-88677531D01*
X85267399Y-88611395D01*
X85312454Y-88572354D01*
X85321216Y-88567890D01*
X85424220Y-88493054D01*
X85493186Y-88442948D01*
X85493188Y-88442945D01*
X85493192Y-88442943D01*
X85643504Y-88292631D01*
X85643506Y-88292627D01*
X85643509Y-88292625D01*
X85768448Y-88120659D01*
X85768447Y-88120659D01*
X85768451Y-88120655D01*
X85864957Y-87931251D01*
X85930646Y-87729082D01*
X85963900Y-87519126D01*
X85963900Y-87306552D01*
X85930646Y-87096596D01*
X85864957Y-86894427D01*
X85768451Y-86705023D01*
X85768449Y-86705020D01*
X85768448Y-86705018D01*
X85643509Y-86533052D01*
X85493186Y-86382729D01*
X85321220Y-86257790D01*
X85320515Y-86257430D01*
X85312454Y-86253324D01*
X85261659Y-86205351D01*
X85244863Y-86137531D01*
X85267399Y-86071395D01*
X85312454Y-86032354D01*
X85321216Y-86027890D01*
X85376276Y-85987887D01*
X85493186Y-85902948D01*
X85493188Y-85902945D01*
X85493192Y-85902943D01*
X85643504Y-85752631D01*
X85643506Y-85752627D01*
X85643509Y-85752625D01*
X85768448Y-85580659D01*
X85768447Y-85580659D01*
X85768451Y-85580655D01*
X85864957Y-85391251D01*
X85930646Y-85189082D01*
X85963900Y-84979126D01*
X85963900Y-84766552D01*
X85930646Y-84556596D01*
X85864957Y-84354427D01*
X85768451Y-84165023D01*
X85768449Y-84165020D01*
X85768448Y-84165018D01*
X85643509Y-83993052D01*
X85493186Y-83842729D01*
X85321220Y-83717790D01*
X85320515Y-83717430D01*
X85312454Y-83713324D01*
X85261659Y-83665351D01*
X85244863Y-83597531D01*
X85267399Y-83531395D01*
X85312454Y-83492354D01*
X85321216Y-83487890D01*
X85376276Y-83447887D01*
X85493186Y-83362948D01*
X85493188Y-83362945D01*
X85493192Y-83362943D01*
X85643504Y-83212631D01*
X85643506Y-83212627D01*
X85643509Y-83212625D01*
X85768448Y-83040659D01*
X85768447Y-83040659D01*
X85768451Y-83040655D01*
X85864957Y-82851251D01*
X85930646Y-82649082D01*
X85963900Y-82439126D01*
X85963900Y-82226552D01*
X85930646Y-82016596D01*
X85864957Y-81814427D01*
X85768451Y-81625023D01*
X85768449Y-81625020D01*
X85768448Y-81625018D01*
X85643509Y-81453052D01*
X85529969Y-81339512D01*
X85496484Y-81278189D01*
X85501468Y-81208497D01*
X85543340Y-81152564D01*
X85574315Y-81135649D01*
X85705731Y-81086635D01*
X85820946Y-81000385D01*
X85907196Y-80885170D01*
X85957491Y-80750322D01*
X85963900Y-80690712D01*
X85963899Y-78894967D01*
X85957491Y-78835356D01*
X85928647Y-78758022D01*
X85907197Y-78700510D01*
X85907193Y-78700503D01*
X85820947Y-78585294D01*
X85820944Y-78585291D01*
X85705735Y-78499045D01*
X85705728Y-78499041D01*
X85570882Y-78448747D01*
X85570883Y-78448747D01*
X85511283Y-78442340D01*
X85511281Y-78442339D01*
X85511273Y-78442339D01*
X85511264Y-78442339D01*
X83715529Y-78442339D01*
X83715523Y-78442340D01*
X83655916Y-78448747D01*
X83521071Y-78499041D01*
X83521064Y-78499045D01*
X83405855Y-78585291D01*
X83405852Y-78585294D01*
X83319606Y-78700503D01*
X83319602Y-78700510D01*
X83269308Y-78835356D01*
X83265256Y-78873052D01*
X83262901Y-78894962D01*
X83262900Y-78894974D01*
X81950689Y-78894974D01*
X81833215Y-55894974D01*
X83262900Y-55894974D01*
X83262900Y-57690709D01*
X83262901Y-57690715D01*
X83269308Y-57750322D01*
X83319602Y-57885167D01*
X83319606Y-57885174D01*
X83405852Y-58000383D01*
X83405855Y-58000386D01*
X83521064Y-58086632D01*
X83521071Y-58086636D01*
X83652482Y-58135649D01*
X83708416Y-58177520D01*
X83732833Y-58242984D01*
X83717982Y-58311257D01*
X83696831Y-58339512D01*
X83583289Y-58453054D01*
X83458351Y-58625018D01*
X83361844Y-58814424D01*
X83361843Y-58814426D01*
X83361843Y-58814427D01*
X83331054Y-58909185D01*
X83296153Y-59016599D01*
X83262900Y-59226552D01*
X83262900Y-59439125D01*
X83293687Y-59633511D01*
X83296154Y-59649082D01*
X83328944Y-59750000D01*
X83361844Y-59851253D01*
X83458351Y-60040659D01*
X83583290Y-60212625D01*
X83733613Y-60362948D01*
X83905582Y-60487889D01*
X83914346Y-60492355D01*
X83965142Y-60540330D01*
X83981936Y-60608151D01*
X83959398Y-60674286D01*
X83914346Y-60713323D01*
X83905582Y-60717788D01*
X83733613Y-60842729D01*
X83583290Y-60993052D01*
X83458351Y-61165018D01*
X83361844Y-61354424D01*
X83296153Y-61556599D01*
X83262900Y-61766552D01*
X83262900Y-61979125D01*
X83295404Y-62184352D01*
X83296154Y-62189082D01*
X83335434Y-62309974D01*
X83361844Y-62391253D01*
X83458351Y-62580659D01*
X83583290Y-62752625D01*
X83733613Y-62902948D01*
X83905582Y-63027889D01*
X83914346Y-63032355D01*
X83965142Y-63080330D01*
X83981936Y-63148151D01*
X83959398Y-63214286D01*
X83914346Y-63253323D01*
X83905582Y-63257788D01*
X83733613Y-63382729D01*
X83583290Y-63533052D01*
X83458351Y-63705018D01*
X83361844Y-63894424D01*
X83296153Y-64096599D01*
X83262900Y-64306552D01*
X83262900Y-64519125D01*
X83294843Y-64720808D01*
X83296154Y-64729082D01*
X83356252Y-64914045D01*
X83361844Y-64931253D01*
X83458351Y-65120659D01*
X83583290Y-65292625D01*
X83733613Y-65442948D01*
X83905579Y-65567887D01*
X83905581Y-65567888D01*
X83905584Y-65567890D01*
X83914893Y-65572633D01*
X83965690Y-65620605D01*
X83982487Y-65688426D01*
X83959952Y-65754561D01*
X83914905Y-65793599D01*
X83905846Y-65798215D01*
X83905840Y-65798219D01*
X83851682Y-65837566D01*
X83851682Y-65837567D01*
X84483991Y-66469876D01*
X84420407Y-66486914D01*
X84306393Y-66552740D01*
X84213301Y-66645832D01*
X84147475Y-66759846D01*
X84130437Y-66823430D01*
X83498128Y-66191121D01*
X83498127Y-66191121D01*
X83458780Y-66245278D01*
X83362304Y-66434621D01*
X83296642Y-66636708D01*
X83296642Y-66636711D01*
X83263400Y-66846592D01*
X83263400Y-67059085D01*
X83296642Y-67268966D01*
X83296642Y-67268969D01*
X83362304Y-67471056D01*
X83458775Y-67660389D01*
X83498128Y-67714555D01*
X84130437Y-67082247D01*
X84147475Y-67145832D01*
X84213301Y-67259846D01*
X84306393Y-67352938D01*
X84420407Y-67418764D01*
X84483990Y-67435801D01*
X83851682Y-68068108D01*
X83851682Y-68068109D01*
X83905852Y-68107465D01*
X83905851Y-68107465D01*
X83914895Y-68112073D01*
X83965692Y-68160047D01*
X83982487Y-68227868D01*
X83959950Y-68294003D01*
X83914899Y-68333041D01*
X83905582Y-68337788D01*
X83733613Y-68462729D01*
X83583290Y-68613052D01*
X83458351Y-68785018D01*
X83361844Y-68974424D01*
X83296153Y-69176599D01*
X83281751Y-69267531D01*
X83262900Y-69386552D01*
X83262900Y-69599126D01*
X83296154Y-69809082D01*
X83357575Y-69998117D01*
X83361844Y-70011253D01*
X83458351Y-70200659D01*
X83583290Y-70372625D01*
X83733613Y-70522948D01*
X83905582Y-70647889D01*
X83914346Y-70652355D01*
X83965142Y-70700330D01*
X83981936Y-70768151D01*
X83959398Y-70834286D01*
X83914346Y-70873323D01*
X83905582Y-70877788D01*
X83733613Y-71002729D01*
X83583290Y-71153052D01*
X83458351Y-71325018D01*
X83361844Y-71514424D01*
X83296153Y-71716599D01*
X83262900Y-71926552D01*
X83262900Y-72139125D01*
X83291309Y-72318497D01*
X83296154Y-72349082D01*
X83325280Y-72438723D01*
X83361844Y-72551253D01*
X83458351Y-72740659D01*
X83583290Y-72912625D01*
X83733613Y-73062948D01*
X83905582Y-73187889D01*
X83914346Y-73192355D01*
X83965142Y-73240330D01*
X83981936Y-73308151D01*
X83959398Y-73374286D01*
X83914346Y-73413323D01*
X83905582Y-73417788D01*
X83733613Y-73542729D01*
X83583290Y-73693052D01*
X83458351Y-73865018D01*
X83361844Y-74054424D01*
X83296153Y-74256599D01*
X83262900Y-74466552D01*
X83262900Y-74679125D01*
X83296153Y-74889078D01*
X83361844Y-75091253D01*
X83458351Y-75280659D01*
X83583290Y-75452625D01*
X83733613Y-75602948D01*
X83905579Y-75727887D01*
X83905581Y-75727888D01*
X83905584Y-75727890D01*
X84094988Y-75824396D01*
X84297157Y-75890085D01*
X84507113Y-75923339D01*
X84507114Y-75923339D01*
X84719686Y-75923339D01*
X84719687Y-75923339D01*
X84929643Y-75890085D01*
X85131812Y-75824396D01*
X85321216Y-75727890D01*
X85370125Y-75692356D01*
X85493186Y-75602948D01*
X85493188Y-75602945D01*
X85493192Y-75602943D01*
X85643504Y-75452631D01*
X85643506Y-75452627D01*
X85643509Y-75452625D01*
X85726901Y-75337844D01*
X90685000Y-75337844D01*
X90691401Y-75397372D01*
X90691403Y-75397379D01*
X90741645Y-75532086D01*
X90741649Y-75532093D01*
X90827809Y-75647187D01*
X90827812Y-75647190D01*
X90942906Y-75733350D01*
X90942913Y-75733354D01*
X91077620Y-75783596D01*
X91077627Y-75783598D01*
X91137155Y-75789999D01*
X91137172Y-75790000D01*
X91420000Y-75790000D01*
X91420000Y-74850000D01*
X90685000Y-74850000D01*
X90685000Y-75337844D01*
X85726901Y-75337844D01*
X85768448Y-75280659D01*
X85768447Y-75280659D01*
X85768451Y-75280655D01*
X85864957Y-75091251D01*
X85930646Y-74889082D01*
X85963900Y-74679126D01*
X85963900Y-74466552D01*
X85930646Y-74256596D01*
X85864957Y-74054427D01*
X85768451Y-73865023D01*
X85766367Y-73862155D01*
X90685000Y-73862155D01*
X90685000Y-74350000D01*
X91420000Y-74350000D01*
X91420000Y-73410000D01*
X91137155Y-73410000D01*
X91077627Y-73416401D01*
X91077620Y-73416403D01*
X90942913Y-73466645D01*
X90942906Y-73466649D01*
X90827812Y-73552809D01*
X90827809Y-73552812D01*
X90741649Y-73667906D01*
X90741645Y-73667913D01*
X90691403Y-73802620D01*
X90691401Y-73802627D01*
X90685000Y-73862155D01*
X85766367Y-73862155D01*
X85723038Y-73802517D01*
X85643509Y-73693052D01*
X85493186Y-73542729D01*
X85321220Y-73417790D01*
X85318494Y-73416401D01*
X85312454Y-73413324D01*
X85261659Y-73365351D01*
X85244863Y-73297531D01*
X85267399Y-73231395D01*
X85312454Y-73192354D01*
X85321216Y-73187890D01*
X85463816Y-73084286D01*
X85493186Y-73062948D01*
X85493188Y-73062945D01*
X85493192Y-73062943D01*
X85643504Y-72912631D01*
X85643506Y-72912627D01*
X85643509Y-72912625D01*
X85768448Y-72740659D01*
X85768447Y-72740659D01*
X85768451Y-72740655D01*
X85864957Y-72551251D01*
X85930646Y-72349082D01*
X85963900Y-72139126D01*
X85963900Y-71926552D01*
X85930646Y-71716596D01*
X85864957Y-71514427D01*
X85768451Y-71325023D01*
X85768449Y-71325020D01*
X85768448Y-71325018D01*
X85643509Y-71153052D01*
X85493186Y-71002729D01*
X85321220Y-70877790D01*
X85320515Y-70877430D01*
X85312454Y-70873324D01*
X85261659Y-70825351D01*
X85244863Y-70757531D01*
X85267399Y-70691395D01*
X85312454Y-70652354D01*
X85321216Y-70647890D01*
X85343189Y-70631925D01*
X85493186Y-70522948D01*
X85493188Y-70522945D01*
X85493192Y-70522943D01*
X85643504Y-70372631D01*
X85643506Y-70372627D01*
X85643509Y-70372625D01*
X85771315Y-70196714D01*
X85772659Y-70197690D01*
X85819105Y-70155673D01*
X85873018Y-70143339D01*
X86971232Y-70143339D01*
X87055776Y-70126521D01*
X87096905Y-70118340D01*
X87215288Y-70069304D01*
X87217735Y-70067669D01*
X87321830Y-69998116D01*
X90585288Y-66734658D01*
X90612215Y-66719954D01*
X90638034Y-66703362D01*
X90644234Y-66702470D01*
X90646611Y-66701173D01*
X90672969Y-66698339D01*
X90700224Y-66698339D01*
X90767263Y-66718024D01*
X90813018Y-66770828D01*
X90823514Y-66809087D01*
X90827408Y-66845322D01*
X90877702Y-66980167D01*
X90877706Y-66980174D01*
X90963952Y-67095383D01*
X90963955Y-67095386D01*
X91079164Y-67181632D01*
X91079171Y-67181636D01*
X91214017Y-67231930D01*
X91214016Y-67231930D01*
X91220944Y-67232674D01*
X91273627Y-67238339D01*
X92339372Y-67238338D01*
X92398983Y-67231930D01*
X92533831Y-67181635D01*
X92612088Y-67123052D01*
X92656145Y-67090071D01*
X92656963Y-67091164D01*
X92710142Y-67062127D01*
X92779834Y-67067111D01*
X92816434Y-67090633D01*
X92816855Y-67090071D01*
X92939164Y-67181632D01*
X92939171Y-67181636D01*
X93074017Y-67231930D01*
X93074016Y-67231930D01*
X93080944Y-67232674D01*
X93133627Y-67238339D01*
X94199372Y-67238338D01*
X94258983Y-67231930D01*
X94393831Y-67181635D01*
X94509046Y-67095385D01*
X94595296Y-66980170D01*
X94645591Y-66845322D01*
X94652000Y-66785712D01*
X94651999Y-66033645D01*
X94671683Y-65966607D01*
X94688313Y-65945970D01*
X94947465Y-65686819D01*
X95008788Y-65653334D01*
X95035146Y-65650500D01*
X101854388Y-65650500D01*
X101921427Y-65670185D01*
X101967182Y-65722989D01*
X101977126Y-65792147D01*
X101954705Y-65847386D01*
X101921978Y-65892429D01*
X101832617Y-66067809D01*
X101771790Y-66255012D01*
X101741000Y-66449416D01*
X101741000Y-66646261D01*
X101771790Y-66840665D01*
X101832617Y-67027868D01*
X101881116Y-67123052D01*
X101921976Y-67203244D01*
X102037672Y-67362485D01*
X102176854Y-67501667D01*
X102336095Y-67617363D01*
X102418955Y-67659582D01*
X102511470Y-67706721D01*
X102511472Y-67706721D01*
X102511475Y-67706723D01*
X102611817Y-67739326D01*
X102698673Y-67767548D01*
X102893078Y-67798339D01*
X102893083Y-67798339D01*
X103089922Y-67798339D01*
X103284326Y-67767548D01*
X103471525Y-67706723D01*
X103646905Y-67617363D01*
X103806146Y-67501667D01*
X103945328Y-67362485D01*
X104061024Y-67203244D01*
X104150384Y-67027864D01*
X104211209Y-66840665D01*
X104242000Y-66646261D01*
X104242000Y-66449416D01*
X104211209Y-66255012D01*
X104170050Y-66128339D01*
X104150384Y-66067814D01*
X104150382Y-66067811D01*
X104150382Y-66067809D01*
X104061023Y-65892433D01*
X104044846Y-65870167D01*
X103945328Y-65733193D01*
X103806146Y-65594011D01*
X103646905Y-65478315D01*
X103641726Y-65475676D01*
X103471529Y-65388956D01*
X103406946Y-65367972D01*
X103349271Y-65328534D01*
X103322073Y-65264175D01*
X103333988Y-65195329D01*
X103357581Y-65162363D01*
X104537820Y-63982124D01*
X104599142Y-63948641D01*
X104668834Y-63953625D01*
X104724767Y-63995497D01*
X104749184Y-64060961D01*
X104749500Y-64069807D01*
X104749500Y-64264069D01*
X104749500Y-64264071D01*
X104749499Y-64264071D01*
X104773620Y-64385328D01*
X104774498Y-64389743D01*
X104823533Y-64508125D01*
X104894726Y-64614673D01*
X104913179Y-64633125D01*
X104946666Y-64694447D01*
X104949500Y-64720808D01*
X104949500Y-64903469D01*
X104989868Y-65106412D01*
X104989870Y-65106420D01*
X105067001Y-65292631D01*
X105069059Y-65297598D01*
X105104838Y-65351145D01*
X105184024Y-65469657D01*
X105330342Y-65615975D01*
X105330345Y-65615977D01*
X105502402Y-65730941D01*
X105693580Y-65810130D01*
X105880880Y-65847386D01*
X105896530Y-65850499D01*
X105896534Y-65850500D01*
X105896535Y-65850500D01*
X106103466Y-65850500D01*
X106103467Y-65850499D01*
X106306420Y-65810130D01*
X106497598Y-65730941D01*
X106669655Y-65615977D01*
X106815977Y-65469655D01*
X106930941Y-65297598D01*
X107010130Y-65106420D01*
X107050500Y-64903465D01*
X107050500Y-64696535D01*
X107010130Y-64493580D01*
X106930941Y-64302402D01*
X106815977Y-64130345D01*
X106815975Y-64130342D01*
X106669657Y-63984024D01*
X106535564Y-63894427D01*
X106497598Y-63869059D01*
X106397009Y-63827393D01*
X106342607Y-63783553D01*
X106320542Y-63717259D01*
X106337821Y-63649560D01*
X106388958Y-63601949D01*
X106428276Y-63589894D01*
X106460236Y-63585687D01*
X106600233Y-63527698D01*
X106720451Y-63435451D01*
X106812698Y-63315233D01*
X106870687Y-63175236D01*
X106885500Y-63062720D01*
X106885500Y-62537280D01*
X106870687Y-62424764D01*
X106856806Y-62391253D01*
X106840528Y-62351952D01*
X106833059Y-62282483D01*
X106864335Y-62220004D01*
X106924424Y-62184352D01*
X106955089Y-62180500D01*
X109381353Y-62180500D01*
X109448392Y-62200185D01*
X109469034Y-62216819D01*
X111263181Y-64010966D01*
X111296666Y-64072289D01*
X111299500Y-64098647D01*
X111299500Y-65675709D01*
X111299501Y-65675715D01*
X111305908Y-65735322D01*
X111356202Y-65870167D01*
X111356206Y-65870174D01*
X111442452Y-65985383D01*
X111442455Y-65985386D01*
X111557664Y-66071632D01*
X111557671Y-66071636D01*
X111692517Y-66121930D01*
X111692516Y-66121930D01*
X111699444Y-66122674D01*
X111752127Y-66128339D01*
X113847872Y-66128338D01*
X113907483Y-66121930D01*
X114042331Y-66071635D01*
X114157546Y-65985385D01*
X114243796Y-65870170D01*
X114294091Y-65735322D01*
X114300500Y-65675712D01*
X114300500Y-65402339D01*
X114320185Y-65335300D01*
X114372989Y-65289545D01*
X114424500Y-65278339D01*
X121970571Y-65278339D01*
X122055115Y-65261521D01*
X122096244Y-65253340D01*
X122214627Y-65204304D01*
X122217336Y-65202493D01*
X122218272Y-65201869D01*
X122253491Y-65178336D01*
X122321169Y-65133116D01*
X123569626Y-63884656D01*
X123630949Y-63851172D01*
X123657307Y-63848338D01*
X125284371Y-63848338D01*
X125284372Y-63848338D01*
X125343983Y-63841930D01*
X125478831Y-63791635D01*
X125594046Y-63705385D01*
X125680296Y-63590170D01*
X125730591Y-63455322D01*
X125737000Y-63395712D01*
X125736999Y-61699967D01*
X125730591Y-61640356D01*
X125694038Y-61542353D01*
X125680297Y-61505510D01*
X125680293Y-61505503D01*
X125594047Y-61390294D01*
X125594044Y-61390291D01*
X125478835Y-61304045D01*
X125478828Y-61304041D01*
X125343982Y-61253747D01*
X125343983Y-61253747D01*
X125284383Y-61247340D01*
X125284381Y-61247339D01*
X125284373Y-61247339D01*
X125284364Y-61247339D01*
X122688629Y-61247339D01*
X122688623Y-61247340D01*
X122629016Y-61253747D01*
X122494171Y-61304041D01*
X122494164Y-61304045D01*
X122378955Y-61390291D01*
X122335766Y-61447984D01*
X122279832Y-61489854D01*
X122210140Y-61494838D01*
X122148817Y-61461352D01*
X122137234Y-61447984D01*
X122115876Y-61419454D01*
X122094046Y-61390293D01*
X122094044Y-61390292D01*
X122094044Y-61390291D01*
X121978835Y-61304045D01*
X121978828Y-61304041D01*
X121843982Y-61253747D01*
X121843983Y-61253747D01*
X121784383Y-61247340D01*
X121784381Y-61247339D01*
X121784373Y-61247339D01*
X121784364Y-61247339D01*
X119188629Y-61247339D01*
X119188623Y-61247340D01*
X119129016Y-61253747D01*
X118994171Y-61304041D01*
X118994169Y-61304043D01*
X118915939Y-61362606D01*
X118850475Y-61387023D01*
X118841628Y-61387339D01*
X114203116Y-61387339D01*
X114136077Y-61367654D01*
X114092632Y-61319636D01*
X114088688Y-61311897D01*
X114083343Y-61301406D01*
X113944517Y-61110329D01*
X113777510Y-60943322D01*
X113742872Y-60918156D01*
X113700207Y-60862828D01*
X113694228Y-60793214D01*
X113726833Y-60731419D01*
X113742873Y-60717521D01*
X113777510Y-60692356D01*
X113944517Y-60525349D01*
X114083343Y-60334272D01*
X114190568Y-60123831D01*
X114263553Y-59899207D01*
X114271148Y-59851253D01*
X114300500Y-59665936D01*
X114300500Y-59429741D01*
X114263553Y-59196470D01*
X114221782Y-59067913D01*
X114190568Y-58971847D01*
X114190566Y-58971844D01*
X114190566Y-58971842D01*
X114111364Y-58816401D01*
X114083343Y-58761406D01*
X113944517Y-58570329D01*
X113777510Y-58403322D01*
X113586433Y-58264496D01*
X113582979Y-58262736D01*
X113375996Y-58157272D01*
X113151368Y-58084285D01*
X112918097Y-58047339D01*
X112918092Y-58047339D01*
X112681908Y-58047339D01*
X112681903Y-58047339D01*
X112448631Y-58084285D01*
X112224003Y-58157272D01*
X112013566Y-58264496D01*
X111949206Y-58311257D01*
X111822490Y-58403322D01*
X111822488Y-58403324D01*
X111822487Y-58403324D01*
X111655485Y-58570326D01*
X111655485Y-58570327D01*
X111655483Y-58570329D01*
X111595862Y-58652389D01*
X111516657Y-58761405D01*
X111409433Y-58971842D01*
X111336446Y-59196470D01*
X111299500Y-59429741D01*
X111299500Y-59510773D01*
X111279815Y-59577812D01*
X111227011Y-59623567D01*
X111157853Y-59633511D01*
X111151309Y-59632390D01*
X111036233Y-59609500D01*
X111036230Y-59609500D01*
X106954548Y-59609500D01*
X106887509Y-59589815D01*
X106841754Y-59537011D01*
X106831810Y-59467853D01*
X106839986Y-59438048D01*
X106870200Y-59365102D01*
X106884999Y-59252697D01*
X106885000Y-59252683D01*
X106885000Y-59240000D01*
X103915000Y-59240000D01*
X103915000Y-59252697D01*
X103929800Y-59365104D01*
X103929801Y-59365108D01*
X103987737Y-59504981D01*
X104021594Y-59549104D01*
X104046788Y-59614274D01*
X104032749Y-59682718D01*
X104021594Y-59700076D01*
X103987302Y-59744766D01*
X103987300Y-59744769D01*
X103929313Y-59884763D01*
X103929313Y-59884764D01*
X103914500Y-59997272D01*
X103914500Y-60522727D01*
X103929313Y-60635235D01*
X103929313Y-60635236D01*
X103987301Y-60775233D01*
X104021279Y-60819514D01*
X104046473Y-60884684D01*
X104032434Y-60953129D01*
X104021279Y-60970486D01*
X103987301Y-61014766D01*
X103929313Y-61154763D01*
X103929313Y-61154764D01*
X103914500Y-61267272D01*
X103914500Y-61314192D01*
X103894815Y-61381231D01*
X103878181Y-61401873D01*
X103356968Y-61923085D01*
X103295645Y-61956570D01*
X103225953Y-61951586D01*
X103170020Y-61909714D01*
X103145603Y-61844250D01*
X103147236Y-61818165D01*
X103146903Y-61818133D01*
X103147500Y-61812070D01*
X103147500Y-58727302D01*
X103915000Y-58727302D01*
X103915000Y-58740000D01*
X105150000Y-58740000D01*
X105650000Y-58740000D01*
X106885000Y-58740000D01*
X106885000Y-58727316D01*
X106884999Y-58727302D01*
X106870199Y-58614895D01*
X106870198Y-58614891D01*
X106812263Y-58475021D01*
X106720094Y-58354905D01*
X106599978Y-58262736D01*
X106460108Y-58204801D01*
X106460104Y-58204800D01*
X106347697Y-58190000D01*
X105650000Y-58190000D01*
X105650000Y-58740000D01*
X105150000Y-58740000D01*
X105150000Y-58190000D01*
X104452302Y-58190000D01*
X104339895Y-58204800D01*
X104339891Y-58204801D01*
X104200021Y-58262736D01*
X104079905Y-58354905D01*
X103987736Y-58475021D01*
X103929801Y-58614891D01*
X103929800Y-58614895D01*
X103915000Y-58727302D01*
X103147500Y-58727302D01*
X103147500Y-58232030D01*
X103122502Y-58106363D01*
X103122501Y-58106362D01*
X103122501Y-58106358D01*
X103073465Y-57987975D01*
X103047507Y-57949126D01*
X103002277Y-57881433D01*
X103002275Y-57881431D01*
X103002273Y-57881428D01*
X100474571Y-55353726D01*
X100474567Y-55353723D01*
X100368025Y-55282535D01*
X100249642Y-55233499D01*
X100249636Y-55233497D01*
X100123969Y-55208500D01*
X100123967Y-55208500D01*
X92883431Y-55208500D01*
X92883429Y-55208500D01*
X92757761Y-55233497D01*
X92757755Y-55233499D01*
X92639373Y-55282534D01*
X92639366Y-55282538D01*
X92596698Y-55311046D01*
X92596699Y-55311047D01*
X92532831Y-55353722D01*
X92532827Y-55353725D01*
X92113371Y-55773181D01*
X92052048Y-55806666D01*
X92025690Y-55809500D01*
X91273629Y-55809500D01*
X91273623Y-55809501D01*
X91214016Y-55815908D01*
X91079171Y-55866202D01*
X91079164Y-55866206D01*
X90963955Y-55952452D01*
X90963952Y-55952455D01*
X90877706Y-56067664D01*
X90877702Y-56067671D01*
X90827408Y-56202517D01*
X90821001Y-56262116D01*
X90821000Y-56262135D01*
X90821000Y-57737870D01*
X90821001Y-57737876D01*
X90827408Y-57797483D01*
X90877702Y-57932328D01*
X90877706Y-57932335D01*
X90963952Y-58047544D01*
X90963955Y-58047547D01*
X91079164Y-58133793D01*
X91079171Y-58133797D01*
X91214017Y-58184091D01*
X91214016Y-58184091D01*
X91220944Y-58184835D01*
X91273627Y-58190500D01*
X92339372Y-58190499D01*
X92398983Y-58184091D01*
X92533831Y-58133796D01*
X92570477Y-58106363D01*
X92656145Y-58042232D01*
X92656963Y-58043325D01*
X92710142Y-58014288D01*
X92779834Y-58019272D01*
X92809434Y-58035171D01*
X92820971Y-58043562D01*
X92823954Y-58047546D01*
X92939169Y-58133796D01*
X92951222Y-58138291D01*
X92964934Y-58148264D01*
X92976320Y-58163044D01*
X92991257Y-58174223D01*
X92997199Y-58190148D01*
X93007573Y-58203615D01*
X93009160Y-58222203D01*
X93015683Y-58239684D01*
X93016000Y-58248547D01*
X93016000Y-58794154D01*
X92996315Y-58861193D01*
X92966312Y-58893420D01*
X92887452Y-58952455D01*
X92887324Y-58952584D01*
X92887164Y-58952671D01*
X92880356Y-58957768D01*
X92879623Y-58956789D01*
X92826001Y-58986069D01*
X92756309Y-58981085D01*
X92719708Y-58957562D01*
X92719288Y-58958125D01*
X92597093Y-58866649D01*
X92597086Y-58866645D01*
X92462379Y-58816403D01*
X92462372Y-58816401D01*
X92402844Y-58810000D01*
X92120000Y-58810000D01*
X92120000Y-61190000D01*
X92402828Y-61190000D01*
X92402844Y-61189999D01*
X92462372Y-61183598D01*
X92462379Y-61183596D01*
X92597086Y-61133354D01*
X92597093Y-61133350D01*
X92719288Y-61041875D01*
X92720106Y-61042968D01*
X92773285Y-61013931D01*
X92842977Y-61018915D01*
X92879998Y-61042708D01*
X92880355Y-61042232D01*
X92887012Y-61047215D01*
X92887324Y-61047416D01*
X92887455Y-61047547D01*
X93002664Y-61133793D01*
X93002671Y-61133797D01*
X93137517Y-61184091D01*
X93137516Y-61184091D01*
X93144444Y-61184835D01*
X93197127Y-61190500D01*
X94262872Y-61190499D01*
X94295493Y-61186992D01*
X94364252Y-61199398D01*
X94415389Y-61247009D01*
X94432668Y-61314708D01*
X94410603Y-61381002D01*
X94396428Y-61397963D01*
X93973371Y-61821020D01*
X93912048Y-61854505D01*
X93885690Y-61857339D01*
X93133629Y-61857339D01*
X93133623Y-61857340D01*
X93074016Y-61863747D01*
X92939171Y-61914041D01*
X92939164Y-61914045D01*
X92816855Y-62005607D01*
X92816036Y-62004513D01*
X92762858Y-62033551D01*
X92693166Y-62028567D01*
X92656565Y-62005044D01*
X92656145Y-62005607D01*
X92533835Y-61914045D01*
X92533828Y-61914041D01*
X92398982Y-61863747D01*
X92398983Y-61863747D01*
X92339383Y-61857340D01*
X92339381Y-61857339D01*
X92339373Y-61857339D01*
X92339364Y-61857339D01*
X91273629Y-61857339D01*
X91273623Y-61857340D01*
X91214016Y-61863747D01*
X91079171Y-61914041D01*
X91079164Y-61914045D01*
X90963955Y-62000291D01*
X90963952Y-62000294D01*
X90877706Y-62115503D01*
X90877702Y-62115510D01*
X90827408Y-62250356D01*
X90821001Y-62309955D01*
X90821000Y-62309974D01*
X90821000Y-63785709D01*
X90821001Y-63785715D01*
X90827408Y-63845322D01*
X90877702Y-63980167D01*
X90877706Y-63980174D01*
X90963952Y-64095383D01*
X90963955Y-64095386D01*
X91079164Y-64181632D01*
X91079171Y-64181636D01*
X91214017Y-64231930D01*
X91214016Y-64231930D01*
X91220944Y-64232674D01*
X91273627Y-64238339D01*
X92025691Y-64238338D01*
X92092730Y-64258022D01*
X92113372Y-64274657D01*
X92490476Y-64651762D01*
X92523961Y-64713085D01*
X92518977Y-64782777D01*
X92477105Y-64838710D01*
X92411641Y-64863127D01*
X92389542Y-64862733D01*
X92339373Y-64857339D01*
X92339365Y-64857339D01*
X91273629Y-64857339D01*
X91273623Y-64857340D01*
X91214016Y-64863747D01*
X91079171Y-64914041D01*
X91079164Y-64914045D01*
X90963955Y-65000291D01*
X90963952Y-65000294D01*
X90877706Y-65115503D01*
X90877702Y-65115510D01*
X90844585Y-65204304D01*
X90827409Y-65250356D01*
X90823512Y-65286596D01*
X90796776Y-65351145D01*
X90739384Y-65390993D01*
X90700224Y-65397339D01*
X90288090Y-65397339D01*
X90162422Y-65422336D01*
X90162416Y-65422338D01*
X90094431Y-65450499D01*
X90044038Y-65471372D01*
X90044030Y-65471376D01*
X89937487Y-65542565D01*
X89937486Y-65542566D01*
X86674034Y-68806020D01*
X86612711Y-68839505D01*
X86586353Y-68842339D01*
X85873018Y-68842339D01*
X85805979Y-68822654D01*
X85772300Y-68788247D01*
X85771315Y-68788964D01*
X85643509Y-68613052D01*
X85493186Y-68462729D01*
X85321217Y-68337788D01*
X85311904Y-68333043D01*
X85261107Y-68285069D01*
X85244312Y-68217248D01*
X85266849Y-68151113D01*
X85311907Y-68112071D01*
X85320955Y-68107461D01*
X85375116Y-68068109D01*
X85375117Y-68068109D01*
X84742808Y-67435801D01*
X84806393Y-67418764D01*
X84920407Y-67352938D01*
X85013499Y-67259846D01*
X85079325Y-67145832D01*
X85096362Y-67082248D01*
X85728670Y-67714556D01*
X85728670Y-67714555D01*
X85768022Y-67660393D01*
X85864495Y-67471056D01*
X85930157Y-67268969D01*
X85930157Y-67268966D01*
X85963400Y-67059085D01*
X85963400Y-66846592D01*
X85930157Y-66636711D01*
X85930157Y-66636708D01*
X85864495Y-66434621D01*
X85768024Y-66245288D01*
X85728670Y-66191121D01*
X85728669Y-66191121D01*
X85096362Y-66823429D01*
X85079325Y-66759846D01*
X85013499Y-66645832D01*
X84920407Y-66552740D01*
X84806393Y-66486914D01*
X84742809Y-66469876D01*
X85375116Y-65837567D01*
X85320947Y-65798212D01*
X85320947Y-65798211D01*
X85311900Y-65793602D01*
X85261106Y-65745627D01*
X85244312Y-65677805D01*
X85266851Y-65611671D01*
X85311908Y-65572632D01*
X85321216Y-65567890D01*
X85429735Y-65489047D01*
X85493186Y-65442948D01*
X85493188Y-65442945D01*
X85493192Y-65442943D01*
X85643504Y-65292631D01*
X85643506Y-65292627D01*
X85643509Y-65292625D01*
X85768448Y-65120659D01*
X85768447Y-65120659D01*
X85768451Y-65120655D01*
X85864957Y-64931251D01*
X85930646Y-64729082D01*
X85963900Y-64519126D01*
X85963900Y-64306552D01*
X85930646Y-64096596D01*
X85864957Y-63894427D01*
X85768451Y-63705023D01*
X85768449Y-63705020D01*
X85768448Y-63705018D01*
X85643509Y-63533052D01*
X85493186Y-63382729D01*
X85321220Y-63257790D01*
X85320515Y-63257430D01*
X85312454Y-63253324D01*
X85261659Y-63205351D01*
X85244863Y-63137531D01*
X85267399Y-63071395D01*
X85312454Y-63032354D01*
X85321216Y-63027890D01*
X85358942Y-63000481D01*
X85493186Y-62902948D01*
X85493188Y-62902945D01*
X85493192Y-62902943D01*
X85643504Y-62752631D01*
X85643506Y-62752627D01*
X85643509Y-62752625D01*
X85768448Y-62580659D01*
X85768447Y-62580659D01*
X85768451Y-62580655D01*
X85864957Y-62391251D01*
X85930646Y-62189082D01*
X85963900Y-61979126D01*
X85963900Y-61766552D01*
X85930646Y-61556596D01*
X85864957Y-61354427D01*
X85768451Y-61165023D01*
X85768449Y-61165020D01*
X85768448Y-61165018D01*
X85643509Y-60993052D01*
X85493186Y-60842729D01*
X85348822Y-60737844D01*
X90885000Y-60737844D01*
X90891401Y-60797372D01*
X90891403Y-60797379D01*
X90941645Y-60932086D01*
X90941649Y-60932093D01*
X91027809Y-61047187D01*
X91027812Y-61047190D01*
X91142906Y-61133350D01*
X91142913Y-61133354D01*
X91277620Y-61183596D01*
X91277627Y-61183598D01*
X91337155Y-61189999D01*
X91337172Y-61190000D01*
X91620000Y-61190000D01*
X91620000Y-60250000D01*
X90885000Y-60250000D01*
X90885000Y-60737844D01*
X85348822Y-60737844D01*
X85321220Y-60717790D01*
X85320515Y-60717430D01*
X85312454Y-60713324D01*
X85261659Y-60665351D01*
X85244863Y-60597531D01*
X85267399Y-60531395D01*
X85312454Y-60492354D01*
X85321216Y-60487890D01*
X85343189Y-60471925D01*
X85493186Y-60362948D01*
X85493188Y-60362945D01*
X85493192Y-60362943D01*
X85643504Y-60212631D01*
X85643506Y-60212627D01*
X85643509Y-60212625D01*
X85706625Y-60125753D01*
X85768448Y-60040659D01*
X85768447Y-60040659D01*
X85768451Y-60040655D01*
X85864957Y-59851251D01*
X85930646Y-59649082D01*
X85963900Y-59439126D01*
X85963900Y-59262155D01*
X90885000Y-59262155D01*
X90885000Y-59750000D01*
X91620000Y-59750000D01*
X91620000Y-58810000D01*
X91337155Y-58810000D01*
X91277627Y-58816401D01*
X91277620Y-58816403D01*
X91142913Y-58866645D01*
X91142906Y-58866649D01*
X91027812Y-58952809D01*
X91027809Y-58952812D01*
X90941649Y-59067906D01*
X90941645Y-59067913D01*
X90891403Y-59202620D01*
X90891401Y-59202627D01*
X90885000Y-59262155D01*
X85963900Y-59262155D01*
X85963900Y-59226552D01*
X85930646Y-59016596D01*
X85864957Y-58814427D01*
X85768451Y-58625023D01*
X85768449Y-58625020D01*
X85768448Y-58625018D01*
X85643509Y-58453052D01*
X85529969Y-58339512D01*
X85496484Y-58278189D01*
X85501468Y-58208497D01*
X85543340Y-58152564D01*
X85574315Y-58135649D01*
X85705731Y-58086635D01*
X85820946Y-58000385D01*
X85907196Y-57885170D01*
X85957491Y-57750322D01*
X85963900Y-57690712D01*
X85963899Y-55894967D01*
X85957491Y-55835356D01*
X85952230Y-55821251D01*
X85907197Y-55700510D01*
X85907193Y-55700503D01*
X85820947Y-55585294D01*
X85820944Y-55585291D01*
X85705735Y-55499045D01*
X85705728Y-55499041D01*
X85570882Y-55448747D01*
X85570883Y-55448747D01*
X85511283Y-55442340D01*
X85511281Y-55442339D01*
X85511273Y-55442339D01*
X85511264Y-55442339D01*
X83715529Y-55442339D01*
X83715523Y-55442340D01*
X83655916Y-55448747D01*
X83521071Y-55499041D01*
X83521064Y-55499045D01*
X83405855Y-55585291D01*
X83405852Y-55585294D01*
X83319606Y-55700503D01*
X83319602Y-55700510D01*
X83269308Y-55835356D01*
X83265992Y-55866204D01*
X83262901Y-55894962D01*
X83262900Y-55894974D01*
X81833215Y-55894974D01*
X81798359Y-49070648D01*
X86794100Y-49070648D01*
X86794100Y-49329351D01*
X86834549Y-49584734D01*
X86834568Y-49584854D01*
X86914509Y-49830885D01*
X87031953Y-50061382D01*
X87184008Y-50270668D01*
X87366932Y-50453592D01*
X87576218Y-50605647D01*
X87806715Y-50723091D01*
X88052746Y-50803032D01*
X88148561Y-50818207D01*
X88308249Y-50843500D01*
X88308254Y-50843500D01*
X88566951Y-50843500D01*
X88708894Y-50821017D01*
X88822454Y-50803032D01*
X89068485Y-50723091D01*
X89298982Y-50605647D01*
X89508268Y-50453592D01*
X89691192Y-50270668D01*
X89843247Y-50061382D01*
X89960691Y-49830885D01*
X90040632Y-49584854D01*
X90060516Y-49459312D01*
X90081100Y-49329351D01*
X90081100Y-49070693D01*
X90757000Y-49070693D01*
X90757000Y-49329306D01*
X90797456Y-49584733D01*
X90797456Y-49584734D01*
X90877374Y-49830695D01*
X90994783Y-50061122D01*
X91074963Y-50171481D01*
X91074964Y-50171482D01*
X91617453Y-49628992D01*
X91709469Y-49766704D01*
X91833296Y-49890531D01*
X91971005Y-49982545D01*
X91428516Y-50525034D01*
X91428517Y-50525036D01*
X91538877Y-50605216D01*
X91769304Y-50722625D01*
X92015266Y-50802543D01*
X92270694Y-50843000D01*
X92529306Y-50843000D01*
X92784733Y-50802543D01*
X92784734Y-50802543D01*
X93030695Y-50722625D01*
X93261119Y-50605218D01*
X93371481Y-50525034D01*
X93371482Y-50525034D01*
X92828993Y-49982546D01*
X92966704Y-49890531D01*
X93090531Y-49766704D01*
X93182545Y-49628993D01*
X93725034Y-50171482D01*
X93725034Y-50171481D01*
X93805218Y-50061119D01*
X93922625Y-49830695D01*
X94002543Y-49584734D01*
X94002543Y-49584733D01*
X94043000Y-49329306D01*
X94043000Y-49070693D01*
X94042993Y-49070648D01*
X97708700Y-49070648D01*
X97708700Y-49329351D01*
X97749149Y-49584734D01*
X97749168Y-49584854D01*
X97829109Y-49830885D01*
X97946553Y-50061382D01*
X98098608Y-50270668D01*
X98281532Y-50453592D01*
X98490818Y-50605647D01*
X98721315Y-50723091D01*
X98967346Y-50803032D01*
X99063161Y-50818207D01*
X99222849Y-50843500D01*
X99222854Y-50843500D01*
X99481551Y-50843500D01*
X99623494Y-50821017D01*
X99737054Y-50803032D01*
X99983085Y-50723091D01*
X100213582Y-50605647D01*
X100422868Y-50453592D01*
X100605792Y-50270668D01*
X100757847Y-50061382D01*
X100875291Y-49830885D01*
X100955232Y-49584854D01*
X100975116Y-49459312D01*
X100995700Y-49329351D01*
X100995700Y-49070693D01*
X101671600Y-49070693D01*
X101671600Y-49329306D01*
X101712056Y-49584733D01*
X101712056Y-49584734D01*
X101791974Y-49830695D01*
X101909383Y-50061122D01*
X101989563Y-50171481D01*
X101989564Y-50171482D01*
X102532053Y-49628992D01*
X102624069Y-49766704D01*
X102747896Y-49890531D01*
X102885605Y-49982545D01*
X102343116Y-50525034D01*
X102343117Y-50525036D01*
X102453477Y-50605216D01*
X102683904Y-50722625D01*
X102929866Y-50802543D01*
X103185294Y-50843000D01*
X103443906Y-50843000D01*
X103699333Y-50802543D01*
X103699334Y-50802543D01*
X103945295Y-50722625D01*
X104175719Y-50605218D01*
X104286081Y-50525034D01*
X104286082Y-50525034D01*
X103743593Y-49982546D01*
X103881304Y-49890531D01*
X104005131Y-49766704D01*
X104097145Y-49628993D01*
X104639634Y-50171482D01*
X104639634Y-50171481D01*
X104719818Y-50061119D01*
X104837225Y-49830695D01*
X104917143Y-49584734D01*
X104917143Y-49584733D01*
X104957600Y-49329306D01*
X104957600Y-49070693D01*
X104957593Y-49070648D01*
X108794100Y-49070648D01*
X108794100Y-49329351D01*
X108834549Y-49584734D01*
X108834568Y-49584854D01*
X108914509Y-49830885D01*
X109031953Y-50061382D01*
X109184008Y-50270668D01*
X109366932Y-50453592D01*
X109576218Y-50605647D01*
X109806715Y-50723091D01*
X110052746Y-50803032D01*
X110148561Y-50818207D01*
X110308249Y-50843500D01*
X110308254Y-50843500D01*
X110566951Y-50843500D01*
X110708894Y-50821017D01*
X110822454Y-50803032D01*
X111068485Y-50723091D01*
X111298982Y-50605647D01*
X111508268Y-50453592D01*
X111691192Y-50270668D01*
X111843247Y-50061382D01*
X111960691Y-49830885D01*
X112040632Y-49584854D01*
X112060516Y-49459312D01*
X112081100Y-49329351D01*
X112081100Y-49070693D01*
X112757000Y-49070693D01*
X112757000Y-49329306D01*
X112797456Y-49584733D01*
X112797456Y-49584734D01*
X112877374Y-49830695D01*
X112994783Y-50061122D01*
X113074963Y-50171481D01*
X113074964Y-50171482D01*
X113617453Y-49628992D01*
X113709469Y-49766704D01*
X113833296Y-49890531D01*
X113971005Y-49982545D01*
X113428516Y-50525034D01*
X113428517Y-50525036D01*
X113538877Y-50605216D01*
X113769304Y-50722625D01*
X114015266Y-50802543D01*
X114270694Y-50843000D01*
X114529306Y-50843000D01*
X114784733Y-50802543D01*
X114784734Y-50802543D01*
X115030695Y-50722625D01*
X115261119Y-50605218D01*
X115371481Y-50525034D01*
X115371482Y-50525034D01*
X114828993Y-49982546D01*
X114966704Y-49890531D01*
X115090531Y-49766704D01*
X115182545Y-49628993D01*
X115725034Y-50171482D01*
X115725034Y-50171481D01*
X115805218Y-50061119D01*
X115922625Y-49830695D01*
X116002543Y-49584734D01*
X116002543Y-49584733D01*
X116043000Y-49329306D01*
X116043000Y-49070693D01*
X116042993Y-49070648D01*
X119708700Y-49070648D01*
X119708700Y-49329351D01*
X119749149Y-49584734D01*
X119749168Y-49584854D01*
X119829109Y-49830885D01*
X119946553Y-50061382D01*
X120098608Y-50270668D01*
X120281532Y-50453592D01*
X120490818Y-50605647D01*
X120721315Y-50723091D01*
X120967346Y-50803032D01*
X121063161Y-50818207D01*
X121222849Y-50843500D01*
X121222854Y-50843500D01*
X121481551Y-50843500D01*
X121623494Y-50821017D01*
X121737054Y-50803032D01*
X121983085Y-50723091D01*
X122213582Y-50605647D01*
X122422868Y-50453592D01*
X122605792Y-50270668D01*
X122757847Y-50061382D01*
X122875291Y-49830885D01*
X122955232Y-49584854D01*
X122975116Y-49459312D01*
X122995700Y-49329351D01*
X122995700Y-49070693D01*
X123671600Y-49070693D01*
X123671600Y-49329306D01*
X123712056Y-49584733D01*
X123712056Y-49584734D01*
X123791974Y-49830695D01*
X123909383Y-50061122D01*
X123989563Y-50171481D01*
X123989564Y-50171482D01*
X124532053Y-49628992D01*
X124624069Y-49766704D01*
X124747896Y-49890531D01*
X124885605Y-49982545D01*
X124343116Y-50525034D01*
X124343117Y-50525036D01*
X124453477Y-50605216D01*
X124683904Y-50722625D01*
X124929866Y-50802543D01*
X125185294Y-50843000D01*
X125443906Y-50843000D01*
X125699333Y-50802543D01*
X125699334Y-50802543D01*
X125945295Y-50722625D01*
X126175719Y-50605218D01*
X126286081Y-50525034D01*
X126286082Y-50525034D01*
X125743593Y-49982546D01*
X125881304Y-49890531D01*
X126005131Y-49766704D01*
X126097146Y-49628993D01*
X126639634Y-50171482D01*
X126639634Y-50171481D01*
X126719818Y-50061119D01*
X126837225Y-49830695D01*
X126917143Y-49584734D01*
X126917143Y-49584733D01*
X126957600Y-49329306D01*
X126957600Y-49070693D01*
X126917143Y-48815266D01*
X126917143Y-48815265D01*
X126837225Y-48569304D01*
X126719816Y-48338877D01*
X126639636Y-48228517D01*
X126639634Y-48228516D01*
X126097145Y-48771005D01*
X126005131Y-48633296D01*
X125881304Y-48509469D01*
X125743592Y-48417453D01*
X126286082Y-47874964D01*
X126286081Y-47874963D01*
X126175722Y-47794783D01*
X125945295Y-47677374D01*
X125699333Y-47597456D01*
X125443906Y-47557000D01*
X125185294Y-47557000D01*
X124929866Y-47597456D01*
X124929865Y-47597456D01*
X124683904Y-47677374D01*
X124453484Y-47794779D01*
X124343117Y-47874964D01*
X124343117Y-47874965D01*
X124885606Y-48417453D01*
X124747896Y-48509469D01*
X124624069Y-48633296D01*
X124532053Y-48771006D01*
X123989565Y-48228517D01*
X123989564Y-48228517D01*
X123909379Y-48338884D01*
X123791974Y-48569304D01*
X123712056Y-48815265D01*
X123712056Y-48815266D01*
X123671600Y-49070693D01*
X122995700Y-49070693D01*
X122995700Y-49070648D01*
X122967149Y-48890386D01*
X122955232Y-48815146D01*
X122875291Y-48569115D01*
X122757847Y-48338618D01*
X122605792Y-48129332D01*
X122422868Y-47946408D01*
X122213582Y-47794353D01*
X121983085Y-47676909D01*
X121737054Y-47596968D01*
X121737052Y-47596967D01*
X121737050Y-47596967D01*
X121481551Y-47556500D01*
X121481546Y-47556500D01*
X121222854Y-47556500D01*
X121222849Y-47556500D01*
X120967349Y-47596967D01*
X120721312Y-47676910D01*
X120490817Y-47794353D01*
X120281529Y-47946410D01*
X120098610Y-48129329D01*
X119946553Y-48338617D01*
X119829110Y-48569112D01*
X119749167Y-48815149D01*
X119708700Y-49070648D01*
X116042993Y-49070648D01*
X116002543Y-48815266D01*
X116002543Y-48815265D01*
X115922625Y-48569304D01*
X115805216Y-48338877D01*
X115725036Y-48228517D01*
X115725034Y-48228516D01*
X115182545Y-48771005D01*
X115090531Y-48633296D01*
X114966704Y-48509469D01*
X114828992Y-48417453D01*
X115371482Y-47874964D01*
X115371481Y-47874963D01*
X115261122Y-47794783D01*
X115030695Y-47677374D01*
X114784733Y-47597456D01*
X114529306Y-47557000D01*
X114270694Y-47557000D01*
X114015266Y-47597456D01*
X114015265Y-47597456D01*
X113769304Y-47677374D01*
X113538884Y-47794779D01*
X113428517Y-47874964D01*
X113428517Y-47874965D01*
X113971006Y-48417453D01*
X113833296Y-48509469D01*
X113709469Y-48633296D01*
X113617453Y-48771006D01*
X113074965Y-48228517D01*
X113074964Y-48228517D01*
X112994779Y-48338884D01*
X112877374Y-48569304D01*
X112797456Y-48815265D01*
X112797456Y-48815266D01*
X112757000Y-49070693D01*
X112081100Y-49070693D01*
X112081100Y-49070648D01*
X112052549Y-48890386D01*
X112040632Y-48815146D01*
X111960691Y-48569115D01*
X111843247Y-48338618D01*
X111691192Y-48129332D01*
X111508268Y-47946408D01*
X111298982Y-47794353D01*
X111068485Y-47676909D01*
X110822454Y-47596968D01*
X110822452Y-47596967D01*
X110822450Y-47596967D01*
X110566951Y-47556500D01*
X110566946Y-47556500D01*
X110308254Y-47556500D01*
X110308249Y-47556500D01*
X110052749Y-47596967D01*
X109806712Y-47676910D01*
X109576217Y-47794353D01*
X109366929Y-47946410D01*
X109184010Y-48129329D01*
X109031953Y-48338617D01*
X108914510Y-48569112D01*
X108834567Y-48815149D01*
X108794100Y-49070648D01*
X104957593Y-49070648D01*
X104917143Y-48815266D01*
X104917143Y-48815265D01*
X104837225Y-48569304D01*
X104719816Y-48338877D01*
X104639636Y-48228517D01*
X104639634Y-48228516D01*
X104097145Y-48771005D01*
X104005131Y-48633296D01*
X103881304Y-48509469D01*
X103743592Y-48417453D01*
X104286082Y-47874964D01*
X104286081Y-47874963D01*
X104175722Y-47794783D01*
X103945295Y-47677374D01*
X103699333Y-47597456D01*
X103443906Y-47557000D01*
X103185294Y-47557000D01*
X102929866Y-47597456D01*
X102929865Y-47597456D01*
X102683904Y-47677374D01*
X102453484Y-47794779D01*
X102343117Y-47874964D01*
X102343117Y-47874965D01*
X102885606Y-48417453D01*
X102747896Y-48509469D01*
X102624069Y-48633296D01*
X102532053Y-48771006D01*
X101989565Y-48228517D01*
X101989564Y-48228517D01*
X101909379Y-48338884D01*
X101791974Y-48569304D01*
X101712056Y-48815265D01*
X101712056Y-48815266D01*
X101671600Y-49070693D01*
X100995700Y-49070693D01*
X100995700Y-49070648D01*
X100967149Y-48890386D01*
X100955232Y-48815146D01*
X100875291Y-48569115D01*
X100757847Y-48338618D01*
X100605792Y-48129332D01*
X100422868Y-47946408D01*
X100213582Y-47794353D01*
X99983085Y-47676909D01*
X99737054Y-47596968D01*
X99737052Y-47596967D01*
X99737050Y-47596967D01*
X99481551Y-47556500D01*
X99481546Y-47556500D01*
X99222854Y-47556500D01*
X99222849Y-47556500D01*
X98967349Y-47596967D01*
X98721312Y-47676910D01*
X98490817Y-47794353D01*
X98281529Y-47946410D01*
X98098610Y-48129329D01*
X97946553Y-48338617D01*
X97829110Y-48569112D01*
X97749167Y-48815149D01*
X97708700Y-49070648D01*
X94042993Y-49070648D01*
X94002543Y-48815266D01*
X94002543Y-48815265D01*
X93922625Y-48569304D01*
X93805216Y-48338877D01*
X93725036Y-48228517D01*
X93725034Y-48228516D01*
X93182545Y-48771005D01*
X93090531Y-48633296D01*
X92966704Y-48509469D01*
X92828992Y-48417453D01*
X93371482Y-47874964D01*
X93371481Y-47874963D01*
X93261122Y-47794783D01*
X93030695Y-47677374D01*
X92784733Y-47597456D01*
X92529306Y-47557000D01*
X92270694Y-47557000D01*
X92015266Y-47597456D01*
X92015265Y-47597456D01*
X91769304Y-47677374D01*
X91538884Y-47794779D01*
X91428517Y-47874964D01*
X91428517Y-47874965D01*
X91971006Y-48417453D01*
X91833296Y-48509469D01*
X91709469Y-48633296D01*
X91617453Y-48771006D01*
X91074965Y-48228517D01*
X91074964Y-48228517D01*
X90994779Y-48338884D01*
X90877374Y-48569304D01*
X90797456Y-48815265D01*
X90797456Y-48815266D01*
X90757000Y-49070693D01*
X90081100Y-49070693D01*
X90081100Y-49070648D01*
X90052549Y-48890386D01*
X90040632Y-48815146D01*
X89960691Y-48569115D01*
X89843247Y-48338618D01*
X89691192Y-48129332D01*
X89508268Y-47946408D01*
X89298982Y-47794353D01*
X89068485Y-47676909D01*
X88822454Y-47596968D01*
X88822452Y-47596967D01*
X88822450Y-47596967D01*
X88566951Y-47556500D01*
X88566946Y-47556500D01*
X88308254Y-47556500D01*
X88308249Y-47556500D01*
X88052749Y-47596967D01*
X87806712Y-47676910D01*
X87576217Y-47794353D01*
X87366929Y-47946410D01*
X87184010Y-48129329D01*
X87031953Y-48338617D01*
X86914510Y-48569112D01*
X86834567Y-48815149D01*
X86794100Y-49070648D01*
X81798359Y-49070648D01*
X81787026Y-46851776D01*
X81787249Y-46843707D01*
X81803309Y-46578134D01*
X81805114Y-46563275D01*
X81852462Y-46304889D01*
X81856041Y-46290370D01*
X81934191Y-46039563D01*
X81939500Y-46025567D01*
X82047298Y-45786045D01*
X82047308Y-45786022D01*
X82054261Y-45772775D01*
X82190167Y-45547952D01*
X82198648Y-45535664D01*
X82360671Y-45328854D01*
X82370578Y-45317671D01*
X82556344Y-45131902D01*
X82567535Y-45121988D01*
X82774333Y-44959971D01*
X82786634Y-44951481D01*
X83011448Y-44815574D01*
X83024684Y-44808626D01*
X83264252Y-44700805D01*
X83278234Y-44695503D01*
X83529035Y-44617349D01*
X83543552Y-44613770D01*
X83801948Y-44566417D01*
X83816805Y-44564613D01*
X84082119Y-44548565D01*
X84089606Y-44548339D01*
X84152392Y-44548339D01*
X131720608Y-44548339D01*
X131782749Y-44548339D01*
X131790236Y-44548565D01*
G37*
%TD.AperFunction*%
%TD*%
M02*
