%TF.GenerationSoftware,KiCad,Pcbnew,9.0.7*%
%TF.CreationDate,2026-02-28T11:21:03-05:00*%
%TF.ProjectId,pcb,7063622e-6b69-4636-9164-5f7063625858,rev?*%
%TF.SameCoordinates,Original*%
%TF.FileFunction,Soldermask,Bot*%
%TF.FilePolarity,Negative*%
%FSLAX46Y46*%
G04 Gerber Fmt 4.6, Leading zero omitted, Abs format (unit mm)*
G04 Created by KiCad (PCBNEW 9.0.7) date 2026-02-28 11:21:03*
%MOMM*%
%LPD*%
G01*
G04 APERTURE LIST*
G04 Aperture macros list*
%AMRoundRect*
0 Rectangle with rounded corners*
0 $1 Rounding radius*
0 $2 $3 $4 $5 $6 $7 $8 $9 X,Y pos of 4 corners*
0 Add a 4 corners polygon primitive as box body*
4,1,4,$2,$3,$4,$5,$6,$7,$8,$9,$2,$3,0*
0 Add four circle primitives for the rounded corners*
1,1,$1+$1,$2,$3*
1,1,$1+$1,$4,$5*
1,1,$1+$1,$6,$7*
1,1,$1+$1,$8,$9*
0 Add four rect primitives between the rounded corners*
20,1,$1+$1,$2,$3,$4,$5,0*
20,1,$1+$1,$4,$5,$6,$7,0*
20,1,$1+$1,$6,$7,$8,$9,0*
20,1,$1+$1,$8,$9,$2,$3,0*%
G04 Aperture macros list end*
%ADD10RoundRect,0.200000X1.000000X-1.000000X1.000000X1.000000X-1.000000X1.000000X-1.000000X-1.000000X0*%
%ADD11C,2.400000*%
%ADD12C,2.686000*%
%ADD13RoundRect,0.200000X-0.900000X0.900000X-0.900000X-0.900000X0.900000X-0.900000X0.900000X0.900000X0*%
%ADD14C,2.200000*%
%ADD15C,1.900000*%
%ADD16RoundRect,0.200000X0.850000X0.850000X-0.850000X0.850000X-0.850000X-0.850000X0.850000X-0.850000X0*%
%ADD17C,2.100000*%
G04 APERTURE END LIST*
D10*
%TO.C,RV3*%
X112695000Y-79627839D03*
D11*
X112695000Y-77087839D03*
X112695000Y-74547839D03*
%TD*%
D12*
%TO.C,J1*%
X105387600Y-118800000D03*
X101425200Y-118800000D03*
%TD*%
D10*
%TO.C,RV2*%
X112695000Y-94627839D03*
D11*
X112695000Y-92087839D03*
X112695000Y-89547839D03*
%TD*%
D12*
%TO.C,TH3*%
X110437600Y-49200000D03*
X114400000Y-49200000D03*
%TD*%
D13*
%TO.C,D1*%
X91935000Y-114855000D03*
D14*
X91935000Y-117395000D03*
%TD*%
D12*
%TO.C,TH2*%
X99352200Y-49200000D03*
X103314600Y-49200000D03*
%TD*%
D10*
%TO.C,RV4*%
X112800000Y-64627839D03*
D11*
X112800000Y-62087839D03*
X112800000Y-59547839D03*
%TD*%
D12*
%TO.C,TH4*%
X121352200Y-49200000D03*
X125314600Y-49200000D03*
%TD*%
D15*
%TO.C,TP3*%
X102991500Y-81642839D03*
%TD*%
%TO.C,TP1*%
X102991500Y-110142839D03*
%TD*%
%TO.C,TP4*%
X102991500Y-66547839D03*
%TD*%
D12*
%TO.C,TH1*%
X88437600Y-49200000D03*
X92400000Y-49200000D03*
%TD*%
%TO.C,J2*%
X123962400Y-118800000D03*
X120000000Y-118800000D03*
X116037600Y-118800000D03*
X112075200Y-118800000D03*
%TD*%
D15*
%TO.C,TP2*%
X102991500Y-95547839D03*
%TD*%
D10*
%TO.C,RV1*%
X112695000Y-108127839D03*
D11*
X112695000Y-105587839D03*
X112695000Y-103047839D03*
%TD*%
D16*
%TO.C,power2*%
X84613400Y-56792839D03*
D17*
X84613400Y-59332839D03*
X84613400Y-61872839D03*
X84613400Y-64412839D03*
X84613400Y-66952839D03*
X84613400Y-69492839D03*
X84613400Y-72032839D03*
X84613400Y-74572839D03*
%TD*%
D16*
%TO.C,analogA0-A7*%
X84613400Y-79792839D03*
D17*
X84613400Y-82332839D03*
X84613400Y-84872839D03*
X84613400Y-87412839D03*
X84613400Y-89952839D03*
X84613400Y-92492839D03*
X84613400Y-95032839D03*
X84613400Y-97572839D03*
%TD*%
D16*
%TO.C,comm1*%
X131913400Y-97672839D03*
D17*
X131913400Y-100212839D03*
X131913400Y-102752839D03*
X131913400Y-105292839D03*
X131913400Y-107832839D03*
X131913400Y-110372839D03*
X131913400Y-112912839D03*
X131913400Y-115452839D03*
%TD*%
D16*
%TO.C,analogA8-A15*%
X84583400Y-102692839D03*
D17*
X84583400Y-105232839D03*
X84583400Y-107772839D03*
X84583400Y-110312839D03*
X84583400Y-112852839D03*
X84583400Y-115392839D03*
X84583400Y-117932839D03*
X84583400Y-120472839D03*
%TD*%
D16*
%TO.C,pwm1*%
X131913400Y-47682839D03*
D17*
X131913400Y-50222839D03*
X131913400Y-52762839D03*
X131913400Y-55302839D03*
X131913400Y-57842839D03*
X131913400Y-60382839D03*
X131913400Y-62922839D03*
X131913400Y-65462839D03*
X131913400Y-68002839D03*
X131913400Y-70542839D03*
%TD*%
D16*
%TO.C,pwm2*%
X131913400Y-74672839D03*
D17*
X131913400Y-77212839D03*
X131913400Y-79752839D03*
X131913400Y-82292839D03*
X131913400Y-84832839D03*
X131913400Y-87372839D03*
X131913400Y-89912839D03*
X131913400Y-92452839D03*
%TD*%
M02*
